<?xml version="1.0" encoding="UTF-8"?>
<svg id="Layer_1" xmlns="http://www.w3.org/2000/svg" viewBox="0 0 600 254.18">
  <defs>
    <style>
      .cls-1 {
        fill: #f6941d;
      }

      .cls-2 {
        fill: #231f20;
      }

      .cls-3 {
        fill: #fce039;
      }

      .cls-4 {
        fill: #e863a3;
      }
    </style>
  </defs>
  <g>
    <g>
      <polygon class="cls-4" points="56.95 39.61 55.3 81.27 55.3 81.27 55.21 83.35 53.37 82.37 53.37 82.37 47.43 79.21 36.57 73.42 34.39 77.04 32.57 122.87 32.57 122.87 32.49 124.96 30.65 123.98 30.65 123.98 24.04 120.46 12.07 114.08 3.11 128.94 77.19 172.74 77.19 93.77 77.19 91.85 77.19 6.02 56.95 39.61"/>
      <polygon class="cls-4" points="28.45 180.08 77.19 248.76 77.19 190.45 28.45 161.65 28.45 180.08"/>
    </g>
    <g>
      <polygon class="cls-3" points="25.84 176.39 25.84 160.11 5.93 148.35 25.84 176.39"/>
      <polygon class="cls-3" points="139.21 104.6 104.12 123.11 104.12 120.94 104.12 83.18 79.81 92.74 79.81 172.74 153.88 128.94 139.21 104.6"/>
      <polygon class="cls-3" points="104.79 188.76 104.79 175.69 79.81 190.45 79.81 248.76 124.84 185.3 125.44 175.59 104.79 191.41 104.79 188.76"/>
    </g>
    <g>
      <polygon class="cls-1" points="106.74 118.77 137.86 102.36 79.81 6.02 79.81 89.93 106.74 79.34 106.74 81.26 106.74 118.77"/>
      <polygon class="cls-1" points="78.5 1.31 78.5 1.31 78.5 1.31 78.5 1.31"/>
      <polygon class="cls-1" points="30.04 120.68 31.58 81.7 13.42 111.83 30.04 120.68"/>
      <polygon class="cls-1" points="52.76 79.08 54.14 44.26 37.92 71.18 52.76 79.08"/>
      <polygon class="cls-1" points="151.06 148.35 128.54 161.65 128.54 161.65 107.41 174.14 107.41 186.11 128.42 170.02 127.71 181.25 134.64 171.49 134.64 171.49 134.92 171.09 151.06 148.35"/>
      <polygon class="cls-1" points="127.81 160.57 127.81 160.56 127.81 160.56 127.81 160.57"/>
      <polygon class="cls-1" points="135.71 172.25 135.71 172.25 135.7 172.25 135.71 172.25"/>
    </g>
    <g>
      <path class="cls-2" d="M.64,130.52l77.19,45.64s0,0,0,0c0,0,0,0,0,0,.08.05.17.08.25.1.02,0,.04.02.06.02.11.03.23.05.34.05.04,0,.08-.01.13-.02.07,0,.14,0,.21-.03.05-.01.09-.04.14-.06.06-.02.12-.04.18-.07,0,0,0,0,0,0,0,0,0,0,.01,0l77.19-45.64c.46-.27.7-.79.63-1.32-.03-.19-.1-.37-.2-.53l-15.24-25.3h0S79.62.64,79.62.64h-.02c-.23-.37-.63-.64-1.1-.64s-.86.23-1.09.59c-.02.02-.03.05-.05.08l-20.2,33.52h0s-22.91,38.01-22.91,38.01l-24.5,40.66h0S.23,128.66.23,128.66c-.12.18-.2.38-.22.6-.05.51.19,1,.64,1.27ZM153.88,128.94l-74.07,43.8v-80l24.32-9.55v39.92l35.09-18.51,14.67,24.34ZM79.81,6.02l58.05,96.34-31.12,16.41v-39.42l-26.94,10.58V6.02ZM78.5,1.31h0s0,0,0,0h0ZM54.14,44.26l-1.38,34.82-14.84-7.9,16.22-26.92ZM31.58,81.7l-1.54,38.98-16.62-8.85,18.16-30.14ZM12.07,114.08l11.97,6.38,6.61,3.52s0,0,0,0l1.84.98.08-2.08s0,0,0,0l1.81-45.83,2.18-3.62,10.87,5.79,5.94,3.16s0,0,0,0l1.84.98.08-2.08s0,0,0,0l1.65-41.66L77.19,6.02v166.72L3.11,128.94l8.96-14.86Z"/>
      <path class="cls-2" d="M156.64,143.21c-.42-.46-1.1-.56-1.63-.24l-15.25,9.01h0s-34.98,20.67-34.98,20.67h0s-26.29,15.54-26.29,15.54l-50.69-29.95-25.83-15.26c-.53-.31-1.21-.21-1.63.24-.42.45-.46,1.14-.1,1.64l25.83,36.41,51.35,72.37s0,0,0,0c.01.02.03.03.04.04.06.08.14.16.22.22.03.02.06.04.1.06.08.05.16.09.25.12.02,0,.04.02.06.03.01,0,.03,0,.04,0,.12.03.24.06.36.06s.24-.02.36-.06c.01,0,.03,0,.04,0,.02,0,.04-.02.06-.03.09-.03.17-.07.25-.12.03-.02.06-.04.1-.06.08-.06.16-.14.22-.22.01-.02.03-.03.04-.04,0,0,0,0,0,0l44.96-63.37.1-.15,2.56-3.6s0,0,0,0l9.58-13.51h0s19.98-28.15,19.98-28.15c.36-.5.31-1.19-.1-1.64ZM25.84,176.39l-19.9-28.05,19.9,11.76v16.29ZM28.45,180.08v-18.43l48.73,28.8v58.32s-48.73-68.68-48.73-68.68ZM127.81,160.56h0s0,0,0,0h0ZM124.84,185.3l-45.03,63.46v-58.31l24.98-14.76v15.73l20.65-15.82-.61,9.71ZM135.71,172.25h0s0,0,0,0h0ZM134.92,171.09l-.28.4h0s-6.92,9.76-6.92,9.76l.7-11.23-21.01,16.09v-11.97l21.13-12.49h0s22.52-13.3,22.52-13.3l-16.14,22.74Z"/>
    </g>
  </g>
  <g>
    <polygon points="234.19 124.95 275.28 124.95 275.28 106.27 234.19 106.27 234.19 83.32 272.12 83.32 272.12 64.63 234.19 64.63 234.19 43.33 274.32 43.33 274.32 24.64 234.19 24.64 231.44 24.64 212.2 24.64 212.2 124.95 231.44 124.95 234.19 124.95"/>
    <polygon points="312.38 124.95 334.92 124.95 334.92 44.29 363.22 44.29 363.22 24.64 284.21 24.64 284.21 44.29 312.38 44.29 312.38 124.95"/>
    <polygon points="398.54 84.42 440.87 84.42 440.87 124.95 463.4 124.95 463.4 24.64 440.87 24.64 440.87 64.63 398.54 64.63 398.54 24.64 376.01 24.64 376.01 124.95 398.54 124.95 398.54 84.42"/>
    <path d="M235.84,139.19l-33.12,100.32h22.54l7.94-24.87h41.91l8.14,24.87h23.36l-34.35-100.32h-36.42ZM239.16,195.94l12.24-38.34h5.03l12.55,38.34h-29.82Z"/>
    <path d="M362.06,217.31c-1.24,1.88-2.88,3.34-4.95,4.39-2.06,1.06-4.56,1.58-7.49,1.58-3.94,0-7.13-.89-9.55-2.68-2.43-1.79-4.19-4.3-5.29-7.56-1.1-3.25-1.65-6.89-1.65-10.93,0-4.4.59-8.2,1.79-11.41,1.19-3.2,3-5.72,5.43-7.56,2.43-1.83,5.47-2.75,9.14-2.75,4.4,0,7.77,1.17,10.1,3.5,2.34,2.34,3.69,5.2,4.05,8.59h21.57c-.37-6.05-2.11-11.41-5.22-16.08-3.12-4.67-7.28-8.32-12.51-10.93s-11.22-3.92-18-3.92c-6.23,0-11.75,1.05-16.56,3.16-4.81,2.11-8.82,4.99-12.02,8.66-3.21,3.66-5.63,7.86-7.28,12.57-1.65,4.72-2.47,9.64-2.47,14.77v2.61c0,4.95.78,9.74,2.34,14.36,1.56,4.63,3.94,8.77,7.15,12.44,3.21,3.67,7.22,6.57,12.03,8.73,4.81,2.15,10.47,3.23,16.97,3.23s12.83-1.3,18.14-3.92c5.31-2.61,9.57-6.27,12.78-10.99,3.2-4.72,4.95-10.19,5.22-16.42h-21.44c-.27,2.47-1.03,4.65-2.27,6.53Z"/>
    <path d="M444.65,217.31c-1.24,1.88-2.88,3.34-4.95,4.39-2.06,1.06-4.56,1.58-7.49,1.58-3.94,0-7.12-.89-9.55-2.68-2.43-1.79-4.19-4.3-5.29-7.56-1.1-3.25-1.65-6.89-1.65-10.93,0-4.4.59-8.2,1.79-11.41,1.19-3.2,3-5.72,5.43-7.56,2.43-1.83,5.47-2.75,9.14-2.75,4.4,0,7.76,1.17,10.1,3.5,2.34,2.34,3.69,5.2,4.05,8.59h21.57c-.37-6.05-2.11-11.41-5.22-16.08-3.12-4.67-7.28-8.32-12.51-10.93-5.22-2.61-11.22-3.92-18-3.92-6.23,0-11.75,1.05-16.56,3.16-4.81,2.11-8.82,4.99-12.02,8.66-3.21,3.66-5.63,7.86-7.29,12.57-1.65,4.72-2.47,9.64-2.47,14.77v2.61c0,4.95.78,9.74,2.34,14.36,1.56,4.63,3.94,8.77,7.14,12.44,3.21,3.67,7.22,6.57,12.03,8.73,4.81,2.15,10.47,3.23,16.97,3.23s12.83-1.3,18.14-3.92c5.31-2.61,9.57-6.27,12.78-10.99,3.2-4.72,4.95-10.19,5.22-16.42h-21.44c-.27,2.47-1.03,4.65-2.27,6.53Z"/>
    <path d="M504.84,171.89c-3.43,4.36-5.55,10.12-6.39,17.25v-24.95h-17.45v75.31h21.99v-38.34c0-6.14,1.65-10.83,4.95-14.09,3.3-3.25,7.97-4.88,14.02-4.88h5.5v-18.96h-2.89c-8.61,0-15.18,2.88-19.72,8.66Z"/>
    <path d="M595.88,176.22c-2.75-4.44-6.76-7.77-12.02-9.96-5.27-2.2-11.75-3.3-19.44-3.3-2.66,0-5.5.05-8.52.14-3.02.09-5.95.23-8.79.41-2.84.19-5.31.37-7.42.55v18.55c2.84-.18,6-.36,9.48-.55,3.48-.18,6.87-.32,10.17-.41,3.3-.09,5.95-.14,7.97-.14,4.03,0,6.96.96,8.8,2.88,1.83,1.92,2.75,4.81,2.75,8.66v.27h-13.61c-6.69,0-12.6.85-17.73,2.54-5.13,1.7-9.12,4.31-11.96,7.83-2.84,3.53-4.26,8.04-4.26,13.54,0,5.04,1.14,9.37,3.43,12.99,2.29,3.62,5.47,6.39,9.55,8.31,4.07,1.93,8.82,2.89,14.22,2.89s9.64-.96,13.26-2.89c3.62-1.92,6.46-4.67,8.52-8.25.92-1.59,1.67-3.35,2.27-5.27v14.48h17.45v-46.17c0-6.96-1.37-12.66-4.12-17.11ZM571.76,224.87c-1.97.87-4.19,1.31-6.66,1.31-3.85,0-6.8-.94-8.86-2.82-2.06-1.88-3.09-4.33-3.09-7.35,0-3.2,1.03-5.75,3.09-7.63,2.06-1.87,5.01-2.81,8.86-2.81h13.74v6.04c-.19,3.76-.92,6.69-2.2,8.8-1.28,2.11-2.91,3.6-4.88,4.46Z"/>
  </g>
</svg>