<?xml version="1.0" encoding="UTF-8"?>
<svg xmlns="http://www.w3.org/2000/svg" xmlns:xlink="http://www.w3.org/1999/xlink" version="1.1" viewBox="0 0 2400 2400">
  <defs>
    <style>
      .cls-1 {
        fill: none;
      }

      .cls-2 {
        fill: #f6941d;
      }

      .cls-3 {
        fill: #231f20;
      }

      .cls-4 {
        fill: #fce039;
      }

      .cls-5 {
        fill: url(#New_Pattern_5);
      }

      .cls-6 {
        fill: #e863a3;
      }
    </style>
    <pattern id="New_Pattern_5" data-name="New Pattern 5" x="0" y="0" width="900" height="1414" patternTransform="translate(-4387.2 -2927.9) scale(.5)" patternUnits="userSpaceOnUse" viewBox="0 0 900 1414">
      <g>
        <rect class="cls-1" width="900" height="1414"/>
        <g>
          <g>
            <polygon class="cls-6" points="622.2 1170.8 618 1276.6 618 1276.6 617.8 1281.9 613.1 1279.4 613.1 1279.4 598 1271.4 570.4 1256.7 564.9 1265.9 560.3 1382.3 560.3 1382.3 560.1 1387.6 555.4 1385.1 555.4 1385.1 538.6 1376.1 508.2 1359.9 485.5 1397.7 673.6 1508.9 673.6 1308.4 673.6 1303.5 673.6 1085.5 622.2 1170.8"/>
            <polygon class="cls-4" points="831.1 1335.9 742 1382.9 742 1377.4 742 1281.5 680.2 1305.7 680.2 1508.9 868.3 1397.7 831.1 1335.9"/>
            <g>
              <polygon class="cls-2" points="748.6 1371.9 827.6 1330.2 680.2 1085.5 680.2 1298.6 748.6 1271.7 748.6 1276.6 748.6 1371.9"/>
              <polygon class="cls-2" points="676.9 1073.6 676.9 1073.6 676.9 1073.6 676.9 1073.6"/>
              <polygon class="cls-2" points="553.8 1376.7 557.7 1277.7 511.6 1354.2 553.8 1376.7"/>
              <polygon class="cls-2" points="611.5 1271.1 615 1182.6 573.8 1251 611.5 1271.1"/>
            </g>
            <path class="cls-3" d="M477.6,1398.5c0-.6.3-1.1.6-1.5l24.2-40.1h0s62.2-103.3,62.2-103.3l58.2-96.5h0s51.3-85.1,51.3-85.1c0,0,0-.1.1-.2.6-.9,1.6-1.5,2.8-1.5s2.2.7,2.8,1.6h0s157.2,260.9,157.2,260.9h0s38.7,64.2,38.7,64.2c.3.4.4.9.5,1.3.2,1.3-.4,2.7-1.6,3.3l-196,115.9s0,0,0,0c0,0,0,0,0,0-.1,0-.3.1-.4.2-.1,0-.2.1-.3.1-.2,0-.4,0-.5,0-.1,0-.2,0-.3,0-.3,0-.6,0-.9-.1,0,0,0,0-.1,0-.2,0-.4-.1-.6-.3,0,0,0,0,0,0,0,0,0,0,0,0l-196-115.9c-1.1-.7-1.8-1.9-1.6-3.2ZM831.1,1335.9l-89.1,47v-101.4l-61.8,24.3v203.2l188.1-111.2-37.2-61.8ZM680.2,1298.6l68.4-26.9v100.1l79-41.7-147.4-244.7v213.1ZM676.9,1073.6h0s0,0,0,0ZM573.8,1251l37.7,20.1,3.5-88.4-41.2,68.4ZM511.6,1354.2l42.2,22.5,3.9-99-46.1,76.5ZM485.5,1397.7l188.1,111.2v-423.4l-51.4,85.3-4.2,105.8s0,0,0,0l-.2,5.3-4.7-2.5s0,0,0,0l-15.1-8-27.6-14.7-5.5,9.2-4.6,116.4s0,0,0,0l-.2,5.3-4.7-2.5s0,0,0,0l-16.8-8.9-30.4-16.2-22.7,37.7Z"/>
          </g>
          <g>
            <g>
              <polygon class="cls-4" points="745.8 1116.6 834.9 1069.6 834.9 1075.1 834.9 1171 896.7 1146.7 896.7 943.6 708.6 1054.8 745.8 1116.6"/>
              <polygon class="cls-4" points="833.2 902.9 833.2 936.1 896.7 898.6 896.7 750.5 782.3 911.7 780.8 936.3 833.2 896.1 833.2 902.9"/>
            </g>
            <g>
              <polygon class="cls-2" points="828.3 1080.6 749.2 1122.3 896.7 1367 896.7 1153.9 828.3 1180.8 828.3 1175.9 828.3 1080.6"/>
              <polygon class="cls-2" points="900 1378.9 900 1378.9 900 1378.9 900 1378.9"/>
              <polygon class="cls-2" points="715.7 1005.5 772.9 971.7 772.9 971.7 826.6 940 826.6 909.6 773.2 950.5 775 922 757.4 946.7 757.4 946.7 756.7 947.8 715.7 1005.5"/>
              <polygon class="cls-2" points="774.8 974.5 774.8 974.5 774.8 974.5 774.8 974.5"/>
              <polygon class="cls-2" points="754.7 944.8 754.7 944.8 754.7 944.8 754.7 944.8"/>
            </g>
            <g>
              <path class="cls-3" d="M1099.3,1054c0,.6-.3,1.1-.6,1.5l-24.2,40.1h0s-62.2,103.3-62.2,103.3l-58.2,96.5h0s-51.3,85.1-51.3,85.1c0,0,0,.1-.1.2-.6.9-1.6,1.5-2.8,1.5s-2.2-.7-2.8-1.6h0s-157.2-260.9-157.2-260.9h0s-38.7-64.2-38.7-64.2c-.3-.4-.4-.9-.5-1.3-.2-1.3.4-2.7,1.6-3.3l196-115.9s0,0,0,0c0,0,0,0,0,0,.1,0,.3-.1.4-.2.1,0,.2-.1.3-.1.2,0,.4,0,.5,0,.1,0,.2,0,.3,0,.3,0,.6,0,.9.1,0,0,0,0,.1,0,.2,0,.4.1.6.3,0,0,0,0,0,0,0,0,0,0,0,0l196,115.9c1.1.7,1.8,1.9,1.6,3.2ZM745.8,1116.6l89.1-47v101.4l61.8-24.3v-203.2l-188.1,111.2,37.2,61.8ZM896.7,1153.9l-68.4,26.9v-100.1l-79,41.7,147.4,244.7v-213.1ZM900,1378.9h0s0,0,0,0ZM1003,1201.5l-37.7-20.1-3.5,88.4,41.2-68.4ZM1065.3,1098.2l-42.2-22.5-3.9,99,46.1-76.5ZM1091.4,1054.8l-188.1-111.2v423.4l51.4-85.3,4.2-105.8s0,0,0,0l.2-5.3,4.7,2.5s0,0,0,0l15.1,8,27.6,14.7,5.5-9.2,4.6-116.4s0,0,0,0l.2-5.3,4.7,2.5s0,0,0,0l16.8,8.9,30.4,16.2,22.7-37.7Z"/>
              <path class="cls-3" d="M701.3,1014.4l50.7-71.5h0s24.3-34.3,24.3-34.3c0,0,0,0,0,0l6.5-9.2.3-.4,114.2-160.9s0,0,0,0c0,0,0,0,0-.1.2-.2.4-.4.6-.6,0,0,.2-.1.2-.2.2-.1.4-.2.6-.3,0,0,0,0,.2,0,0,0,0,0,0,0,.3,0,.6-.1.9-.1s.6,0,.9.1c0,0,0,0,0,0,0,0,.1,0,.2,0,.2,0,.4.2.6.3,0,0,.2.1.2.2.2.2.4.4.6.6,0,0,0,0,0,.1,0,0,0,0,0,0l130.4,183.8,65.6,92.5c.9,1.3.8,3-.3,4.2-1.1,1.2-2.8,1.4-4.1.6l-65.6-38.8-128.7-76.1-66.8,39.5h0s-88.8,52.5-88.8,52.5h0s-38.7,22.9-38.7,22.9c-1.4.8-3.1.5-4.1-.6-1.1-1.2-1.2-2.9-.3-4.2ZM1033.7,975.6l50.5,29.9-50.5-71.2v41.4ZM903.3,750.5v148.1s123.8,73.1,123.8,73.1v-46.8l-123.8-174.4ZM774.8,974.5h0s0,0,0,0h0ZM780.8,936.3l52.5-40.2v39.9l63.4-37.5v-148.1l-114.4,161.2-1.5,24.7ZM754.7,944.8h0s0,0,0,0h0ZM715.7,1005.5l57.2-33.8h0s53.7-31.7,53.7-31.7v-30.4l-53.4,40.9,1.8-28.5-17.6,24.8h0s-.7,1-.7,1l-41,57.8Z"/>
            </g>
          </g>
        </g>
        <g>
          <g>
            <polygon class="cls-6" points="168.4 1170.8 164.2 1276.6 164.2 1276.6 164 1281.9 159.3 1279.4 159.3 1279.4 144.2 1271.4 116.6 1256.7 111.1 1265.9 106.5 1382.3 106.5 1382.3 106.3 1387.6 101.6 1385.1 101.6 1385.1 84.8 1376.1 54.4 1359.9 31.7 1397.7 219.8 1508.9 219.8 1308.4 219.8 1303.5 219.8 1085.5 168.4 1170.8"/>
            <polygon class="cls-4" points="377.3 1335.9 288.2 1382.9 288.2 1377.4 288.2 1281.5 226.4 1305.7 226.4 1508.9 414.6 1397.7 377.3 1335.9"/>
            <g>
              <polygon class="cls-2" points="294.8 1371.9 373.9 1330.2 226.4 1085.5 226.4 1298.6 294.8 1271.7 294.8 1276.6 294.8 1371.9"/>
              <polygon class="cls-2" points="223.1 1073.6 223.1 1073.6 223.1 1073.6 223.1 1073.6"/>
              <polygon class="cls-2" points="100.1 1376.7 104 1277.7 57.9 1354.2 100.1 1376.7"/>
              <polygon class="cls-2" points="157.8 1271.1 161.3 1182.6 120.1 1251 157.8 1271.1"/>
            </g>
            <path class="cls-3" d="M23.8,1398.5c0-.6.3-1.1.6-1.5l24.2-40.1h0s62.2-103.3,62.2-103.3l58.2-96.5h0s51.3-85.1,51.3-85.1c0,0,0-.1.1-.2.6-.9,1.6-1.5,2.8-1.5s2.2.7,2.8,1.6h0s157.2,260.9,157.2,260.9h0s38.7,64.2,38.7,64.2c.3.4.4.9.5,1.3.2,1.3-.4,2.7-1.6,3.3l-196,115.9s0,0,0,0c0,0,0,0,0,0-.1,0-.3.1-.4.2-.1,0-.2.1-.3.1-.2,0-.4,0-.5,0-.1,0-.2,0-.3,0-.3,0-.6,0-.9-.1,0,0,0,0-.1,0-.2,0-.4-.1-.6-.3,0,0,0,0,0,0,0,0,0,0,0,0l-196-115.9c-1.1-.7-1.8-1.9-1.6-3.2ZM377.3,1335.9l-89.1,47v-101.4l-61.8,24.3v203.2l188.1-111.2-37.2-61.8ZM226.4,1298.6l68.4-26.9v100.1l79-41.7-147.4-244.7v213.1ZM223.1,1073.6h0s0,0,0,0ZM120.1,1251l37.7,20.1,3.5-88.4-41.2,68.4ZM57.9,1354.2l42.2,22.5,3.9-99-46.1,76.5ZM31.7,1397.7l188.1,111.2v-423.4l-51.4,85.3-4.2,105.8s0,0,0,0l-.2,5.3-4.7-2.5s0,0,0,0l-15.1-8-27.6-14.7-5.5,9.2-4.6,116.4s0,0,0,0l-.2,5.3-4.7-2.5s0,0,0,0l-16.8-8.9-30.4-16.2-22.7,37.7Z"/>
          </g>
          <g>
            <g>
              <polygon class="cls-6" points="54.7 1281.7 58.9 1175.9 58.9 1175.9 59.1 1170.6 63.8 1173.1 63.8 1173.1 78.9 1181.1 106.5 1195.8 112 1186.6 116.6 1070.2 116.6 1070.2 116.8 1064.9 121.5 1067.4 121.5 1067.4 138.3 1076.3 168.7 1092.5 191.4 1054.8 3.3 943.6 3.3 1144.1 3.3 1149 3.3 1367 54.7 1281.7"/>
              <polygon class="cls-6" points="127.1 924.9 3.3 750.5 3.3 898.6 127.1 971.7 127.1 924.9"/>
            </g>
            <polygon class="cls-4" points="133.7 934.3 133.7 975.6 184.3 1005.5 133.7 934.3"/>
            <g>
              <polygon class="cls-2" points="123.1 1075.8 119.1 1174.8 165.3 1098.2 123.1 1075.8"/>
              <polygon class="cls-2" points="65.3 1181.4 61.8 1269.8 103 1201.5 65.3 1181.4"/>
            </g>
            <g>
              <path class="cls-3" d="M199.3,1054c0,.6-.3,1.1-.6,1.5l-24.2,40.1h0s-62.2,103.3-62.2,103.3l-58.2,96.5h0s-51.3,85.1-51.3,85.1c0,0,0,.1-.1.2-.6.9-1.6,1.5-2.8,1.5s-2.2-.7-2.8-1.6h0s-157.2-260.9-157.2-260.9h0s-38.7-64.2-38.7-64.2c-.3-.4-.4-.9-.5-1.3-.2-1.3.4-2.7,1.6-3.3L-1.7,934.9s0,0,0,0c0,0,0,0,0,0,.1,0,.3-.1.4-.2.1,0,.2-.1.3-.1.2,0,.4,0,.5,0,.1,0,.2,0,.3,0,.3,0,.6,0,.9.1,0,0,0,0,.1,0,.2,0,.4.1.6.3,0,0,0,0,0,0,0,0,0,0,0,0l196,115.9c1.1.7,1.8,1.9,1.6,3.2ZM-154.2,1116.6l89.1-47v101.4l61.8-24.3v-203.2l-188.1,111.2,37.2,61.8ZM-3.3,1153.9l-68.4,26.9v-100.1l-79,41.7L-3.3,1367v-213.1ZM0,1378.9h0s0,0,0,0ZM103,1201.5l-37.7-20.1-3.5,88.4,41.2-68.4ZM165.3,1098.2l-42.2-22.5-3.9,99,46.1-76.5ZM191.4,1054.8L3.3,943.6v423.4l51.4-85.3,4.2-105.8s0,0,0,0l.2-5.3,4.7,2.5s0,0,0,0l15.1,8,27.6,14.7,5.5-9.2,4.6-116.4s0,0,0,0l.2-5.3,4.7,2.5s0,0,0,0l16.8,8.9,30.4,16.2,22.7-37.7Z"/>
              <path class="cls-3" d="M-198.7,1014.4l50.7-71.5h0s24.3-34.3,24.3-34.3c0,0,0,0,0,0l6.5-9.2.3-.4L-2.7,738.1s0,0,0,0c0,0,0,0,0-.1.2-.2.4-.4.6-.6,0,0,.2-.1.2-.2.2-.1.4-.2.6-.3,0,0,0,0,.2,0,0,0,0,0,0,0,.3,0,.6-.1.9-.1s.6,0,.9.1c0,0,0,0,0,0,0,0,.1,0,.2,0,.2,0,.4.2.6.3,0,0,.2.1.2.2.2.2.4.4.6.6,0,0,0,0,0,.1,0,0,0,0,0,0l130.4,183.8,65.6,92.5c.9,1.3.8,3-.3,4.2-1.1,1.2-2.8,1.4-4.1.6l-65.6-38.8L0,904.3l-66.8,39.5h0s-88.8,52.5-88.8,52.5h0s-38.7,22.9-38.7,22.9c-1.4.8-3.1.5-4.1-.6-1.1-1.2-1.2-2.9-.3-4.2ZM133.7,975.6l50.5,29.9-50.5-71.2v41.4ZM3.3,750.5v148.1s123.8,73.1,123.8,73.1v-46.8L3.3,750.5ZM-125.2,974.5h0s0,0,0,0h0ZM-119.2,936.3l52.5-40.2v39.9l63.4-37.5v-148.1l-114.4,161.2-1.5,24.7ZM-145.3,944.8h0s0,0,0,0h0ZM-184.3,1005.5l57.2-33.8h0s53.7-31.7,53.7-31.7v-30.4l-53.4,40.9,1.8-28.5-17.6,24.8h0s-.7,1-.7,1l-41,57.8Z"/>
            </g>
          </g>
        </g>
        <g>
          <g>
            <g>
              <g>
                <polygon class="cls-6" points="172.2 463.8 168 569.6 168 569.6 167.8 574.9 163.1 572.4 163.1 572.4 148 564.4 120.4 549.7 114.9 558.9 110.3 675.3 110.3 675.3 110.1 680.6 105.4 678.1 105.4 678.1 88.6 669.1 58.2 652.9 35.5 690.7 223.6 801.9 223.6 601.4 223.6 596.5 223.6 378.5 172.2 463.8"/>
                <polygon class="cls-6" points="99.8 820.6 223.6 995 223.6 846.9 99.8 773.8 99.8 820.6"/>
              </g>
              <g>
                <polygon class="cls-4" points="93.2 811.2 93.2 769.8 42.6 740 93.2 811.2"/>
                <polygon class="cls-4" points="381.1 628.9 292 675.9 292 670.4 292 574.5 230.2 598.7 230.2 801.9 418.3 690.7 381.1 628.9"/>
                <polygon class="cls-4" points="293.7 842.6 293.7 809.4 230.2 846.9 230.2 995 344.6 833.8 346.1 809.2 293.7 849.3 293.7 842.6"/>
              </g>
              <g>
                <polygon class="cls-2" points="298.6 664.9 377.6 623.2 230.2 378.5 230.2 591.6 298.6 564.7 298.6 569.6 298.6 664.9"/>
                <polygon class="cls-2" points="226.9 366.6 226.9 366.6 226.9 366.6 226.9 366.6"/>
                <polygon class="cls-2" points="103.8 669.7 107.7 570.7 61.6 647.2 103.8 669.7"/>
                <polygon class="cls-2" points="161.5 564.1 165 475.6 123.8 544 161.5 564.1"/>
                <polygon class="cls-2" points="411.2 740 354 773.8 354 773.8 300.3 805.5 300.3 835.9 353.7 795 351.9 823.5 369.5 798.7 369.5 798.7 370.2 797.7 411.2 740"/>
                <polygon class="cls-2" points="352.1 771 352.1 771 352.1 771 352.1 771"/>
                <polygon class="cls-2" points="372.2 800.7 372.2 800.7 372.2 800.7 372.2 800.7"/>
              </g>
              <g>
                <path class="cls-3" d="M27.6,691.5c0-.6.3-1.1.6-1.5l24.2-40.1h0s62.2-103.3,62.2-103.3l58.2-96.5h0s51.3-85.1,51.3-85.1c0,0,0-.1.1-.2.6-.9,1.6-1.5,2.8-1.5s2.2.7,2.8,1.6h0s157.2,260.9,157.2,260.9h0s38.7,64.2,38.7,64.2c.3.4.4.9.5,1.3.2,1.3-.4,2.7-1.6,3.3l-196,115.9s0,0,0,0c0,0,0,0,0,0-.1,0-.3.1-.4.2-.1,0-.2.1-.3.1-.2,0-.4,0-.5,0-.1,0-.2,0-.3,0-.3,0-.6,0-.9-.1,0,0,0,0-.1,0-.2,0-.4-.1-.6-.3,0,0,0,0,0,0,0,0,0,0,0,0l-196-115.9c-1.1-.7-1.8-1.9-1.6-3.2ZM381.1,628.9l-89.1,47v-101.4l-61.8,24.3v203.2l188.1-111.2-37.2-61.8ZM230.2,591.6l68.4-26.9v100.1l79-41.7-147.4-244.7v213.1ZM226.9,366.6h0s0,0,0,0ZM123.8,544l37.7,20.1,3.5-88.4-41.2,68.4ZM61.6,647.2l42.2,22.5,3.9-99-46.1,76.5ZM35.5,690.7l188.1,111.2v-423.4l-51.4,85.3-4.2,105.8s0,0,0,0l-.2,5.3-4.7-2.5s0,0,0,0l-15.1-8-27.6-14.7-5.5,9.2-4.6,116.4s0,0,0,0l-.2,5.3-4.7-2.5s0,0,0,0l-16.8-8.9-30.4-16.2-22.7,37.7Z"/>
                <path class="cls-3" d="M425.6,731.1l-50.7,71.5h0s-24.3,34.3-24.3,34.3c0,0,0,0,0,0l-6.5,9.2-.3.4-114.2,160.9s0,0,0,0c0,0,0,0,0,.1-.2.2-.4.4-.6.6,0,0-.2.1-.2.2-.2.1-.4.2-.6.3,0,0,0,0-.2,0,0,0,0,0,0,0-.3,0-.6.1-.9.1s-.6,0-.9-.1c0,0,0,0,0,0,0,0-.1,0-.2,0-.2,0-.4-.2-.6-.3,0,0-.2-.1-.2-.2-.2-.2-.4-.4-.6-.6,0,0,0,0,0-.1,0,0,0,0,0,0l-130.4-183.8-65.6-92.5c-.9-1.3-.8-3,.3-4.2,1.1-1.2,2.8-1.4,4.1-.6l65.6,38.8,128.7,76.1,66.8-39.5h0s88.8-52.5,88.8-52.5h0s38.7-22.9,38.7-22.9c1.4-.8,3.1-.5,4.1.6,1.1,1.2,1.2,2.9.3,4.2ZM93.2,769.8l-50.5-29.9,50.5,71.2v-41.4ZM223.6,995v-148.1s-123.8-73.1-123.8-73.1v46.8l123.8,174.4ZM352.1,771h0s0,0,0,0h0ZM346.1,809.2l-52.5,40.2v-39.9l-63.4,37.5v148.1l114.4-161.2,1.5-24.7ZM372.2,800.7h0s0,0,0,0h0ZM411.2,740l-57.2,33.8h0s-53.7,31.7-53.7,31.7v30.4l53.4-40.9-1.8,28.5,17.6-24.8h0s.7-1,.7-1l41-57.8Z"/>
              </g>
            </g>
            <g>
              <g>
                <polygon class="cls-6" points="618.4 463.8 614.2 569.6 614.2 569.6 614 574.9 609.3 572.4 609.3 572.4 594.2 564.4 566.6 549.7 561.1 558.9 556.5 675.3 556.5 675.3 556.3 680.6 551.6 678.1 551.6 678.1 534.8 669.1 504.4 652.9 481.7 690.7 669.8 801.9 669.8 601.4 669.8 596.5 669.8 378.5 618.4 463.8"/>
                <polygon class="cls-6" points="546 820.6 669.8 995 669.8 846.9 546 773.8 546 820.6"/>
              </g>
              <g>
                <polygon class="cls-4" points="539.4 811.2 539.4 769.8 488.8 740 539.4 811.2"/>
                <polygon class="cls-4" points="827.3 628.9 738.2 675.9 738.2 670.4 738.2 574.5 676.4 598.7 676.4 801.9 864.6 690.7 827.3 628.9"/>
                <polygon class="cls-4" points="739.9 842.6 739.9 809.4 676.4 846.9 676.4 995 790.8 833.8 792.3 809.2 739.9 849.3 739.9 842.6"/>
              </g>
              <g>
                <polygon class="cls-2" points="744.8 664.9 823.9 623.2 676.4 378.5 676.4 591.6 744.8 564.7 744.8 569.6 744.8 664.9"/>
                <polygon class="cls-2" points="673.1 366.6 673.1 366.6 673.1 366.6 673.1 366.6"/>
                <polygon class="cls-2" points="550.1 669.7 554 570.7 507.9 647.2 550.1 669.7"/>
                <polygon class="cls-2" points="607.8 564.1 611.3 475.6 570.1 544 607.8 564.1"/>
                <polygon class="cls-2" points="857.4 740 800.2 773.8 800.2 773.8 746.5 805.5 746.5 835.9 799.9 795 798.1 823.5 815.7 798.7 815.7 798.7 816.4 797.7 857.4 740"/>
                <polygon class="cls-2" points="798.3 771 798.3 771 798.3 771 798.3 771"/>
                <polygon class="cls-2" points="818.4 800.7 818.4 800.7 818.4 800.7 818.4 800.7"/>
              </g>
              <g>
                <path class="cls-3" d="M473.8,691.5c0-.6.3-1.1.6-1.5l24.2-40.1h0s62.2-103.3,62.2-103.3l58.2-96.5h0s51.3-85.1,51.3-85.1c0,0,0-.1.1-.2.6-.9,1.6-1.5,2.8-1.5s2.2.7,2.8,1.6h0s157.2,260.9,157.2,260.9h0s38.7,64.2,38.7,64.2c.3.4.4.9.5,1.3.2,1.3-.4,2.7-1.6,3.3l-196,115.9s0,0,0,0c0,0,0,0,0,0-.1,0-.3.1-.4.2-.1,0-.2.1-.3.1-.2,0-.4,0-.5,0-.1,0-.2,0-.3,0-.3,0-.6,0-.9-.1,0,0,0,0-.1,0-.2,0-.4-.1-.6-.3,0,0,0,0,0,0,0,0,0,0,0,0l-196-115.9c-1.1-.7-1.8-1.9-1.6-3.2ZM827.3,628.9l-89.1,47v-101.4l-61.8,24.3v203.2l188.1-111.2-37.2-61.8ZM676.4,591.6l68.4-26.9v100.1l79-41.7-147.4-244.7v213.1ZM673.1,366.6h0s0,0,0,0ZM570.1,544l37.7,20.1,3.5-88.4-41.2,68.4ZM507.9,647.2l42.2,22.5,3.9-99-46.1,76.5ZM481.7,690.7l188.1,111.2v-423.4l-51.4,85.3-4.2,105.8s0,0,0,0l-.2,5.3-4.7-2.5s0,0,0,0l-15.1-8-27.6-14.7-5.5,9.2-4.6,116.4s0,0,0,0l-.2,5.3-4.7-2.5s0,0,0,0l-16.8-8.9-30.4-16.2-22.7,37.7Z"/>
                <path class="cls-3" d="M871.8,731.1l-50.7,71.5h0s-24.3,34.3-24.3,34.3c0,0,0,0,0,0l-6.5,9.2-.3.4-114.2,160.9s0,0,0,0c0,0,0,0,0,.1-.2.2-.4.4-.6.6,0,0-.2.1-.2.2-.2.1-.4.2-.6.3,0,0,0,0-.2,0,0,0,0,0,0,0-.3,0-.6.1-.9.1s-.6,0-.9-.1c0,0,0,0,0,0,0,0-.1,0-.2,0-.2,0-.4-.2-.6-.3,0,0-.2-.1-.2-.2-.2-.2-.4-.4-.6-.6,0,0,0,0,0-.1,0,0,0,0,0,0l-130.4-183.8-65.6-92.5c-.9-1.3-.8-3,.3-4.2,1.1-1.2,2.8-1.4,4.1-.6l65.6,38.8,128.7,76.1,66.8-39.5h0s88.8-52.5,88.8-52.5h0s38.7-22.9,38.7-22.9c1.4-.8,3.1-.5,4.1.6,1.1,1.2,1.2,2.9.3,4.2ZM539.4,769.8l-50.5-29.9,50.5,71.2v-41.4ZM669.8,995v-148.1s-123.8-73.1-123.8-73.1v46.8l123.8,174.4ZM798.3,771h0s0,0,0,0h0ZM792.3,809.2l-52.5,40.2v-39.9l-63.4,37.5v148.1l114.4-161.2,1.5-24.7ZM818.4,800.7h0s0,0,0,0h0ZM857.4,740l-57.2,33.8h0s-53.7,31.7-53.7,31.7v30.4l53.4-40.9-1.8,28.5,17.6-24.8h0s.7-1,.7-1l41-57.8Z"/>
              </g>
            </g>
          </g>
          <g>
            <g>
              <g>
                <polygon class="cls-6" points="504.7 574.7 508.9 468.9 508.9 468.9 509.1 463.6 513.8 466.1 513.8 466.1 528.9 474.1 556.5 488.8 562 479.6 566.6 363.2 566.6 363.2 566.8 357.9 571.5 360.4 571.5 360.4 588.3 369.3 618.7 385.5 641.4 347.8 453.3 236.6 453.3 437.1 453.3 442 453.3 660 504.7 574.7"/>
                <polygon class="cls-6" points="577.1 217.9 453.3 43.5 453.3 191.6 577.1 264.7 577.1 217.9"/>
              </g>
              <g>
                <polygon class="cls-4" points="583.7 227.3 583.7 268.6 634.3 298.5 583.7 227.3"/>
                <polygon class="cls-4" points="295.8 409.6 384.9 362.6 384.9 368.1 384.9 464 446.7 439.7 446.7 236.6 258.6 347.8 295.8 409.6"/>
                <polygon class="cls-4" points="383.2 195.9 383.2 229.1 446.7 191.6 446.7 43.5 332.3 204.7 330.8 229.3 383.2 189.1 383.2 195.9"/>
              </g>
              <g>
                <polygon class="cls-2" points="378.3 373.6 299.2 415.3 446.7 660 446.7 446.9 378.3 473.8 378.3 468.9 378.3 373.6"/>
                <polygon class="cls-2" points="450 671.9 450 671.9 450 671.9 450 671.9"/>
                <polygon class="cls-2" points="573.1 368.8 569.1 467.8 615.3 391.2 573.1 368.8"/>
                <polygon class="cls-2" points="515.3 474.4 511.8 562.8 553 494.5 515.3 474.4"/>
                <polygon class="cls-2" points="265.7 298.5 322.9 264.7 322.9 264.7 376.6 233 376.6 202.6 323.2 243.5 325 215 307.4 239.7 307.4 239.7 306.7 240.8 265.7 298.5"/>
                <polygon class="cls-2" points="324.8 267.5 324.8 267.5 324.8 267.5 324.8 267.5"/>
                <polygon class="cls-2" points="304.7 237.8 304.7 237.8 304.7 237.8 304.7 237.8"/>
              </g>
              <g>
                <path class="cls-3" d="M649.3,347c0,.6-.3,1.1-.6,1.5l-24.2,40.1h0s-62.2,103.3-62.2,103.3l-58.2,96.5h0s-51.3,85.1-51.3,85.1c0,0,0,.1-.1.2-.6.9-1.6,1.5-2.8,1.5s-2.2-.7-2.8-1.6h0s-157.2-260.9-157.2-260.9h0s-38.7-64.2-38.7-64.2c-.3-.4-.4-.9-.5-1.3-.2-1.3.4-2.7,1.6-3.3l196-115.9s0,0,0,0c0,0,0,0,0,0,.1,0,.3-.1.4-.2.1,0,.2-.1.3-.1.2,0,.4,0,.5,0,.1,0,.2,0,.3,0,.3,0,.6,0,.9.1,0,0,0,0,.1,0,.2,0,.4.1.6.3,0,0,0,0,0,0,0,0,0,0,0,0l196,115.9c1.1.7,1.8,1.9,1.6,3.2ZM295.8,409.6l89.1-47v101.4l61.8-24.3v-203.2l-188.1,111.2,37.2,61.8ZM446.7,446.9l-68.4,26.9v-100.1l-79,41.7,147.4,244.7v-213.1ZM450,671.9h0s0,0,0,0ZM553,494.5l-37.7-20.1-3.5,88.4,41.2-68.4ZM615.3,391.2l-42.2-22.5-3.9,99,46.1-76.5ZM641.4,347.8l-188.1-111.2v423.4l51.4-85.3,4.2-105.8s0,0,0,0l.2-5.3,4.7,2.5s0,0,0,0l15.1,8,27.6,14.7,5.5-9.2,4.6-116.4s0,0,0,0l.2-5.3,4.7,2.5s0,0,0,0l16.8,8.9,30.4,16.2,22.7-37.7Z"/>
                <path class="cls-3" d="M251.3,307.4l50.7-71.5h0s24.3-34.3,24.3-34.3c0,0,0,0,0,0l6.5-9.2.3-.4L447.3,31.1s0,0,0,0c0,0,0,0,0-.1.2-.2.4-.4.6-.6,0,0,.2-.1.2-.2.2-.1.4-.2.6-.3,0,0,0,0,.2,0,0,0,0,0,0,0,.3,0,.6-.1.9-.1s.6,0,.9.1c0,0,0,0,0,0,0,0,.1,0,.2,0,.2,0,.4.2.6.3,0,0,.2.1.2.2.2.2.4.4.6.6,0,0,0,0,0,.1,0,0,0,0,0,0l130.4,183.8,65.6,92.5c.9,1.3.8,3-.3,4.2-1.1,1.2-2.8,1.4-4.1.6l-65.6-38.8-128.7-76.1-66.8,39.5h0s-88.8,52.5-88.8,52.5h0s-38.7,22.9-38.7,22.9c-1.4.8-3.1.5-4.1-.6-1.1-1.2-1.2-2.9-.3-4.2ZM583.7,268.6l50.5,29.9-50.5-71.2v41.4ZM453.3,43.5v148.1s123.8,73.1,123.8,73.1v-46.8l-123.8-174.4ZM324.8,267.5h0s0,0,0,0h0ZM330.8,229.3l52.5-40.2v39.9l63.4-37.5V43.5l-114.4,161.2-1.5,24.7ZM304.7,237.8h0s0,0,0,0h0ZM265.7,298.5l57.2-33.8h0s53.7-31.7,53.7-31.7v-30.4l-53.4,40.9,1.8-28.5-17.6,24.8h0s-.7,1-.7,1l-41,57.8Z"/>
              </g>
            </g>
            <g>
              <g>
                <polygon class="cls-6" points="504.7 1283.7 508.9 1177.9 508.9 1177.9 509.1 1172.6 513.8 1175.1 513.8 1175.1 528.9 1183.1 556.5 1197.8 562 1188.6 566.6 1072.2 566.6 1072.2 566.8 1066.9 571.5 1069.4 571.5 1069.4 588.3 1078.4 618.7 1094.5 641.4 1056.8 453.3 945.6 453.3 1146.1 453.3 1151 453.3 1369 504.7 1283.7"/>
                <polygon class="cls-6" points="577.1 926.9 453.3 752.5 453.3 900.6 577.1 973.7 577.1 926.9"/>
              </g>
              <g>
                <polygon class="cls-4" points="583.7 936.3 583.7 977.7 634.3 1007.5 583.7 936.3"/>
                <polygon class="cls-4" points="295.8 1118.6 384.9 1071.6 384.9 1077.1 384.9 1173 446.7 1148.7 446.7 945.6 258.6 1056.8 295.8 1118.6"/>
                <polygon class="cls-4" points="383.2 904.9 383.2 938.1 446.7 900.6 446.7 752.5 332.3 913.7 330.8 938.3 383.2 898.2 383.2 904.9"/>
              </g>
              <g>
                <polygon class="cls-2" points="378.3 1082.6 299.2 1124.3 446.7 1369 446.7 1155.9 378.3 1182.8 378.3 1177.9 378.3 1082.6"/>
                <polygon class="cls-2" points="450 1380.9 450 1380.9 450 1380.9 450 1380.9"/>
                <polygon class="cls-2" points="573.1 1077.8 569.1 1176.8 615.3 1100.2 573.1 1077.8"/>
                <polygon class="cls-2" points="515.3 1183.4 511.8 1271.9 553 1203.5 515.3 1183.4"/>
                <polygon class="cls-2" points="265.7 1007.5 322.9 973.7 322.9 973.7 376.6 942 376.6 911.6 323.2 952.5 325 924 307.4 948.8 307.4 948.8 306.7 949.8 265.7 1007.5"/>
                <polygon class="cls-2" points="324.8 976.5 324.8 976.5 324.8 976.5 324.8 976.5"/>
                <polygon class="cls-2" points="304.7 946.8 304.7 946.8 304.7 946.8 304.7 946.8"/>
              </g>
              <g>
                <path class="cls-3" d="M649.3,1056c0,.6-.3,1.1-.6,1.5l-24.2,40.1h0s-62.2,103.3-62.2,103.3l-58.2,96.5h0s-51.3,85.1-51.3,85.1c0,0,0,.1-.1.2-.6.9-1.6,1.5-2.8,1.5s-2.2-.7-2.8-1.6h0s-157.2-260.9-157.2-260.9h0s-38.7-64.2-38.7-64.2c-.3-.4-.4-.9-.5-1.3-.2-1.3.4-2.7,1.6-3.3l196-115.9s0,0,0,0c0,0,0,0,0,0,.1,0,.3-.1.4-.2.1,0,.2-.1.3-.1.2,0,.4,0,.5,0,.1,0,.2,0,.3,0,.3,0,.6,0,.9.1,0,0,0,0,.1,0,.2,0,.4.1.6.3,0,0,0,0,0,0,0,0,0,0,0,0l196,115.9c1.1.7,1.8,1.9,1.6,3.2ZM295.8,1118.6l89.1-47v101.4l61.8-24.3v-203.2l-188.1,111.2,37.2,61.8ZM446.7,1155.9l-68.4,26.9v-100.1l-79,41.7,147.4,244.7v-213.1ZM450,1380.9h0s0,0,0,0ZM553,1203.5l-37.7-20.1-3.5,88.4,41.2-68.4ZM615.3,1100.2l-42.2-22.5-3.9,99,46.1-76.5ZM641.4,1056.8l-188.1-111.2v423.4l51.4-85.3,4.2-105.8s0,0,0,0l.2-5.3,4.7,2.5s0,0,0,0l15.1,8,27.6,14.7,5.5-9.2,4.6-116.4s0,0,0,0l.2-5.3,4.7,2.5s0,0,0,0l16.8,8.9,30.4,16.2,22.7-37.7Z"/>
                <path class="cls-3" d="M251.3,1016.4l50.7-71.5h0s24.3-34.3,24.3-34.3c0,0,0,0,0,0l6.5-9.2.3-.4,114.2-160.9s0,0,0,0c0,0,0,0,0-.1.2-.2.4-.4.6-.6,0,0,.2-.1.2-.2.2-.1.4-.2.6-.3,0,0,0,0,.2,0,0,0,0,0,0,0,.3,0,.6-.1.9-.1s.6,0,.9.1c0,0,0,0,0,0,0,0,.1,0,.2,0,.2,0,.4.2.6.3,0,0,.2.1.2.2.2.2.4.4.6.6,0,0,0,0,0,.1,0,0,0,0,0,0l130.4,183.8,65.6,92.5c.9,1.3.8,3-.3,4.2-1.1,1.2-2.8,1.4-4.1.6l-65.6-38.8-128.7-76.1-66.8,39.5h0s-88.8,52.5-88.8,52.5h0s-38.7,22.9-38.7,22.9c-1.4.8-3.1.5-4.1-.6-1.1-1.2-1.2-2.9-.3-4.2ZM583.7,977.7l50.5,29.9-50.5-71.2v41.4ZM453.3,752.5v148.1s123.8,73.1,123.8,73.1v-46.8l-123.8-174.4ZM324.8,976.5h0s0,0,0,0h0ZM330.8,938.3l52.5-40.2v39.9l63.4-37.5v-148.1l-114.4,161.2-1.5,24.7ZM304.7,946.8h0s0,0,0,0h0ZM265.7,1007.5l57.2-33.8h0s53.7-31.7,53.7-31.7v-30.4l-53.4,40.9,1.8-28.5-17.6,24.8h0s-.7,1-.7,1l-41,57.8Z"/>
              </g>
            </g>
          </g>
        </g>
        <g>
          <g>
            <g>
              <polygon class="cls-6" points="622.2 -243.2 618 -137.4 618 -137.4 617.8 -132.1 613.1 -134.6 613.1 -134.6 598 -142.6 570.4 -157.3 564.9 -148.1 560.3 -31.7 560.3 -31.7 560.1 -26.4 555.4 -28.9 555.4 -28.9 538.6 -37.9 508.2 -54.1 485.5 -16.3 673.6 94.9 673.6 -105.6 673.6 -110.5 673.6 -328.5 622.2 -243.2"/>
              <polygon class="cls-6" points="549.8 113.6 673.6 288 673.6 139.9 549.8 66.8 549.8 113.6"/>
            </g>
            <g>
              <polygon class="cls-4" points="543.2 104.2 543.2 62.8 492.6 33 543.2 104.2"/>
              <polygon class="cls-4" points="831.1 -78.1 742 -31.1 742 -36.6 742 -132.5 680.2 -108.3 680.2 94.9 868.3 -16.3 831.1 -78.1"/>
              <polygon class="cls-4" points="743.7 135.6 743.7 102.4 680.2 139.9 680.2 288 794.6 126.8 796.1 102.2 743.7 142.3 743.7 135.6"/>
            </g>
            <g>
              <polygon class="cls-2" points="861.2 33 804 66.8 804 66.8 750.3 98.5 750.3 128.9 803.7 88 801.9 116.5 819.5 91.7 819.5 91.7 820.2 90.7 861.2 33"/>
              <polygon class="cls-2" points="802.1 64 802.1 64 802.1 64 802.1 64"/>
              <polygon class="cls-2" points="822.2 93.7 822.2 93.7 822.2 93.7 822.2 93.7"/>
            </g>
            <g>
              <path class="cls-3" d="M477.6-15.5c0-.6.3-1.1.6-1.5l24.2-40.1h0s62.2-103.3,62.2-103.3l58.2-96.5h0s51.3-85.1,51.3-85.1c0,0,0-.1.1-.2.6-.9,1.6-1.5,2.8-1.5s2.2.7,2.8,1.6h0s157.2,260.9,157.2,260.9h0s38.7,64.2,38.7,64.2c.3.4.4.9.5,1.3.2,1.3-.4,2.7-1.6,3.3l-196,115.9s0,0,0,0c0,0,0,0,0,0-.1,0-.3.1-.4.2-.1,0-.2.1-.3.1-.2,0-.4,0-.5,0-.1,0-.2,0-.3,0-.3,0-.6,0-.9-.1,0,0,0,0-.1,0-.2,0-.4-.1-.6-.3,0,0,0,0,0,0,0,0,0,0,0,0L479.2-12.3c-1.1-.7-1.8-1.9-1.6-3.2ZM831.1-78.1l-89.1,47v-101.4l-61.8,24.3V94.9l188.1-111.2-37.2-61.8ZM680.2-115.4l68.4-26.9V-42.1l79-41.7-147.4-244.7V-115.4ZM676.9-340.4h0s0,0,0,0ZM573.8-163l37.7,20.1,3.5-88.4-41.2,68.4ZM511.6-59.8l42.2,22.5,3.9-99-46.1,76.5ZM485.5-16.3l188.1,111.2v-423.4l-51.4,85.3-4.2,105.8s0,0,0,0l-.2,5.3-4.7-2.5s0,0,0,0l-15.1-8-27.6-14.7-5.5,9.2-4.6,116.4s0,0,0,0l-.2,5.3-4.7-2.5s0,0,0,0l-16.8-8.9-30.4-16.2-22.7,37.7Z"/>
              <path class="cls-3" d="M875.6,24.1l-50.7,71.5h0s-24.3,34.3-24.3,34.3c0,0,0,0,0,0l-6.5,9.2-.3.4-114.2,160.9s0,0,0,0c0,0,0,0,0,.1-.2.2-.4.4-.6.6,0,0-.2.1-.2.2-.2.1-.4.2-.6.3,0,0,0,0-.2,0,0,0,0,0,0,0-.3,0-.6.1-.9.1s-.6,0-.9-.1c0,0,0,0,0,0,0,0-.1,0-.2,0-.2,0-.4-.2-.6-.3,0,0-.2-.1-.2-.2-.2-.2-.4-.4-.6-.6,0,0,0,0,0-.1,0,0,0,0,0,0l-130.4-183.8-65.6-92.5c-.9-1.3-.8-3,.3-4.2,1.1-1.2,2.8-1.4,4.1-.6l65.6,38.8,128.7,76.1,66.8-39.5h0s88.8-52.5,88.8-52.5h0s38.7-22.9,38.7-22.9c1.4-.8,3.1-.5,4.1.6,1.1,1.2,1.2,2.9.3,4.2ZM543.2,62.8l-50.5-29.9,50.5,71.2v-41.4ZM673.6,288v-148.1s-123.8-73.1-123.8-73.1v46.8l123.8,174.4ZM802.1,64h0s0,0,0,0h0ZM796.1,102.2l-52.5,40.2v-39.9l-63.4,37.5v148.1l114.4-161.2,1.5-24.7ZM822.2,93.7h0s0,0,0,0h0ZM861.2,33l-57.2,33.8h0s-53.7,31.7-53.7,31.7v30.4l53.4-40.9-1.8,28.5,17.6-24.8h0s.7-1,.7-1l41-57.8Z"/>
            </g>
          </g>
          <g>
            <g>
              <polygon class="cls-4" points="745.8 411.6 834.9 364.6 834.9 370.1 834.9 466 896.7 441.7 896.7 238.6 708.6 349.8 745.8 411.6"/>
              <polygon class="cls-4" points="833.2 197.9 833.2 231.1 896.7 193.6 896.7 45.5 782.3 206.7 780.8 231.3 833.2 191.2 833.2 197.9"/>
            </g>
            <g>
              <polygon class="cls-2" points="828.3 375.6 749.2 417.3 896.7 662 896.7 448.9 828.3 475.8 828.3 470.9 828.3 375.6"/>
              <polygon class="cls-2" points="900 673.9 900 673.9 900 673.9 900 673.9"/>
              <polygon class="cls-2" points="715.7 300.5 772.9 266.7 772.9 266.7 826.6 235 826.6 204.6 773.2 245.5 775 217 757.4 241.8 757.4 241.8 756.7 242.8 715.7 300.5"/>
              <polygon class="cls-2" points="774.8 269.5 774.8 269.5 774.8 269.5 774.8 269.5"/>
              <polygon class="cls-2" points="754.7 239.8 754.7 239.8 754.7 239.8 754.7 239.8"/>
            </g>
            <g>
              <path class="cls-3" d="M1099.3,349c0,.6-.3,1.1-.6,1.5l-24.2,40.1h0s-62.2,103.3-62.2,103.3l-58.2,96.5h0s-51.3,85.1-51.3,85.1c0,0,0,.1-.1.2-.6.9-1.6,1.5-2.8,1.5s-2.2-.7-2.8-1.6h0s-157.2-260.9-157.2-260.9h0s-38.7-64.2-38.7-64.2c-.3-.4-.4-.9-.5-1.3-.2-1.3.4-2.7,1.6-3.3l196-115.9s0,0,0,0c0,0,0,0,0,0,.1,0,.3-.1.4-.2.1,0,.2-.1.3-.1.2,0,.4,0,.5,0,.1,0,.2,0,.3,0,.3,0,.6,0,.9.1,0,0,0,0,.1,0,.2,0,.4.1.6.3,0,0,0,0,0,0,0,0,0,0,0,0l196,115.9c1.1.7,1.8,1.9,1.6,3.2ZM745.8,411.6l89.1-47v101.4l61.8-24.3v-203.2l-188.1,111.2,37.2,61.8ZM896.7,448.9l-68.4,26.9v-100.1l-79,41.7,147.4,244.7v-213.1ZM900,673.9h0s0,0,0,0ZM1003,496.5l-37.7-20.1-3.5,88.4,41.2-68.4ZM1065.3,393.2l-42.2-22.5-3.9,99,46.1-76.5ZM1091.4,349.8l-188.1-111.2v423.4l51.4-85.3,4.2-105.8s0,0,0,0l.2-5.3,4.7,2.5s0,0,0,0l15.1,8,27.6,14.7,5.5-9.2,4.6-116.4s0,0,0,0l.2-5.3,4.7,2.5s0,0,0,0l16.8,8.9,30.4,16.2,22.7-37.7Z"/>
              <path class="cls-3" d="M701.3,309.4l50.7-71.5h0s24.3-34.3,24.3-34.3c0,0,0,0,0,0l6.5-9.2.3-.4,114.2-160.9s0,0,0,0c0,0,0,0,0-.1.2-.2.4-.4.6-.6,0,0,.2-.1.2-.2.2-.1.4-.2.6-.3,0,0,0,0,.2,0,0,0,0,0,0,0,.3,0,.6-.1.9-.1s.6,0,.9.1c0,0,0,0,0,0,0,0,.1,0,.2,0,.2,0,.4.2.6.3,0,0,.2.1.2.2.2.2.4.4.6.6,0,0,0,0,0,.1,0,0,0,0,0,0l130.4,183.8,65.6,92.5c.9,1.3.8,3-.3,4.2-1.1,1.2-2.8,1.4-4.1.6l-65.6-38.8-128.7-76.1-66.8,39.5h0s-88.8,52.5-88.8,52.5h0s-38.7,22.9-38.7,22.9c-1.4.8-3.1.5-4.1-.6-1.1-1.2-1.2-2.9-.3-4.2ZM1033.7,270.7l50.5,29.9-50.5-71.2v41.4ZM903.3,45.5v148.1s123.8,73.1,123.8,73.1v-46.8l-123.8-174.4ZM774.8,269.5h0s0,0,0,0h0ZM780.8,231.3l52.5-40.2v39.9l63.4-37.5V45.5l-114.4,161.2-1.5,24.7ZM754.7,239.8h0s0,0,0,0h0ZM715.7,300.5l57.2-33.8h0s53.7-31.7,53.7-31.7v-30.4l-53.4,40.9,1.8-28.5-17.6,24.8h0s-.7,1-.7,1l-41,57.8Z"/>
            </g>
          </g>
        </g>
        <g>
          <g>
            <g>
              <polygon class="cls-6" points="168.4 -243.2 164.2 -137.4 164.2 -137.4 164 -132.1 159.3 -134.6 159.3 -134.6 144.2 -142.6 116.6 -157.3 111.1 -148.1 106.5 -31.7 106.5 -31.7 106.3 -26.4 101.6 -28.9 101.6 -28.9 84.8 -37.9 54.4 -54.1 31.7 -16.3 219.8 94.9 219.8 -105.6 219.8 -110.5 219.8 -328.5 168.4 -243.2"/>
              <polygon class="cls-6" points="96 113.6 219.8 288 219.8 139.9 96 66.8 96 113.6"/>
            </g>
            <g>
              <polygon class="cls-4" points="89.4 104.2 89.4 62.8 38.8 33 89.4 104.2"/>
              <polygon class="cls-4" points="377.3 -78.1 288.2 -31.1 288.2 -36.6 288.2 -132.5 226.4 -108.3 226.4 94.9 414.6 -16.3 377.3 -78.1"/>
              <polygon class="cls-4" points="289.9 135.6 289.9 102.4 226.4 139.9 226.4 288 340.8 126.8 342.3 102.2 289.9 142.3 289.9 135.6"/>
            </g>
            <g>
              <polygon class="cls-2" points="407.4 33 350.2 66.8 350.2 66.8 296.5 98.5 296.5 128.9 349.9 88 348.1 116.5 365.7 91.7 365.7 91.7 366.4 90.7 407.4 33"/>
              <polygon class="cls-2" points="348.3 64 348.3 64 348.3 64 348.3 64"/>
              <polygon class="cls-2" points="368.4 93.7 368.4 93.7 368.4 93.7 368.4 93.7"/>
            </g>
            <g>
              <path class="cls-3" d="M23.8-15.5c0-.6.3-1.1.6-1.5l24.2-40.1h0s62.2-103.3,62.2-103.3l58.2-96.5h0s51.3-85.1,51.3-85.1c0,0,0-.1.1-.2.6-.9,1.6-1.5,2.8-1.5s2.2.7,2.8,1.6h0S383.2-81.2,383.2-81.2h0s38.7,64.2,38.7,64.2c.3.4.4.9.5,1.3.2,1.3-.4,2.7-1.6,3.3l-196,115.9s0,0,0,0c0,0,0,0,0,0-.1,0-.3.1-.4.2-.1,0-.2.1-.3.1-.2,0-.4,0-.5,0-.1,0-.2,0-.3,0-.3,0-.6,0-.9-.1,0,0,0,0-.1,0-.2,0-.4-.1-.6-.3,0,0,0,0,0,0,0,0,0,0,0,0L25.4-12.3c-1.1-.7-1.8-1.9-1.6-3.2ZM377.3-78.1l-89.1,47v-101.4l-61.8,24.3V94.9L414.6-16.3l-37.2-61.8ZM226.4-115.4l68.4-26.9V-42.1l79-41.7-147.4-244.7V-115.4ZM223.1-340.4h0s0,0,0,0ZM120.1-163l37.7,20.1,3.5-88.4-41.2,68.4ZM57.9-59.8l42.2,22.5,3.9-99L57.9-59.8ZM31.7-16.3l188.1,111.2v-423.4l-51.4,85.3-4.2,105.8s0,0,0,0l-.2,5.3-4.7-2.5s0,0,0,0l-15.1-8-27.6-14.7-5.5,9.2-4.6,116.4s0,0,0,0l-.2,5.3-4.7-2.5s0,0,0,0l-16.8-8.9-30.4-16.2L31.7-16.3Z"/>
              <path class="cls-3" d="M421.8,24.1l-50.7,71.5h0s-24.3,34.3-24.3,34.3c0,0,0,0,0,0l-6.5,9.2-.3.4-114.2,160.9s0,0,0,0c0,0,0,0,0,.1-.2.2-.4.4-.6.6,0,0-.2.1-.2.2-.2.1-.4.2-.6.3,0,0,0,0-.2,0,0,0,0,0,0,0-.3,0-.6.1-.9.1s-.6,0-.9-.1c0,0,0,0,0,0,0,0-.1,0-.2,0-.2,0-.4-.2-.6-.3,0,0-.2-.1-.2-.2-.2-.2-.4-.4-.6-.6,0,0,0,0,0-.1,0,0,0,0,0,0L90,116.6,24.4,24.1c-.9-1.3-.8-3,.3-4.2,1.1-1.2,2.8-1.4,4.1-.6l65.6,38.8,128.7,76.1,66.8-39.5h0s88.8-52.5,88.8-52.5h0s38.7-22.9,38.7-22.9c1.4-.8,3.1-.5,4.1.6,1.1,1.2,1.2,2.9.3,4.2ZM89.4,62.8l-50.5-29.9,50.5,71.2v-41.4ZM219.8,288v-148.1s-123.8-73.1-123.8-73.1v46.8l123.8,174.4ZM348.3,64h0s0,0,0,0h0ZM342.3,102.2l-52.5,40.2v-39.9l-63.4,37.5v148.1l114.4-161.2,1.5-24.7ZM368.4,93.7h0s0,0,0,0h0ZM407.4,33l-57.2,33.8h0s-53.7,31.7-53.7,31.7v30.4l53.4-40.9-1.8,28.5,17.6-24.8h0s.7-1,.7-1l41-57.8Z"/>
            </g>
          </g>
          <g>
            <g>
              <polygon class="cls-6" points="54.7 576.7 58.9 470.9 58.9 470.9 59.1 465.6 63.8 468.1 63.8 468.1 78.9 476.1 106.5 490.8 112 481.6 116.6 365.2 116.6 365.2 116.8 359.9 121.5 362.4 121.5 362.4 138.3 371.4 168.7 387.5 191.4 349.8 3.3 238.6 3.3 439.1 3.3 444 3.3 662 54.7 576.7"/>
              <polygon class="cls-6" points="127.1 219.9 3.3 45.5 3.3 193.6 127.1 266.7 127.1 219.9"/>
            </g>
            <polygon class="cls-4" points="133.7 229.3 133.7 270.7 184.3 300.5 133.7 229.3"/>
            <g>
              <polygon class="cls-2" points="123.1 370.8 119.1 469.8 165.3 393.2 123.1 370.8"/>
              <polygon class="cls-2" points="65.3 476.4 61.8 564.9 103 496.5 65.3 476.4"/>
            </g>
            <g>
              <path class="cls-3" d="M199.3,349c0,.6-.3,1.1-.6,1.5l-24.2,40.1h0s-62.2,103.3-62.2,103.3l-58.2,96.5h0S2.9,675.6,2.9,675.6c0,0,0,.1-.1.2-.6.9-1.6,1.5-2.8,1.5s-2.2-.7-2.8-1.6h0s-157.2-260.9-157.2-260.9h0s-38.7-64.2-38.7-64.2c-.3-.4-.4-.9-.5-1.3-.2-1.3.4-2.7,1.6-3.3L-1.7,229.9s0,0,0,0c0,0,0,0,0,0,.1,0,.3-.1.4-.2.1,0,.2-.1.3-.1.2,0,.4,0,.5,0,.1,0,.2,0,.3,0,.3,0,.6,0,.9.1,0,0,0,0,.1,0,.2,0,.4.1.6.3,0,0,0,0,0,0,0,0,0,0,0,0l196,115.9c1.1.7,1.8,1.9,1.6,3.2ZM-154.2,411.6l89.1-47v101.4l61.8-24.3v-203.2l-188.1,111.2,37.2,61.8ZM-3.3,448.9l-68.4,26.9v-100.1l-79,41.7L-3.3,662v-213.1ZM0,673.9h0s0,0,0,0ZM103,496.5l-37.7-20.1-3.5,88.4,41.2-68.4ZM165.3,393.2l-42.2-22.5-3.9,99,46.1-76.5ZM191.4,349.8L3.3,238.6v423.4l51.4-85.3,4.2-105.8s0,0,0,0l.2-5.3,4.7,2.5s0,0,0,0l15.1,8,27.6,14.7,5.5-9.2,4.6-116.4s0,0,0,0l.2-5.3,4.7,2.5s0,0,0,0l16.8,8.9,30.4,16.2,22.7-37.7Z"/>
              <path class="cls-3" d="M-198.7,309.4l50.7-71.5h0s24.3-34.3,24.3-34.3c0,0,0,0,0,0l6.5-9.2.3-.4L-2.7,33.2s0,0,0,0c0,0,0,0,0-.1.2-.2.4-.4.6-.6,0,0,.2-.1.2-.2.2-.1.4-.2.6-.3,0,0,0,0,.2,0,0,0,0,0,0,0,.3,0,.6-.1.9-.1s.6,0,.9.1c0,0,0,0,0,0,0,0,.1,0,.2,0,.2,0,.4.2.6.3,0,0,.2.1.2.2.2.2.4.4.6.6,0,0,0,0,0,.1,0,0,0,0,0,0l130.4,183.8,65.6,92.5c.9,1.3.8,3-.3,4.2-1.1,1.2-2.8,1.4-4.1.6l-65.6-38.8L0,199.4l-66.8,39.5h0s-88.8,52.5-88.8,52.5h0s-38.7,22.9-38.7,22.9c-1.4.8-3.1.5-4.1-.6-1.1-1.2-1.2-2.9-.3-4.2ZM133.7,270.7l50.5,29.9-50.5-71.2v41.4ZM3.3,45.5v148.1s123.8,73.1,123.8,73.1v-46.8L3.3,45.5ZM-125.2,269.5h0s0,0,0,0h0ZM-119.2,231.3l52.5-40.2v39.9L-3.3,193.6V45.5l-114.4,161.2-1.5,24.7ZM-145.3,239.8h0s0,0,0,0h0ZM-184.3,300.5l57.2-33.8h0s53.7-31.7,53.7-31.7v-30.4l-53.4,40.9,1.8-28.5-17.6,24.8h0s-.7,1-.7,1l-41,57.8Z"/>
            </g>
          </g>
        </g>
      </g>
    </pattern>
  </defs>
  <!-- Generator: Adobe Illustrator 28.7.1, SVG Export Plug-In . SVG Version: 1.2.0 Build 142)  -->
  <g>
    <g id="Layer_1">
      <rect class="cls-5" width="2400" height="2400"/>
    </g>
  </g>
</svg>