<?xml version="1.0" encoding="UTF-8"?>
<svg id="Layer_1" xmlns="http://www.w3.org/2000/svg" viewBox="0 0 276.17 447.14">
  <defs>
    <style>
      .cls-1 {
        fill: #f6941d;
      }

      .cls-2 {
        fill: #231f20;
      }

      .cls-3 {
        fill: #fce039;
      }

      .cls-4 {
        fill: #e863a3;
      }
    </style>
  </defs>
  <g>
    <polygon class="cls-4" points="100.18 69.68 97.28 142.96 97.28 142.97 97.13 146.63 93.89 144.91 93.89 144.91 83.44 139.34 64.33 129.16 60.49 135.53 57.3 216.15 57.3 216.15 57.15 219.82 53.92 218.09 53.91 218.09 42.29 211.9 21.23 200.69 5.48 226.83 135.79 303.87 135.79 164.95 135.79 161.57 135.79 10.59 100.18 69.68"/>
    <polygon class="cls-4" points="50.06 316.8 135.78 437.62 135.79 335.03 50.06 284.37 50.06 316.8"/>
  </g>
  <g>
    <polygon class="cls-3" points="45.45 310.31 45.45 281.65 10.44 260.96 45.45 310.31"/>
    <polygon class="cls-3" points="244.9 184.01 183.17 216.57 183.17 212.75 183.17 146.33 140.39 163.14 140.39 303.87 270.7 226.83 244.9 184.01"/>
    <polygon class="cls-3" points="184.34 332.06 184.34 309.06 140.39 335.03 140.39 437.61 219.61 325.97 220.68 308.9 184.34 336.73 184.34 332.06"/>
  </g>
  <g>
    <polygon class="cls-1" points="187.78 208.93 242.51 180.06 140.39 10.59 140.39 158.19 187.78 139.58 187.78 142.96 187.78 208.93"/>
    <polygon class="cls-1" points="138.09 2.3 138.09 2.3 138.09 2.3 138.09 2.3"/>
    <polygon class="cls-1" points="52.84 212.3 55.56 143.72 23.61 196.73 52.84 212.3"/>
    <polygon class="cls-1" points="92.82 139.12 95.24 77.86 66.71 125.21 92.82 139.12"/>
    <polygon class="cls-1" points="265.74 260.96 226.13 284.37 226.13 284.37 188.95 306.34 188.95 327.4 225.9 299.09 224.67 318.84 236.85 301.68 236.85 301.68 237.35 300.97 265.74 260.96"/>
    <polygon class="cls-1" points="224.84 282.46 224.83 282.46 224.83 282.46 224.84 282.46"/>
    <polygon class="cls-1" points="238.73 303.01 238.73 303.01 238.73 303.01 238.73 303.01"/>
  </g>
  <g>
    <path class="cls-2" d="M1.13,229.61l135.78,80.28s0,0,.01,0c0,0,.01,0,.02.01.14.08.29.13.44.18.03.01.07.03.1.04.2.05.4.08.6.08.07,0,.15-.02.22-.03.12-.01.25-.02.37-.05.08-.02.16-.07.24-.1.1-.04.21-.07.31-.13,0,0,0,0,.01,0,0,0,.01,0,.02,0l135.78-80.28c.8-.48,1.24-1.39,1.1-2.32-.05-.34-.17-.66-.36-.93l-26.81-44.5h0S140.06,1.12,140.06,1.12l-.03.02c-.4-.67-1.1-1.14-1.94-1.14s-1.5.41-1.92,1.03c-.03.04-.06.09-.08.13l-35.53,58.96h0s-40.3,66.87-40.3,66.87l-43.1,71.52h0S.4,226.33.4,226.33c-.21.31-.35.67-.39,1.06-.1.9.34,1.77,1.12,2.23ZM270.7,226.83l-130.31,77.04v-140.73l42.78-16.81v70.23l61.72-32.56,25.8,42.82ZM140.39,10.59l102.12,169.47-54.74,28.87v-69.35l-47.39,18.62V10.59ZM138.09,2.3h0s0,0,0,0h0ZM95.24,77.86l-2.42,61.25-26.11-13.9,28.53-47.35ZM55.56,143.72l-2.71,68.58-29.23-15.57,31.95-53.01ZM21.23,200.69l21.06,11.22,11.62,6.19s0,0,0,0l3.24,1.72.14-3.66s0,0,0,0l3.19-80.62,3.84-6.37,19.11,10.18,10.45,5.56s0,0,0,0l3.24,1.72.14-3.66s0,0,0,0l2.9-73.29,35.61-59.09v293.28L5.48,226.83l15.75-26.14Z"/>
    <path class="cls-2" d="M275.56,251.93c-.73-.8-1.93-.98-2.87-.42l-26.83,15.85h0s-61.53,36.36-61.53,36.36h0s-46.25,27.33-46.25,27.33l-89.17-52.69L3.48,251.5c-.94-.55-2.13-.38-2.87.42-.74.8-.81,2.01-.18,2.89l45.45,64.05,90.34,127.31s0,0,.01.01c.02.03.05.05.07.07.11.14.24.27.39.39.05.04.11.08.17.11.13.09.28.16.43.22.04.01.07.04.11.05.02,0,.05,0,.07.01.21.06.42.1.63.1s.43-.04.63-.1c.02,0,.05,0,.07-.01.04-.01.07-.04.11-.05.15-.06.3-.13.43-.22.06-.04.11-.07.17-.11.14-.11.27-.24.39-.39.02-.03.05-.05.07-.07,0,0,0,0,.01-.01l79.1-111.47.18-.26,4.5-6.34s0,0,0,0l16.86-23.76h0s35.14-49.52,35.14-49.52c.63-.89.55-2.09-.18-2.89ZM45.45,310.31l-35.01-49.34,35.01,20.69v28.65ZM50.06,316.8v-32.42l85.73,50.66v102.59s-85.73-120.82-85.73-120.82ZM224.83,282.46h0s0,0,0,0h0ZM219.61,325.97l-79.22,111.64v-102.58l43.95-25.97v27.67l36.33-27.83-1.07,17.08ZM238.73,303.01h0s0,0,0,0h0ZM237.35,300.97l-.5.7h0s-12.18,17.17-12.18,17.17l1.23-19.75-36.96,28.31v-21.06l37.18-21.97h0s39.61-23.41,39.61-23.41l-28.39,40.01Z"/>
  </g>
</svg>