<?xml version="1.0" encoding="UTF-8"?>
<svg id="Layer_1" xmlns="http://www.w3.org/2000/svg" viewBox="0 0 820.34 248.78">
  <defs>
    <style>
      .cls-1 {
        fill: #f6941d;
      }

      .cls-2 {
        fill: #231f20;
      }

      .cls-3 {
        fill: #fce039;
      }

      .cls-4 {
        fill: #e863a3;
      }
    </style>
  </defs>
  <g>
    <polygon points="224.06 145.93 259.5 145.93 259.5 128.47 224.06 128.47 224.06 108.56 261.56 108.56 261.56 91.1 224.06 91.1 221.5 91.1 203.52 91.1 203.52 184.83 221.5 184.83 224.06 184.83 262.46 184.83 262.46 167.37 224.06 167.37 224.06 145.93"/>
    <polygon points="270.8 109.46 297.12 109.46 297.12 184.83 318.18 184.83 318.18 109.46 344.63 109.46 344.63 91.1 270.8 91.1 270.8 109.46"/>
    <polygon points="417.17 128.47 377.63 128.47 377.63 91.1 356.57 91.1 356.57 184.83 377.63 184.83 377.63 146.96 417.17 146.96 417.17 184.83 438.23 184.83 438.23 91.1 417.17 91.1 417.17 128.47"/>
    <path d="M480.09,91.1l-30.94,93.73h21.06l7.42-23.24h39.16l7.61,23.24h21.83l-32.1-93.73h-34.02ZM483.19,144.13l11.44-35.82h4.7l11.73,35.82h-27.86Z"/>
    <path d="M598.02,164.1c-1.16,1.75-2.69,3.12-4.62,4.11-1.93.99-4.26,1.48-7,1.48-3.68,0-6.66-.83-8.92-2.5-2.27-1.67-3.92-4.02-4.94-7.06-1.03-3.04-1.54-6.44-1.54-10.21,0-4.11.55-7.66,1.67-10.66,1.11-2.99,2.8-5.35,5.07-7.06,2.27-1.71,5.11-2.57,8.54-2.57,4.11,0,7.26,1.09,9.44,3.27,2.18,2.18,3.45,4.86,3.79,8.02h20.16c-.34-5.65-1.97-10.66-4.88-15.02-2.91-4.37-6.81-7.77-11.68-10.21-4.88-2.44-10.49-3.66-16.82-3.66-5.82,0-10.98.98-15.47,2.95-4.49,1.97-8.24,4.67-11.23,8.09-3,3.42-5.26,7.34-6.81,11.75-1.54,4.41-2.31,9.01-2.31,13.8v2.44c0,4.62.73,9.1,2.18,13.42,1.45,4.32,3.68,8.2,6.68,11.62,3,3.43,6.74,6.14,11.24,8.16,4.49,2.01,9.78,3.02,15.86,3.02s11.98-1.22,16.95-3.66c4.96-2.44,8.94-5.86,11.94-10.27,2.99-4.41,4.62-9.52,4.88-15.34h-20.03c-.26,2.31-.96,4.35-2.12,6.1Z"/>
    <path d="M675.18,164.1c-1.16,1.75-2.69,3.12-4.62,4.11-1.93.99-4.26,1.48-7,1.48-3.68,0-6.66-.83-8.92-2.5-2.27-1.67-3.92-4.02-4.94-7.06-1.03-3.04-1.54-6.44-1.54-10.21,0-4.11.55-7.66,1.67-10.66,1.11-2.99,2.8-5.35,5.07-7.06,2.27-1.71,5.11-2.57,8.54-2.57,4.11,0,7.26,1.09,9.44,3.27,2.18,2.18,3.45,4.86,3.79,8.02h20.16c-.34-5.65-1.97-10.66-4.88-15.02-2.91-4.37-6.81-7.77-11.68-10.21-4.88-2.44-10.49-3.66-16.82-3.66-5.82,0-10.98.98-15.47,2.95-4.49,1.97-8.24,4.67-11.23,8.09-3,3.42-5.26,7.34-6.81,11.75-1.54,4.41-2.31,9.01-2.31,13.8v2.44c0,4.62.73,9.1,2.18,13.42,1.45,4.32,3.68,8.2,6.68,11.62,3,3.43,6.74,6.14,11.24,8.16,4.49,2.01,9.78,3.02,15.86,3.02s11.98-1.22,16.95-3.66c4.96-2.44,8.94-5.86,11.94-10.27,2.99-4.41,4.62-9.52,4.88-15.34h-20.03c-.26,2.31-.96,4.35-2.12,6.1Z"/>
    <path d="M731.42,121.66c-3.2,4.07-5.19,9.44-5.97,16.1v-23.29h-16.31v70.36h20.54v-35.82c0-5.74,1.54-10.12,4.62-13.16,3.08-3.04,7.45-4.56,13.1-4.56h5.14v-17.72h-2.7c-8.05,0-14.19,2.69-18.42,8.09Z"/>
    <path d="M816.48,125.71c-2.57-4.15-6.31-7.26-11.23-9.31-4.92-2.06-10.98-3.08-18.17-3.08-2.48,0-5.14.05-7.96.13-2.82.08-5.56.21-8.22.38-2.65.17-4.97.34-6.93.51v17.33c2.65-.17,5.6-.34,8.86-.51,3.25-.17,6.42-.3,9.5-.39,3.08-.08,5.56-.13,7.45-.13,3.77,0,6.5.9,8.22,2.69,1.71,1.8,2.57,4.5,2.57,8.09v.26h-12.71c-6.25,0-11.77.79-16.56,2.38-4.79,1.59-8.52,4.02-11.17,7.32-2.65,3.3-3.98,7.51-3.98,12.65,0,4.71,1.07,8.75,3.21,12.13,2.14,3.38,5.12,5.97,8.92,7.77,3.81,1.8,8.24,2.7,13.29,2.7s9.01-.9,12.39-2.7c3.38-1.8,6.03-4.36,7.96-7.7.86-1.48,1.56-3.13,2.12-4.92v13.53h16.31v-43.14c0-6.5-1.28-11.83-3.85-15.98ZM793.95,171.16c-1.84.82-3.92,1.22-6.23,1.22-3.59,0-6.36-.88-8.28-2.63-1.93-1.75-2.89-4.04-2.89-6.87,0-2.99.96-5.37,2.89-7.13,1.93-1.75,4.69-2.63,8.28-2.63h12.84v5.65c-.17,3.51-.86,6.25-2.06,8.22-1.2,1.97-2.72,3.36-4.56,4.17Z"/>
  </g>
  <g>
    <g>
      <polygon class="cls-4" points="55.74 38.77 54.12 79.54 54.12 79.54 54.04 81.58 52.24 80.62 52.24 80.62 46.43 77.53 35.79 71.86 33.66 75.41 31.88 120.26 31.88 120.26 31.8 122.3 30 121.34 30 121.34 23.53 117.9 11.81 111.66 3.05 126.2 75.55 169.07 75.55 91.77 75.55 89.89 75.55 5.89 55.74 38.77"/>
      <polygon class="cls-4" points="27.85 176.26 75.55 243.48 75.55 186.4 27.85 158.22 27.85 176.26"/>
    </g>
    <g>
      <polygon class="cls-3" points="25.29 172.65 25.29 156.7 5.81 145.19 25.29 172.65"/>
      <polygon class="cls-3" points="136.25 102.38 101.91 120.49 101.91 118.37 101.91 81.42 78.11 90.77 78.11 169.07 150.61 126.2 136.25 102.38"/>
      <polygon class="cls-3" points="102.56 184.75 102.56 171.95 78.11 186.4 78.11 243.48 122.19 181.36 122.78 171.86 102.56 187.35 102.56 184.75"/>
    </g>
    <g>
      <polygon class="cls-1" points="104.48 116.24 134.93 100.18 78.11 5.89 78.11 88.01 104.48 77.66 104.48 79.54 104.48 116.24"/>
      <polygon class="cls-1" points="76.83 1.28 76.83 1.28 76.83 1.28 76.83 1.28"/>
      <polygon class="cls-1" points="29.4 118.12 30.91 79.96 13.14 109.46 29.4 118.12"/>
      <polygon class="cls-1" points="51.64 77.4 52.99 43.32 37.12 69.66 51.64 77.4"/>
      <polygon class="cls-1" points="147.85 145.19 125.81 158.22 125.81 158.22 105.13 170.44 105.13 182.16 125.69 166.41 125 177.4 131.78 167.85 131.78 167.84 132.06 167.45 147.85 145.19"/>
      <polygon class="cls-1" points="125.09 157.16 125.09 157.15 125.09 157.15 125.09 157.16"/>
      <polygon class="cls-1" points="132.82 168.59 132.82 168.59 132.82 168.59 132.82 168.59"/>
    </g>
    <g>
      <path class="cls-2" d="M.63,127.75l75.55,44.67s0,0,0,0c0,0,0,0,0,0,.08.04.16.07.25.1.02,0,.04.02.06.02.11.03.22.04.33.04.04,0,.08-.01.12-.02.07,0,.14,0,.21-.03.05-.01.09-.04.13-.05.06-.02.12-.04.17-.07,0,0,0,0,0,0,0,0,0,0,.01,0l75.55-44.67c.45-.26.69-.77.61-1.29-.03-.19-.1-.37-.2-.52l-14.92-24.76h0S77.93.62,77.93.62h-.02C77.68.26,77.29,0,76.83,0s-.84.23-1.07.57c-.02.02-.03.05-.05.08l-19.77,32.8h0s-22.42,37.2-22.42,37.2l-23.98,39.79h0S.22,125.92.22,125.92c-.12.17-.19.37-.22.59-.05.5.19.98.62,1.24ZM150.61,126.2l-72.5,42.86v-78.3l23.8-9.35v39.08l34.34-18.11,14.35,23.82ZM78.11,5.89l56.82,94.29-30.45,16.06v-38.59l-26.37,10.36V5.89ZM76.83,1.28h0s0,0,0,0h0ZM52.99,43.32l-1.35,34.08-14.53-7.74,15.88-26.34ZM30.91,79.96l-1.51,38.16-16.26-8.66,17.77-29.5ZM11.81,111.66l11.72,6.24,6.47,3.44s0,0,0,0l1.8.96.08-2.04s0,0,0,0l1.78-44.85,2.14-3.54,10.63,5.66,5.81,3.1s0,0,0,0l1.8.96.08-2.04s0,0,0,0l1.61-40.78L75.55,5.89v163.18L3.05,126.2l8.76-14.54Z"/>
      <path class="cls-2" d="M153.32,140.17c-.41-.45-1.07-.54-1.59-.24l-14.93,8.82h0s-34.23,20.23-34.23,20.23h0s-25.73,15.21-25.73,15.21l-49.61-29.31-25.28-14.94c-.52-.31-1.19-.21-1.59.24-.41.44-.45,1.12-.1,1.61l25.28,35.63,50.26,70.83s0,0,0,0c.01.02.03.03.04.04.06.08.14.15.22.22.03.02.06.04.09.06.08.05.16.09.24.12.02,0,.04.02.06.03.01,0,.03,0,.04,0,.12.03.23.05.35.05s.24-.02.35-.05c.01,0,.03,0,.04,0,.02,0,.04-.02.06-.03.08-.03.16-.07.24-.12.03-.02.06-.04.09-.06.08-.06.15-.13.22-.22.01-.01.03-.03.04-.04,0,0,0,0,0,0l44.01-62.02.1-.14,2.5-3.53s0,0,0,0l9.38-13.22h0s19.55-27.55,19.55-27.55c.35-.49.31-1.16-.1-1.61ZM25.29,172.65l-19.48-27.45,19.48,11.51v15.94ZM27.85,176.26v-18.04l47.7,28.18v57.08s-47.7-67.22-47.7-67.22ZM125.09,157.15h0s0,0,0,0h0ZM122.19,181.36l-44.08,62.12v-57.07l24.45-14.45v15.39l20.22-15.48-.59,9.5ZM132.82,168.59h0s0,0,0,0h0ZM132.06,167.45l-.28.39h0s-6.78,9.55-6.78,9.55l.69-10.99-20.56,15.75v-11.72l20.69-12.22h0s22.04-13.02,22.04-13.02l-15.79,22.26Z"/>
    </g>
  </g>
</svg>