<svg width="225" height="70" viewBox="0 0 225 70" fill="none" xmlns="http://www.w3.org/2000/svg">
<rect x="0.213135" width="224.219" height="70" rx="7" fill="white"/>
<path d="M58.2123 29.0903V33.7199H13.3382V29.0903H58.2123ZM45.4928 13.125H53.2751V41.2815C53.2751 44.368 52.5499 47.0827 51.0994 49.4255C49.6489 51.7684 47.6197 53.5992 45.0116 54.918C42.4035 56.2227 39.3561 56.875 35.8694 56.875C32.3826 56.875 29.3352 56.2227 26.7272 54.918C24.1191 53.5992 22.0898 51.7684 20.6394 49.4255C19.2028 47.0827 18.4846 44.368 18.4846 41.2815V13.125H26.246V40.6292C26.246 42.4249 26.6365 44.0243 27.4176 45.4272C28.2125 46.8301 29.3282 47.9314 30.7648 48.731C32.2153 49.5167 33.9168 49.9096 35.8694 49.9096C37.8359 49.9096 39.5374 49.5167 40.9739 48.731C42.4245 47.9314 43.5402 46.8301 44.3212 45.4272C45.1022 44.0243 45.4928 42.4249 45.4928 40.6292V13.125Z" fill="#020207"/>
<path d="M70.6201 37.2832V56.2227H63.0469V23.8994H70.2853V29.3918H70.6619C71.4011 27.5821 72.5796 26.1441 74.1975 25.0778C75.8292 24.0116 77.8446 23.4785 80.2435 23.4785C82.461 23.4785 84.3926 23.9555 86.0384 24.9095C87.6981 25.8634 88.9811 27.2454 89.8877 29.0551C90.8082 30.8648 91.2615 33.0604 91.2476 35.6418V56.2227H83.6744V36.8203C83.6744 34.6598 83.1166 32.9692 82.0007 31.7487C80.899 30.5282 79.3718 29.9179 77.4192 29.9179C76.0942 29.9179 74.9157 30.2125 73.8837 30.8017C72.8655 31.3769 72.0636 32.2117 71.4779 33.306C70.906 34.4003 70.6201 35.726 70.6201 37.2832Z" fill="#020207"/>
<path d="M105.904 13.125V56.2227H98.3306V13.125H105.904Z" fill="#020207"/>
<path d="M127.093 56.854C123.955 56.854 121.235 56.1595 118.933 54.7706C116.632 53.3818 114.847 51.4387 113.578 48.9415C112.323 46.4443 111.695 43.5262 111.695 40.1873C111.695 36.8483 112.323 33.9233 113.578 31.412C114.847 28.9008 116.632 26.9507 118.933 25.5619C121.235 24.1729 123.955 23.4785 127.093 23.4785C130.231 23.4785 132.95 24.1729 135.251 25.5619C137.552 26.9507 139.331 28.9008 140.586 31.412C141.855 33.9233 142.489 36.8483 142.489 40.1873C142.489 43.5262 141.855 46.4443 140.586 48.9415C139.331 51.4387 137.552 53.3818 135.251 54.7706C132.95 56.1595 130.231 56.854 127.093 56.854ZM127.134 50.7513C128.836 50.7513 130.258 50.2813 131.402 49.3413C132.546 48.3874 133.396 47.1106 133.954 45.5114C134.526 43.9121 134.812 42.1304 134.812 40.1662C134.812 38.1882 134.526 36.3994 133.954 34.8C133.396 33.1868 132.546 31.903 131.402 30.9491C130.258 29.9951 128.836 29.5181 127.134 29.5181C125.391 29.5181 123.94 29.9951 122.783 30.9491C121.639 31.903 120.781 33.1868 120.209 34.8C119.652 36.3994 119.373 38.1882 119.373 40.1662C119.373 42.1304 119.652 43.9121 120.209 45.5114C120.781 47.1106 121.639 48.3874 122.783 49.3413C123.94 50.2813 125.391 50.7513 127.134 50.7513Z" fill="#020207"/>
<path d="M162.319 56.854C159.111 56.854 156.356 56.1455 154.055 54.7285C151.768 53.3115 150.003 51.3545 148.762 48.8574C147.535 46.3461 146.921 43.4561 146.921 40.1873C146.921 36.9044 147.549 34.0074 148.803 31.4962C150.059 28.9709 151.83 27.0069 154.118 25.6039C156.419 24.1869 159.138 23.4785 162.276 23.4785C164.885 23.4785 167.193 23.9625 169.201 24.9306C171.223 25.8846 172.834 27.2383 174.034 28.992C175.233 30.7316 175.916 32.7659 176.084 35.0947H168.845C168.552 33.5374 167.855 32.2398 166.753 31.2016C165.666 30.1494 164.208 29.6233 162.381 29.6233C160.833 29.6233 159.473 30.0442 158.302 30.8859C157.13 31.7137 156.217 32.9061 155.561 34.4634C154.92 36.0206 154.599 37.8865 154.599 40.061C154.599 42.2636 154.92 44.1575 155.561 45.7428C156.203 47.3141 157.102 48.5276 158.26 49.3834C159.431 50.2252 160.805 50.6461 162.381 50.6461C163.497 50.6461 164.494 50.4356 165.373 50.0148C166.265 49.5798 167.011 48.9555 167.612 48.1418C168.211 47.3281 168.622 46.3391 168.845 45.1747H176.084C175.902 47.4614 175.233 49.4887 174.076 51.2563C172.918 53.01 171.342 54.3848 169.347 55.3809C167.353 56.3629 165.011 56.854 162.319 56.854Z" fill="#020207"/>
<path d="M187.996 46.0796L187.975 36.8834H189.189L200.737 23.8994H209.586L195.381 39.8085H193.812L187.996 46.0796ZM181.092 56.2227V13.125H188.665V56.2227H181.092ZM201.26 56.2227L190.799 41.5131L195.904 36.1469L210.318 56.2227H201.26Z" fill="#020207"/>
</svg>
