<svg width="70" height="102" viewBox="0 0 70 102" fill="none" xmlns="http://www.w3.org/2000/svg">
<g clip-path="url(#clip0_3083_613)">
<path d="M35.1385 11.1695C36.5584 11.1329 37.9067 10.5385 38.8915 9.51485C39.8763 8.49125 40.4182 7.12093 40.3999 5.70064C40.3816 4.28035 39.8046 2.92444 38.7938 1.92656C37.7829 0.928672 36.4197 0.369141 34.9993 0.369141C33.5789 0.369141 32.2157 0.928672 31.2048 1.92656C30.194 2.92444 29.617 4.28035 29.5987 5.70064C29.5804 7.12093 30.1223 8.49125 31.107 9.51485C32.0918 10.5385 33.4402 11.1329 34.8601 11.1695H15.4272L34.998 45.063L44.7772 28.1162L54.5563 11.1695H35.1385ZM40.4041 27.8367H29.5969V17.0332H40.4016L40.4041 27.8367ZM44.7922 72.3956L35.0131 55.4489L25.2151 72.3956L15.436 89.3436H29.6032V100.146H40.4066V89.3436H54.5738L44.7922 72.3956ZM35.0131 82.2149C33.9445 82.2151 32.8998 81.8985 32.0112 81.3049C31.1226 80.7114 30.43 79.8677 30.021 78.8805C29.6119 77.8933 29.5048 76.807 29.7132 75.7589C29.9216 74.7108 30.4362 73.7481 31.1918 72.9925C31.9474 72.2369 32.9101 71.7223 33.9582 71.5139C35.0063 71.3055 36.0926 71.4126 37.0798 71.8217C38.067 72.2307 38.9107 72.9233 39.5042 73.8119C40.0978 74.7005 40.4144 75.7452 40.4142 76.8138C40.414 77.5241 40.2738 78.2274 40.0015 78.8834C39.7292 79.5394 39.3303 80.1353 38.8274 80.637C38.3246 81.1387 37.7278 81.5363 37.0711 81.807C36.4144 82.0778 35.7108 82.2164 35.0005 82.2149H35.0131ZM5.31086 50.7637C5.31086 39.45 11.6723 29.5944 21.0064 24.587L18.7998 20.7669C13.4365 23.6757 8.95116 27.9693 5.81088 33.2004C2.6706 38.4316 0.990243 44.409 0.944795 50.5101C0.899347 56.6113 2.49048 62.613 5.55247 67.8904C8.61447 73.1677 13.0353 77.5277 18.3547 80.5161L20.56 76.6959C11.4705 71.6171 5.31086 61.8956 5.31086 50.7637ZM59.0961 26.6682C56.762 24.33 54.1015 22.3423 51.1975 20.7669L48.991 24.587C58.325 29.5944 64.6865 39.45 64.6865 50.7637C64.6865 61.8956 58.5269 71.6171 49.4373 76.6972L51.6414 80.5161C56.2362 77.9426 60.1724 74.3396 63.1412 69.9897C66.11 65.6398 68.0307 60.6613 68.7527 55.4446C69.4746 50.2278 68.9782 44.9148 67.3024 39.9221C65.6265 34.9294 62.8168 30.3928 59.0936 26.6682H59.0961Z" fill="white"/>
<path d="M47.4539 45.6716H22.5472L23.0813 44.725L35.0006 23.6084L46.9186 44.725L47.4539 45.6716Z" fill="#C91422"/>
<path d="M29.0479 60.4778L31.9102 62.3208H24.7965L23.5728 60.4778L19.4844 54.3244L29.0479 60.4778ZM38.0911 62.3208H45.2048L46.4284 60.4778L50.5168 54.3244L40.9584 60.4778L38.0911 62.3208ZM47.454 45.6712L46.9186 44.7246H23.0814L22.5473 45.6712L19.4832 51.0986L34.2108 60.4778L35.0006 60.9793L35.7905 60.4778L50.5168 51.1024L47.454 45.6712Z" fill="#FDCA1B"/>
<path d="M35.0007 60.98L34.2108 60.4785H35.7905L35.0007 60.98ZM40.9584 60.4785L38.0949 62.3215L35.0044 64.3099L31.9152 62.3215L29.0479 60.4785H23.5729L24.7965 62.3215L35.0007 77.6798L45.2048 62.3215L46.4285 60.4785H40.9584Z" fill="#016C34"/>
<path d="M35.0007 61.3278L19.087 51.2001L35.0007 23.0049L50.9131 51.2001L35.0007 61.3278ZM19.8794 50.9995L35.0007 60.6244L50.1207 50.9995L35.0007 24.211L19.8794 50.9995Z" fill="black"/>
<path d="M35.0005 78.2104L18.4512 53.3037L35.0005 63.9529L51.5498 53.3037L35.0005 78.2104ZM20.5148 55.3373L35.0005 77.1397L49.4836 55.3373L35.0005 64.6575L20.5148 55.3373Z" fill="black"/>
<path d="M36.964 51.7767L38.1764 55.5103L34.9994 53.2034L31.8225 55.5103L33.0361 51.7767L29.8591 49.4685H33.7858L34.9994 45.7324L36.2131 49.4685H40.141L36.964 51.7767Z" fill="black"/>
</g>
<defs>
<clipPath id="clip0_3083_613">
<rect width="70" height="101" fill="white" transform="translate(0 0.128418)"/>
</clipPath>
</defs>
</svg>
