<svg width="33" height="33" viewBox="0 0 33 33" fill="none" xmlns="http://www.w3.org/2000/svg">
<rect x="0.5" y="0.628418" width="32" height="32" rx="6" fill="white"/>
<mask id="mask0_3083_631" style="mask-type:alpha" maskUnits="userSpaceOnUse" x="4" y="4" width="25" height="25">
<rect x="4.5" y="4.62842" width="24" height="24" fill="#D9D9D9"/>
</mask>
<g mask="url(#mask0_3083_631)">
<path d="M9.51001 23.6184C9.02945 23.6184 8.61806 23.4473 8.27584 23.1051C7.93362 22.7629 7.76251 22.3515 7.76251 21.8709V11.3859C7.76251 10.9054 7.93362 10.494 8.27584 10.1518C8.61806 9.80954 9.02945 9.63843 9.51001 9.63843H23.49C23.9706 9.63843 24.382 9.80954 24.7242 10.1518C25.0664 10.494 25.2375 10.9054 25.2375 11.3859V21.8709C25.2375 22.3515 25.0664 22.7629 24.7242 23.1051C24.382 23.4473 23.9706 23.6184 23.49 23.6184H9.51001ZM16.5 17.5022L23.49 13.1334V11.3859L16.5 15.7547L9.51001 11.3859V13.1334L16.5 17.5022Z" fill="black"/>
</g>
</svg>
