<svg width="33" height="33" viewBox="0 0 33 33" fill="none" xmlns="http://www.w3.org/2000/svg">
<rect x="0.5" y="0.628418" width="32" height="32" rx="6" fill="white"/>
<path d="M9.40252 16.0617C9.40252 16.0617 15.9128 13.3197 18.1707 12.3542C19.0363 11.968 21.9715 10.7321 21.9715 10.7321C21.9715 10.7321 23.3263 10.1914 23.2134 11.5045C23.1757 12.0452 22.8747 13.9376 22.5736 15.9845C22.122 18.881 21.6328 22.0479 21.6328 22.0479C21.6328 22.0479 21.5576 22.9362 20.9178 23.0907C20.2781 23.2451 19.2244 22.55 19.0363 22.3955C18.8857 22.2797 16.2139 20.5417 15.2354 19.6921C14.972 19.4603 14.671 18.9969 15.273 18.4562C16.6278 17.1817 18.246 15.5983 19.2244 14.5942C19.676 14.1307 20.1275 13.0493 18.246 14.3624C15.5741 16.2548 12.9399 18.0314 12.9399 18.0314C12.9399 18.0314 12.3378 18.4176 11.2088 18.07C10.0799 17.7224 8.76274 17.259 8.76274 17.259C8.76274 17.259 7.85963 16.6797 9.40252 16.0617Z" fill="black"/>
</svg>
