<?xml version="1.0" standalone="no"?>
<!DOCTYPE svg PUBLIC "-//W3C//DTD SVG 20010904//EN"
 "http://www.w3.org/TR/2001/REC-SVG-20010904/DTD/svg10.dtd">
<svg version="1.0" xmlns="http://www.w3.org/2000/svg"
 width="577.000000pt" height="433.000000pt" viewBox="0 0 577.000000 433.000000"
 preserveAspectRatio="xMidYMid meet">

<g transform="translate(0.000000,433.000000) scale(0.100000,-0.100000)"
fill="#000000" stroke="none">
<path d="M887 2729 c-119 -29 -208 -97 -241 -184 -4 -11 -7 -143 -6 -294 0
-216 4 -279 15 -301 89 -172 395 -238 595 -128 30 17 63 38 73 47 18 15 18 14
12 -24 -4 -22 -18 -84 -32 -138 -14 -54 -23 -100 -21 -103 3 -2 44 53 91 123
48 71 102 151 122 178 20 28 66 95 103 149 37 54 74 109 82 121 56 81 87 130
85 133 -2 2 -18 -4 -37 -14 -18 -9 -71 -33 -118 -51 -47 -19 -91 -37 -97 -40
-20 -8 -16 19 12 81 l25 56 124 0 124 0 11 33 c13 42 37 142 45 190 l7 37
-250 0 -250 0 -20 26 c-34 44 -102 82 -185 103 -97 26 -167 26 -269 0z m301
-49 c71 -28 112 -54 112 -72 0 -4 -49 -8 -109 -8 l-109 0 -27 -112 c-15 -62
-29 -121 -32 -130 -4 -16 6 -18 117 -18 88 0 121 -3 118 -12 -6 -17 -136 -66
-196 -74 -132 -17 -319 63 -368 157 -7 15 -14 53 -14 84 0 53 3 59 46 105 68
73 166 109 294 109 81 0 106 -4 168 -29z m624 -115 c5 -6 -27 -170 -37 -185
-4 -6 -62 -10 -129 -10 l-124 0 -12 -32 c-6 -18 -25 -62 -40 -98 -16 -36 -32
-75 -35 -87 -5 -20 -4 -21 22 -14 15 5 67 27 116 49 48 23 87 39 87 37 0 -5
-217 -334 -241 -365 -11 -14 -24 -36 -29 -49 -17 -39 -19 -20 -5 59 7 41 11
77 9 79 -2 3 -21 -4 -42 -14 -20 -10 -63 -28 -94 -41 -50 -19 -58 -20 -58 -7
0 20 95 437 108 471 3 9 -24 12 -117 12 -99 0 -121 3 -121 14 0 14 25 132 36
169 5 16 31 17 353 17 191 0 350 -2 353 -5z m-929 -326 c94 -24 174 -24 276 2
45 11 84 19 86 17 1 -1 -5 -28 -14 -58 l-17 -55 -59 -17 c-117 -32 -277 -14
-373 43 -60 37 -102 93 -102 140 l0 38 66 -45 c44 -32 88 -52 137 -65z m-158
-75 c6 -6 39 -26 75 -44 55 -28 80 -34 160 -39 94 -6 199 0 233 14 16 7 17 4
11 -21 -20 -83 -28 -98 -64 -107 -19 -5 -82 -7 -140 -5 -99 3 -111 6 -181 40
-91 45 -139 101 -139 161 0 36 2 38 18 26 9 -7 22 -18 27 -25z m27 -167 c85
-57 179 -80 305 -75 l105 5 -7 -36 c-13 -78 -14 -78 -105 -88 -73 -7 -205 26
-271 67 -70 46 -99 88 -99 147 1 35 3 44 10 32 5 -9 33 -32 62 -52z"/>
<path d="M2176 2588 c-37 -33 -54 -105 -38 -164 19 -70 64 -101 129 -89 64 12
115 95 58 95 -14 0 -25 -4 -25 -9 0 -19 -32 -41 -61 -41 -34 0 -49 27 -49 90
0 66 14 90 55 90 24 0 39 -6 47 -20 13 -21 58 -28 58 -9 0 22 -34 68 -54 73
-47 13 -95 6 -120 -16z"/>
<path d="M2420 2582 c-32 -32 -45 -91 -35 -153 9 -53 73 -103 122 -96 109 18
149 163 68 244 -28 28 -40 33 -80 33 -38 0 -52 -5 -75 -28z m120 -37 c18 -22
24 -91 10 -125 -21 -52 -81 -54 -101 -3 -14 36 -6 122 12 134 22 14 65 11 79
-6z"/>
<path d="M2660 2475 l0 -135 28 0 27 0 -2 118 c-1 64 -2 125 -2 135 -1 11 -9
17 -26 17 l-25 0 0 -135z"/>
<path d="M2770 2475 l0 -135 25 0 c25 0 25 1 25 82 0 80 0 81 20 63 11 -10 20
-22 20 -26 0 -5 16 -33 35 -64 30 -47 40 -55 66 -55 l30 0 -3 133 -3 132 -27
3 -27 3 -3 -88 c-2 -67 -5 -83 -13 -68 -20 39 -69 120 -83 138 -8 9 -26 17
-39 17 -23 0 -23 0 -23 -135z"/>
<path d="M3017 2591 c-6 -26 0 -31 40 -31 l33 0 0 -110 0 -110 30 0 30 0 0
110 0 110 38 0 c45 0 52 4 45 31 -5 17 -15 19 -108 19 -93 0 -103 -2 -108 -19z"/>
<path d="M3270 2475 l0 -135 90 0 c83 0 90 2 90 20 0 16 -8 19 -62 22 -63 3
-63 3 -66 36 l-3 32 55 0 c53 0 56 1 56 25 0 24 -3 25 -55 25 -54 0 -55 0 -55
30 l0 30 65 0 c63 0 65 1 65 25 0 25 -1 25 -90 25 l-90 0 0 -135z"/>
<path d="M3487 2603 c-4 -3 -7 -64 -7 -135 l0 -128 90 0 c83 0 90 1 90 20 0
18 -7 20 -60 20 l-60 0 0 115 c0 114 0 115 -23 115 -13 0 -27 -3 -30 -7z"/>
<path d="M3690 2475 l0 -135 90 0 c83 0 90 1 90 20 0 18 -7 20 -65 20 l-65 0
0 35 0 34 58 3 c49 3 57 6 57 23 0 17 -8 20 -57 23 -57 3 -58 4 -58 32 l0 30
65 0 c63 0 65 1 65 25 0 25 -1 25 -90 25 l-90 0 0 -135z"/>
<path d="M3950 2596 c-45 -25 -64 -132 -36 -200 26 -62 118 -83 182 -41 20 13
24 23 24 70 l0 55 -50 0 c-43 0 -50 -3 -50 -20 0 -13 7 -20 20 -20 16 0 20 -7
20 -30 0 -27 -3 -30 -32 -30 -52 0 -62 12 -66 83 -4 56 -1 68 17 86 28 28 47
27 75 -4 24 -25 66 -34 66 -14 0 22 -34 68 -54 73 -36 10 -90 6 -116 -8z"/>
<path d="M4168 2604 c-5 -4 -8 -65 -8 -136 l0 -128 30 0 c29 0 30 2 30 45 0
41 2 45 25 45 19 0 29 -10 45 -40 22 -44 36 -54 69 -48 19 3 19 5 -10 51 l-30
48 26 30 c31 38 32 70 1 106 -21 25 -32 28 -97 31 -41 2 -77 0 -81 -4z m126
-50 c19 -7 21 -45 4 -62 -7 -7 -27 -12 -45 -12 -32 0 -33 1 -33 40 0 38 2 40
29 40 16 0 36 -3 45 -6z"/>
<path d="M4470 2564 c-11 -25 -20 -50 -20 -55 0 -6 -13 -42 -30 -81 -16 -38
-30 -74 -30 -79 0 -5 13 -9 29 -9 22 0 30 6 35 25 6 23 11 25 56 25 45 0 52
-3 60 -25 7 -19 17 -25 39 -25 34 0 35 -5 -21 145 -17 44 -34 90 -39 103 -6
15 -17 22 -34 22 -21 0 -29 -8 -45 -46z m63 -81 l17 -43 -34 0 -35 0 16 46 c8
25 16 44 17 42 2 -2 10 -22 19 -45z"/>
<path d="M4670 2476 l0 -136 30 0 c29 0 30 2 30 45 0 43 1 45 29 45 41 0 90
19 101 40 16 30 11 86 -9 111 -17 21 -30 24 -100 27 l-81 4 0 -136z m144 62
c17 -27 -5 -52 -48 -56 l-36 -3 0 41 0 41 36 -3 c22 -2 42 -10 48 -20z"/>
<path d="M4919 2583 c-1 -25 0 -180 1 -225 0 -12 8 -18 25 -18 24 0 25 3 25
55 l0 55 55 0 55 0 0 -55 c0 -54 0 -55 30 -55 l30 0 0 135 0 135 -30 0 c-30 0
-30 -1 -30 -55 l0 -55 -55 0 -55 0 0 55 c0 52 -1 55 -25 55 -20 0 -25 -5 -26
-27z"/>
<path d="M2330 1978 l0 -118 25 0 c24 0 25 2 25 66 0 62 1 65 23 62 20 -3 22
-9 25 -66 3 -59 5 -63 25 -60 21 3 22 7 19 73 -4 79 -18 100 -64 90 -25 -6
-27 -4 -30 31 -2 31 -7 38 -25 39 -23 2 -23 0 -23 -117z"/>
<path d="M2790 2080 c-11 -11 -20 -29 -20 -39 0 -10 -8 -22 -17 -26 -17 -6
-17 -7 0 -19 13 -10 17 -28 17 -75 0 -58 1 -61 25 -61 24 0 25 2 25 65 0 51 3
65 15 65 8 0 15 7 15 15 0 8 -7 15 -15 15 -22 0 -18 38 5 45 11 3 20 13 20 21
0 21 -47 17 -70 -6z"/>
<path d="M3917 2082 c-10 -10 -17 -28 -17 -40 0 -13 -6 -22 -15 -22 -8 0 -15
-7 -15 -15 0 -8 7 -15 15 -15 12 0 15 -14 15 -65 0 -58 2 -65 20 -65 18 0 20
7 20 65 0 51 3 65 15 65 20 0 19 20 -2 37 -17 13 -17 14 5 29 12 9 22 23 22
30 0 20 -44 17 -63 -4z"/>
<path d="M2120 2066 c0 -9 12 -16 33 -18 l32 -3 3 -92 c3 -91 3 -93 27 -93 25
0 25 1 25 95 l0 95 35 0 c24 0 35 5 35 15 0 12 -17 15 -95 15 -76 0 -95 -3
-95 -14z"/>
<path d="M3060 2046 c0 -16 -6 -26 -15 -26 -8 0 -15 -5 -15 -10 0 -6 7 -13 15
-16 11 -4 15 -21 15 -59 0 -55 19 -85 54 -85 24 0 33 30 13 42 -23 12 -24 98
-2 98 8 0 15 7 15 15 0 8 -6 15 -14 15 -8 0 -16 10 -18 23 -2 14 -11 23 -25
25 -19 3 -23 -1 -23 -22z"/>
<path d="M2540 2017 c-26 -13 -43 -65 -33 -105 7 -28 49 -62 77 -62 27 0 68
28 60 41 -3 6 -19 7 -35 4 -31 -7 -64 10 -53 26 3 5 27 9 55 9 53 0 54 2 38
49 -16 46 -62 62 -109 38z m68 -44 c2 -9 -7 -13 -27 -13 -23 0 -29 4 -24 16 6
17 44 15 51 -3z"/>
<path d="M3378 2023 l-38 -4 0 -80 c0 -72 2 -79 20 -79 17 0 20 7 20 48 0 54
7 68 35 73 12 3 20 12 20 23 0 22 -6 24 -57 19z"/>
<path d="M3495 2021 c-36 -15 -46 -37 -43 -88 3 -44 6 -50 39 -67 32 -17 40
-18 68 -7 41 18 43 46 1 38 -36 -8 -60 0 -60 19 0 10 14 14 50 14 46 0 50 2
50 24 0 49 -59 86 -105 67z m59 -46 c4 -11 -2 -15 -24 -15 -29 0 -38 9 -23 23
12 12 41 7 47 -8z"/>
<path d="M3750 2023 c-57 -21 -70 -100 -24 -147 35 -34 68 -33 106 4 27 27 30
36 25 72 -3 22 -11 46 -19 53 -16 16 -67 26 -88 18z m56 -57 c8 -33 2 -57 -18
-69 -23 -15 -48 8 -48 42 0 51 54 73 66 27z"/>
<path d="M4118 2023 l-38 -4 0 -80 c0 -72 2 -79 20 -79 17 0 20 7 20 49 0 62
7 81 30 81 23 0 30 -19 30 -81 0 -42 3 -49 20 -49 16 0 19 8 22 63 3 56 5 62
26 65 21 3 22 0 22 -62 0 -64 1 -66 25 -66 24 0 25 2 25 68 0 37 -4 73 -9 81
-8 13 -34 16 -86 12 -11 -1 -31 0 -45 2 -14 2 -42 2 -62 0z"/>
<path d="M4393 2020 c-28 -12 -43 -40 -43 -83 0 -73 73 -110 126 -64 25 22 29
32 28 72 -1 25 -7 52 -15 60 -19 18 -69 26 -96 15z m56 -44 c17 -20 10 -67
-11 -79 -23 -15 -48 8 -48 42 0 45 35 66 59 37z"/>
<path d="M4573 2023 l-43 -4 0 -80 c0 -77 1 -79 25 -79 23 0 24 4 27 63 3 56
5 62 26 65 21 3 22 0 22 -62 0 -64 1 -66 25 -66 24 0 25 2 25 68 0 37 -4 72
-8 79 -9 15 -46 21 -99 16z"/>
<path d="M4753 2020 c-45 -18 -58 -95 -24 -140 15 -19 29 -25 59 -25 41 0 76
20 66 37 -4 6 -20 7 -36 4 -32 -6 -72 9 -63 25 4 5 28 9 56 9 45 0 49 2 49 24
0 50 -59 86 -107 66z m55 -47 c2 -8 -6 -13 -22 -13 -25 0 -33 10 -19 24 10 10
36 3 41 -11z"/>
<path d="M2870 1955 c0 -80 22 -111 72 -101 17 3 41 6 54 6 23 0 24 2 24 80 0
78 -1 80 -25 80 -23 0 -24 -4 -27 -62 -3 -55 -5 -63 -23 -63 -18 0 -20 8 -23
63 -3 58 -4 62 -27 62 -24 0 -25 -3 -25 -65z"/>
<path d="M3160 1950 c0 -63 2 -71 25 -86 16 -10 32 -13 47 -8 13 4 35 6 51 5
l27 -3 0 81 c0 80 0 81 -25 81 -24 0 -25 -3 -25 -59 0 -45 -4 -60 -16 -65 -27
-10 -34 3 -34 65 0 56 -1 59 -25 59 -24 0 -25 -2 -25 -70z"/>
<path d="M4870 2015 c0 -3 11 -33 25 -67 30 -74 31 -104 5 -118 -11 -6 -20
-17 -20 -25 0 -21 44 -19 62 3 13 15 78 186 78 205 0 15 -41 6 -46 -10 -3 -10
-11 -31 -18 -47 l-13 -30 -14 47 c-11 38 -18 47 -36 47 -13 0 -23 -2 -23 -5z"/>
</g>
</svg>
