<svg width="206" height="80" viewBox="0 0 206 80" fill="none" xmlns="http://www.w3.org/2000/svg">
<g clip-path="url(#clip0_15_1335)">
<path d="M61.7594 17.5928H73.0496V20.9792H68.6222C67.6929 20.9792 66.8384 20.9565 65.9785 20.632L65.5406 21.076C66.0266 21.7703 66.2616 22.385 66.2616 23.1762V23.9673C66.2616 24.6616 66.0052 25.2763 65.5406 25.9707L65.9785 26.4374C66.8117 26.1642 67.6929 26.0674 68.6222 26.0674H72.7719V29.6246H68.6222C67.6715 29.6246 66.7903 29.5734 65.9785 29.2547L65.5406 29.7271C66.0747 30.467 66.2616 31.1101 66.2616 31.9752V32.8631C66.2616 33.6315 66.0319 34.2462 65.5406 34.9405L65.9785 35.3845C66.8384 35.0885 67.6929 35.0373 68.6222 35.0373H73.3754V38.5205H61.7594V17.5928Z" fill="#070A0C"/>
<path d="M84.3184 38.5207H79.8696V23.5235C79.8696 22.7324 80.0779 22.1177 80.5639 21.4233L80.1473 20.9794C79.3142 21.2754 78.4543 21.3266 77.5037 21.3266H75.3247V17.5986H88.8846V21.3266H86.6843C85.755 21.3266 84.9005 21.3038 84.0407 20.9794L83.6241 21.4233C84.1101 22.1177 84.3184 22.7324 84.3184 23.5235V38.5207Z" fill="#070A0C"/>
<path d="M95.9984 23.6258C95.9984 24.5649 95.977 25.3332 95.3041 26.2211L95.7207 26.6878C96.5805 26.4146 97.435 26.3179 98.3643 26.3179C99.2936 26.3179 100.196 26.3691 101.099 26.6878L101.537 26.2211C100.816 25.2592 100.816 24.4397 100.816 23.455V17.5985H105.334V38.5262H100.816V32.6981C100.816 31.685 100.816 30.8939 101.537 29.932L101.099 29.4596C100.266 29.7555 99.3844 29.8295 98.407 29.8295C97.5045 29.8295 96.6232 29.8068 95.7153 29.4596L95.2988 29.932C95.9931 30.8939 95.9931 31.685 95.9931 32.6981V38.5262H91.4695V17.5928H95.9931V23.6201L95.9984 23.6258Z" fill="#070A0C"/>
<path d="M67.4419 41.1328C69.3645 41.1328 70.8973 41.184 72.0989 41.7987C73.4661 42.5159 74.4168 44.1721 74.4168 45.9991C74.4168 48.4464 72.9588 50.2222 70.4754 50.5466V51.1157C73.4661 51.2637 74.9508 52.8972 74.9508 56.0332C74.9508 58.5261 73.7919 60.4783 72.147 61.3206C70.9186 61.9353 69.3432 62.0605 66.769 62.0605H61.7594V41.1328H67.4419ZM65.5406 44.7868C66.0052 45.4811 66.2616 46.0731 66.2616 46.813V47.5529C66.2616 48.2188 66.0052 48.8619 65.5406 49.5563L65.9785 50.023C67.02 49.6303 67.8584 49.727 68.4352 49.579C69.3165 49.3571 70.1282 48.6172 70.1282 47.0122C70.1282 45.5551 69.2951 44.986 68.6649 44.7868C68.0133 44.616 67.6235 44.7128 66.8811 44.5648C66.4859 44.4908 66.1388 44.4168 65.9785 44.3201L65.5406 44.7868ZM66.2616 55.9763C66.2616 56.8642 66.1227 57.5585 65.5406 58.3497L65.9785 58.8164C68.6222 58.5716 70.5234 58.5716 70.5234 55.7999C70.5234 53.6257 68.9479 53.1078 68.4352 53.011C67.6448 52.863 67.02 52.8403 65.9785 52.5386L65.5406 53.011C66.1174 53.7509 66.2616 54.616 66.2616 55.2364V55.9763Z" fill="#070A0C"/>
<path d="M91.6191 55.1396C91.6191 60.3019 89.6697 62.402 84.7082 62.402C81.4184 62.402 79.3783 61.4629 78.4009 59.192C77.8455 57.883 77.7761 56.3519 77.7761 54.4965V41.1328H82.2943V54.8209C82.2943 57.5642 82.9191 58.896 84.6602 58.896C86.5401 58.896 87.1169 57.4163 87.1169 54.6729V41.1328H91.6137V55.1396H91.6191Z" fill="#070A0C"/>
<path d="M108.1 47.3598H106.637C105.756 45.5556 104.688 44.6677 103.417 44.6677C101.147 44.6677 99.8009 47.0411 99.8009 51.6569C99.8009 56.2728 101.168 58.4981 103.395 58.4981C104.693 58.4981 105.761 57.6103 106.642 55.8061H108.106V60.5755C106.295 61.8334 104.65 62.4025 102.658 62.4025C97.9531 62.4025 94.9623 58.6234 94.9623 51.5829C94.9623 44.5425 97.8837 40.7861 102.866 40.7861C104.698 40.7861 106.343 41.378 108.106 42.5903V47.3598H108.1Z" fill="#070A0C"/>
<path d="M115.892 47.1601C115.892 48.0992 115.871 48.8676 115.198 49.7555L115.615 50.2222C116.475 49.949 117.329 49.8522 118.258 49.8522C119.188 49.8522 120.09 49.9034 120.993 50.2222L121.436 49.7555C120.715 48.7936 120.715 47.974 120.715 46.9894V41.1328H125.239V62.0605H120.715V56.2324C120.715 55.2193 120.715 54.4282 121.436 53.4663L120.993 52.9939C120.16 53.2899 119.278 53.3639 118.301 53.3639C117.398 53.3639 116.517 53.3411 115.609 52.9939L115.193 53.4663C115.887 54.4282 115.887 55.2193 115.887 56.2324V62.0605H111.363V41.1328H115.887V47.1601H115.892Z" fill="#070A0C"/>
<path d="M132.742 41.1326H138.884L143.124 62.0604H138.697L138.211 59.761C138.072 59.0951 138.163 58.3267 138.28 57.8828L138.003 57.6096C137.26 57.8543 136.587 57.9795 135.407 57.9795C134.109 57.9795 133.527 57.9568 132.673 57.6096L132.416 57.8316C132.464 58.2015 132.603 59.2374 132.416 60.0285L131.93 62.0547H127.69L132.742 41.127V41.1326ZM135.06 43.4548C134.617 48.7422 134.019 52.4702 133.068 54.6443L133.346 55.0655C134.088 54.8435 134.809 54.7923 135.503 54.7923C136.155 54.7923 136.801 54.8435 137.474 55.0655L137.752 54.6443C137.031 53.0108 136.267 49.2317 135.941 43.4548H135.06Z" fill="#070A0C"/>
<path d="M151.408 41.1328C153.517 41.1328 155.162 41.2296 156.508 42.0719C158.153 43.1078 159.034 44.8665 159.034 47.0861C159.034 49.875 157.736 51.4572 155.835 51.8272L155.744 52.3963L160.636 62.0548H155.397L151.803 53.5062C151.13 53.5062 150.505 53.3582 149.88 53.085L149.512 53.5574C150.137 54.3997 150.137 55.5608 150.137 57.2398V62.0605H145.618V41.1328H151.413H151.408ZM149.138 44.7868C149.485 45.1567 149.741 46.0958 149.741 46.9097V47.9228C149.741 48.9587 149.693 49.7498 149.09 50.4669L149.458 50.9108C150.687 50.6661 151.867 50.7629 152.887 50.4897C153.977 50.1937 154.767 49.0839 154.767 47.7236C154.767 46.3633 154.115 45.3502 152.957 44.9063C152.027 44.5591 150.847 44.7811 149.549 44.3599L149.133 44.7811L149.138 44.7868Z" fill="#070A0C"/>
<path d="M163.045 41.1328H174.335V44.5193H169.908C168.979 44.5193 168.124 44.4965 167.264 44.1721L166.826 44.616C167.312 45.3104 167.547 45.9251 167.547 46.7162V47.5073C167.547 48.2017 167.291 48.8164 166.826 49.5107L167.264 49.9774C168.097 49.7042 168.979 49.6075 169.908 49.6075H174.057V53.1647H169.908C168.957 53.1647 168.076 53.1135 167.264 52.7947L166.826 53.2671C167.36 54.007 167.547 54.6502 167.547 55.5153V56.4032C167.547 57.1715 167.318 57.7862 166.826 58.4806L167.264 58.9245C168.124 58.6285 168.979 58.5773 169.908 58.5773H174.661V62.0605H163.045V41.1328Z" fill="#070A0C"/>
<path d="M189.193 46.9385H187.735C186.854 45.0831 185.487 44.144 184.258 44.144C182.8 44.144 181.85 45.0831 181.85 46.2441C181.85 48.2703 184.237 49.0842 187.249 50.6892C188.499 51.3551 190.24 53.1821 190.24 55.9026C190.24 59.5111 187.479 62.4024 183.051 62.4024C181.198 62.4024 179.366 61.8844 177.347 60.9681L177.508 55.7547H178.853C179.713 57.7296 181.358 58.8679 183.024 58.8679C184.6 58.8679 185.641 57.8321 185.641 56.5458C185.641 54.4228 183.532 53.8765 181.609 52.8918C178.805 51.4348 177.411 49.4314 177.411 46.836C177.411 43.2276 179.82 40.7803 184.135 40.7803C185.828 40.7803 187.452 41.2014 189.188 41.9413V46.9328L189.193 46.9385Z" fill="#070A0C"/>
<path d="M201.434 62.0605H196.985V47.0634C196.985 46.2723 197.193 45.6576 197.679 44.9632L197.263 44.5193C196.43 44.8152 195.57 44.8665 194.619 44.8665H192.44V41.1328H206V44.8665H203.8C202.87 44.8665 202.016 44.8437 201.156 44.5193L200.739 44.9632C201.225 45.6576 201.434 46.2723 201.434 47.0634V62.0605Z" fill="#070A0C"/>
<path d="M47.3076 80H33.2082L23.6698 63.4149L14.4625 80H0L11.4611 59.7211L0.202945 39.8008L11.413 19.9659L0.128176 0H14.0833L23.6645 16.6932L33.7103 0H47.1741L35.8892 19.9659L47.0993 39.8008L46.7575 40.4041L35.8412 59.7211L47.3022 80H47.3076ZM34.1055 78.2925H44.4664L33.972 59.7211L45.2301 39.8008L34.02 19.9602L44.3328 1.70746H34.5808L23.6324 19.9146L13.1861 1.70746H2.96941L13.2876 19.9659L2.07752 39.8065L13.3356 59.7268L2.84123 78.2925H13.5439L23.6431 60.1025L34.1055 78.2925Z" fill="#070A0C"/>
<path d="M23.6271 56.4934L14.7082 43.1069L23.6271 48.7131L32.546 43.0898L23.6271 56.4934Z" fill="#070A0C"/>
<path d="M23.6271 44.9628L14.7082 39.3566L23.6271 23.5684L32.546 39.3566L23.6271 44.9628Z" fill="#070A0C"/>
<path d="M23.6271 44.9628V23.5684L32.546 39.3566L23.6271 44.9628Z" fill="#070A0C"/>
<path d="M23.6324 48.7131V56.4877L32.546 43.0898L23.6324 48.7131Z" fill="#070A0C"/>
</g>
<defs>
<clipPath id="clip0_15_1335">
<rect width="206" height="80" fill="white"/>
</clipPath>
</defs>
</svg>
