<svg width="145" height="72" viewBox="0 0 145 72" fill="none" xmlns="http://www.w3.org/2000/svg">
<g clip-path="url(#clip0_1606_899)">
<path fill-rule="evenodd" clip-rule="evenodd" d="M45.7702 36.9081L23.5263 0L1.28048 36.8067L23.5245 50.0363L45.7702 36.9081ZM14.7309 43.5324H32.3891L23.5254 48.7632L14.7309 43.5324ZM24.072 42.4374V40.5565H30.46L29.2517 42.4374H24.072ZM31.1636 39.4614H24.072V37.5806H32.3718L31.1636 39.4614ZM33.0745 36.4855H24.072V34.6048H34.2827L33.0745 36.4855ZM34.9872 33.5096H24.0729V31.6288H36.1955L34.9872 33.5096ZM36.8981 30.5337H24.0729V28.653H38.1064L36.8981 30.5337ZM24.5821 20.511V23.5572H22.4685V20.511H24.5821ZM27.7688 24.6522V25.7664H19.2828V24.6522H27.7688ZM30.6608 26.8615V27.5579H16.3908V26.8615H30.6608ZM31.7559 25.7664V27.5569H38.8565L24.0729 3.02883V19.4159H25.6772V23.5572H28.8638V25.7664H31.7559ZM22.9778 19.4159H21.3744V23.5572H18.1877V25.7664H15.2958V27.5579H8.15032L22.9778 3.02426V19.4159ZM22.9787 28.653V30.5337H10.1452L8.94152 28.653H22.9787ZM22.9787 31.6288V33.5096H12.0497L10.8461 31.6288H22.9787ZM22.9787 34.6048V36.4855H13.9543L12.7506 34.6048H22.9787ZM22.9787 37.5806V39.4614H15.8579L14.6542 37.5806H22.9787ZM22.9787 40.5565V42.4374H17.7615L16.5579 40.5565H22.9787ZM34.2463 42.4374H30.5549L39.4644 28.5653L44.2626 36.5266L34.2463 42.4374ZM7.56263 28.5288L16.4612 42.4374H12.8902L2.78805 36.429L7.56263 28.5288ZM23.5228 52.7562L0.107143 38.9873L23.5228 71.9997L46.9385 38.9873L23.5228 52.7562ZM24.0703 53.7044L43.0892 42.5217L24.0703 69.3358V53.7044ZM22.9752 53.7044V69.3349L3.95638 42.5217L22.9752 53.7044ZM136.868 38.4994L133.42 50.5664H135.35L136.143 47.7221H140.867L141.659 50.5664H143.573L140.143 38.4994H136.868ZM140.401 45.9981H136.609L138.367 39.6543H138.643L140.401 45.9981ZM128.735 50.5664L125.374 38.4994H127.304L130.235 49.3941H130.459L133.372 38.4994H135.303L131.958 50.5664H128.735ZM120.489 38.4994L117.041 50.5664H118.972L119.764 47.7221H124.488L125.281 50.5664H127.195L123.764 38.4994H120.489ZM124.023 45.9981H120.23L121.989 39.6543H122.264L124.023 45.9981ZM108.133 50.5664V38.4994H109.995V48.877H115.804V50.5664H108.133ZM100.03 50.3246C100.731 50.6465 101.535 50.8074 102.443 50.8074C103.351 50.8074 104.138 50.658 104.805 50.3592C105.471 50.0489 105.983 49.6236 106.339 49.0835C106.707 48.5433 106.891 47.9113 106.891 47.1872C106.891 46.4633 106.718 45.8714 106.374 45.4116C106.029 44.952 105.558 44.5899 104.96 44.3257C104.362 44.0498 103.673 43.8257 102.891 43.6534L102.254 43.4982C101.736 43.3833 101.305 43.2511 100.961 43.1017C100.616 42.9523 100.352 42.7627 100.168 42.5329C99.9953 42.2916 99.9092 41.9869 99.9092 41.6193C99.9092 41.079 100.11 40.6596 100.512 40.3608C100.926 40.0504 101.501 39.8953 102.236 39.8953C102.742 39.8953 103.184 39.97 103.564 40.1194C103.943 40.2688 104.236 40.5045 104.443 40.8263C104.661 41.148 104.77 41.5675 104.77 42.0847V42.7052H106.615V42.0847C106.615 41.2342 106.425 40.5275 106.046 39.9643C105.667 39.4012 105.144 38.976 104.477 38.6886C103.822 38.4013 103.075 38.2577 102.236 38.2577C101.397 38.2577 100.668 38.3956 100.047 38.6714C99.4264 38.9473 98.9381 39.338 98.5818 39.8437C98.2369 40.3493 98.0646 40.9584 98.0646 41.6709C98.0646 42.372 98.2197 42.9465 98.53 43.3947C98.8403 43.8429 99.277 44.205 99.8402 44.4808C100.415 44.7451 101.087 44.9692 101.857 45.1531L102.495 45.3082C103.023 45.4347 103.478 45.5726 103.857 45.722C104.236 45.8598 104.529 46.0495 104.736 46.2908C104.943 46.5321 105.046 46.8425 105.046 47.2218C105.046 47.7963 104.828 48.2676 104.391 48.6353C103.954 48.9915 103.305 49.1697 102.443 49.1697C101.593 49.1697 100.909 48.9571 100.392 48.5318C99.8861 48.1067 99.6333 47.4688 99.6333 46.6184V46.1874H97.7888V46.6184C97.7888 47.5148 97.9842 48.279 98.3749 48.9111C98.7771 49.5317 99.3288 50.0029 100.03 50.3246ZM94.6291 50.5664V38.4994H96.4908V50.5664H94.6291ZM87.7094 40.1887V50.5664H89.5712V40.1887H93.2775V38.4994H84.0031V40.1887H87.7094ZM73.9484 50.5664L77.3961 38.4994H80.6714L84.1019 50.5664H82.1885L81.3955 47.7221H76.6722L75.8792 50.5664H73.9484ZM77.1376 45.9981H80.9301L79.1717 39.6543H78.896L77.1376 45.9981ZM64.1794 38.4994V50.5664H66.0411V45.8085H69.713C70.0692 45.8085 70.3278 45.9005 70.4887 46.0844C70.6496 46.2682 70.73 46.5153 70.73 46.8256V50.5664H72.609V46.567C72.609 46.0613 72.4769 45.6763 72.2126 45.4121C71.9483 45.1362 71.5977 44.9868 71.161 44.9639V44.688C71.6782 44.5041 72.1149 44.1881 72.4712 43.7399C72.839 43.2802 73.0228 42.6711 73.0228 41.9127V41.723C73.0228 41.0564 72.8619 40.4818 72.5401 39.9991C72.2298 39.5164 71.7873 39.1488 71.2128 38.8959C70.6496 38.6316 69.9945 38.4994 69.2475 38.4994H64.1794ZM69.0407 44.1191H66.0411V40.1887H69.0407C69.7188 40.1887 70.2359 40.3612 70.5921 40.7059C70.9599 41.0392 71.1438 41.4989 71.1438 42.085V42.2229C71.1438 42.8091 70.9599 43.2745 70.5921 43.6193C70.2243 43.9525 69.7072 44.1191 69.0407 44.1191ZM53.2106 50.5664V48.9115H54.8311V40.1543H53.2106V38.4994H59.3303C60.0543 38.4994 60.6865 38.6258 61.2266 38.8787C61.7667 39.12 62.1862 39.4705 62.485 39.9302C62.7953 40.3784 62.9504 40.9128 62.9504 41.5334V41.7058C62.9504 42.2574 62.847 42.7113 62.6402 43.0676C62.4333 43.4239 62.1805 43.6997 61.8817 43.895C61.5944 44.0904 61.3185 44.2284 61.0542 44.3088V44.5845C61.3185 44.6535 61.6001 44.7914 61.8989 44.9983C62.2092 45.1937 62.4678 45.4695 62.6746 45.8258C62.8929 46.182 63.0022 46.6474 63.0022 47.2221V47.3944C63.0022 48.061 62.847 48.6299 62.5367 49.1011C62.2264 49.5722 61.7955 49.9343 61.2438 50.1872C60.7037 50.4399 60.0773 50.5664 59.3648 50.5664H53.2106ZM56.7101 48.877H59.1407C59.7613 48.877 60.2498 48.7276 60.606 48.4288C60.9622 48.13 61.1404 47.7163 61.1404 47.1876V47.0324C61.1404 46.5038 60.9622 46.0901 60.606 45.7913C60.2612 45.4925 59.7728 45.3431 59.1407 45.3431H56.7101V48.877ZM56.7101 43.6365H59.1407C59.7269 43.6365 60.198 43.4928 60.5543 43.2055C60.9106 42.9067 61.0887 42.5045 61.0887 41.9988V41.8264C61.0887 41.3208 60.9106 40.9242 60.5543 40.6369C60.2095 40.3381 59.7383 40.1887 59.1407 40.1887H56.7101V43.6365ZM72.4016 21.2607V33.3277H74.2633V28.1216H79.3314V33.3277H81.1932V21.2607H79.3314V26.4323H74.2633V21.2607H72.4016ZM65.7675 33.3277V22.9501H62.0612V21.2607H71.3356V22.9501H67.6293V33.3277H65.7675ZM53.259 21.2607V33.3277H60.9474V31.6384H55.1208V28.1044H60.3786V26.4151H55.1208V22.9501H60.8612V21.2607H53.259Z" fill="black"/>
</g>
<defs>
<clipPath id="clip0_1606_899">
<rect width="144" height="72" fill="white" transform="translate(0.107143)"/>
</clipPath>
</defs>
</svg>
