<svg width="259" height="48" viewBox="0 0 259 48" fill="none" xmlns="http://www.w3.org/2000/svg">
    <g clip-path="url(#clip0_1449_22)">
    <path d="M18.7679 32.6743L0 21.6034L18.7679 48L37.5451 21.6034L18.7679 32.6743Z" fill="black"/>
    <path d="M18.771 29.0702L0.0218277 18.0521V12.1385L2.03891 9.99092L4.01858 12.1696V15.058H6.57188V17.7191H10.9365V15.1358H12.3737V6.76955L10.7245 5.19154V0H14.0292V2.17871H16.7633V0H20.8161V2.17871H23.5534V0H26.8113V5.19154L25.1683 6.76955V15.1327H26.565V17.716H31.0138V15.0549H33.5328V12.1665L35.5031 9.98781L37.5233 12.1385V18.0521L18.771 29.0702Z" fill="black"/>
    <path d="M55.3216 35.2203C55.214 35.2247 55.1066 35.2068 55.0063 35.1677C54.906 35.1286 54.8148 35.0691 54.7387 34.9931C54.6625 34.917 54.603 34.8261 54.5638 34.7259C54.5246 34.6257 54.5067 34.5185 54.511 34.4111V13.4239C54.5067 13.3165 54.5246 13.2093 54.5638 13.1091C54.603 13.009 54.6625 12.918 54.7387 12.8419C54.8148 12.7659 54.906 12.7065 55.0063 12.6673C55.1066 12.6282 55.214 12.6103 55.3216 12.6147H70.4263C70.5339 12.6098 70.6414 12.6274 70.7418 12.6664C70.8422 12.7053 70.9333 12.7648 71.0093 12.841C71.0854 12.9172 71.1446 13.0084 71.1833 13.1088C71.2219 13.2092 71.2391 13.3165 71.2338 13.4239V16.4586C71.2392 16.5658 71.2219 16.673 71.1833 16.7733C71.1446 16.8735 71.0853 16.9645 71.0092 17.0405C70.9331 17.1164 70.842 17.1756 70.7416 17.2142C70.6412 17.2528 70.5338 17.27 70.4263 17.2647H60.1071V21.6221H69.7155C69.824 21.6185 69.9319 21.6384 70.032 21.6803C70.1321 21.7222 70.2219 21.7851 70.2954 21.8649C70.4475 22.0262 70.5293 22.241 70.523 22.4624V25.2636C70.5244 25.3684 70.505 25.4724 70.4659 25.5696C70.4269 25.6668 70.3689 25.7553 70.2954 25.8301C70.2219 25.9098 70.1321 25.9728 70.032 26.0147C69.9319 26.0566 69.824 26.0764 69.7155 26.0729H60.1071V30.5703H70.6851C70.7926 30.565 70.8999 30.5822 71.0003 30.6208C71.1007 30.6594 71.1919 30.7186 71.268 30.7946C71.344 30.8705 71.4033 30.9615 71.442 31.0618C71.4807 31.162 71.4979 31.2692 71.4926 31.3765V34.4111C71.4979 34.5185 71.4807 34.6258 71.442 34.7262C71.4034 34.8266 71.3441 34.9178 71.2681 34.994C71.1921 35.0702 71.1009 35.1297 71.0006 35.1686C70.9002 35.2076 70.7927 35.2252 70.6851 35.2203H55.3216Z" fill="black"/>
    <path d="M80.0005 35.2203C79.8928 35.2247 79.7855 35.2068 79.6851 35.1676C79.5848 35.1285 79.4937 35.0691 79.4175 34.993C79.3413 34.917 79.2818 34.826 79.2426 34.7259C79.2034 34.6257 79.1855 34.5185 79.1899 34.4111V17.6848H73.4348C73.3258 17.6888 73.2173 17.6692 73.1166 17.6273C73.016 17.5854 72.9256 17.5222 72.8518 17.4421C72.7041 17.2918 72.6223 17.0892 72.6242 16.8787V13.4239C72.6198 13.3165 72.6378 13.2093 72.677 13.1091C72.7162 13.0089 72.7757 12.918 72.8519 12.8419C72.928 12.7659 73.0192 12.7064 73.1195 12.6673C73.2198 12.6282 73.3272 12.6103 73.4348 12.6147H90.8372C90.9446 12.6107 91.0516 12.629 91.1516 12.6683C91.2515 12.7076 91.3423 12.7671 91.4181 12.8431C91.4939 12.9191 91.5532 13.0099 91.5922 13.1099C91.6312 13.2098 91.649 13.3167 91.6447 13.4239V16.8787C91.6466 17.0892 91.5648 17.2918 91.4171 17.4421C91.3436 17.5218 91.2537 17.5847 91.1537 17.6266C91.0536 17.6685 90.9457 17.6884 90.8372 17.6848H85.079V34.4111C85.0834 34.5185 85.0655 34.6257 85.0263 34.7259C84.9871 34.826 84.9275 34.917 84.8514 34.993C84.7752 35.0691 84.6841 35.1285 84.5838 35.1676C84.4834 35.2068 84.3761 35.2247 84.2684 35.2203H80.0005Z" fill="black"/>
    <path d="M94.4256 35.2203C94.3179 35.2252 94.2105 35.2076 94.1101 35.1686C94.0097 35.1297 93.9186 35.0702 93.8426 34.994C93.7665 34.9178 93.7073 34.8266 93.6686 34.7262C93.63 34.6258 93.6128 34.5185 93.6181 34.4111V13.4239C93.6128 13.3165 93.63 13.2092 93.6686 13.1088C93.7073 13.0084 93.7665 12.9172 93.8426 12.841C93.9186 12.7648 94.0097 12.7053 94.1101 12.6664C94.2105 12.6274 94.3179 12.6098 94.4256 12.6147H98.6C98.7074 12.6107 98.8144 12.629 98.9144 12.6683C99.0143 12.7076 99.1051 12.7671 99.1809 12.8431C99.2567 12.9191 99.316 13.0099 99.355 13.1099C99.394 13.2098 99.4118 13.3168 99.4075 13.4239V21.205H107.398V13.4239C107.393 13.3165 107.41 13.2092 107.448 13.1088C107.487 13.0084 107.546 12.9172 107.622 12.841C107.698 12.7648 107.789 12.7053 107.89 12.6664C107.99 12.6274 108.098 12.6098 108.205 12.6147H112.377C112.484 12.6103 112.592 12.6282 112.692 12.6673C112.792 12.7065 112.883 12.7659 112.96 12.8419C113.036 12.918 113.095 13.009 113.134 13.1091C113.174 13.2093 113.192 13.3165 113.187 13.4239V34.4111C113.192 34.5185 113.174 34.6257 113.134 34.7259C113.095 34.8261 113.036 34.917 112.96 34.9931C112.883 35.0691 112.792 35.1286 112.692 35.1677C112.592 35.2068 112.484 35.2247 112.377 35.2203H108.205C108.098 35.2252 107.99 35.2076 107.89 35.1686C107.789 35.1297 107.698 35.0702 107.622 34.994C107.546 34.9178 107.487 34.8266 107.448 34.7262C107.41 34.6258 107.393 34.5185 107.398 34.4111V26.3717H99.4075V34.4111C99.4118 34.5183 99.394 34.6252 99.355 34.7251C99.316 34.8251 99.2567 34.9159 99.1809 34.9919C99.1051 35.0679 99.0143 35.1274 98.9144 35.1667C98.8144 35.206 98.7074 35.2243 98.6 35.2203H94.4256Z" fill="black"/>
    <path d="M124.863 35.2203C124.755 35.2252 124.648 35.2076 124.547 35.1686C124.447 35.1297 124.356 35.0702 124.28 34.994C124.204 34.9178 124.144 34.8266 124.106 34.7262C124.067 34.6258 124.05 34.5185 124.055 34.4111V13.4239C124.05 13.3165 124.067 13.2092 124.106 13.1088C124.144 13.0084 124.204 12.9172 124.28 12.841C124.356 12.7648 124.447 12.7053 124.547 12.6664C124.648 12.6274 124.755 12.6098 124.863 12.6147H134.73C136.582 12.6147 138.102 12.873 139.291 13.3897C140.383 13.8276 141.306 14.6031 141.925 15.6026C142.518 16.638 142.815 17.8155 142.786 19.0076C142.8 19.7157 142.65 20.4176 142.349 21.0587C141.873 22.053 141.083 22.8641 140.101 23.3682C140.979 23.8075 141.73 24.4631 142.284 25.273C142.929 26.1809 143.263 27.2725 143.238 28.3854C143.273 29.673 142.942 30.9443 142.284 32.0519C141.618 33.1012 140.648 33.923 139.503 34.408C138.085 34.9967 136.558 35.2778 135.023 35.2328L124.863 35.2203ZM129.851 21.5941H134.088C134.973 21.5941 135.646 21.3669 136.077 20.9156C136.299 20.6837 136.472 20.4097 136.586 20.1098C136.7 19.8098 136.753 19.4901 136.741 19.1695C136.752 18.857 136.698 18.5455 136.584 18.2543C136.47 17.9631 136.297 17.6983 136.077 17.4763C135.615 17.0344 134.967 16.8071 134.081 16.8071H129.844L129.851 21.5941ZM129.851 31.0216H134.368C135.295 31.0216 135.995 30.7529 136.469 30.2155C136.849 29.829 137.102 29.3361 137.194 28.8026C137.286 28.2691 137.213 27.7202 136.985 27.2291C136.757 26.738 136.384 26.3279 135.916 26.0535C135.449 25.7791 134.909 25.6534 134.368 25.6932H129.844L129.851 31.0216Z" fill="black"/>
    <path d="M153.264 35.544C150.718 35.544 148.69 34.8551 147.181 33.4774C145.673 32.0996 144.886 30.0537 144.821 27.3396V26.2098C144.839 24.6793 145.233 23.1765 145.969 21.8337C146.645 20.6426 147.658 19.6769 148.88 19.0574C150.233 18.397 151.724 18.0703 153.23 18.105C155.127 18.105 156.696 18.4816 157.937 19.2349C159.156 19.9584 160.132 21.0263 160.743 22.3037C161.388 23.6877 161.708 25.2004 161.678 26.7265V27.5015C161.682 27.6102 161.662 27.7185 161.62 27.8189C161.578 27.9193 161.515 28.0096 161.435 28.0835C161.361 28.1589 161.273 28.2188 161.175 28.26C161.078 28.3011 160.973 28.3226 160.868 28.3232H150.517V28.5473C150.528 29.131 150.633 29.7091 150.829 30.2591C151.004 30.7481 151.32 31.1746 151.736 31.4854C152.169 31.7955 152.691 31.9552 153.223 31.9398C153.596 31.9512 153.967 31.8789 154.308 31.7282C154.573 31.6047 154.818 31.442 155.035 31.2458C155.196 31.0983 155.348 30.9414 155.49 30.7758C155.62 30.6141 155.779 30.477 155.957 30.3712C156.139 30.3076 156.332 30.2801 156.525 30.2902H160.556C160.75 30.2838 160.939 30.3479 161.089 30.4708C161.159 30.5315 161.212 30.6092 161.243 30.6965C161.274 30.7837 161.282 30.8775 161.267 30.9687C161.2 31.4501 161.011 31.9064 160.718 32.2946C160.302 32.8833 159.793 33.4014 159.212 33.8291C158.464 34.3805 157.629 34.8015 156.74 35.0741C155.613 35.4127 154.44 35.5713 153.264 35.544ZM150.514 25.1111H155.979V25.0489C155.99 24.432 155.884 23.8186 155.667 23.2406C155.488 22.7548 155.161 22.337 154.732 22.0454C154.284 21.7573 153.759 21.6109 153.226 21.6252C152.704 21.6078 152.189 21.7548 151.755 22.0454C151.335 22.3461 151.01 22.7609 150.82 23.2406C150.597 23.8168 150.491 24.4315 150.508 25.0489L150.514 25.1111Z" fill="black"/>
    <path d="M164.553 35.2203C164.445 35.2247 164.338 35.2067 164.237 35.1676C164.137 35.1285 164.046 35.0691 163.97 34.993C163.893 34.917 163.834 34.826 163.795 34.7258C163.756 34.6257 163.738 34.5185 163.742 34.411V13.1002C163.738 12.9928 163.756 12.8856 163.795 12.7854C163.834 12.6852 163.893 12.5943 163.97 12.5182C164.046 12.4422 164.137 12.3827 164.237 12.3436C164.338 12.3045 164.445 12.2866 164.553 12.291H168.369C168.476 12.2861 168.584 12.3037 168.684 12.3426C168.784 12.3816 168.876 12.4411 168.952 12.5173C169.028 12.5935 169.087 12.6847 169.125 12.7851C169.164 12.8855 169.181 12.9928 169.176 13.1002V34.411C169.181 34.5185 169.164 34.6258 169.125 34.7262C169.087 34.8266 169.028 34.9178 168.952 34.994C168.876 35.0701 168.784 35.1296 168.684 35.1686C168.584 35.2076 168.476 35.2252 168.369 35.2203H164.553Z" fill="black"/>
    <path d="M180.272 42.3291C178.867 42.37 177.467 42.1494 176.144 41.6786C175.191 41.3269 174.313 40.799 173.556 40.1224C172.992 39.6135 172.526 39.0059 172.181 38.3296C171.949 37.892 171.796 37.4168 171.729 36.9259C171.715 36.8179 171.728 36.7081 171.768 36.6064C171.807 36.5048 171.871 36.4145 171.954 36.3439C172.126 36.193 172.348 36.112 172.577 36.1167H176.683C176.862 36.1127 177.037 36.1638 177.185 36.263C177.347 36.3913 177.466 36.5662 177.525 36.7641C177.646 37.0256 177.792 37.2748 177.961 37.5079C178.164 37.7767 178.431 37.9907 178.738 38.1304C179.172 38.3115 179.642 38.3944 180.113 38.3732C180.668 38.3901 181.221 38.2838 181.731 38.0619C182.164 37.8546 182.508 37.499 182.7 37.0597C182.937 36.4668 183.043 35.8299 183.012 35.1923V33.0136C182.476 33.5797 181.826 34.0253 181.104 34.3208C180.212 34.6751 179.258 34.8455 178.298 34.8219C177.306 34.8404 176.319 34.6758 175.386 34.3364C174.575 34.0344 173.853 33.5348 173.285 32.8829C172.698 32.191 172.253 31.3904 171.976 30.5267C171.647 29.5109 171.456 28.4558 171.408 27.3894C171.387 26.8292 171.387 26.2689 171.408 25.7087C171.455 24.6457 171.639 23.5933 171.957 22.5776C172.23 21.7014 172.677 20.8887 173.269 20.1872C173.844 19.5164 174.569 18.9906 175.386 18.6528C176.311 18.2822 177.302 18.1012 178.298 18.1206C179.335 18.0919 180.363 18.3197 181.291 18.7835C182.081 19.1933 182.78 19.7587 183.345 20.4456V19.2348C183.343 19.0248 183.424 18.8224 183.57 18.6715C183.644 18.5917 183.734 18.5287 183.835 18.4868C183.936 18.4449 184.044 18.4251 184.153 18.4287H187.872C187.983 18.4262 188.094 18.4465 188.197 18.4882C188.3 18.53 188.393 18.5923 188.471 18.6715C188.548 18.7436 188.609 18.8308 188.651 18.9278C188.693 19.0247 188.714 19.1293 188.714 19.2348V34.769C188.761 36.2132 188.414 37.643 187.71 38.9054C187.036 40.0301 186.031 40.9202 184.833 41.4545C183.394 42.0746 181.838 42.3731 180.272 42.3291ZM180.044 30.673C180.638 30.7004 181.227 30.5427 181.727 30.2217C182.153 29.9302 182.487 29.5245 182.691 29.0514C182.896 28.5713 183.011 28.0575 183.031 27.5357C183.052 27.2991 183.062 26.963 183.062 26.5335C183.062 26.104 183.062 25.7803 183.031 25.5655C183.014 25.0303 182.899 24.5027 182.691 24.0093C182.49 23.5426 182.159 23.1438 181.737 22.8608C181.232 22.5508 180.645 22.399 180.053 22.4251C179.454 22.3939 178.86 22.553 178.357 22.8795C177.934 23.1835 177.617 23.6124 177.45 24.1058C177.259 24.6583 177.145 25.2342 177.11 25.8176C177.088 26.2907 177.088 26.7763 177.11 27.2711C177.145 27.8535 177.26 28.4283 177.45 28.9799C177.613 29.4801 177.931 29.9159 178.357 30.2248C178.859 30.5451 179.449 30.6997 180.044 30.6668V30.673Z" fill="black"/>
    <path d="M192.355 35.2203C192.248 35.2252 192.14 35.2076 192.04 35.1686C191.939 35.1297 191.848 35.0702 191.772 34.994C191.696 34.9178 191.637 34.8266 191.598 34.7262C191.56 34.6258 191.542 34.5185 191.548 34.4111V19.2348C191.545 19.0249 191.626 18.8224 191.772 18.6715C191.847 18.5919 191.937 18.529 192.037 18.4871C192.138 18.4452 192.246 18.4253 192.355 18.4287H196.096C196.205 18.4253 196.314 18.4452 196.414 18.4871C196.515 18.529 196.605 18.5919 196.679 18.6715C196.826 18.8221 196.908 19.0245 196.907 19.2348V20.5421C197.48 19.878 198.192 19.3469 198.993 18.9858C199.848 18.6092 200.774 18.4193 201.708 18.4287H203.133C203.344 18.4268 203.548 18.5072 203.7 18.6528C203.779 18.7275 203.841 18.818 203.882 18.9183C203.924 19.0186 203.943 19.1264 203.94 19.2348V22.562C203.935 22.7743 203.849 22.9766 203.698 23.1268C203.548 23.2769 203.345 23.3634 203.133 23.3682H200.003C199.628 23.3297 199.249 23.3751 198.894 23.501C198.539 23.6269 198.217 23.8301 197.95 24.0959C197.683 24.3618 197.48 24.6835 197.353 25.0379C197.227 25.3922 197.181 25.7702 197.219 26.1444V34.4111C197.223 34.5196 197.203 34.6276 197.162 34.728C197.12 34.8283 197.058 34.9187 196.979 34.9931C196.817 35.1449 196.602 35.2266 196.38 35.2203H192.355Z" fill="black"/>
    <path d="M210.319 35.5441C209.243 35.5622 208.177 35.3355 207.201 34.8811C206.333 34.4786 205.582 33.8615 205.019 33.0884C204.34 32.1277 204.07 30.938 204.268 29.7791C204.465 28.6202 205.114 27.5865 206.073 26.9039C207.32 26.0096 208.982 25.4017 211.061 25.0801L215.114 24.4576V24.0156C215.157 23.3854 214.986 22.7591 214.627 22.2384C214.303 21.8234 213.711 21.6159 212.85 21.6159C212.333 21.5956 211.821 21.7218 211.373 21.9801C210.995 22.2176 210.688 22.5518 210.484 22.948C210.396 23.081 210.276 23.1893 210.135 23.2629C209.994 23.3364 209.836 23.3727 209.677 23.3682H206.051C205.949 23.3745 205.848 23.3592 205.752 23.3232C205.657 23.2873 205.571 23.2315 205.499 23.1597C205.437 23.0931 205.39 23.0137 205.362 22.9271C205.334 22.8405 205.326 22.7489 205.337 22.6586C205.365 22.181 205.516 21.7188 205.776 21.3171C206.129 20.7404 206.583 20.2322 207.117 19.8169C207.813 19.2721 208.602 18.8567 209.446 18.5906C210.555 18.2431 211.713 18.0791 212.875 18.1051C214.09 18.0791 215.302 18.2429 216.467 18.5906C217.36 18.8572 218.182 19.3198 218.873 19.9445C219.482 20.5146 219.953 21.2162 220.248 21.9956C220.558 22.8246 220.713 23.7035 220.704 24.5883V34.4049C220.708 34.5137 220.688 34.6221 220.646 34.7226C220.604 34.823 220.541 34.9132 220.46 34.9869C220.309 35.1346 220.105 35.2163 219.893 35.2141H216.152C216.044 35.2185 215.937 35.2006 215.837 35.1615C215.736 35.1224 215.645 35.0629 215.569 34.9869C215.493 34.9109 215.433 34.8199 215.394 34.7197C215.355 34.6195 215.337 34.5124 215.341 34.4049V33.2751C215.032 33.7143 214.65 34.0966 214.21 34.4049C213.702 34.7666 213.14 35.045 212.545 35.2297C211.824 35.45 211.073 35.5561 210.319 35.5441ZM211.84 31.8621C212.431 31.8704 213.015 31.7313 213.539 31.4574C214.058 31.1772 214.475 30.7418 214.733 30.2125C215.048 29.5413 215.198 28.8053 215.173 28.0649V27.598L212.423 28.0836C211.407 28.2547 210.671 28.5193 210.207 28.8741C210 29.0113 209.829 29.1959 209.708 29.4125C209.587 29.629 209.52 29.8713 209.511 30.1191C209.498 30.4578 209.609 30.7896 209.823 31.0528C210.048 31.3193 210.336 31.5248 210.662 31.6504C211.037 31.7975 211.437 31.8694 211.84 31.8621Z" fill="black"/>
    <path d="M229.663 35.544C228.705 35.5587 227.752 35.3885 226.858 35.0429C226.041 34.7183 225.31 34.2102 224.722 33.5582C224.107 32.8622 223.639 32.0491 223.347 31.1679C223.008 30.1288 222.823 29.0455 222.799 27.9527C222.777 27.5232 222.767 27.1404 222.767 26.8074C222.767 26.4743 222.767 26.104 222.799 25.6931C222.825 24.6281 223.01 23.5729 223.347 22.562C223.642 21.6853 224.103 20.8736 224.707 20.1717C225.291 19.5032 226.022 18.9781 226.842 18.6372C227.732 18.2738 228.686 18.0928 229.648 18.105C230.602 18.0808 231.551 18.2624 232.429 18.6372C233.168 18.9659 233.837 19.4317 234.402 20.0098V13.1002C234.397 12.9928 234.414 12.8855 234.453 12.7851C234.491 12.6847 234.551 12.5935 234.627 12.5173C234.703 12.4411 234.794 12.3816 234.894 12.3426C234.995 12.3037 235.102 12.2861 235.21 12.291H239.157C239.367 12.2897 239.57 12.3713 239.721 12.5182C239.801 12.5923 239.864 12.6825 239.906 12.7829C239.947 12.8833 239.967 12.9915 239.964 13.1002V34.411C239.968 34.5198 239.948 34.6282 239.906 34.7287C239.864 34.8292 239.801 34.9194 239.721 34.9931C239.647 35.0664 239.558 35.1242 239.462 35.1632C239.365 35.2022 239.261 35.2216 239.157 35.2203H235.518C235.411 35.2247 235.303 35.2067 235.203 35.1676C235.103 35.1285 235.012 35.0691 234.935 34.993C234.859 34.917 234.8 34.826 234.76 34.7259C234.721 34.6257 234.703 34.5185 234.708 34.411V33.3777C234.157 34.0322 233.474 34.5626 232.703 34.9339C231.751 35.3706 230.71 35.5794 229.663 35.544ZM231.409 31.2146C231.977 31.2634 232.544 31.1259 233.026 30.8231C233.508 30.5203 233.877 30.0687 234.078 29.537C234.286 29.0227 234.401 28.4759 234.418 27.9216C234.44 27.4921 234.449 27.0813 234.449 26.6953C234.449 26.3094 234.449 25.9079 234.418 25.5001C234.4 24.9805 234.28 24.4694 234.062 23.9968C233.848 23.5385 233.511 23.1478 233.09 22.867C232.586 22.5571 232.001 22.4053 231.409 22.4313C230.809 22.4007 230.215 22.5597 229.71 22.8857C229.292 23.1884 228.983 23.6188 228.831 24.112C228.654 24.667 228.55 25.2423 228.519 25.8238C228.454 26.4893 228.454 27.1596 228.519 27.8251C228.55 28.4067 228.654 28.982 228.831 29.537C228.986 30.031 229.298 30.4614 229.72 30.7633C230.222 31.0863 230.813 31.2441 231.409 31.2146Z" fill="black"/>
    <path d="M250.589 35.5441C248.045 35.5441 246.018 34.8552 244.509 33.4774C243.001 32.0996 242.213 30.0537 242.146 27.3397V26.2099C242.166 24.6793 242.561 23.1769 243.297 21.8338C243.972 20.642 244.985 19.6761 246.209 19.0575C247.565 18.3942 249.063 18.0675 250.573 18.1051C252.471 18.1051 254.04 18.4817 255.281 19.2349C256.498 19.9606 257.473 21.0279 258.087 22.3038C258.731 23.6877 259.051 25.2004 259.022 26.7265V27.5015C259.025 27.6103 259.006 27.7185 258.964 27.8189C258.922 27.9194 258.859 28.0096 258.779 28.0836C258.627 28.2299 258.425 28.3114 258.214 28.3108H247.848V28.5349C247.859 29.1185 247.964 29.6967 248.16 30.2467C248.333 30.7368 248.649 31.164 249.067 31.473C249.5 31.7831 250.022 31.9428 250.554 31.9274C250.927 31.9388 251.298 31.8665 251.639 31.7158C251.904 31.5923 252.149 31.4296 252.366 31.2333C252.532 31.0866 252.69 30.9296 252.837 30.7634C252.968 30.6014 253.127 30.4644 253.307 30.3588C253.488 30.2952 253.68 30.2677 253.872 30.2778H257.884C258.078 30.2714 258.267 30.3355 258.417 30.4583C258.487 30.5191 258.54 30.5968 258.571 30.6841C258.602 30.7713 258.61 30.8651 258.595 30.9563C258.528 31.4377 258.339 31.894 258.046 32.2822C257.63 32.8709 257.121 33.389 256.54 33.8167C255.792 34.3687 254.955 34.7897 254.065 35.0616C252.939 35.4047 251.766 35.5675 250.589 35.5441ZM247.848 25.1112H253.317V25.0489C253.328 24.4319 253.223 23.8182 253.005 23.2406C252.825 22.7548 252.498 22.337 252.07 22.0454C251.623 21.7571 251.099 21.6106 250.567 21.6253C250.044 21.6079 249.53 21.7549 249.095 22.0454C248.674 22.3452 248.35 22.7603 248.16 23.2406C247.937 23.8169 247.831 24.4315 247.848 25.0489V25.1112Z" fill="black"/>
    </g>
    <defs>
    <clipPath id="clip0_1449_22">
    <rect width="259" height="48" fill="white"/>
    </clipPath>
    </defs>
</svg>
