<?xml version="1.0" encoding="UTF-8"?>
<svg version="1.1" xmlns="http://www.w3.org/2000/svg" width="415" height="415">
<path d="M0 0 C11.71194612 9.83493224 20.83909025 22.927699 22.22314453 38.51269531 C23.24557346 56.53180329 20.36636919 71.65696198 8.59375 85.9140625 C-1.46773891 96.65618154 -14.58319492 104.71528769 -29.5859375 105.43359375 C-31.51548189 105.4571308 -33.44542032 105.45794012 -35.375 105.4375 C-36.38796143 105.42920166 -37.40092285 105.42090332 -38.44458008 105.41235352 C-45.91140985 105.24362178 -52.25468463 104.38272532 -59 101 C-59.98742188 100.525625 -60.97484375 100.05125 -61.9921875 99.5625 C-76.25518686 92.0136352 -85.81517304 80.11787189 -91.4375 65.125 C-95.97119422 48.83510301 -93.77714246 31.6497108 -85.9375 16.875 C-77.93427754 4.02236732 -66.23976577 -5.10413723 -51.9375 -10 C-33.73158635 -14.12667376 -15.14619896 -10.90850742 0 0 Z " fill="#2CC1EB" transform="translate(98,173)"/>
<path d="M0 0 C8.25 0 16.5 0 25 0 C25 1.65 25 3.3 25 5 C27.19727821 6.70795526 29.13686421 7.95027589 31.5625 9.25 C32.93674119 10.02377551 34.31042286 10.79854544 35.68359375 11.57421875 C36.39499512 11.96915527 37.10639648 12.3640918 37.83935547 12.77099609 C39.98256242 13.99008127 42.07312668 15.26940601 44.16015625 16.58203125 C44.82523193 16.99743164 45.49030762 17.41283203 46.17553711 17.84082031 C47.45005938 18.63953158 48.72060885 19.44462701 49.98657227 20.25683594 C53.55985953 22.45744896 55.82782255 23.47353639 60 23 C62.87502965 21.68730742 62.87502965 21.68730742 65.78125 19.82421875 C66.87050781 19.16099609 67.95976563 18.49777344 69.08203125 17.81445312 C70.22152511 17.10574353 71.36084658 16.39675669 72.5 15.6875 C73.63869936 14.98921651 74.77801714 14.29194043 75.91796875 13.59570312 C78.02064344 12.3079704 80.12056565 11.01572461 82.21679688 9.7175293 C85 8 85 8 87.86132812 6.58911133 C88.56708984 6.06470459 89.27285156 5.54029785 90 5 C90 3.35 90 1.7 90 0 C98.25 0 106.5 0 115 0 C115.65543069 16.22190962 112.0515139 29.24930297 101.59375 41.9140625 C91.53226109 52.65618154 78.41680508 60.71528769 63.4140625 61.43359375 C61.48451811 61.4571308 59.55457968 61.45794012 57.625 61.4375 C56.61203857 61.42920166 55.59907715 61.42090332 54.55541992 61.41235352 C47.08859015 61.24362178 40.74531537 60.38272532 34 57 C33.01257812 56.525625 32.02515625 56.05125 31.0078125 55.5625 C16.60097919 47.93750934 6.90532006 35.91140184 1.5625 20.625 C-0.41831436 13.67107724 -0.29063734 7.19327414 0 0 Z " fill="#2ABA45" transform="translate(5,217)"/>
<path d="M0 0 C0.99 0 1.98 0 3 0 C4.2199707 1.47094727 4.2199707 1.47094727 5.42578125 3.56640625 C5.88581543 4.35096191 6.34584961 5.13551758 6.81982422 5.94384766 C7.55869873 7.24008057 7.55869873 7.24008057 8.3125 8.5625 C9.38306728 10.39514345 10.45472693 12.22714911 11.52734375 14.05859375 C12.09050293 15.02651855 12.65366211 15.99444336 13.23388672 16.99169922 C16.21787519 22.07446199 19.29930203 27.09739302 22.375 32.125 C24.04837569 34.86619604 25.7205917 37.6078779 27.38183594 40.35644531 C28.49299585 42.17171983 29.62788356 43.97261744 30.78222656 45.76074219 C31.34135742 46.64149414 31.90048828 47.52224609 32.4765625 48.4296875 C32.98525879 49.21327637 33.49395508 49.99686523 34.01806641 50.80419922 C35 53 35 53 34.94702148 55.09448242 C33.61226056 57.78017694 31.96622351 58.58384115 29.37109375 60.05859375 C28.41783203 60.60966797 27.46457031 61.16074219 26.48242188 61.72851562 C25.47759766 62.29248047 24.47277344 62.85644531 23.4375 63.4375 C21.47737351 64.56034108 19.51773006 65.68402589 17.55859375 66.80859375 C16.61097168 67.34468262 15.66334961 67.88077148 14.68701172 68.43310547 C11.64496557 70.20703352 8.72532087 72.12477653 5.83618164 74.13696289 C3.31215185 75.32330052 1.77461399 75.35673608 -1 75 C-3.98266602 73.57885742 -3.98266602 73.57885742 -7.25390625 71.60546875 C-7.83663803 71.25744705 -8.41936981 70.90942535 -9.01976013 70.55085754 C-10.87366826 69.43988514 -12.71784702 68.31375737 -14.5625 67.1875 C-15.80606697 66.44110071 -17.05020253 65.69564785 -18.29492188 64.95117188 C-28.04081095 59.09145433 -28.04081095 59.09145433 -32 56 C-31.42870173 52.27383839 -30.42663654 49.65687944 -28.4375 46.46484375 C-27.89585205 45.58578369 -27.3542041 44.70672363 -26.79614258 43.80102539 C-25.907052 42.38358032 -25.907052 42.38358032 -25 40.9375 C-23.73214885 38.89380214 -22.46526795 36.84950214 -21.19921875 34.8046875 C-20.52294434 33.71510742 -19.84666992 32.62552734 -19.14990234 31.50292969 C-16.85378908 27.78068128 -14.62335373 24.02060302 -12.39453125 20.2578125 C-11.24447121 18.3261484 -10.0934654 16.39505118 -8.94213867 14.46414185 C-8.18919777 13.19663573 -7.43984138 11.92699341 -6.6940918 10.65524292 C-5.64582913 8.86950772 -4.58428949 7.09234022 -3.51953125 5.31640625 C-2.91214111 4.28974854 -2.30475098 3.26309082 -1.67895508 2.20532227 C-0.84787231 1.11368774 -0.84787231 1.11368774 0 0 Z " fill="#221E66" transform="translate(61,166)"/>
<path d="M0 0 C8.25 0 16.5 0 25 0 C25 1.65 25 3.3 25 5 C27.19727821 6.70795526 29.13686421 7.95027589 31.5625 9.25 C32.93674119 10.02377551 34.31042286 10.79854544 35.68359375 11.57421875 C36.39499512 11.96915527 37.10639648 12.3640918 37.83935547 12.77099609 C39.98256242 13.99008127 42.07312668 15.26940601 44.16015625 16.58203125 C44.82523193 16.99743164 45.49030762 17.41283203 46.17553711 17.84082031 C47.45005938 18.63953158 48.72060885 19.44462701 49.98657227 20.25683594 C53.55985953 22.45744896 55.82782255 23.47353639 60 23 C62.87502965 21.68730742 62.87502965 21.68730742 65.78125 19.82421875 C66.87050781 19.16099609 67.95976563 18.49777344 69.08203125 17.81445312 C70.22152511 17.10574353 71.36084658 16.39675669 72.5 15.6875 C73.63869936 14.98921651 74.77801714 14.29194043 75.91796875 13.59570312 C78.02064344 12.3079704 80.12056565 11.01572461 82.21679688 9.7175293 C85 8 85 8 87.86132812 6.58911133 C88.56708984 6.06470459 89.27285156 5.54029785 90 5 C90 3.35 90 1.7 90 0 C98.25 0 106.5 0 115 0 C115.53616406 13.27006059 113.60848312 22.43515454 107 34 C96.44 34 85.88 34 75 34 C83.05236486 21.34628378 83.05236486 21.34628378 87.4375 15.3125 C87.88287109 14.69439453 88.32824219 14.07628906 88.78710938 13.43945312 C89.85536489 11.95767935 90.92725739 10.47852854 92 9 C83.24014401 13.05944546 75.05917804 17.87266874 66.85644531 22.94824219 C66.02725586 23.45645508 65.19806641 23.96466797 64.34375 24.48828125 C63.60318359 24.94759033 62.86261719 25.40689941 62.09960938 25.88012695 C60.0147315 26.99214263 58.33812808 27.67332087 56 28 C53.43359375 26.734375 53.43359375 26.734375 50.4375 24.75 C49.29872552 24.01275872 48.15796652 23.27857704 47.015625 22.546875 C46.38720703 22.14275391 45.75878906 21.73863281 45.11132812 21.32226562 C41.03611342 18.77007288 36.85590852 16.39575354 32.6875 14 C31.832771 13.50725586 30.97804199 13.01451172 30.09741211 12.50683594 C28.06587001 11.33626399 26.03342083 10.16730429 24 9 C26.4547325 14.40041151 29.71664837 19.01708309 33.1875 23.8125 C34.287196 25.33837577 35.38496569 26.86564237 36.48046875 28.39453125 C36.96410889 29.06331299 37.44774902 29.73209473 37.94604492 30.42114258 C39 32 39 32 39 33 C28.44 33 17.88 33 7 33 C1.10543111 20.03194844 -0.26566835 13.81475417 0 0 Z " fill="#F5CD0B" transform="translate(5,217)"/>
<path d="M0 0 C3.0251834 1.45862475 5.87482616 3.1020381 8.73828125 4.85546875 C10.09276367 5.66467773 10.09276367 5.66467773 11.47460938 6.49023438 C13.36311765 7.61970009 15.24345648 8.76294139 17.11523438 9.91992188 C21.03682582 12.23608569 23.94074097 13.9284443 28.52734375 14.23828125 C33.52000219 12.45799697 37.78702416 9.83177122 42.25 7 C44.02455821 5.89345077 45.80053847 4.78917788 47.578125 3.6875 C48.35575195 3.19636719 49.13337891 2.70523438 49.93457031 2.19921875 C52 1 52 1 55 0 C53.66981793 2.81023834 52.17629763 5.28842289 50.34765625 7.80078125 C49.82349121 8.52410645 49.29932617 9.24743164 48.75927734 9.99267578 C48.19934082 10.75821777 47.6394043 11.52375977 47.0625 12.3125 C46.48709473 13.10124512 45.91168945 13.88999023 45.31884766 14.70263672 C44.13048406 16.33144962 42.94135051 17.95970102 41.75146484 19.58740234 C40.08296122 21.88572306 38.43814043 24.19895745 36.80078125 26.51953125 C36.30634521 27.21328857 35.81190918 27.9070459 35.30249023 28.62182617 C34.36618167 29.93573275 33.43702925 31.25477472 32.51586914 32.5793457 C31.41707115 34.10822717 30.21654284 35.56303824 29 37 C28.01 37 27.02 37 26 37 C24.0490922 34.73157356 22.30251083 32.48606649 20.5625 30.0625 C20.04187988 29.3519043 19.52125977 28.64130859 18.98486328 27.90917969 C17.31094407 25.61475161 15.65386945 23.3089146 14 21 C13.15816162 19.83090088 13.15816162 19.83090088 12.29931641 18.63818359 C10.6517233 16.34644027 9.01114509 14.04992818 7.375 11.75 C6.86654541 11.03593994 6.35809082 10.32187988 5.83422852 9.58618164 C5.36041748 8.91321045 4.88660645 8.24023926 4.3984375 7.546875 C3.98255371 6.95745117 3.56666992 6.36802734 3.13818359 5.76074219 C1.93575008 3.90060695 0.95464938 1.9970322 0 0 Z " fill="#F5C80B" transform="translate(35,232)"/>
<path d="M0 0 C2.866875 -0.061875 5.73375 -0.12375 8.6875 -0.1875 C10.02880981 -0.22846802 10.02880981 -0.22846802 11.3972168 -0.27026367 C16.08935444 -0.3192004 19.22122733 -0.09960512 23 3 C25.81858077 7.22787116 25.68030098 11.03222076 25 16 C23 19.125 23 19.125 21 21 C21.433125 21.55429688 21.86625 22.10859375 22.3125 22.6796875 C22.869375 23.40414062 23.42625 24.12859375 24 24.875 C24.556875 25.59429687 25.11375 26.31359375 25.6875 27.0546875 C27 29 27 29 27 31 C23.89855484 31.42568855 21.08464345 31.6035172 18 31 C15.69879375 28.9982658 14.24869075 26.77347392 13 24 C13 23.34 13 22.68 13 22 C11.35 22 9.7 22 8 22 C8 24.97 8 27.94 8 31 C5.36 31 2.72 31 0 31 C0 20.77 0 10.54 0 0 Z M8 6 C8 8.97 8 11.94 8 15 C10.64 15 13.28 15 16 15 C16.66 13.35 17.32 11.7 18 10 C16.37719693 7.87501931 16.37719693 7.87501931 14 6 C10.832168 5.66551741 10.832168 5.66551741 8 6 Z " fill="#010001" transform="translate(225,209)"/>
<path d="M0 0 C2.64 0 5.28 0 8 0 C8 3.96 8 7.92 8 12 C11.96 12 15.92 12 20 12 C20 8.04 20 4.08 20 0 C22.64 0 25.28 0 28 0 C28 10.23 28 20.46 28 31 C25.36 31 22.72 31 20 31 C20 27.04 20 23.08 20 19 C16.04 19 12.08 19 8 19 C8 22.96 8 26.92 8 31 C5.36 31 2.72 31 0 31 C0 20.77 0 10.54 0 0 Z " fill="#010001" transform="translate(180,209)"/>
<path d="M0 0 C0.33 0 0.66 0 1 0 C1 11.88 1 23.76 1 36 C-3.95 38.31 -8.9 40.62 -14 43 C-19.24482027 45.46535264 -19.24482027 45.46535264 -24.48828125 47.93359375 C-27 49 -27 49 -29 49 C-27.26487982 43.97622181 -24.50058025 39.63935165 -21.75 35.125 C-21.23074951 34.26672607 -20.71149902 33.40845215 -20.17651367 32.52416992 C-19.05418833 30.67079625 -17.93001144 28.81854283 -16.80419922 26.96728516 C-14.90829354 23.84917452 -13.0183643 20.72749004 -11.12890625 17.60546875 C-9.85710536 15.50760966 -8.58497666 13.40994926 -7.3125 11.3125 C-6.70051758 10.30268066 -6.08853516 9.29286133 -5.45800781 8.25244141 C-4.89049805 7.31964355 -4.32298828 6.3868457 -3.73828125 5.42578125 C-3.23337158 4.59473877 -2.72846191 3.76369629 -2.20825195 2.9074707 C-1 1 -1 1 0 0 Z " fill="#EFF6ED" transform="translate(62,170)"/>
<path d="M0 0 C2.64 0 5.28 0 8 0 C8.50636607 1.74816858 9.00484619 3.49862263 9.5 5.25 C9.7784375 6.22453125 10.056875 7.1990625 10.34375 8.203125 C11 11 11 11 11 15 C11.66 15 12.32 15 13 15 C13.06058594 14.33613281 13.12117188 13.67226562 13.18359375 12.98828125 C14.01581722 4.21792619 14.01581722 4.21792619 15 0 C17.64 0 20.28 0 23 0 C25.05348633 4.54700545 25.98388017 9.13714083 27 14 C28.32 9.38 29.64 4.76 31 0 C33.31 0 35.62 0 38 0 C34.92482916 15.74487472 34.92482916 15.74487472 33 23 C29.37 23 25.74 23 22 23 C21.01 20.03 20.02 17.06 19 14 C18.34 16.97 17.68 19.94 17 23 C13.37 23 9.74 23 6 23 C4.02 15.41 2.04 7.82 0 0 Z " fill="#010001" transform="translate(253,217)"/>
<path d="M0 0 C2.75634764 3.32586267 5.12197242 6.67819664 7.3203125 10.39453125 C7.93382568 11.42570068 8.54733887 12.45687012 9.17944336 13.51928711 C9.82147705 14.60604736 10.46351074 15.69280762 11.125 16.8125 C16.03982008 25.08337331 20.99044796 33.31782151 26.20556641 41.40356445 C29 45.78888846 29 45.78888846 29 48 C22.66996 46.0146049 16.61303983 43.65293794 10.5625 40.9375 C9.76134766 40.58623047 8.96019531 40.23496094 8.13476562 39.87304688 C7.36970703 39.53208984 6.60464844 39.19113281 5.81640625 38.83984375 C4.78688843 38.38146118 4.78688843 38.38146118 3.73657227 37.91381836 C2 37 2 37 0 35 C-0.17510386 32.34708243 -0.23155483 29.80013826 -0.1953125 27.1484375 C-0.1924826 26.37440582 -0.18965271 25.60037415 -0.18673706 24.80288696 C-0.17552754 22.32676843 -0.15042203 19.8510095 -0.125 17.375 C-0.11497118 15.69792188 -0.10584516 14.02083811 -0.09765625 12.34375 C-0.07558574 8.22902777 -0.04105102 4.11457489 0 0 Z " fill="#14A7E6" transform="translate(63,171)"/>
<path d="M0 0 C2.64 0 5.28 0 8 0 C8 10.23 8 20.46 8 31 C5 31 2 31 -1 31 C-1.33 31.33 -1.66 31.66 -2 32 C-6.49100115 32.56601461 -9.96879061 32.59239688 -13.9375 30.3125 C-17.0846262 26.78390396 -17.8858344 24.25582156 -18.3125 19.5625 C-17.89427078 14.7946869 -16.5102733 11.67808144 -13.3125 8.125 C-9.77132093 6.40226424 -6.92021557 6.74708287 -3 7 C-2.34 7.33 -1.68 7.66 -1 8 C-0.67 5.36 -0.34 2.72 0 0 Z M-8.1875 14.0625 C-10.34001949 15.99257357 -10.34001949 15.99257357 -10.5 19.5 C-10.31831521 22.98138734 -10.31831521 22.98138734 -8.3125 25 C-5.35289466 26.27982934 -3.98790191 26.17943497 -1 25 C0.84483577 22.65202721 1.03028707 21.41392331 0.8125 18.4375 C-0.06541639 15.80375082 -0.76918405 14.63021166 -3 13 C-5.95556001 12.78154802 -5.95556001 12.78154802 -8.1875 14.0625 Z " fill="#010001" transform="translate(366,209)"/>
<path d="M0 0 C0 10.23 0 20.46 0 31 C-10.48412422 25.97635715 -20.2362762 20.30203991 -30 14 C-29.67 13.01 -29.34 12.02 -29 11 C-27.03858979 10.33452154 -25.07104897 9.68478642 -23.0859375 9.09375 C-18.16509865 7.34965522 -13.53212522 4.99924585 -8.85351562 2.69262695 C-8.14130859 2.34675537 -7.42910156 2.00088379 -6.6953125 1.64453125 C-6.05609863 1.32846924 -5.41688477 1.01240723 -4.75830078 0.68676758 C-3 0 -3 0 0 0 Z " fill="#15A8E6" transform="translate(62,207)"/>
<path d="M0 0 C3.64848546 1.37698114 6.98469663 3.01653552 10.37890625 4.93359375 C11.38244141 5.50013672 12.38597656 6.06667969 13.41992188 6.65039062 C14.45697266 7.24013672 15.49402344 7.82988281 16.5625 8.4375 C17.60341797 9.02337891 18.64433594 9.60925781 19.71679688 10.21289062 C27.66077889 14.71362899 27.66077889 14.71362899 30.07788086 16.75415039 C31.88015733 18.18782571 31.88015733 18.18782571 33.86743164 17.91015625 C36.78992801 16.66286759 39.40888806 15.0942048 42.12109375 13.4375 C43.31569546 12.71604688 44.51035882 11.99469586 45.70507812 11.2734375 C47.57381483 10.13682119 49.4410541 8.99782586 51.30688477 7.85644531 C53.11622657 6.75218132 54.93082784 5.65698957 56.74609375 4.5625 C57.82560303 3.90378906 58.9051123 3.24507812 60.01733398 2.56640625 C62.77878596 1.11617494 64.93025589 0.40366122 68 0 C66.43666531 4.81874928 63.6889168 8.30548003 60.625 12.25 C56.19722232 18.04800722 51.88108437 23.9052308 47.6875 29.875 C47.18694092 30.58487061 46.68638184 31.29474121 46.1706543 32.02612305 C44.01295335 35.09486126 41.88303372 38.17482726 39.796875 41.29296875 C39.18328125 42.20691406 38.5696875 43.12085938 37.9375 44.0625 C37.43089844 44.83722656 36.92429688 45.61195313 36.40234375 46.41015625 C35.93957031 46.93480469 35.47679687 47.45945312 35 48 C34.01 48 33.02 48 32 48 C30.65649414 46.61743164 30.65649414 46.61743164 29.28515625 44.66015625 C28.51196045 43.57250977 28.51196045 43.57250977 27.72314453 42.46289062 C27.17513184 41.67076172 26.62711914 40.87863281 26.0625 40.0625 C25.49128418 39.25361328 24.92006836 38.44472656 24.33154297 37.61132812 C23.13848604 35.91982246 21.94975506 34.2252582 20.76513672 32.52783203 C19.09427948 30.13501656 17.41139637 27.75131071 15.72265625 25.37109375 C13.70078463 22.52084916 11.68642759 19.66560456 9.6796875 16.8046875 C8.03563076 14.46251749 6.37489418 12.13756587 4.6953125 9.8203125 C4.05335937 8.93085938 3.41140625 8.04140625 2.75 7.125 C2.20859375 6.38507813 1.6671875 5.64515625 1.109375 4.8828125 C0 3 0 3 0 0 Z M6 6 C7.33018207 8.81023834 8.82370237 11.28842289 10.65234375 13.80078125 C11.17650879 14.52410645 11.70067383 15.24743164 12.24072266 15.99267578 C12.80065918 16.75821777 13.3605957 17.52375977 13.9375 18.3125 C14.51290527 19.10124512 15.08831055 19.88999023 15.68115234 20.70263672 C16.86951594 22.33144962 18.05864949 23.95970102 19.24853516 25.58740234 C20.91703878 27.88572306 22.56185957 30.19895745 24.19921875 32.51953125 C24.69365479 33.21328857 25.18809082 33.9070459 25.69750977 34.62182617 C26.63381833 35.93573275 27.56297075 37.25477472 28.48413086 38.5793457 C29.58292885 40.10822717 30.78345716 41.56303824 32 43 C32.99 43 33.98 43 35 43 C36.9509078 40.73157356 38.69748917 38.48606649 40.4375 36.0625 C40.95812012 35.3519043 41.47874023 34.64130859 42.01513672 33.90917969 C43.68905593 31.61475161 45.34613055 29.3089146 47 27 C47.56122559 26.22060059 48.12245117 25.44120117 48.70068359 24.63818359 C50.3482767 22.34644027 51.98885491 20.04992818 53.625 17.75 C54.38768188 16.67890991 54.38768188 16.67890991 55.16577148 15.58618164 C55.63958252 14.91321045 56.11339355 14.24023926 56.6015625 13.546875 C57.01744629 12.95745117 57.43333008 12.36802734 57.86181641 11.76074219 C59.06424992 9.90060695 60.04535062 7.9970322 61 6 C57.50824628 7.29716839 54.5032117 8.82730758 51.3828125 10.85546875 C50.52816406 11.39494141 49.67351562 11.93441406 48.79296875 12.49023438 C47.0145377 13.62160815 45.24362382 14.76488602 43.48046875 15.91992188 C39.69455548 18.28540603 37.00889859 19.93116016 32.5078125 20.23828125 C27.49459478 18.4685819 23.22589854 15.83997071 18.75 13 C16.97544179 11.89345077 15.19946153 10.78917788 13.421875 9.6875 C12.64424805 9.19636719 11.86662109 8.70523438 11.06542969 8.19921875 C8.92183847 6.86123784 8.92183847 6.86123784 6 6 Z " fill="#1F196A" transform="translate(29,226)"/>
<path d="M0 0 C6.6 0 13.2 0 20 0 C20 1.98 20 3.96 20 6 C16.04 6 12.08 6 8 6 C8 7.98 8 9.96 8 12 C11.63 12 15.26 12 19 12 C19 14.31 19 16.62 19 19 C15.37 19 11.74 19 8 19 C8 20.98 8 22.96 8 25 C11.96 25 15.92 25 20 25 C20 26.98 20 28.96 20 31 C13.4 31 6.8 31 0 31 C0 20.77 0 10.54 0 0 Z " fill="#010001" transform="translate(127,209)"/>
<path d="M0 0 C4.66920595 0.04851123 7.91879153 0.45451699 11.8125 3.25 C14.61769287 7.07961485 14.03511164 11.47232156 13.9375 16 C13.92847656 16.79277344 13.91945313 17.58554688 13.91015625 18.40234375 C13.88667012 20.35169281 13.85080137 22.30088575 13.8125 24.25 C11.14583333 24.25 8.47916667 24.25 5.8125 24.25 C5.1525 24.58 4.4925 24.91 3.8125 25.25 C-0.19527293 25.62809179 -2.54064281 25.59407297 -6.125 23.6875 C-8.1875 21.25 -8.1875 21.25 -8.75 17.75 C-8.1875 14.25 -8.1875 14.25 -6.8125 11.8125 C-2.77010252 9.40631102 1.22129515 9.93457371 5.8125 10.25 C5.8125 9.26 5.8125 8.27 5.8125 7.25 C1.8525 7.25 -2.1075 7.25 -6.1875 7.25 C-6.1875 0.10020243 -6.1875 0.10020243 0 0 Z M0.8125 14.25 C-0.1775 15.735 -0.1775 15.735 -1.1875 17.25 C-0.1975 18.24 0.7925 19.23 1.8125 20.25 C3.1325 19.59 4.4525 18.93 5.8125 18.25 C5.8125 16.93 5.8125 15.61 5.8125 14.25 C3.39630177 13.99969023 3.39630177 13.99969023 0.8125 14.25 Z " fill="#010001" transform="translate(387.1875,215.75)"/>
<path d="M0 0 C4.66920595 0.04851123 7.91879153 0.45451699 11.8125 3.25 C14.61769287 7.07961485 14.03511164 11.47232156 13.9375 16 C13.92847656 16.79277344 13.91945313 17.58554688 13.91015625 18.40234375 C13.88667012 20.35169281 13.85080137 22.30088575 13.8125 24.25 C11.14583333 24.25 8.47916667 24.25 5.8125 24.25 C5.1525 24.58 4.4925 24.91 3.8125 25.25 C-0.19527293 25.62809179 -2.54064281 25.59407297 -6.125 23.6875 C-8.1875 21.25 -8.1875 21.25 -8.75 17.75 C-8.1875 14.25 -8.1875 14.25 -6.8125 11.8125 C-2.77010252 9.40631102 1.22129515 9.93457371 5.8125 10.25 C5.8125 9.26 5.8125 8.27 5.8125 7.25 C1.8525 7.25 -2.1075 7.25 -6.1875 7.25 C-6.1875 0.10020243 -6.1875 0.10020243 0 0 Z M0.8125 14.25 C-0.1775 15.735 -0.1775 15.735 -1.1875 17.25 C-0.1975 18.24 0.7925 19.23 1.8125 20.25 C3.1325 19.59 4.4525 18.93 5.8125 18.25 C5.8125 16.93 5.8125 15.61 5.8125 14.25 C3.39630177 13.99969023 3.39630177 13.99969023 0.8125 14.25 Z " fill="#010001" transform="translate(302.1875,215.75)"/>
<path d="M0 0 C2.8442752 0.03568087 4.06582297 0.1844816 6.625 1.5625 C9.17193504 4.31318984 9.31053521 6.90203583 9.28515625 10.48046875 C9.28193359 11.28291016 9.27871094 12.08535156 9.27539062 12.91210938 C9.26701172 13.74548828 9.25863281 14.57886719 9.25 15.4375 C9.24548828 16.28248047 9.24097656 17.12746094 9.23632812 17.99804688 C9.22455403 20.08206155 9.2066189 22.16603977 9.1875 24.25 C6.8775 24.25 4.5675 24.25 2.1875 24.25 C2.12691406 23.26257813 2.06632812 22.27515625 2.00390625 21.2578125 C1.92011719 19.97648437 1.83632813 18.69515625 1.75 17.375 C1.62818359 15.46074219 1.62818359 15.46074219 1.50390625 13.5078125 C1.39543973 10.36699848 1.39543973 10.36699848 0.1875 8.25 C-1.4625 8.58 -3.1125 8.91 -4.8125 9.25 C-5.1425 14.2 -5.4725 19.15 -5.8125 24.25 C-8.1225 24.25 -10.4325 24.25 -12.8125 24.25 C-12.8125 16.66 -12.8125 9.07 -12.8125 1.25 C-10.14583333 1.25 -7.47916667 1.25 -4.8125 1.25 C-3.8125 0.25 -3.8125 0.25 0 0 Z " fill="#010001" transform="translate(334.8125,215.75)"/>
<path d="M0 0 C7.92 0 15.84 0 24 0 C24 2.31 24 4.62 24 7 C21.36 7 18.72 7 16 7 C16 14.92 16 22.84 16 31 C13.36 31 10.72 31 8 31 C8 23.08 8 15.16 8 7 C5.36 7 2.72 7 0 7 C0 4.69 0 2.38 0 0 Z " fill="#010001" transform="translate(151,209)"/>
<path d="M0 0 C3.01803867 1.47255282 5.93333642 3.07533047 8.84375 4.75 C10.21853516 5.53890625 10.21853516 5.53890625 11.62109375 6.34375 C13.54036458 7.44791667 15.45963542 8.55208333 17.37890625 9.65625 C18.29542969 10.1821875 19.21195313 10.708125 20.15625 11.25 C20.98962891 11.72953125 21.82300781 12.2090625 22.68164062 12.703125 C24.76148251 13.86657488 26.85860623 14.95517726 29 16 C28.34 16 27.68 16 27 16 C27 22.93 27 29.86 27 37 C21.3796022 31.3796022 21.3796022 31.3796022 19.203125 28.21484375 C18.72335205 27.52471191 18.2435791 26.83458008 17.74926758 26.12353516 C17.25450928 25.40214355 16.75975098 24.68075195 16.25 23.9375 C11.85871719 17.61083279 7.35421983 11.41320691 2.64453125 5.3203125 C1 3 1 3 0 0 Z " fill="#F6EC36" transform="translate(35,232)"/>
<path d="M0 0 C0 0.99 0 1.98 0 3 C-0.76666992 3.43868408 -1.53333984 3.87736816 -2.32324219 4.3293457 C-5.17960682 5.96541702 -8.03458565 7.60385622 -10.88867188 9.24389648 C-12.1218523 9.95187533 -13.35557016 10.65891892 -14.58984375 11.36499023 C-16.36862622 12.3827694 -18.14541902 13.40394807 -19.921875 14.42578125 C-20.99018555 15.03848877 -22.05849609 15.65119629 -23.15917969 16.2824707 C-25.9724714 17.88419083 -25.9724714 17.88419083 -28.12988281 19.78588867 C-30 21 -30 21 -32.03417969 20.80297852 C-35.2700027 19.48124207 -38.24436209 17.70606133 -41.25 15.9375 C-42.22453125 15.37192383 -42.22453125 15.37192383 -43.21875 14.79492188 C-44.81505091 13.86765885 -46.40787529 12.93441544 -48 12 C-46.30859375 10.8203125 -46.30859375 10.8203125 -44 10 C-41.59765625 11.1171875 -41.59765625 11.1171875 -39.0625 12.875 C-35.4237978 15.38328622 -33.42975184 16.47299116 -29 16 C-26.07542742 14.65444349 -26.07542742 14.65444349 -23.11328125 12.75390625 C-22.01048828 12.08166016 -20.90769531 11.40941406 -19.77148438 10.71679688 C-18.61829054 9.9990176 -17.46529791 9.28091498 -16.3125 8.5625 C-15.14841937 7.84727616 -13.98371146 7.1330722 -12.81835938 6.41992188 C-10.6898806 5.11537036 -8.56433082 3.80601995 -6.44262695 2.49047852 C-2.36117936 0 -2.36117936 0 0 0 Z " fill="#E9D40B" transform="translate(94,224)"/>
<path d="M0 0 C4.31505111 1.56910949 8.04350501 3.69803928 12 6 C13.32646156 6.6802367 14.65608877 7.35492261 16 8 C15.34 8 14.68 8 14 8 C14 8.66 14 9.32 14 10 C14.66 10.33 15.32 10.66 16 11 C11.7997229 10.09476787 8.42033539 8.09717906 4.75 5.9375 C4.1003125 5.56044922 3.450625 5.18339844 2.78125 4.79492188 C1.18494909 3.86765885 -0.40787529 2.93441544 -2 2 C-1.34 1.34 -0.68 0.68 0 0 Z " fill="#E7D20C" transform="translate(48,234)"/>
<path d="M0 0 C-1.27273947 3.95963389 -3.68299713 5.37729554 -7.1796875 7.25 C-9.53294894 8.21958411 -11.48739234 8.3045585 -14 8 C-14.33 7.01 -14.66 6.02 -15 5 C-14.34 5.103125 -13.68 5.20625 -13 5.3125 C-9.13180785 4.90956332 -6.92803754 3.26786523 -3.76953125 1.09375 C-2 0 -2 0 0 0 Z " fill="#18156D" transform="translate(74,239)"/>
<path d="M0 0 C3.5875213 1.33250791 6.8364623 2.830717 10 5 C10 5.66 10 6.32 10 7 C5.48521602 6.46884894 2.65333143 4.63379708 -1 2 C-0.67 1.34 -0.34 0.68 0 0 Z " fill="#ECD709" transform="translate(38,228)"/>
<path d="M0 0 C-0.6875 2.375 -0.6875 2.375 -2 5 C-4.625 6.3125 -4.625 6.3125 -7 7 C-7.33 6.34 -7.66 5.68 -8 5 C-7.34 4.67 -6.68 4.34 -6 4 C-6.33 3.34 -6.66 2.68 -7 2 C-4.35261084 0.5393715 -3.10551666 0 0 0 Z " fill="#2D2763" transform="translate(97,226)"/>
<path d="M0 0 C0.66 0.99 1.32 1.98 2 3 C0.68 5.31 -0.64 7.62 -2 10 C-2.99 9.34 -3.98 8.68 -5 8 C-3.35 5.36 -1.7 2.72 0 0 Z " fill="#252165" transform="translate(51,183)"/>
<path d="M0 0 C0.33 0.66 0.66 1.32 1 2 C-0.65 4.31 -2.3 6.62 -4 9 C-4.66 8.67 -5.32 8.34 -6 8 C-4.55746343 4.63408134 -2.66735273 2.48952921 0 0 Z " fill="#16136E" transform="translate(92,231)"/>
<path d="M0 0 C3.36720387 1.39332574 4.9859524 2.9789286 7 6 C4 6 4 6 1 5 C0.67 3.35 0.34 1.7 0 0 Z " fill="#262168" transform="translate(29,226)"/>
<path d="M0 0 C3.40312738 1.05875074 6.01353231 2.00902154 9 4 C9 4.66 9 5.32 9 6 C4.75177626 5.52797514 2.80010291 3.03344482 0 0 Z " fill="#14116E" transform="translate(32,228)"/>
<path d="M0 0 C0.66 0.33 1.32 0.66 2 1 C1.67 1.99 1.34 2.98 1 4 C-1.5625 5.1875 -1.5625 5.1875 -4 6 C-4.33 5.01 -4.66 4.02 -5 3 C-2.625 1.4375 -2.625 1.4375 0 0 Z " fill="#262166" transform="translate(78,235)"/>
<path d="M0 0 C2.97 0.495 2.97 0.495 6 1 C5.01 1.495 5.01 1.495 4 2 C4 2.66 4 3.32 4 4 C4.66 4.33 5.32 4.66 6 5 C3.83125748 4.49396008 2.00032373 4.00016187 0 3 C0 2.01 0 1.02 0 0 Z " fill="#CEB919" transform="translate(58,240)"/>
<path d="M0 0 C2.475 0.99 2.475 0.99 5 2 C4.67 2.99 4.34 3.98 4 5 C2.02 4.01 0.04 3.02 -2 2 C-1.34 1.34 -0.68 0.68 0 0 Z " fill="#E3CD0E" transform="translate(33,225)"/>
<path d="M0 0 C0.66 0 1.32 0 2 0 C0.8141763 3.37503669 -0.27573689 5.64722731 -3 8 C-1.125 1.125 -1.125 1.125 0 0 Z " fill="#181058" transform="translate(46,192)"/>
</svg>
