<?xml version="1.0" encoding="UTF-8"?>
<svg version="1.1" xmlns="http://www.w3.org/2000/svg" width="833" height="469">
<path d="M0 0 C2.22658714 1.18377882 4.40236628 2.43336804 6.58300781 3.69921875 C13.4606391 7.53018713 20.53969913 8.06038549 28.26660156 8.23828125 C37.33140338 8.65645946 43.41787007 10.05751243 49.82910156 16.86328125 C52.77549836 20.39895741 55.27941928 24.11933104 57.76660156 27.98828125 C62.71509839 35.56446825 68.27934753 39.93998071 75.82910156 44.80078125 C81.51131711 48.49062502 86.68266396 52.69540604 89.76660156 58.86328125 C89.87967823 60.83374694 89.98681567 62.80483741 90.05566406 64.77734375 C90.46659329 76.24600481 91.66475475 86.19124535 97.19873047 96.41430664 C101.96634495 105.24023473 105.21030705 112.62299159 102.76660156 122.86328125 C101.19200365 126.59800596 99.22623973 130.09113247 97.19873047 133.59570312 C91.95594217 142.70673483 90.79265645 151.83068094 90.32910156 162.17578125 C90.03030076 168.33589959 89.6927648 173.86445272 85.76660156 178.86328125 C82.6591835 181.58888046 79.2893056 183.71399808 75.76660156 185.86328125 C62.95983027 193.6640537 62.95983027 193.6640537 54.76660156 205.86328125 C54.84694763 212.82325908 56.7787038 219.34231507 59.40332031 225.734375 C59.66437057 226.37344788 59.92542084 227.01252075 60.19438171 227.67095947 C63.4143016 235.51627518 66.74668623 243.31527247 70.07910156 251.11328125 C71.02792601 253.33516611 71.9762444 255.55726129 72.92314148 257.77996826 C73.50515961 259.14606476 74.0882829 260.51169111 74.67268372 261.87677002 C77.20169114 267.81070811 78.42203378 272.42196463 77.76660156 278.86328125 C75.68552048 283.40382179 75.68552048 283.40382179 72.76660156 284.86328125 C64.76135861 285.51877709 58.35325522 283.45449647 50.82910156 280.86328125 C48.59155889 280.11108065 46.35331283 279.36096808 44.11425781 278.61328125 C42.64484741 278.11054687 42.64484741 278.11054687 41.14575195 277.59765625 C38.8630817 276.76496788 38.8630817 276.76496788 36.76660156 276.86328125 C36.45432617 277.5996582 36.14205078 278.33603516 35.8203125 279.09472656 C34.39567016 282.43857619 32.956328 285.77590013 31.51660156 289.11328125 C31.02546875 290.27214844 30.53433594 291.43101562 30.02832031 292.625 C29.30322266 294.29755859 29.30322266 294.29755859 28.56347656 296.00390625 C28.12358398 297.03032227 27.68369141 298.05673828 27.23046875 299.11425781 C25.70866204 301.97208696 24.25744785 303.80625434 21.76660156 305.86328125 C18.67285156 306.39453125 18.67285156 306.39453125 15.26660156 306.36328125 C14.14253906 306.37359375 13.01847656 306.38390625 11.86035156 306.39453125 C7.95105184 305.72323736 7.11318925 305.05617925 4.76660156 301.86328125 C0.08326006 293.82778058 -3.09099097 284.99737196 -6.48339844 276.36328125 C-7.2944011 274.31073175 -8.10665331 272.25868282 -8.9196167 270.20690918 C-9.64781461 268.3673184 -10.37282534 266.52646691 -11.09765625 264.68554688 C-12.1457756 261.9710551 -12.1457756 261.9710551 -13.23339844 259.86328125 C-14.55131512 262.73590342 -15.86385735 265.61070643 -17.17089844 268.48828125 C-17.57332764 269.37386719 -17.97575684 270.25945312 -18.39038086 271.171875 C-21.87834693 278.92140536 -25.08712169 286.76984835 -28.13745117 294.70166016 C-31.5930398 303.43637549 -31.5930398 303.43637549 -35.23339844 305.86328125 C-38.07324219 306.39453125 -38.07324219 306.39453125 -41.17089844 306.36328125 C-42.19054687 306.37359375 -43.21019531 306.38390625 -44.26074219 306.39453125 C-47.99298615 305.72753364 -49.46502532 304.4293085 -52.23339844 301.86328125 C-53.81079102 299.25366211 -53.81079102 299.25366211 -55.12792969 296.328125 C-55.60810547 295.27173828 -56.08828125 294.21535156 -56.58300781 293.12695312 C-57.06576172 292.02931641 -57.54851562 290.93167969 -58.04589844 289.80078125 C-58.7990332 288.14852539 -58.7990332 288.14852539 -59.56738281 286.46289062 C-63.23339844 278.29790072 -63.23339844 278.29790072 -63.23339844 274.86328125 C-63.90918945 275.13068115 -64.58498047 275.39808105 -65.28125 275.67358398 C-68.34762155 276.88522736 -71.41548679 278.09304303 -74.48339844 279.30078125 C-75.546875 279.72166016 -76.61035156 280.14253906 -77.70605469 280.57617188 C-78.73085938 280.97900391 -79.75566406 281.38183594 -80.81152344 281.796875 C-82.22546387 282.35459595 -82.22546387 282.35459595 -83.66796875 282.92358398 C-88.85595132 284.8239023 -93.71881006 285.57103591 -99.23339844 284.86328125 C-102.32529664 283.12408851 -103.82992461 282.08693138 -104.94824219 278.6953125 C-105.31892555 275.01386813 -104.65765141 271.79316665 -103.79589844 268.23828125 C-103.61760498 267.49755371 -103.43931152 266.75682617 -103.25561523 265.99365234 C-100.44619391 255.0735836 -95.71977812 244.82324528 -90.71386719 234.75390625 C-90.30031982 233.9139209 -89.88677246 233.07393555 -89.46069336 232.20849609 C-88.66721448 230.61143635 -87.85719755 229.02244081 -87.02758789 227.44384766 C-84.43561558 222.25990303 -83.27519583 217.66820635 -84.23339844 211.86328125 C-85.56648247 208.90377207 -87.31330856 206.4721503 -89.23339844 203.86328125 C-89.76835937 202.99574219 -90.30332031 202.12820313 -90.85449219 201.234375 C-96.27166055 192.85815123 -102.87526638 188.83534817 -111.23339844 183.86328125 C-112.81576153 182.80917291 -114.38261787 181.7307383 -115.92089844 180.61328125 C-116.50226563 180.195625 -117.08363281 179.77796875 -117.68261719 179.34765625 C-122.82822959 174.42238493 -122.78066965 169.15296147 -123.17089844 162.42578125 C-124.0566667 150.91455503 -125.87272319 141.10699987 -131.37597656 130.81518555 C-135.31269156 123.43210916 -138.53304531 117.38155656 -136.23339844 108.86328125 C-134.00388519 103.35917042 -131.34854362 98.08421341 -128.61621094 92.81640625 C-125.17530852 85.95685992 -124.10614811 79.81623853 -123.65527344 72.20068359 C-122.53535272 54.52693469 -122.53535272 54.52693469 -116.23339844 48.86328125 C-112.57454037 46.34653227 -108.75629673 44.1089521 -104.91333008 41.88720703 C-95.08738859 36.1767642 -89.86897602 28.95189395 -84.55151367 19.09082031 C-81.86006686 14.26772749 -78.80395108 10.9542709 -73.30297852 9.2734375 C-71.2053645 8.85772539 -69.27999259 8.72205893 -67.14355469 8.6875 C-54.20708214 8.34174118 -43.98020022 6.57614748 -32.54589844 0.11328125 C-21.70143556 -5.41102985 -10.93373451 -5.35348367 0 0 Z M-71.23339844 266.86328125 C-68.0840895 267.91305089 -65.84525387 267.9645972 -62.54589844 267.92578125 C-61.55203125 267.91675781 -60.55816406 267.90773438 -59.53417969 267.8984375 C-58.77492188 267.88683594 -58.01566406 267.87523437 -57.23339844 267.86328125 C-57.56339844 266.87328125 -57.89339844 265.88328125 -58.23339844 264.86328125 C-63.05700032 264.67033717 -66.72986582 265.10580511 -71.23339844 266.86328125 Z M31.76660156 265.86328125 C31.76660156 266.19328125 31.76660156 266.52328125 31.76660156 266.86328125 C33.41660156 266.86328125 35.06660156 266.86328125 36.76660156 266.86328125 C36.76660156 266.53328125 36.76660156 266.20328125 36.76660156 265.86328125 C35.11660156 265.86328125 33.46660156 265.86328125 31.76660156 265.86328125 Z M67.76660156 273.86328125 C67.76660156 274.52328125 67.76660156 275.18328125 67.76660156 275.86328125 C68.42660156 275.53328125 69.08660156 275.20328125 69.76660156 274.86328125 C69.10660156 274.53328125 68.44660156 274.20328125 67.76660156 273.86328125 Z M-96.23339844 274.86328125 C-96.56339844 275.52328125 -96.89339844 276.18328125 -97.23339844 276.86328125 C-96.57339844 276.86328125 -95.91339844 276.86328125 -95.23339844 276.86328125 C-95.56339844 276.20328125 -95.89339844 275.54328125 -96.23339844 274.86328125 Z M-50.23339844 281.86328125 C-49.23339844 283.86328125 -49.23339844 283.86328125 -49.23339844 283.86328125 Z M-49.23339844 283.86328125 C-48.23339844 285.86328125 -48.23339844 285.86328125 -48.23339844 285.86328125 Z M-48.23339844 285.86328125 C-47.23339844 287.86328125 -47.23339844 287.86328125 -47.23339844 287.86328125 Z M-36.23339844 286.86328125 C-35.23339844 288.86328125 -35.23339844 288.86328125 -35.23339844 288.86328125 Z M-47.23339844 287.86328125 C-46.23339844 289.86328125 -46.23339844 289.86328125 -46.23339844 289.86328125 Z M-46.23339844 289.86328125 C-45.23339844 291.86328125 -45.23339844 291.86328125 -45.23339844 291.86328125 Z M-45.23339844 291.86328125 C-44.57339844 294.83328125 -43.91339844 297.80328125 -43.23339844 300.86328125 C-42.24339844 300.86328125 -41.25339844 300.86328125 -40.23339844 300.86328125 C-39.90339844 299.21328125 -39.57339844 297.56328125 -39.23339844 295.86328125 C-40.55339844 295.86328125 -41.87339844 295.86328125 -43.23339844 295.86328125 C-43.89339844 294.54328125 -44.55339844 293.22328125 -45.23339844 291.86328125 Z M17.76660156 291.86328125 C18.76660156 293.86328125 18.76660156 293.86328125 18.76660156 293.86328125 Z M12.76660156 296.86328125 C12.76660156 297.52328125 12.76660156 298.18328125 12.76660156 298.86328125 C14.08660156 298.53328125 15.40660156 298.20328125 16.76660156 297.86328125 C17.09660156 296.54328125 17.42660156 295.22328125 17.76660156 293.86328125 C15.72108114 293.86328125 14.2510225 295.61828305 12.76660156 296.86328125 Z " fill="#FBFAFD" transform="translate(445.2333984375,96.13671875)"/>
<path d="M0 0 C2.22658714 1.18377882 4.40236628 2.43336804 6.58300781 3.69921875 C13.4606391 7.53018713 20.53969913 8.06038549 28.26660156 8.23828125 C37.33140338 8.65645946 43.41787007 10.05751243 49.82910156 16.86328125 C52.77549836 20.39895741 55.27941928 24.11933104 57.76660156 27.98828125 C62.71509839 35.56446825 68.27934753 39.93998071 75.82910156 44.80078125 C81.51131711 48.49062502 86.68266396 52.69540604 89.76660156 58.86328125 C89.87967823 60.83374694 89.98681567 62.80483741 90.05566406 64.77734375 C90.46659329 76.24600481 91.66475475 86.19124535 97.19873047 96.41430664 C101.96634495 105.24023473 105.21030705 112.62299159 102.76660156 122.86328125 C101.19200365 126.59800596 99.22623973 130.09113247 97.19873047 133.59570312 C91.95594217 142.70673483 90.79265645 151.83068094 90.32910156 162.17578125 C90.03030076 168.33589959 89.6927648 173.86445272 85.76660156 178.86328125 C82.6591835 181.58888046 79.2893056 183.71399808 75.76660156 185.86328125 C62.95983027 193.6640537 62.95983027 193.6640537 54.76660156 205.86328125 C54.84694763 212.82325908 56.7787038 219.34231507 59.40332031 225.734375 C59.66437057 226.37344788 59.92542084 227.01252075 60.19438171 227.67095947 C63.4143016 235.51627518 66.74668623 243.31527247 70.07910156 251.11328125 C71.02792601 253.33516611 71.9762444 255.55726129 72.92314148 257.77996826 C73.50515961 259.14606476 74.0882829 260.51169111 74.67268372 261.87677002 C77.20169114 267.81070811 78.42203378 272.42196463 77.76660156 278.86328125 C75.68552048 283.40382179 75.68552048 283.40382179 72.76660156 284.86328125 C64.76135861 285.51877709 58.35325522 283.45449647 50.82910156 280.86328125 C48.59155889 280.11108065 46.35331283 279.36096808 44.11425781 278.61328125 C42.64484741 278.11054687 42.64484741 278.11054687 41.14575195 277.59765625 C38.8630817 276.76496788 38.8630817 276.76496788 36.76660156 276.86328125 C36.45432617 277.5996582 36.14205078 278.33603516 35.8203125 279.09472656 C34.39567016 282.43857619 32.956328 285.77590013 31.51660156 289.11328125 C31.02546875 290.27214844 30.53433594 291.43101562 30.02832031 292.625 C29.30322266 294.29755859 29.30322266 294.29755859 28.56347656 296.00390625 C28.12358398 297.03032227 27.68369141 298.05673828 27.23046875 299.11425781 C25.70866204 301.97208696 24.25744785 303.80625434 21.76660156 305.86328125 C18.67285156 306.39453125 18.67285156 306.39453125 15.26660156 306.36328125 C14.14253906 306.37359375 13.01847656 306.38390625 11.86035156 306.39453125 C7.95105184 305.72323736 7.11318925 305.05617925 4.76660156 301.86328125 C0.08326006 293.82778058 -3.09099097 284.99737196 -6.48339844 276.36328125 C-7.2944011 274.31073175 -8.10665331 272.25868282 -8.9196167 270.20690918 C-9.64781461 268.3673184 -10.37282534 266.52646691 -11.09765625 264.68554688 C-12.1457756 261.9710551 -12.1457756 261.9710551 -13.23339844 259.86328125 C-14.55131512 262.73590342 -15.86385735 265.61070643 -17.17089844 268.48828125 C-17.57332764 269.37386719 -17.97575684 270.25945312 -18.39038086 271.171875 C-21.87834693 278.92140536 -25.08712169 286.76984835 -28.13745117 294.70166016 C-31.5930398 303.43637549 -31.5930398 303.43637549 -35.23339844 305.86328125 C-38.07324219 306.39453125 -38.07324219 306.39453125 -41.17089844 306.36328125 C-42.19054687 306.37359375 -43.21019531 306.38390625 -44.26074219 306.39453125 C-47.99298615 305.72753364 -49.46502532 304.4293085 -52.23339844 301.86328125 C-53.81079102 299.25366211 -53.81079102 299.25366211 -55.12792969 296.328125 C-55.60810547 295.27173828 -56.08828125 294.21535156 -56.58300781 293.12695312 C-57.06576172 292.02931641 -57.54851562 290.93167969 -58.04589844 289.80078125 C-58.7990332 288.14852539 -58.7990332 288.14852539 -59.56738281 286.46289062 C-63.23339844 278.29790072 -63.23339844 278.29790072 -63.23339844 274.86328125 C-63.90918945 275.13068115 -64.58498047 275.39808105 -65.28125 275.67358398 C-68.34762155 276.88522736 -71.41548679 278.09304303 -74.48339844 279.30078125 C-75.546875 279.72166016 -76.61035156 280.14253906 -77.70605469 280.57617188 C-78.73085938 280.97900391 -79.75566406 281.38183594 -80.81152344 281.796875 C-82.22546387 282.35459595 -82.22546387 282.35459595 -83.66796875 282.92358398 C-88.85595132 284.8239023 -93.71881006 285.57103591 -99.23339844 284.86328125 C-102.32529664 283.12408851 -103.82992461 282.08693138 -104.94824219 278.6953125 C-105.31892555 275.01386813 -104.65765141 271.79316665 -103.79589844 268.23828125 C-103.61760498 267.49755371 -103.43931152 266.75682617 -103.25561523 265.99365234 C-100.44619391 255.0735836 -95.71977812 244.82324528 -90.71386719 234.75390625 C-90.30031982 233.9139209 -89.88677246 233.07393555 -89.46069336 232.20849609 C-88.66721448 230.61143635 -87.85719755 229.02244081 -87.02758789 227.44384766 C-84.43561558 222.25990303 -83.27519583 217.66820635 -84.23339844 211.86328125 C-85.56648247 208.90377207 -87.31330856 206.4721503 -89.23339844 203.86328125 C-89.76835937 202.99574219 -90.30332031 202.12820313 -90.85449219 201.234375 C-96.27166055 192.85815123 -102.87526638 188.83534817 -111.23339844 183.86328125 C-112.81576153 182.80917291 -114.38261787 181.7307383 -115.92089844 180.61328125 C-116.50226563 180.195625 -117.08363281 179.77796875 -117.68261719 179.34765625 C-122.82822959 174.42238493 -122.78066965 169.15296147 -123.17089844 162.42578125 C-124.0566667 150.91455503 -125.87272319 141.10699987 -131.37597656 130.81518555 C-135.31269156 123.43210916 -138.53304531 117.38155656 -136.23339844 108.86328125 C-134.00388519 103.35917042 -131.34854362 98.08421341 -128.61621094 92.81640625 C-125.17530852 85.95685992 -124.10614811 79.81623853 -123.65527344 72.20068359 C-122.53535272 54.52693469 -122.53535272 54.52693469 -116.23339844 48.86328125 C-112.57454037 46.34653227 -108.75629673 44.1089521 -104.91333008 41.88720703 C-95.08738859 36.1767642 -89.86897602 28.95189395 -84.55151367 19.09082031 C-81.86006686 14.26772749 -78.80395108 10.9542709 -73.30297852 9.2734375 C-71.2053645 8.85772539 -69.27999259 8.72205893 -67.14355469 8.6875 C-54.20708214 8.34174118 -43.98020022 6.57614748 -32.54589844 0.11328125 C-21.70143556 -5.41102985 -10.93373451 -5.35348367 0 0 Z M-33.45996094 8.4296875 C-41.08935911 13.58636542 -48.43153347 13.53890819 -57.37841797 13.46166992 C-65.17010579 13.4698717 -72.55955266 14.36625158 -78.42480469 19.94921875 C-78.87726563 20.70460938 -79.32972656 21.46 -79.79589844 22.23828125 C-80.35277344 23.11097656 -80.90964844 23.98367187 -81.48339844 24.8828125 C-82.73437637 27.01338429 -83.96089186 29.15839554 -85.17089844 31.3125 C-89.95005008 39.56281314 -94.66422662 44.14417293 -102.91308594 48.90625 C-108.82079286 52.38832196 -114.33469951 56.51172037 -117.23339844 62.86328125 C-117.68418323 66.12989154 -117.74499344 69.38150052 -117.79589844 72.67578125 C-117.97343129 81.49324619 -119.13318159 88.73723415 -122.67089844 96.92578125 C-123.10660156 97.95703125 -123.54230469 98.98828125 -123.99121094 100.05078125 C-124.94321551 102.20626331 -125.97739154 104.32561253 -127.04589844 106.42578125 C-129.0550737 112.24181491 -129.8830069 117.18827833 -127.27099609 123.00732422 C-125.20764738 126.97941674 -122.93946646 130.80496118 -120.61621094 134.62890625 C-116.08636651 142.3520753 -115.89531153 149.67782261 -115.84277344 158.39257812 C-115.64432463 165.61942222 -114.15366945 171.08878866 -108.80761719 176.16796875 C-106.25666184 177.84796059 -103.67897488 179.44032789 -101.04589844 180.98828125 C-90.65571615 187.56080571 -81.05079775 197.20392159 -77.17089844 209.12890625 C-76.54343883 212.00036002 -76.54343883 212.00036002 -74.23339844 212.86328125 C-72.58948935 213.0605576 -70.93940052 213.20764598 -69.28808594 213.328125 C-68.29292969 213.40611328 -67.29777344 213.48410156 -66.27246094 213.56445312 C-64.18668245 213.72024275 -62.10074631 213.87393781 -60.01464844 214.02539062 C-51.40796847 214.70573872 -44.14801117 216.26684324 -36.17089844 219.73828125 C-35.25268311 220.13200928 -35.25268311 220.13200928 -34.31591797 220.53369141 C-31.22279386 221.88409406 -28.38623825 223.32723666 -25.60839844 225.23828125 C-20.47609927 227.70938826 -15.81737658 227.81646988 -10.23339844 226.86328125 C-6.57295774 225.2717853 -3.44452082 223.21964444 -0.23339844 220.86328125 C8.40820029 214.64133017 16.70021719 214.53170383 26.98925781 214.47265625 C35.87206312 214.23991899 41.94582076 211.41215132 48.05566406 204.984375 C50.0112876 202.5599376 51.58950096 200.02627636 53.20410156 197.36328125 C58.43290998 188.90965706 65.45524907 184.16228754 73.84301758 179.14599609 C78.63839721 176.21195894 81.62389368 173.32282393 83.99707031 168.21484375 C85.06854922 163.54819955 85.01890064 159.01031512 85.07910156 154.23828125 C85.44224576 142.1132448 88.40614819 133.56576439 95.53222656 123.703125 C98.126764 119.83595052 98.19827399 116.39584175 97.76660156 111.86328125 C95.48749754 106.05676726 92.20816976 100.74781026 88.78222656 95.5546875 C86.75410463 92.17708443 86.64514775 89.29215585 86.62597656 85.453125 C86.60664062 84.37998047 86.58730469 83.30683594 86.56738281 82.20117188 C86.53393962 79.96176406 86.51533175 77.72207784 86.51269531 75.48242188 C86.31811312 66.88496152 84.72424733 59.77436648 78.44238281 53.56640625 C77.6625 53.086875 76.88261719 52.60734375 76.07910156 52.11328125 C75.21285156 51.56027344 74.34660156 51.00726563 73.45410156 50.4375 C71.69151783 49.40505633 69.92084027 48.38628195 68.14160156 47.3828125 C58.51417176 41.90867939 53.84684304 35.28223569 48.46972656 25.71484375 C46.01566581 21.60598057 43.14607735 17.05301914 38.76660156 14.86328125 C37.37552414 14.73541363 35.97925306 14.66129822 34.58300781 14.6171875 C33.32315063 14.5704187 33.32315063 14.5704187 32.0378418 14.52270508 C31.14395752 14.49072021 30.25007324 14.45873535 29.32910156 14.42578125 C16.68986279 13.84725213 7.79452127 12.3655924 -3.23339844 5.86328125 C-13.33178844 0.45342946 -24.19472256 1.91151102 -33.45996094 8.4296875 Z M-71.23339844 266.86328125 C-68.0840895 267.91305089 -65.84525387 267.9645972 -62.54589844 267.92578125 C-61.55203125 267.91675781 -60.55816406 267.90773438 -59.53417969 267.8984375 C-58.77492188 267.88683594 -58.01566406 267.87523437 -57.23339844 267.86328125 C-57.56339844 266.87328125 -57.89339844 265.88328125 -58.23339844 264.86328125 C-63.05700032 264.67033717 -66.72986582 265.10580511 -71.23339844 266.86328125 Z M31.76660156 265.86328125 C31.76660156 266.19328125 31.76660156 266.52328125 31.76660156 266.86328125 C33.41660156 266.86328125 35.06660156 266.86328125 36.76660156 266.86328125 C36.76660156 266.53328125 36.76660156 266.20328125 36.76660156 265.86328125 C35.11660156 265.86328125 33.46660156 265.86328125 31.76660156 265.86328125 Z M67.76660156 273.86328125 C67.76660156 274.52328125 67.76660156 275.18328125 67.76660156 275.86328125 C68.42660156 275.53328125 69.08660156 275.20328125 69.76660156 274.86328125 C69.10660156 274.53328125 68.44660156 274.20328125 67.76660156 273.86328125 Z M-96.23339844 274.86328125 C-96.56339844 275.52328125 -96.89339844 276.18328125 -97.23339844 276.86328125 C-96.57339844 276.86328125 -95.91339844 276.86328125 -95.23339844 276.86328125 C-95.56339844 276.20328125 -95.89339844 275.54328125 -96.23339844 274.86328125 Z M-50.23339844 281.86328125 C-49.23339844 283.86328125 -49.23339844 283.86328125 -49.23339844 283.86328125 Z M-49.23339844 283.86328125 C-48.23339844 285.86328125 -48.23339844 285.86328125 -48.23339844 285.86328125 Z M-48.23339844 285.86328125 C-47.23339844 287.86328125 -47.23339844 287.86328125 -47.23339844 287.86328125 Z M-36.23339844 286.86328125 C-35.23339844 288.86328125 -35.23339844 288.86328125 -35.23339844 288.86328125 Z M-47.23339844 287.86328125 C-46.23339844 289.86328125 -46.23339844 289.86328125 -46.23339844 289.86328125 Z M-46.23339844 289.86328125 C-45.23339844 291.86328125 -45.23339844 291.86328125 -45.23339844 291.86328125 Z M-45.23339844 291.86328125 C-44.57339844 294.83328125 -43.91339844 297.80328125 -43.23339844 300.86328125 C-42.24339844 300.86328125 -41.25339844 300.86328125 -40.23339844 300.86328125 C-39.90339844 299.21328125 -39.57339844 297.56328125 -39.23339844 295.86328125 C-40.55339844 295.86328125 -41.87339844 295.86328125 -43.23339844 295.86328125 C-43.89339844 294.54328125 -44.55339844 293.22328125 -45.23339844 291.86328125 Z M17.76660156 291.86328125 C18.76660156 293.86328125 18.76660156 293.86328125 18.76660156 293.86328125 Z M12.76660156 296.86328125 C12.76660156 297.52328125 12.76660156 298.18328125 12.76660156 298.86328125 C14.08660156 298.53328125 15.40660156 298.20328125 16.76660156 297.86328125 C17.09660156 296.54328125 17.42660156 295.22328125 17.76660156 293.86328125 C15.72108114 293.86328125 14.2510225 295.61828305 12.76660156 296.86328125 Z " fill="#EBB4BE" transform="translate(445.2333984375,96.13671875)"/>
<path d="M0 0 C2.22658714 1.18377882 4.40236628 2.43336804 6.58300781 3.69921875 C13.4606391 7.53018713 20.53969913 8.06038549 28.26660156 8.23828125 C37.33140338 8.65645946 43.41787007 10.05751243 49.82910156 16.86328125 C52.77549836 20.39895741 55.27941928 24.11933104 57.76660156 27.98828125 C62.71509839 35.56446825 68.27934753 39.93998071 75.82910156 44.80078125 C81.51131711 48.49062502 86.68266396 52.69540604 89.76660156 58.86328125 C89.87967823 60.83374694 89.98681567 62.80483741 90.05566406 64.77734375 C90.46659329 76.24600481 91.66475475 86.19124535 97.19873047 96.41430664 C101.96634495 105.24023473 105.21030705 112.62299159 102.76660156 122.86328125 C101.19200365 126.59800596 99.22623973 130.09113247 97.19873047 133.59570312 C91.95594217 142.70673483 90.79265645 151.83068094 90.32910156 162.17578125 C90.03030076 168.33589959 89.6927648 173.86445272 85.76660156 178.86328125 C82.6591835 181.58888046 79.2893056 183.71399808 75.76660156 185.86328125 C62.94578694 193.65672799 62.94578694 193.65672799 54.76660156 205.86328125 C54.74066592 209.15009937 54.74066592 209.15009937 55.14160156 212.61328125 C55.25246094 213.78375 55.36332031 214.95421875 55.47753906 216.16015625 C55.620625 217.49820313 55.620625 217.49820313 55.76660156 218.86328125 C52.76660156 215.11328125 52.76660156 215.11328125 52.76660156 212.86328125 C50.29160156 213.85328125 50.29160156 213.85328125 47.76660156 214.86328125 C47.76660156 215.85328125 47.76660156 216.84328125 47.76660156 217.86328125 C41.74192655 219.59155784 36.26256719 220.15283788 30.01660156 220.30078125 C16.78675907 220.8397659 6.86647358 223.95636727 -4.76464844 230.12109375 C-8.23339844 231.86328125 -8.23339844 231.86328125 -10.38769531 232.28466797 C-11.30131836 232.57108154 -11.30131836 232.57108154 -12.23339844 232.86328125 C-12.56339844 233.85328125 -12.89339844 234.84328125 -13.23339844 235.86328125 C-14.22339844 235.53328125 -15.21339844 235.20328125 -16.23339844 234.86328125 C-16.23339844 234.20328125 -16.23339844 233.54328125 -16.23339844 232.86328125 C-17.18214844 232.94578125 -18.13089844 233.02828125 -19.10839844 233.11328125 C-26.87126613 233.0976618 -34.19003934 228.49900812 -40.90917969 225.01171875 C-45.65303135 222.66769793 -49.53000755 221.57034733 -54.84667969 221.23046875 C-56.09384766 221.14667969 -57.34101563 221.06289063 -58.62597656 220.9765625 C-59.91955078 220.89792969 -61.213125 220.81929687 -62.54589844 220.73828125 C-64.51526367 220.60873047 -64.51526367 220.60873047 -66.52441406 220.4765625 C-69.76033977 220.26475645 -72.99656276 220.06060672 -76.23339844 219.86328125 C-76.23339844 218.54328125 -76.23339844 217.22328125 -76.23339844 215.86328125 C-77.88339844 215.86328125 -79.53339844 215.86328125 -81.23339844 215.86328125 C-81.56339844 216.85328125 -81.89339844 217.84328125 -82.23339844 218.86328125 C-82.56339844 218.86328125 -82.89339844 218.86328125 -83.23339844 218.86328125 C-83.32621094 217.37828125 -83.32621094 217.37828125 -83.42089844 215.86328125 C-84.13283241 211.05291657 -86.49685473 207.78932762 -89.23339844 203.86328125 C-89.76707031 202.99316406 -90.30074219 202.12304688 -90.85058594 201.2265625 C-96.28628531 192.86305081 -102.87299303 188.83670053 -111.23339844 183.86328125 C-112.81576153 182.80917291 -114.38261787 181.7307383 -115.92089844 180.61328125 C-116.50226563 180.195625 -117.08363281 179.77796875 -117.68261719 179.34765625 C-122.82822959 174.42238493 -122.78066965 169.15296147 -123.17089844 162.42578125 C-124.0566667 150.91455503 -125.87272319 141.10699987 -131.37597656 130.81518555 C-135.31269156 123.43210916 -138.53304531 117.38155656 -136.23339844 108.86328125 C-134.00388519 103.35917042 -131.34854362 98.08421341 -128.61621094 92.81640625 C-125.17530852 85.95685992 -124.10614811 79.81623853 -123.65527344 72.20068359 C-122.53535272 54.52693469 -122.53535272 54.52693469 -116.23339844 48.86328125 C-112.57454037 46.34653227 -108.75629673 44.1089521 -104.91333008 41.88720703 C-95.08738859 36.1767642 -89.86897602 28.95189395 -84.55151367 19.09082031 C-81.86006686 14.26772749 -78.80395108 10.9542709 -73.30297852 9.2734375 C-71.2053645 8.85772539 -69.27999259 8.72205893 -67.14355469 8.6875 C-54.20708214 8.34174118 -43.98020022 6.57614748 -32.54589844 0.11328125 C-21.70143556 -5.41102985 -10.93373451 -5.35348367 0 0 Z M-33.45996094 8.4296875 C-41.08935911 13.58636542 -48.43153347 13.53890819 -57.37841797 13.46166992 C-65.17010579 13.4698717 -72.55955266 14.36625158 -78.42480469 19.94921875 C-78.87726563 20.70460938 -79.32972656 21.46 -79.79589844 22.23828125 C-80.35277344 23.11097656 -80.90964844 23.98367187 -81.48339844 24.8828125 C-82.73437637 27.01338429 -83.96089186 29.15839554 -85.17089844 31.3125 C-89.95005008 39.56281314 -94.66422662 44.14417293 -102.91308594 48.90625 C-108.82079286 52.38832196 -114.33469951 56.51172037 -117.23339844 62.86328125 C-117.68418323 66.12989154 -117.74499344 69.38150052 -117.79589844 72.67578125 C-117.97343129 81.49324619 -119.13318159 88.73723415 -122.67089844 96.92578125 C-123.10660156 97.95703125 -123.54230469 98.98828125 -123.99121094 100.05078125 C-124.94321551 102.20626331 -125.97739154 104.32561253 -127.04589844 106.42578125 C-129.0550737 112.24181491 -129.8830069 117.18827833 -127.27099609 123.00732422 C-125.20764738 126.97941674 -122.93946646 130.80496118 -120.61621094 134.62890625 C-116.08636651 142.3520753 -115.89531153 149.67782261 -115.84277344 158.39257812 C-115.64432463 165.61942222 -114.15366945 171.08878866 -108.80761719 176.16796875 C-106.25666184 177.84796059 -103.67897488 179.44032789 -101.04589844 180.98828125 C-90.65571615 187.56080571 -81.05079775 197.20392159 -77.17089844 209.12890625 C-76.54343883 212.00036002 -76.54343883 212.00036002 -74.23339844 212.86328125 C-72.58948935 213.0605576 -70.93940052 213.20764598 -69.28808594 213.328125 C-68.29292969 213.40611328 -67.29777344 213.48410156 -66.27246094 213.56445312 C-64.18668245 213.72024275 -62.10074631 213.87393781 -60.01464844 214.02539062 C-51.40796847 214.70573872 -44.14801117 216.26684324 -36.17089844 219.73828125 C-35.25268311 220.13200928 -35.25268311 220.13200928 -34.31591797 220.53369141 C-31.22279386 221.88409406 -28.38623825 223.32723666 -25.60839844 225.23828125 C-20.47609927 227.70938826 -15.81737658 227.81646988 -10.23339844 226.86328125 C-6.57295774 225.2717853 -3.44452082 223.21964444 -0.23339844 220.86328125 C8.40820029 214.64133017 16.70021719 214.53170383 26.98925781 214.47265625 C35.87206312 214.23991899 41.94582076 211.41215132 48.05566406 204.984375 C50.0112876 202.5599376 51.58950096 200.02627636 53.20410156 197.36328125 C58.43290998 188.90965706 65.45524907 184.16228754 73.84301758 179.14599609 C78.63839721 176.21195894 81.62389368 173.32282393 83.99707031 168.21484375 C85.06854922 163.54819955 85.01890064 159.01031512 85.07910156 154.23828125 C85.44224576 142.1132448 88.40614819 133.56576439 95.53222656 123.703125 C98.126764 119.83595052 98.19827399 116.39584175 97.76660156 111.86328125 C95.48749754 106.05676726 92.20816976 100.74781026 88.78222656 95.5546875 C86.75410463 92.17708443 86.64514775 89.29215585 86.62597656 85.453125 C86.60664062 84.37998047 86.58730469 83.30683594 86.56738281 82.20117188 C86.53393962 79.96176406 86.51533175 77.72207784 86.51269531 75.48242188 C86.31811312 66.88496152 84.72424733 59.77436648 78.44238281 53.56640625 C77.6625 53.086875 76.88261719 52.60734375 76.07910156 52.11328125 C75.21285156 51.56027344 74.34660156 51.00726563 73.45410156 50.4375 C71.69151783 49.40505633 69.92084027 48.38628195 68.14160156 47.3828125 C58.51417176 41.90867939 53.84684304 35.28223569 48.46972656 25.71484375 C46.01566581 21.60598057 43.14607735 17.05301914 38.76660156 14.86328125 C37.37552414 14.73541363 35.97925306 14.66129822 34.58300781 14.6171875 C33.32315063 14.5704187 33.32315063 14.5704187 32.0378418 14.52270508 C31.14395752 14.49072021 30.25007324 14.45873535 29.32910156 14.42578125 C16.68986279 13.84725213 7.79452127 12.3655924 -3.23339844 5.86328125 C-13.33178844 0.45342946 -24.19472256 1.91151102 -33.45996094 8.4296875 Z " fill="#4D0AE2" transform="translate(445.2333984375,96.13671875)"/>
<path d="M0 0 C0.66 0.66 1.32 1.32 2 2 C1.73120995 5.13588397 0.85047623 7.29904754 -0.5625 10.125 C-2.68628011 15.20690241 -3.22262488 19.58910118 -2 25 C0.15640589 29.80404782 2.88713098 34.27210887 5.6171875 38.765625 C10.14703193 46.48879405 10.33808691 53.81454136 10.390625 62.52929688 C10.55394605 68.476905 11.55927598 73.06010337 15 78 C16.94818595 79.89691479 16.94818595 79.89691479 19.1875 81.0625 C31.07465114 88.29222635 41.71102825 97.34914088 48 110 C48.69140625 113.3359375 48.69140625 113.3359375 49 116 C50.07314453 116.07516846 50.07314453 116.07516846 51.16796875 116.15185547 C54.44587894 116.38561329 57.72289507 116.63022182 61 116.875 C62.12535156 116.95363281 63.25070312 117.03226562 64.41015625 117.11328125 C73.338986 117.79208117 80.79283162 119.27624916 89.0625 122.875 C89.98071533 123.26872803 89.98071533 123.26872803 90.91748047 123.67041016 C94.01060458 125.02081281 96.84716019 126.46395541 99.625 128.375 C104.75729917 130.84610701 109.41602186 130.95318863 115 130 C118.66044069 128.40850405 121.78887762 126.35636319 125 124 C133.64159872 117.77804892 141.93361562 117.66842258 152.22265625 117.609375 C159.53637658 117.41774914 164.87540575 115.8923609 170.3125 110.859375 C170.869375 110.16328125 171.42625 109.4671875 172 108.75 C172.5775 108.04359375 173.155 107.3371875 173.75 106.609375 C174.1625 106.07828125 174.575 105.5471875 175 105 C175.99 105.33 176.98 105.66 178 106 C178 109.63 178 113.26 178 117 C175.525 117.99 175.525 117.99 173 119 C173 119.99 173 120.98 173 122 C166.97532498 123.72827659 161.49596563 124.28955663 155.25 124.4375 C142.0201575 124.97648465 132.09987201 128.09308602 120.46875 134.2578125 C117 136 117 136 114.84570312 136.42138672 C113.93208008 136.70780029 113.93208008 136.70780029 113 137 C112.67 137.99 112.34 138.98 112 140 C111.01 139.67 110.02 139.34 109 139 C109 138.34 109 137.68 109 137 C108.05125 137.0825 107.1025 137.165 106.125 137.25 C98.3621323 137.23438055 91.0433591 132.63572687 84.32421875 129.1484375 C79.58036708 126.80441668 75.70339089 125.70706608 70.38671875 125.3671875 C69.13955078 125.28339844 67.89238281 125.19960938 66.60742188 125.11328125 C65.31384766 125.03464844 64.02027344 124.95601563 62.6875 124.875 C60.71813477 124.74544922 60.71813477 124.74544922 58.70898438 124.61328125 C55.47305867 124.4014752 52.23683568 124.19732547 49 124 C49 122.68 49 121.36 49 120 C47.35 120 45.7 120 44 120 C43.505 121.485 43.505 121.485 43 123 C42.67 123 42.34 123 42 123 C41.938125 122.01 41.87625 121.02 41.8125 120 C41.10056603 115.18963532 38.73654371 111.92604637 36 108 C35.46632813 107.12988281 34.93265625 106.25976562 34.3828125 105.36328125 C28.94711313 96.99976956 22.3604054 92.97341928 14 88 C12.41763691 86.94589166 10.85078057 85.86745705 9.3125 84.75 C8.73113281 84.33234375 8.14976562 83.9146875 7.55078125 83.484375 C2.40516885 78.55910368 2.45272879 73.28968022 2.0625 66.5625 C1.10258894 54.08773229 -1.31867076 43.96457461 -7.25 32.875 C-10.77808927 26.2393251 -12.59468535 20.6137233 -11 13 C-8.52846496 7.76034572 -4.17015646 3.95930585 0 0 Z " fill="#540FE9" transform="translate(320,192)"/>
<path d="M0 0 C2.625 -0.1875 2.625 -0.1875 5 0 C4.48475629 6.49207072 3.2713448 11.91978469 1 18 C0.53601558 19.28108973 0.07251495 20.56235474 -0.390625 21.84375 C-2.64923043 28.03427022 -4.89611878 34.10960595 -7.9921875 39.9375 C-11.10958753 46.31729541 -13.6873782 53.02074785 -15 60 C-13.79839233 59.59104492 -13.79839233 59.59104492 -12.57250977 59.17382812 C-9.56235451 58.15660474 -6.54841119 57.15175812 -3.53149414 56.15478516 C-2.2333312 55.7230836 -0.93672677 55.28666279 0.3581543 54.84521484 C14.6437912 49.98225392 14.6437912 49.98225392 22 51 C25.47810116 53.81791178 27.15550391 56.91117769 29.015625 60.9375 C29.54414063 62.07960938 30.07265625 63.22171875 30.6171875 64.3984375 C31.15601563 65.58695312 31.69484375 66.77546875 32.25 68 C32.80429687 69.18851562 33.35859375 70.37703125 33.9296875 71.6015625 C38 80.48406712 38 80.48406712 38 85 C38.99 85 39.98 85 41 85 C41.18175781 84.17048828 41.18175781 84.17048828 41.3671875 83.32421875 C42.08128839 80.70144081 43.05948505 78.31399039 44.125 75.8125 C46.31126484 70.63283186 48.48010142 65.44690339 50.625 60.25 C51.0583667 59.20549683 51.0583667 59.20549683 51.50048828 58.13989258 C51.92177002 57.11931763 51.92177002 57.11931763 52.3515625 56.078125 C52.62774414 55.40974609 52.90392578 54.74136719 53.18847656 54.05273438 C54.0300859 51.92389824 54.77363466 49.77200528 55.5234375 47.609375 C57 44 57 44 60 42 C62.6875 42.375 62.6875 42.375 65 43 C62.94919575 54.30078591 58.70086643 65.13096231 54.4375 75.75 C54.06173828 76.70253662 53.68597656 77.65507324 53.29882812 78.63647461 C49.63285351 87.58713461 49.63285351 87.58713461 46 90 C43.16015625 90.53125 43.16015625 90.53125 40.0625 90.5 C39.04285156 90.5103125 38.02320313 90.520625 36.97265625 90.53125 C33.24041229 89.86425239 31.76837312 88.56602725 29 86 C27.42260742 83.39038086 27.42260742 83.39038086 26.10546875 80.46484375 C25.62529297 79.40845703 25.14511719 78.35207031 24.65039062 77.26367188 C24.16763672 76.16603516 23.68488281 75.06839844 23.1875 73.9375 C22.43436523 72.28524414 22.43436523 72.28524414 21.66601562 70.59960938 C18 62.43461947 18 62.43461947 18 59 C17.32420898 59.2673999 16.64841797 59.5347998 15.95214844 59.81030273 C12.88577688 61.02194611 9.81791164 62.22976178 6.75 63.4375 C5.68652344 63.85837891 4.62304688 64.27925781 3.52734375 64.71289062 C1.99013672 65.31713867 1.99013672 65.31713867 0.421875 65.93359375 C-0.52075195 66.30540771 -1.46337891 66.67722168 -2.43457031 67.06030273 C-7.62255288 68.96062105 -12.48541162 69.70775466 -18 69 C-21.09189821 67.26080726 -22.59652617 66.22365013 -23.71484375 62.83203125 C-24.08552186 59.1506391 -23.42444723 55.92981197 -22.5625 52.375 C-22.29397217 51.2617334 -22.29397217 51.2617334 -22.02001953 50.12597656 C-17.68804199 33.31101753 -9.61693625 14.42540438 0 0 Z " fill="#BF9299" transform="translate(364,312)"/>
<path d="M0 0 C0.66 1.98 1.32 3.96 2 6 C2.66 6 3.32 6 4 6 C4.52243286 7.32402832 4.52243286 7.32402832 5.05541992 8.67480469 C8.98890879 18.59963456 13.11742981 28.43333823 17.3125 38.25 C18.26132445 40.47188486 19.20964283 42.69398004 20.15653992 44.91668701 C20.73855804 46.28278351 21.32168133 47.64840986 21.90608215 49.01348877 C24.43508958 54.94742686 25.65543222 59.55868338 25 66 C22.91891892 70.54054054 22.91891892 70.54054054 20 72 C11.99475705 72.65549584 5.58665366 70.59121522 -1.9375 68 C-4.17504267 67.2477994 -6.41328873 66.49768683 -8.65234375 65.75 C-9.63195068 65.41484375 -10.61155762 65.0796875 -11.62084961 64.734375 C-13.90351987 63.90168663 -13.90351987 63.90168663 -16 64 C-16.31227539 64.73637695 -16.62455078 65.47275391 -16.94628906 66.23144531 C-18.3709314 69.57529494 -19.81027357 72.91261888 -21.25 76.25 C-21.74113281 77.40886719 -22.23226563 78.56773437 -22.73828125 79.76171875 C-23.22167969 80.87675781 -23.70507812 81.99179687 -24.203125 83.140625 C-24.86296387 84.68024902 -24.86296387 84.68024902 -25.53613281 86.25097656 C-27.06559882 89.12318924 -28.46301917 90.96825006 -31 93 C-34.75 93.25 -34.75 93.25 -38 93 C-37.67 91.02 -37.34 89.04 -37 87 C-36.34 87 -35.68 87 -35 87 C-35.09925781 86.2265625 -35.19851563 85.453125 -35.30078125 84.65625 C-34.86291619 79.3336306 -32.55932303 75.23045095 -30.1875 70.5 C-29.73568359 69.57574219 -29.28386719 68.65148437 -28.81835938 67.69921875 C-27.55777676 65.12652606 -26.28249739 62.56182421 -25 60 C-24.67209473 59.34257812 -24.34418945 58.68515625 -24.00634766 58.0078125 C-23.33915759 56.67107897 -22.66991149 55.33537175 -22 54 C-14.03390403 54.37126001 -7.13663432 55.94637908 0.375 58.5625 C2.27635648 59.2163312 4.17994499 59.86371544 6.0859375 60.50390625 C7.3241626 60.93425171 7.3241626 60.93425171 8.58740234 61.37329102 C11.15210997 62.03951288 13.36166982 62.11250061 16 62 C13.21902083 52.14463686 9.60429503 42.88821282 5.5625 33.5 C2.32446899 25.93127672 -0.90730768 18.35935632 -3.97265625 10.71875 C-4.389104 9.68685547 -4.80555176 8.65496094 -5.23461914 7.59179688 C-6 5 -6 5 -5 2 C-2 0 -2 0 0 0 Z " fill="#BC8F9C" transform="translate(498,309)"/>
<path d="M0 0 C4.92169944 1.03966132 7.10135381 4.0396958 9.71875 8.0078125 C13.66811766 15.04839084 15.84269671 21.40213301 14.015625 29.42578125 C11.89184853 34.69024374 9.05836901 41.38303724 5.015625 45.42578125 C1.24248219 46.04928185 -2.222834 46.14975985 -5.984375 45.42578125 C-8.8179137 43.1974095 -10.32809935 40.5918592 -11.984375 37.42578125 C-12.603125 36.37390625 -13.221875 35.32203125 -13.859375 34.23828125 C-16.94278291 23.78895444 -15.06963871 13.9405773 -9.984375 4.42578125 C-6.93441666 0.73372642 -4.9411581 -0.32026025 0 0 Z " fill="#6016FE" transform="translate(408.984375,189.57421875)"/>
<path d="M0 0 C22 0 22 0 28 3 C30.70236878 7.05355318 30.36747676 10.17905256 30.375 14.9375 C30.39949219 15.74896484 30.42398437 16.56042969 30.44921875 17.39648438 C30.47850953 23.34739445 30.47850953 23.34739445 28.1640625 26.50390625 C23.90813503 29.44618101 19.77206243 29.118381 14.8125 29.0625 C12.234375 29.041875 9.65625 29.02125 7 29 C7 34.28 7 39.56 7 45 C4.69 45 2.38 45 0 45 C0 30.15 0 15.3 0 0 Z " fill="#6017FE" transform="translate(478,190)"/>
<path d="M0 0 C21 0 21 0 27 3 C30.28567464 6.95394744 30.45963262 10.45407796 30.5 15.5 C30.5309375 16.7890625 30.561875 18.078125 30.59375 19.40625 C30 23 30 23 28.08203125 25.94921875 C23.73798605 28.83974312 20.27756848 28.55922219 15.1875 28.3125 C14.30384766 28.28994141 13.42019531 28.26738281 12.50976562 28.24414062 C10.3391109 28.18547428 8.1693331 28.09579979 6 28 C6 33.61 6 39.22 6 45 C4.02 45 2.04 45 0 45 C0 30.15 0 15.3 0 0 Z " fill="#590DFE" transform="translate(352,190)"/>
<path d="M0 0 C3.1875 1.125 3.1875 1.125 4.24194336 2.76416016 C6.98831938 9.24970247 9.04552642 15.84475133 10.9375 22.625 C11.25332031 23.70136719 11.56914062 24.77773437 11.89453125 25.88671875 C13.66585362 32.18219781 14.54459179 37.58747344 14.1875 44.125 C10.7225 43.63 10.7225 43.63 7.1875 43.125 C6.8575 41.145 6.5275 39.165 6.1875 37.125 C1.8975 37.125 -2.3925 37.125 -6.8125 37.125 C-7.4725 39.435 -8.1325 41.745 -8.8125 44.125 C-10.4625 44.125 -12.1125 44.125 -13.8125 44.125 C-14.072015 37.73351621 -13.16673973 32.19193557 -11.625 26 C-11.29097168 24.62763184 -11.29097168 24.62763184 -10.95019531 23.22753906 C-5.19497866 0.23088794 -5.19497866 0.23088794 0 0 Z " fill="#6018FE" transform="translate(450.8125,190.875)"/>
<path d="M0 0 C0.99 0.33 1.98 0.66 3 1 C3 4.63 3 8.26 3 12 C1.35 12.66 -0.3 13.32 -2 14 C-2 14.99 -2 15.98 -2 17 C-8.02437008 18.72818911 -13.50414348 19.29068672 -19.75 19.4375 C-31.44011073 19.89646014 -40.61705933 21.59928341 -50.625 27.98828125 C-53 29 -53 29 -55.25 28.35546875 C-57 27 -57 27 -58 24 C-49.41734148 18.03982048 -41.91805031 12.97376383 -31.19921875 12.82421875 C-30.30396484 12.80037109 -29.40871094 12.77652344 -28.48632812 12.75195312 C-26.63238966 12.7092595 -24.77815393 12.67786029 -22.92382812 12.65820312 C-15.56250909 12.43129508 -10.16150384 10.92652721 -4.6875 5.859375 C-4.130625 5.16328125 -3.57375 4.4671875 -3 3.75 C-2.4225 3.04359375 -1.845 2.3371875 -1.25 1.609375 C-0.63125 0.81273437 -0.63125 0.81273437 0 0 Z " fill="#631CF5" transform="translate(495,297)"/>
<path d="M0 0 C2.44921875 0.0546875 2.44921875 0.0546875 5 1 C6.58203125 3.2578125 6.58203125 3.2578125 7.8125 6.125 C8.23144531 7.05570313 8.65039062 7.98640625 9.08203125 8.9453125 C10.86899462 14.89171828 10.30305534 19.20850489 7.51171875 24.59179688 C7.17785156 25.20087891 6.84398437 25.80996094 6.5 26.4375 C6.16613281 27.07365234 5.83226562 27.70980469 5.48828125 28.36523438 C4.67159878 29.91693107 3.8375666 31.45947571 3 33 C-2.18804897 30.8232751 -4.68493135 27.00977877 -7 22 C-8.43598534 15.00082671 -6.99148933 9.76401638 -3.2890625 3.77734375 C-2 2 -2 2 0 0 Z " fill="#F2EEFE" transform="translate(407,197)"/>
<path d="M0 0 C0.69416016 -0.01224609 1.38832031 -0.02449219 2.10351562 -0.03710938 C3.92470901 -0.04239842 5.7453692 0.06580793 7.5625 0.1875 C9.5625 2.1875 9.5625 2.1875 9.828125 5.375 C9.82296875 6.633125 9.8178125 7.89125 9.8125 9.1875 C9.81765625 10.445625 9.8228125 11.70375 9.828125 13 C9.5625 16.1875 9.5625 16.1875 7.5625 18.1875 C4.81764407 18.33257695 2.17769457 18.37402423 -0.5625 18.3125 C-1.31660156 18.30347656 -2.07070313 18.29445312 -2.84765625 18.28515625 C-4.71107254 18.2615687 -6.57432593 18.22569719 -8.4375 18.1875 C-8.46434312 15.37493719 -8.48426188 12.56262759 -8.5 9.75 C-8.50837891 8.94755859 -8.51675781 8.14511719 -8.52539062 7.31835938 C-8.5340143 5.27454779 -8.4897815 3.23066098 -8.4375 1.1875 C-6.45630645 -0.79369355 -2.70304936 0.00249589 0 0 Z " fill="#ECE4FE" transform="translate(492.4375,195.8125)"/>
<path d="M0 0 C5.28 0 10.56 0 16 0 C17.48520725 2.97041449 17.1705822 5.69764447 17.1875 9 C17.20167969 10.258125 17.21585937 11.51625 17.23046875 12.8125 C17 16 17 16 15 18 C12.41048555 18.14547834 9.95814609 18.18649052 7.375 18.125 C3.724375 18.063125 3.724375 18.063125 0 18 C0 12.06 0 6.12 0 0 Z " fill="#F1EBFE" transform="translate(358,196)"/>
<path d="M0 0 C3.125 0.375 3.125 0.375 6 1 C3.62975342 14.21286391 -1.7316284 26.7324373 -7 39 C-8.30211046 35.09366863 -7.47812346 32.80461827 -6.5625 28.8125 C-6.27503906 27.54019531 -5.98757813 26.26789063 -5.69140625 24.95703125 C-5.46324219 23.98121094 -5.23507812 23.00539063 -5 22 C-6.98 22.99 -6.98 22.99 -9 24 C-8.35415196 18.92889685 -6.87352872 14.49255002 -5.0625 9.75 C-4.79759766 9.03070313 -4.53269531 8.31140625 -4.25976562 7.5703125 C-2.25352444 2.25352444 -2.25352444 2.25352444 0 0 Z " fill="#B88D94" transform="translate(423,354)"/>
<path d="M0 0 C1.66666667 0 3.33333333 0 5 0 C5.20352339 5.2305512 4.53064327 9.80302665 3.125 14.8125 C2.95097656 15.47958984 2.77695312 16.14667969 2.59765625 16.83398438 C1.77244325 19.86282173 1.25564838 21.74435162 -1 24 C-4.0625 24.1875 -4.0625 24.1875 -7 24 C-8 23 -8 23 -8.1875 20.5625 C-8 18 -8 18 -6 16 C-5.21050909 14.04162099 -5.21050909 14.04162099 -4.5625 11.8125 C-3.2716855 7.74248286 -1.74121318 3.89700093 0 0 Z " fill="#C99AA2" transform="translate(413,376)"/>
<path d="M0 0 C1.32 0 2.64 0 4 0 C4.33820166 1.5823006 4.67035939 3.16589375 5 4.75 C5.185625 5.63171875 5.37125 6.5134375 5.5625 7.421875 C6 10 6 10 6 14 C3.03 14 0.06 14 -3 14 C-2.40380045 9.13103697 -1.43023178 4.67209049 0 0 Z " fill="#E2D6FE" transform="translate(449,206)"/>
<path d="M0 0 C2.8125 0.4375 2.8125 0.4375 4.8125 2.4375 C1.67382159 5.84520799 -0.74893131 8.03584673 -5.1875 9.4375 C-6.1775 9.7675 -7.1675 10.0975 -8.1875 10.4375 C-8.1875 11.0975 -8.1875 11.7575 -8.1875 12.4375 C-8.8475 12.4375 -9.5075 12.4375 -10.1875 12.4375 C-8.85788707 6.27293098 -7.02822963 0.96465897 0 0 Z " fill="#3B02BD" transform="translate(371.1875,106.5625)"/>
<path d="M0 0 C-0.66666667 1.33333333 -1.33333333 2.66666667 -2 4 C-2.268125 4.680625 -2.53625 5.36125 -2.8125 6.0625 C-4.41557574 8.67804463 -6.28781099 9.6439055 -9 11 C-9.66 11 -10.32 11 -11 11 C-11.33 10.01 -11.66 9.02 -12 8 C-9.30117814 3.01755963 -6.09438366 -2.03146122 0 0 Z " fill="#3400AE" transform="translate(337,143)"/>
<path d="M0 0 C2.00720923 0.28674418 4.0085944 0.61866701 6 1 C5.67 2.65 5.34 4.3 5 6 C2.03 6 -0.94 6 -4 6 C-1.125 1.125 -1.125 1.125 0 0 Z " fill="#D0A0A7" transform="translate(358,371)"/>
<path d="M0 0 C0.66 0.33 1.32 0.66 2 1 C2 3.97 2 6.94 2 10 C0.68 9.67 -0.64 9.34 -2 9 C-1.34 8.67 -0.68 8.34 0 8 C0 5.36 0 2.72 0 0 Z " fill="#6C29FE" transform="translate(463,225)"/>
<path d="M0 0 C0.66 0.33 1.32 0.66 2 1 C-0.31 3.31 -2.62 5.62 -5 8 C-5 5 -5 5 -2.5 2.3125 C-1.675 1.549375 -0.85 0.78625 0 0 Z " fill="#4704D9" transform="translate(332,143)"/>
</svg>
