<?xml version="1.0" encoding="UTF-8"?>
<svg version="1.1" xmlns="http://www.w3.org/2000/svg" width="200" height="200">
<path d="M0 0 C2.54286657 1.28309781 5.04790845 2.62459178 7.5546875 3.9765625 C12.22333298 6.27940112 15.88473357 7.11200749 21.1171875 6.9765625 C26.22556349 6.84938301 29.15141596 7.33459958 33.5546875 9.9765625 C36.10131525 12.58530313 37.99370808 15.05318045 39.87890625 18.15625 C43.08100881 23.36734294 46.07766029 26.38871598 51.30078125 29.5703125 C55.64314144 32.27958402 59.90588881 35.03016642 61.5546875 39.9765625 C61.74987002 43.2585205 61.89853628 46.53391563 61.984375 49.8203125 C62.29569676 56.72127816 64.93395573 61.95579841 68.3046875 67.9140625 C70.12649975 71.61878437 71.25626366 74.4686817 70.4140625 78.6796875 C69.02232639 82.39941857 66.98259021 85.78618993 65.07421875 89.26269531 C61.99866053 95.27024316 61.793646 100.71618865 61.8203125 107.3828125 C61.51934189 111.45476778 60.85340609 113.60604874 58.5546875 116.9765625 C56.28339606 118.59327057 54.15725728 119.94508388 51.7421875 121.2890625 C46.04234409 124.71642888 40.62234543 128.29299793 38.5546875 134.9765625 C39.0017155 140.18629633 40.39446236 144.61262993 42.4609375 149.37109375 C42.74569946 150.04452316 43.03046143 150.71795258 43.32385254 151.41178894 C44.22640012 153.5409338 45.14038699 155.66494218 46.0546875 157.7890625 C46.66871597 159.23340652 47.28200432 160.67806543 47.89453125 162.12304688 C50.59315348 168.6101081 50.59315348 168.6101081 53.5546875 174.9765625 C54.00247678 181.13366504 54.00247678 181.13366504 52.4921875 183.9765625 C47.97261637 186.30924437 41.87597486 183.58163918 37.25195312 182.11132812 C36.54748047 181.88123047 35.84300781 181.65113281 35.1171875 181.4140625 C34.38564453 181.18009766 33.65410156 180.94613281 32.90039062 180.70507812 C31.11688571 180.13389028 29.33555167 179.55593127 27.5546875 178.9765625 C27.29252441 179.54689209 27.03036133 180.11722168 26.76025391 180.70483398 C25.57321503 183.27762655 24.37659666 185.8458479 23.1796875 188.4140625 C22.7671875 189.31189453 22.3546875 190.20972656 21.9296875 191.13476562 C21.53007813 191.98876953 21.13046875 192.84277344 20.71875 193.72265625 C20.35217285 194.51341553 19.9855957 195.3041748 19.60791016 196.11889648 C18.5546875 197.9765625 18.5546875 197.9765625 16.5546875 198.9765625 C11.15468275 199.43613737 11.15468275 199.43613737 9.01391602 197.79638672 C7.19731105 195.53087335 6.24101087 193.29910942 5.14453125 190.609375 C4.71205078 189.55878906 4.27957031 188.50820312 3.83398438 187.42578125 C3.16979492 185.78029297 3.16979492 185.78029297 2.4921875 184.1015625 C2.04552734 183.01230469 1.59886719 181.92304688 1.13867188 180.80078125 C-0.74444336 176.20136376 -2.60231461 171.59218887 -4.4453125 166.9765625 C-5.86560258 170.09992769 -7.28084939 173.22555468 -8.6953125 176.3515625 C-9.09105469 177.22167969 -9.48679687 178.09179688 -9.89453125 178.98828125 C-12.27631969 184.25945238 -14.50022874 189.55456379 -16.54199219 194.96728516 C-17.4453125 196.9765625 -17.4453125 196.9765625 -19.4453125 198.9765625 C-23.49792537 199.32146572 -24.99285426 199.27820132 -28.4453125 196.9765625 C-29.52026367 195.22070313 -29.52026367 195.22070313 -30.48828125 193.1328125 C-30.83955078 192.38128906 -31.19082031 191.62976563 -31.55273438 190.85546875 C-31.90916016 190.07042969 -32.26558594 189.28539062 -32.6328125 188.4765625 C-33.18485352 187.29900391 -33.18485352 187.29900391 -33.74804688 186.09765625 C-36.4453125 180.2627551 -36.4453125 180.2627551 -36.4453125 177.9765625 C-37.26773438 178.31429687 -38.09015625 178.65203125 -38.9375 179 C-53.70346203 184.89956451 -53.70346203 184.89956451 -59.4453125 184.9765625 C-62.1328125 183.4765625 -62.1328125 183.4765625 -63.4453125 180.9765625 C-63.01740936 176.86869238 -61.95942594 173.3039048 -60.4453125 169.4765625 C-60.01992188 168.35121094 -59.59453125 167.22585937 -59.15625 166.06640625 C-57.87494 162.85663537 -56.3657307 159.80911346 -54.796875 156.73046875 C-49.31229275 146.67188469 -49.31229275 146.67188469 -49.37890625 135.765625 C-53.44068849 127.84785194 -60.8160878 123.10450484 -68.40625 118.94140625 C-71.70201619 116.81059597 -72.96047231 115.57963625 -74.4453125 111.9765625 C-74.8515625 108.48828125 -74.8515625 108.48828125 -74.9453125 104.6640625 C-75.25150698 97.68299648 -76.48573738 92.65003467 -79.75390625 86.5234375 C-84.45453342 77.62819967 -84.45453342 77.62819967 -83.4453125 71.9765625 C-82.36124441 69.43745245 -81.15815002 67.0228244 -79.83203125 64.6015625 C-76.26631314 57.85180878 -75.01299003 52.38670644 -75.00585938 44.84960938 C-74.86339218 39.73552828 -73.7808324 36.84686824 -70.4453125 32.9765625 C-67.421875 30.95703125 -67.421875 30.95703125 -64.0703125 29.1640625 C-58.05790892 25.74811415 -54.62705008 22.09438879 -51.4453125 15.9765625 C-49.44404868 12.43586498 -47.99310628 10.06350002 -44.4453125 7.9765625 C-40.92431991 7.07695187 -37.87124784 6.96657785 -34.2578125 7.1640625 C-26.64581847 7.23568072 -20.87183635 4.30244296 -14.3203125 0.7265625 C-9.36130487 -1.76285933 -5.11005613 -2.13871359 0 0 Z M34.5546875 141.9765625 C34.8846875 143.6265625 35.2146875 145.2765625 35.5546875 146.9765625 C35.8846875 145.9865625 36.2146875 144.9965625 36.5546875 143.9765625 C35.8946875 143.3165625 35.2346875 142.6565625 34.5546875 141.9765625 Z M-45.4453125 142.9765625 C-45.1153125 143.9665625 -44.7853125 144.9565625 -44.4453125 145.9765625 C-44.1153125 144.9865625 -43.7853125 143.9965625 -43.4453125 142.9765625 C-44.1053125 142.9765625 -44.7653125 142.9765625 -45.4453125 142.9765625 Z M-46.4453125 145.9765625 C-45.4453125 147.9765625 -45.4453125 147.9765625 -45.4453125 147.9765625 Z M36.5546875 146.9765625 C37.5546875 148.9765625 37.5546875 148.9765625 37.5546875 148.9765625 Z M-47.4453125 147.9765625 C-47.7753125 149.6265625 -48.1053125 151.2765625 -48.4453125 152.9765625 C-47.7853125 152.3165625 -47.1253125 151.6565625 -46.4453125 150.9765625 C-46.7753125 149.9865625 -47.1053125 148.9965625 -47.4453125 147.9765625 Z M37.5546875 148.9765625 C38.5546875 151.9765625 38.5546875 151.9765625 38.5546875 151.9765625 Z M-5.4453125 151.9765625 C-5.1153125 153.6265625 -4.7853125 155.2765625 -4.4453125 156.9765625 C-4.1153125 155.9865625 -3.7853125 154.9965625 -3.4453125 153.9765625 C-4.1053125 153.3165625 -4.7653125 152.6565625 -5.4453125 151.9765625 Z M38.5546875 151.9765625 C38.8846875 153.6265625 39.2146875 155.2765625 39.5546875 156.9765625 C39.8846875 155.9865625 40.2146875 154.9965625 40.5546875 153.9765625 C39.8946875 153.3165625 39.2346875 152.6565625 38.5546875 151.9765625 Z M-49.4453125 152.9765625 C-48.4453125 155.9765625 -48.4453125 155.9765625 -48.4453125 155.9765625 Z M-50.4453125 155.9765625 C-49.4453125 157.9765625 -49.4453125 157.9765625 -49.4453125 157.9765625 Z M-3.4453125 156.9765625 C-2.4453125 159.9765625 -2.4453125 159.9765625 -2.4453125 159.9765625 Z M40.5546875 156.9765625 C41.5546875 158.9765625 41.5546875 158.9765625 41.5546875 158.9765625 Z M-51.4453125 157.9765625 C-52.57047335 159.80940693 -52.57047335 159.80940693 -53.4453125 161.9765625 C-53.1153125 162.9665625 -52.7853125 163.9565625 -52.4453125 164.9765625 C-51.32015165 163.14371807 -51.32015165 163.14371807 -50.4453125 160.9765625 C-50.7753125 159.9865625 -51.1053125 158.9965625 -51.4453125 157.9765625 Z M41.5546875 158.9765625 C41.8846875 160.6265625 42.2146875 162.2765625 42.5546875 163.9765625 C42.8846875 162.9865625 43.2146875 161.9965625 43.5546875 160.9765625 C42.8946875 160.3165625 42.2346875 159.6565625 41.5546875 158.9765625 Z M-2.4453125 159.9765625 C-1.4453125 161.9765625 -1.4453125 161.9765625 -1.4453125 161.9765625 Z M-8.4453125 160.9765625 C-8.7753125 162.6265625 -9.1053125 164.2765625 -9.4453125 165.9765625 C-8.7853125 165.3165625 -8.1253125 164.6565625 -7.4453125 163.9765625 C-7.7753125 162.9865625 -8.1053125 161.9965625 -8.4453125 160.9765625 Z M-1.4453125 161.9765625 C-0.4453125 163.9765625 -0.4453125 163.9765625 -0.4453125 163.9765625 Z M-0.4453125 163.9765625 C0.5546875 166.9765625 0.5546875 166.9765625 0.5546875 166.9765625 Z M43.5546875 163.9765625 C44.5546875 165.9765625 44.5546875 165.9765625 44.5546875 165.9765625 Z M-54.4453125 164.9765625 C-53.4453125 166.9765625 -53.4453125 166.9765625 -53.4453125 166.9765625 Z M-10.4453125 165.9765625 C-9.4453125 167.9765625 -9.4453125 167.9765625 -9.4453125 167.9765625 Z M44.5546875 165.9765625 C44.8846875 167.6265625 45.2146875 169.2765625 45.5546875 170.9765625 C45.8846875 169.9865625 46.2146875 168.9965625 46.5546875 167.9765625 C45.8946875 167.3165625 45.2346875 166.6565625 44.5546875 165.9765625 Z M-55.4453125 166.9765625 C-55.7753125 168.6265625 -56.1053125 170.2765625 -56.4453125 171.9765625 C-55.7853125 171.3165625 -55.1253125 170.6565625 -54.4453125 169.9765625 C-54.7753125 168.9865625 -55.1053125 167.9965625 -55.4453125 166.9765625 Z M0.5546875 166.9765625 C1.5546875 168.9765625 1.5546875 168.9765625 1.5546875 168.9765625 Z M-11.4453125 167.9765625 C-12.57047335 169.80940693 -12.57047335 169.80940693 -13.4453125 171.9765625 C-13.1153125 172.9665625 -12.7853125 173.9565625 -12.4453125 174.9765625 C-11.32015165 173.14371807 -11.32015165 173.14371807 -10.4453125 170.9765625 C-10.7753125 169.9865625 -11.1053125 168.9965625 -11.4453125 167.9765625 Z M1.5546875 168.9765625 C1.8846875 170.6265625 2.2146875 172.2765625 2.5546875 173.9765625 C2.8846875 172.9865625 3.2146875 171.9965625 3.5546875 170.9765625 C2.8946875 170.3165625 2.2346875 169.6565625 1.5546875 168.9765625 Z M46.5546875 170.9765625 C46.8846875 172.6265625 47.2146875 174.2765625 47.5546875 175.9765625 C47.8846875 174.9865625 48.2146875 173.9965625 48.5546875 172.9765625 C47.8946875 172.3165625 47.2346875 171.6565625 46.5546875 170.9765625 Z M-57.4453125 171.9765625 C-56.4453125 174.9765625 -56.4453125 174.9765625 -56.4453125 174.9765625 Z M-42.2109375 173.5078125 C-43.54511719 173.98154297 -43.54511719 173.98154297 -44.90625 174.46484375 C-45.82664062 174.79871094 -46.74703125 175.13257813 -47.6953125 175.4765625 C-48.63117187 175.81042969 -49.56703125 176.14429688 -50.53125 176.48828125 C-52.83800579 177.3121226 -55.14251986 178.14172087 -57.4453125 178.9765625 C-57.7753125 177.6565625 -58.1053125 176.3365625 -58.4453125 174.9765625 C-58.7753125 176.9565625 -59.1053125 178.9365625 -59.4453125 180.9765625 C-54.22412574 180.38816451 -49.63281448 179.18028315 -44.6953125 177.4140625 C-37.83270919 174.9765625 -37.83270919 174.9765625 -34.4453125 174.9765625 C-31.1453125 181.9065625 -27.8453125 188.8365625 -24.4453125 195.9765625 C-23.4553125 195.9765625 -22.4653125 195.9765625 -21.4453125 195.9765625 C-21.1153125 194.6565625 -20.7853125 193.3365625 -20.4453125 191.9765625 C-21.4353125 191.9765625 -22.4253125 191.9765625 -23.4453125 191.9765625 C-26.7453125 185.3765625 -30.0453125 178.7765625 -33.4453125 171.9765625 C-37.07515173 171.9765625 -38.89986177 172.31922121 -42.2109375 173.5078125 Z M24.5546875 171.9765625 C24.2246875 173.2965625 23.8946875 174.6165625 23.5546875 175.9765625 C23.8846875 175.3165625 24.2146875 174.6565625 24.5546875 173.9765625 C25.16465576 174.1938501 25.77462402 174.4111377 26.40307617 174.63500977 C29.17848885 175.61569953 31.9600904 176.5775082 34.7421875 177.5390625 C35.70189453 177.88130859 36.66160156 178.22355469 37.65039062 178.57617188 C38.58173828 178.89521484 39.51308594 179.21425781 40.47265625 179.54296875 C41.32625732 179.84146729 42.1798584 180.13996582 43.05932617 180.44750977 C45.88596609 181.04679836 47.78754723 180.72414542 50.5546875 179.9765625 C49.8946875 178.6565625 49.2346875 177.3365625 48.5546875 175.9765625 C48.2246875 176.6365625 47.8946875 177.2965625 47.5546875 177.9765625 C41.4319375 176.36290316 35.39228636 174.66467238 29.4296875 172.52734375 C27.40066076 171.83564168 27.40066076 171.83564168 24.5546875 171.9765625 Z M3.5546875 173.9765625 C4.5546875 175.9765625 4.5546875 175.9765625 4.5546875 175.9765625 Z M-14.4453125 174.9765625 C-13.4453125 176.9765625 -13.4453125 176.9765625 -13.4453125 176.9765625 Z M4.5546875 175.9765625 C5.5546875 178.9765625 5.5546875 178.9765625 5.5546875 178.9765625 Z M22.5546875 175.9765625 C19.5846875 181.2565625 16.6146875 186.5365625 13.5546875 191.9765625 C12.5646875 190.6565625 11.5746875 189.3365625 10.5546875 187.9765625 C9.8946875 187.3165625 9.2346875 186.6565625 8.5546875 185.9765625 C9.12014587 189.93477109 10.36371098 192.6424678 12.5546875 195.9765625 C15.57482336 195.31168121 15.57482336 195.31168121 16.64550781 193.33422852 C16.97131836 192.63998779 17.29712891 191.94574707 17.6328125 191.23046875 C17.98859375 190.47572266 18.344375 189.72097656 18.7109375 188.94335938 C19.071875 188.14994141 19.4328125 187.35652344 19.8046875 186.5390625 C20.18109375 185.74951172 20.5575 184.95996094 20.9453125 184.14648438 C22.37742575 181.11170901 22.37742575 181.11170901 23.5546875 177.9765625 C23.2246875 177.3165625 22.8946875 176.6565625 22.5546875 175.9765625 Z M-15.4453125 176.9765625 C-14.4453125 179.9765625 -14.4453125 179.9765625 -14.4453125 179.9765625 Z M5.5546875 178.9765625 C6.5546875 180.9765625 6.5546875 180.9765625 6.5546875 180.9765625 Z M-16.4453125 179.9765625 C-15.4453125 181.9765625 -15.4453125 181.9765625 -15.4453125 181.9765625 Z M6.5546875 180.9765625 C6.8846875 182.6265625 7.2146875 184.2765625 7.5546875 185.9765625 C7.8846875 184.9865625 8.2146875 183.9965625 8.5546875 182.9765625 C7.8946875 182.3165625 7.2346875 181.6565625 6.5546875 180.9765625 Z M-17.4453125 181.9765625 C-16.4453125 184.9765625 -16.4453125 184.9765625 -16.4453125 184.9765625 Z M-18.4453125 184.9765625 C-19.57047335 186.80940693 -19.57047335 186.80940693 -20.4453125 188.9765625 C-20.1153125 189.9665625 -19.7853125 190.9565625 -19.4453125 191.9765625 C-18.32015165 190.14371807 -18.32015165 190.14371807 -17.4453125 187.9765625 C-17.7753125 186.9865625 -18.1053125 185.9965625 -18.4453125 184.9765625 Z " fill="#FCFCFE" transform="translate(106.4453125,1.0234375)"/>
<path d="M0 0 C2.54286657 1.28309781 5.04790845 2.62459178 7.5546875 3.9765625 C12.22333298 6.27940112 15.88473357 7.11200749 21.1171875 6.9765625 C26.22556349 6.84938301 29.15141596 7.33459958 33.5546875 9.9765625 C36.10131525 12.58530313 37.99370808 15.05318045 39.87890625 18.15625 C43.08100881 23.36734294 46.07766029 26.38871598 51.30078125 29.5703125 C55.64314144 32.27958402 59.90588881 35.03016642 61.5546875 39.9765625 C61.74987002 43.2585205 61.89853628 46.53391563 61.984375 49.8203125 C62.29569676 56.72127816 64.93395573 61.95579841 68.3046875 67.9140625 C70.12649975 71.61878437 71.25626366 74.4686817 70.4140625 78.6796875 C69.02232639 82.39941857 66.98259021 85.78618993 65.07421875 89.26269531 C61.99866053 95.27024316 61.793646 100.71618865 61.8203125 107.3828125 C61.51934189 111.45476778 60.85340609 113.60604874 58.5546875 116.9765625 C56.28339606 118.59327057 54.15725728 119.94508388 51.7421875 121.2890625 C46.04234409 124.71642888 40.62234543 128.29299793 38.5546875 134.9765625 C39.0017155 140.18629633 40.39446236 144.61262993 42.4609375 149.37109375 C42.74569946 150.04452316 43.03046143 150.71795258 43.32385254 151.41178894 C44.22640012 153.5409338 45.14038699 155.66494218 46.0546875 157.7890625 C46.66871597 159.23340652 47.28200432 160.67806543 47.89453125 162.12304688 C50.59315348 168.6101081 50.59315348 168.6101081 53.5546875 174.9765625 C54.00247678 181.13366504 54.00247678 181.13366504 52.4921875 183.9765625 C47.97261637 186.30924437 41.87597486 183.58163918 37.25195312 182.11132812 C36.54748047 181.88123047 35.84300781 181.65113281 35.1171875 181.4140625 C34.38564453 181.18009766 33.65410156 180.94613281 32.90039062 180.70507812 C31.11688571 180.13389028 29.33555167 179.55593127 27.5546875 178.9765625 C27.29252441 179.54689209 27.03036133 180.11722168 26.76025391 180.70483398 C25.57321503 183.27762655 24.37659666 185.8458479 23.1796875 188.4140625 C22.7671875 189.31189453 22.3546875 190.20972656 21.9296875 191.13476562 C21.53007813 191.98876953 21.13046875 192.84277344 20.71875 193.72265625 C20.35217285 194.51341553 19.9855957 195.3041748 19.60791016 196.11889648 C18.5546875 197.9765625 18.5546875 197.9765625 16.5546875 198.9765625 C11.15468275 199.43613737 11.15468275 199.43613737 9.01391602 197.79638672 C7.19731105 195.53087335 6.24101087 193.29910942 5.14453125 190.609375 C4.71205078 189.55878906 4.27957031 188.50820312 3.83398438 187.42578125 C3.16979492 185.78029297 3.16979492 185.78029297 2.4921875 184.1015625 C2.04552734 183.01230469 1.59886719 181.92304688 1.13867188 180.80078125 C-0.74444336 176.20136376 -2.60231461 171.59218887 -4.4453125 166.9765625 C-5.86560258 170.09992769 -7.28084939 173.22555468 -8.6953125 176.3515625 C-9.09105469 177.22167969 -9.48679687 178.09179688 -9.89453125 178.98828125 C-12.27631969 184.25945238 -14.50022874 189.55456379 -16.54199219 194.96728516 C-17.4453125 196.9765625 -17.4453125 196.9765625 -19.4453125 198.9765625 C-23.49792537 199.32146572 -24.99285426 199.27820132 -28.4453125 196.9765625 C-29.52026367 195.22070313 -29.52026367 195.22070313 -30.48828125 193.1328125 C-30.83955078 192.38128906 -31.19082031 191.62976563 -31.55273438 190.85546875 C-31.90916016 190.07042969 -32.26558594 189.28539062 -32.6328125 188.4765625 C-33.18485352 187.29900391 -33.18485352 187.29900391 -33.74804688 186.09765625 C-36.4453125 180.2627551 -36.4453125 180.2627551 -36.4453125 177.9765625 C-37.26773438 178.31429687 -38.09015625 178.65203125 -38.9375 179 C-53.70346203 184.89956451 -53.70346203 184.89956451 -59.4453125 184.9765625 C-62.1328125 183.4765625 -62.1328125 183.4765625 -63.4453125 180.9765625 C-63.01740936 176.86869238 -61.95942594 173.3039048 -60.4453125 169.4765625 C-60.01992188 168.35121094 -59.59453125 167.22585937 -59.15625 166.06640625 C-57.87494 162.85663537 -56.3657307 159.80911346 -54.796875 156.73046875 C-49.31229275 146.67188469 -49.31229275 146.67188469 -49.37890625 135.765625 C-53.44068849 127.84785194 -60.8160878 123.10450484 -68.40625 118.94140625 C-71.70201619 116.81059597 -72.96047231 115.57963625 -74.4453125 111.9765625 C-74.8515625 108.48828125 -74.8515625 108.48828125 -74.9453125 104.6640625 C-75.25150698 97.68299648 -76.48573738 92.65003467 -79.75390625 86.5234375 C-84.45453342 77.62819967 -84.45453342 77.62819967 -83.4453125 71.9765625 C-82.36124441 69.43745245 -81.15815002 67.0228244 -79.83203125 64.6015625 C-76.26631314 57.85180878 -75.01299003 52.38670644 -75.00585938 44.84960938 C-74.86339218 39.73552828 -73.7808324 36.84686824 -70.4453125 32.9765625 C-67.421875 30.95703125 -67.421875 30.95703125 -64.0703125 29.1640625 C-58.05790892 25.74811415 -54.62705008 22.09438879 -51.4453125 15.9765625 C-49.44404868 12.43586498 -47.99310628 10.06350002 -44.4453125 7.9765625 C-40.92431991 7.07695187 -37.87124784 6.96657785 -34.2578125 7.1640625 C-26.64581847 7.23568072 -20.87183635 4.30244296 -14.3203125 0.7265625 C-9.36130487 -1.76285933 -5.11005613 -2.13871359 0 0 Z M-19.18359375 7.56640625 C-23.23209839 10.09060345 -26.76546984 10.01143377 -31.48730469 10.01196289 C-38.54171187 9.9978926 -38.54171187 9.9978926 -44.94140625 12.5390625 C-46.74249557 14.59286591 -48.10601938 16.59787931 -49.4453125 18.9765625 C-50.31884381 20.39413525 -51.19378618 21.81083969 -52.0703125 23.2265625 C-52.46863281 23.88785156 -52.86695312 24.54914062 -53.27734375 25.23046875 C-56.21752264 29.62598703 -60.98664352 31.98123973 -65.48046875 34.53515625 C-68.54388267 36.78247183 -71.12865997 38.94512276 -71.7409668 42.87329102 C-71.81241915 45.0996637 -71.79535491 47.31193504 -71.7578125 49.5390625 C-71.86342175 57.29234636 -73.56138574 61.84662957 -77.89453125 68.38671875 C-79.84520332 71.64439024 -80.44141927 73.89935812 -80.15234375 77.6640625 C-79.24067697 80.64586765 -77.71731997 82.87159874 -76.0078125 85.4765625 C-72.19229397 91.41776069 -71.66547879 96.22441196 -71.70922852 103.1015625 C-71.71293376 107.63254879 -71.21562204 110.35179604 -68.4453125 113.9765625 C-65.65379757 116.52880472 -62.68401513 118.43639748 -59.4453125 120.3515625 C-53.17863469 124.23149435 -49.92106688 129.58144984 -46.65625 136.0234375 C-45.44734436 138.27483499 -45.44734436 138.27483499 -42.4453125 139.9765625 C-40.61391871 140.04708049 -38.78122475 140.1085808 -36.94848633 140.10180664 C-28.36494245 140.10085004 -22.21109296 141.85509204 -14.80004883 146.18212891 C-10.78873742 148.50234068 -8.08101781 149.70591347 -3.4453125 148.9765625 C-0.27902464 147.52318546 -0.27902464 147.52318546 2.7421875 145.5390625 C9.41975613 141.38133109 14.40228866 140.73599287 22.13085938 140.72265625 C27.94217435 140.52877568 30.52092236 139.19752333 34.5546875 134.9765625 C36.01945779 132.79558209 36.01945779 132.79558209 36.9921875 130.5390625 C40.55740105 123.69248999 45.97801341 120.03815509 52.66015625 116.4453125 C55.86962002 113.95715089 58.23963456 111.09959855 58.85083008 106.98095703 C58.92091559 104.74586627 58.90510199 102.5248402 58.8671875 100.2890625 C58.97046969 92.73186608 60.45492571 88.46541786 65.0078125 82.28515625 C66.94203983 79.39846849 67.50789894 77.46188833 67.1953125 74.0234375 C66.05939808 70.39405239 64.05749234 67.32712204 61.96484375 64.17578125 C59.96976136 61.06433697 59.4390211 58.57228468 59.4140625 54.95703125 C59.39472656 54.18166016 59.37539062 53.40628906 59.35546875 52.60742188 C59.32186326 50.99048082 59.30340459 49.37314749 59.30078125 47.75585938 C59.17450464 43.73826933 58.89138284 40.84002519 56.37890625 37.60546875 C53.55480856 34.97667519 51.06818984 33.41431139 47.6171875 31.7265625 C42.27424096 28.77061166 39.67593564 26.07084437 37.03125 20.6015625 C34.95579548 16.91186558 32.9288234 13.60652354 29.5546875 10.9765625 C26.44325179 10.15594028 23.50247177 10.28019001 20.3046875 10.4140625 C12.07620584 10.40776198 7.20245727 9.01969819 0.5546875 3.9765625 C-7.30304152 1.35731949 -12.45469761 2.98295525 -19.18359375 7.56640625 Z M34.5546875 141.9765625 C34.8846875 143.6265625 35.2146875 145.2765625 35.5546875 146.9765625 C35.8846875 145.9865625 36.2146875 144.9965625 36.5546875 143.9765625 C35.8946875 143.3165625 35.2346875 142.6565625 34.5546875 141.9765625 Z M-45.4453125 142.9765625 C-45.1153125 143.9665625 -44.7853125 144.9565625 -44.4453125 145.9765625 C-44.1153125 144.9865625 -43.7853125 143.9965625 -43.4453125 142.9765625 C-44.1053125 142.9765625 -44.7653125 142.9765625 -45.4453125 142.9765625 Z M-46.4453125 145.9765625 C-45.4453125 147.9765625 -45.4453125 147.9765625 -45.4453125 147.9765625 Z M36.5546875 146.9765625 C37.5546875 148.9765625 37.5546875 148.9765625 37.5546875 148.9765625 Z M-47.4453125 147.9765625 C-47.7753125 149.6265625 -48.1053125 151.2765625 -48.4453125 152.9765625 C-47.7853125 152.3165625 -47.1253125 151.6565625 -46.4453125 150.9765625 C-46.7753125 149.9865625 -47.1053125 148.9965625 -47.4453125 147.9765625 Z M37.5546875 148.9765625 C38.5546875 151.9765625 38.5546875 151.9765625 38.5546875 151.9765625 Z M-5.4453125 151.9765625 C-5.1153125 153.6265625 -4.7853125 155.2765625 -4.4453125 156.9765625 C-4.1153125 155.9865625 -3.7853125 154.9965625 -3.4453125 153.9765625 C-4.1053125 153.3165625 -4.7653125 152.6565625 -5.4453125 151.9765625 Z M38.5546875 151.9765625 C38.8846875 153.6265625 39.2146875 155.2765625 39.5546875 156.9765625 C39.8846875 155.9865625 40.2146875 154.9965625 40.5546875 153.9765625 C39.8946875 153.3165625 39.2346875 152.6565625 38.5546875 151.9765625 Z M-49.4453125 152.9765625 C-48.4453125 155.9765625 -48.4453125 155.9765625 -48.4453125 155.9765625 Z M-50.4453125 155.9765625 C-49.4453125 157.9765625 -49.4453125 157.9765625 -49.4453125 157.9765625 Z M-3.4453125 156.9765625 C-2.4453125 159.9765625 -2.4453125 159.9765625 -2.4453125 159.9765625 Z M40.5546875 156.9765625 C41.5546875 158.9765625 41.5546875 158.9765625 41.5546875 158.9765625 Z M-51.4453125 157.9765625 C-52.57047335 159.80940693 -52.57047335 159.80940693 -53.4453125 161.9765625 C-53.1153125 162.9665625 -52.7853125 163.9565625 -52.4453125 164.9765625 C-51.32015165 163.14371807 -51.32015165 163.14371807 -50.4453125 160.9765625 C-50.7753125 159.9865625 -51.1053125 158.9965625 -51.4453125 157.9765625 Z M41.5546875 158.9765625 C41.8846875 160.6265625 42.2146875 162.2765625 42.5546875 163.9765625 C42.8846875 162.9865625 43.2146875 161.9965625 43.5546875 160.9765625 C42.8946875 160.3165625 42.2346875 159.6565625 41.5546875 158.9765625 Z M-2.4453125 159.9765625 C-1.4453125 161.9765625 -1.4453125 161.9765625 -1.4453125 161.9765625 Z M-8.4453125 160.9765625 C-8.7753125 162.6265625 -9.1053125 164.2765625 -9.4453125 165.9765625 C-8.7853125 165.3165625 -8.1253125 164.6565625 -7.4453125 163.9765625 C-7.7753125 162.9865625 -8.1053125 161.9965625 -8.4453125 160.9765625 Z M-1.4453125 161.9765625 C-0.4453125 163.9765625 -0.4453125 163.9765625 -0.4453125 163.9765625 Z M-0.4453125 163.9765625 C0.5546875 166.9765625 0.5546875 166.9765625 0.5546875 166.9765625 Z M43.5546875 163.9765625 C44.5546875 165.9765625 44.5546875 165.9765625 44.5546875 165.9765625 Z M-54.4453125 164.9765625 C-53.4453125 166.9765625 -53.4453125 166.9765625 -53.4453125 166.9765625 Z M-10.4453125 165.9765625 C-9.4453125 167.9765625 -9.4453125 167.9765625 -9.4453125 167.9765625 Z M44.5546875 165.9765625 C44.8846875 167.6265625 45.2146875 169.2765625 45.5546875 170.9765625 C45.8846875 169.9865625 46.2146875 168.9965625 46.5546875 167.9765625 C45.8946875 167.3165625 45.2346875 166.6565625 44.5546875 165.9765625 Z M-55.4453125 166.9765625 C-55.7753125 168.6265625 -56.1053125 170.2765625 -56.4453125 171.9765625 C-55.7853125 171.3165625 -55.1253125 170.6565625 -54.4453125 169.9765625 C-54.7753125 168.9865625 -55.1053125 167.9965625 -55.4453125 166.9765625 Z M0.5546875 166.9765625 C1.5546875 168.9765625 1.5546875 168.9765625 1.5546875 168.9765625 Z M-11.4453125 167.9765625 C-12.57047335 169.80940693 -12.57047335 169.80940693 -13.4453125 171.9765625 C-13.1153125 172.9665625 -12.7853125 173.9565625 -12.4453125 174.9765625 C-11.32015165 173.14371807 -11.32015165 173.14371807 -10.4453125 170.9765625 C-10.7753125 169.9865625 -11.1053125 168.9965625 -11.4453125 167.9765625 Z M1.5546875 168.9765625 C1.8846875 170.6265625 2.2146875 172.2765625 2.5546875 173.9765625 C2.8846875 172.9865625 3.2146875 171.9965625 3.5546875 170.9765625 C2.8946875 170.3165625 2.2346875 169.6565625 1.5546875 168.9765625 Z M46.5546875 170.9765625 C46.8846875 172.6265625 47.2146875 174.2765625 47.5546875 175.9765625 C47.8846875 174.9865625 48.2146875 173.9965625 48.5546875 172.9765625 C47.8946875 172.3165625 47.2346875 171.6565625 46.5546875 170.9765625 Z M-57.4453125 171.9765625 C-56.4453125 174.9765625 -56.4453125 174.9765625 -56.4453125 174.9765625 Z M-42.2109375 173.5078125 C-43.54511719 173.98154297 -43.54511719 173.98154297 -44.90625 174.46484375 C-45.82664062 174.79871094 -46.74703125 175.13257813 -47.6953125 175.4765625 C-48.63117187 175.81042969 -49.56703125 176.14429688 -50.53125 176.48828125 C-52.83800579 177.3121226 -55.14251986 178.14172087 -57.4453125 178.9765625 C-57.7753125 177.6565625 -58.1053125 176.3365625 -58.4453125 174.9765625 C-58.7753125 176.9565625 -59.1053125 178.9365625 -59.4453125 180.9765625 C-54.22412574 180.38816451 -49.63281448 179.18028315 -44.6953125 177.4140625 C-37.83270919 174.9765625 -37.83270919 174.9765625 -34.4453125 174.9765625 C-31.1453125 181.9065625 -27.8453125 188.8365625 -24.4453125 195.9765625 C-23.4553125 195.9765625 -22.4653125 195.9765625 -21.4453125 195.9765625 C-21.1153125 194.6565625 -20.7853125 193.3365625 -20.4453125 191.9765625 C-21.4353125 191.9765625 -22.4253125 191.9765625 -23.4453125 191.9765625 C-26.7453125 185.3765625 -30.0453125 178.7765625 -33.4453125 171.9765625 C-37.07515173 171.9765625 -38.89986177 172.31922121 -42.2109375 173.5078125 Z M24.5546875 171.9765625 C24.2246875 173.2965625 23.8946875 174.6165625 23.5546875 175.9765625 C23.8846875 175.3165625 24.2146875 174.6565625 24.5546875 173.9765625 C25.16465576 174.1938501 25.77462402 174.4111377 26.40307617 174.63500977 C29.17848885 175.61569953 31.9600904 176.5775082 34.7421875 177.5390625 C35.70189453 177.88130859 36.66160156 178.22355469 37.65039062 178.57617188 C38.58173828 178.89521484 39.51308594 179.21425781 40.47265625 179.54296875 C41.32625732 179.84146729 42.1798584 180.13996582 43.05932617 180.44750977 C45.88596609 181.04679836 47.78754723 180.72414542 50.5546875 179.9765625 C49.8946875 178.6565625 49.2346875 177.3365625 48.5546875 175.9765625 C48.2246875 176.6365625 47.8946875 177.2965625 47.5546875 177.9765625 C41.4319375 176.36290316 35.39228636 174.66467238 29.4296875 172.52734375 C27.40066076 171.83564168 27.40066076 171.83564168 24.5546875 171.9765625 Z M3.5546875 173.9765625 C4.5546875 175.9765625 4.5546875 175.9765625 4.5546875 175.9765625 Z M-14.4453125 174.9765625 C-13.4453125 176.9765625 -13.4453125 176.9765625 -13.4453125 176.9765625 Z M4.5546875 175.9765625 C5.5546875 178.9765625 5.5546875 178.9765625 5.5546875 178.9765625 Z M22.5546875 175.9765625 C19.5846875 181.2565625 16.6146875 186.5365625 13.5546875 191.9765625 C12.5646875 190.6565625 11.5746875 189.3365625 10.5546875 187.9765625 C9.8946875 187.3165625 9.2346875 186.6565625 8.5546875 185.9765625 C9.12014587 189.93477109 10.36371098 192.6424678 12.5546875 195.9765625 C15.57482336 195.31168121 15.57482336 195.31168121 16.64550781 193.33422852 C16.97131836 192.63998779 17.29712891 191.94574707 17.6328125 191.23046875 C17.98859375 190.47572266 18.344375 189.72097656 18.7109375 188.94335938 C19.071875 188.14994141 19.4328125 187.35652344 19.8046875 186.5390625 C20.18109375 185.74951172 20.5575 184.95996094 20.9453125 184.14648438 C22.37742575 181.11170901 22.37742575 181.11170901 23.5546875 177.9765625 C23.2246875 177.3165625 22.8946875 176.6565625 22.5546875 175.9765625 Z M-15.4453125 176.9765625 C-14.4453125 179.9765625 -14.4453125 179.9765625 -14.4453125 179.9765625 Z M5.5546875 178.9765625 C6.5546875 180.9765625 6.5546875 180.9765625 6.5546875 180.9765625 Z M-16.4453125 179.9765625 C-15.4453125 181.9765625 -15.4453125 181.9765625 -15.4453125 181.9765625 Z M6.5546875 180.9765625 C6.8846875 182.6265625 7.2146875 184.2765625 7.5546875 185.9765625 C7.8846875 184.9865625 8.2146875 183.9965625 8.5546875 182.9765625 C7.8946875 182.3165625 7.2346875 181.6565625 6.5546875 180.9765625 Z M-17.4453125 181.9765625 C-16.4453125 184.9765625 -16.4453125 184.9765625 -16.4453125 184.9765625 Z M-18.4453125 184.9765625 C-19.57047335 186.80940693 -19.57047335 186.80940693 -20.4453125 188.9765625 C-20.1153125 189.9665625 -19.7853125 190.9565625 -19.4453125 191.9765625 C-18.32015165 190.14371807 -18.32015165 190.14371807 -17.4453125 187.9765625 C-17.7753125 186.9865625 -18.1053125 185.9965625 -18.4453125 184.9765625 Z " fill="#4B06E2" transform="translate(106.4453125,1.0234375)"/>
<path d="M0 0 C0.66 0 1.32 0 2 0 C3.79665258 4.14420716 5.5931137 8.28849725 7.3894043 12.43286133 C7.99937885 13.84011021 8.60940397 15.24733717 9.21948242 16.65454102 C10.1008847 18.68760384 10.98209971 20.72074774 11.86328125 22.75390625 C12.13215652 23.37399063 12.4010318 23.99407501 12.67805481 24.63294983 C13.45310283 26.42150487 14.22656501 28.21074684 15 30 C15.28024017 30.61906219 15.56048035 31.23812439 15.84921265 31.87594604 C17.76466748 36.16227407 18.54463223 39.27985405 18 44 C16.9375 46 16.9375 46 15 47 C9.59271337 46.51525587 4.68910252 45.11197127 -0.4375 43.4375 C-1.16904297 43.20353516 -1.90058594 42.96957031 -2.65429688 42.72851562 C-4.43780179 42.15732778 -6.21913583 41.57936877 -8 41 C-8.39324463 41.85549438 -8.39324463 41.85549438 -8.79443359 42.72827148 C-9.98147247 45.30106405 -11.17809084 47.8692854 -12.375 50.4375 C-12.7875 51.33533203 -13.2 52.23316406 -13.625 53.15820312 C-14.02460937 54.01220703 -14.42421875 54.86621094 -14.8359375 55.74609375 C-15.20251465 56.53685303 -15.5690918 57.3276123 -15.94677734 58.14233398 C-17 60 -17 60 -19 61 C-24.40000475 61.45957487 -24.40000475 61.45957487 -26.54077148 59.81982422 C-28.35737645 57.55431085 -29.31367663 55.32254692 -30.41015625 52.6328125 C-30.84263672 51.58222656 -31.27511719 50.53164062 -31.72070312 49.44921875 C-32.38489258 47.80373047 -32.38489258 47.80373047 -33.0625 46.125 C-33.50916016 45.03574219 -33.95582031 43.94648438 -34.41601562 42.82421875 C-36.29913086 38.22480126 -38.15700211 33.61562637 -40 29 C-41.42029008 32.12336519 -42.83553689 35.24899218 -44.25 38.375 C-44.64574219 39.24511719 -45.04148438 40.11523438 -45.44921875 41.01171875 C-47.83100719 46.28288988 -50.05491624 51.57800129 -52.09667969 56.99072266 C-53 59 -53 59 -55 61 C-59.05261287 61.34490322 -60.54754176 61.30163882 -64 59 C-65.07495117 57.24414063 -65.07495117 57.24414063 -66.04296875 55.15625 C-66.39423828 54.40472656 -66.74550781 53.65320313 -67.10742188 52.87890625 C-67.46384766 52.09386719 -67.82027344 51.30882812 -68.1875 50.5 C-68.55552734 49.71496094 -68.92355469 48.92992187 -69.30273438 48.12109375 C-72 42.2861926 -72 42.2861926 -72 40 C-72.82242188 40.33773437 -73.64484375 40.67546875 -74.4921875 41.0234375 C-89.25814953 46.92300201 -89.25814953 46.92300201 -95 47 C-97.6875 45.5 -97.6875 45.5 -99 43 C-97.57470132 29.33613663 -89.41462342 15.48071583 -84 3 C-83.01 3 -82.02 3 -81 3 C-80.67 3.99 -80.34 4.98 -80 6 C-79.67 5.67 -79.34 5.34 -79 5 C-65.93260186 4.04078064 -57.29291384 6.45010997 -46 13 C-45.33444092 13.09684082 -44.66888184 13.19368164 -43.9831543 13.29345703 C-42 14 -42 14 -40.51879883 16.19091797 C-39.83853638 17.63942139 -39.83853638 17.63942139 -39.14453125 19.1171875 C-38.63229004 20.20483398 -38.12004883 21.29248047 -37.59228516 22.41308594 C-34.84341156 28.60542738 -32.23716126 34.84842454 -29.6875 41.125 C-28.88317811 43.09278062 -28.0775683 45.06002845 -27.2714386 47.02706909 C-26.55207098 48.78424538 -25.83587723 50.54272005 -25.11987305 52.30126953 C-24.46130632 53.88831915 -23.76843173 55.46313653 -23 57 C-22.34 57 -21.68 57 -21 57 C-17.7 50.07 -14.4 43.14 -11 36 C-5.5700349 36.7757093 -1.80020434 37.6533569 3.1875 39.5625 C7.17625875 41.08799495 9.70177111 42 14 42 C12.29502308 36.50685253 10.30231756 31.20741163 8.046875 25.91796875 C7.78096558 25.29189728 7.51505615 24.66582581 7.24108887 24.02078247 C6.13004179 21.40992118 5.01595432 18.80056381 3.88671875 16.19750977 C3.05483458 14.27520209 2.23734057 12.34728745 1.421875 10.41796875 C0.93299805 9.28125732 0.44412109 8.1445459 -0.05957031 6.97338867 C-0.99414543 4.01851058 -1.14821444 2.81846191 0 0 Z M-82 8 C-81 10 -81 10 -81 10 Z M-83 10 C-83.33 11.65 -83.66 13.3 -84 15 C-83.34 14.34 -82.68 13.68 -82 13 C-82.33 12.01 -82.66 11.02 -83 10 Z M-85 15 C-84 18 -84 18 -84 18 Z M-86 18 C-85 20 -85 20 -85 20 Z M-87 20 C-88.12516085 21.83284443 -88.12516085 21.83284443 -89 24 C-88.67 24.99 -88.34 25.98 -88 27 C-86.87483915 25.16715557 -86.87483915 25.16715557 -86 23 C-86.33 22.01 -86.66 21.02 -87 20 Z M-44 23 C-44.33 24.65 -44.66 26.3 -45 28 C-44.34 27.34 -43.68 26.68 -43 26 C-43.33 25.01 -43.66 24.02 -44 23 Z M-90 27 C-89 29 -89 29 -89 29 Z M-46 28 C-45 30 -45 30 -45 30 Z M-91 29 C-91.33 30.65 -91.66 32.3 -92 34 C-91.34 33.34 -90.68 32.68 -90 32 C-90.33 31.01 -90.66 30.02 -91 29 Z M-47 30 C-48.12516085 31.83284443 -48.12516085 31.83284443 -49 34 C-48.67 34.99 -48.34 35.98 -48 37 C-46.87483915 35.16715557 -46.87483915 35.16715557 -46 33 C-46.33 32.01 -46.66 31.02 -47 30 Z M-93 34 C-92 37 -92 37 -92 37 Z M-77.765625 35.53125 C-79.09980469 36.00498047 -79.09980469 36.00498047 -80.4609375 36.48828125 C-81.38132812 36.82214844 -82.30171875 37.15601563 -83.25 37.5 C-84.18585938 37.83386719 -85.12171875 38.16773438 -86.0859375 38.51171875 C-88.39269329 39.3355601 -90.69720736 40.16515837 -93 41 C-93.33 39.68 -93.66 38.36 -94 37 C-94.33 38.98 -94.66 40.96 -95 43 C-89.77881324 42.41160201 -85.18750198 41.20372065 -80.25 39.4375 C-73.38739669 37 -73.38739669 37 -70 37 C-66.7 43.93 -63.4 50.86 -60 58 C-59.01 58 -58.02 58 -57 58 C-56.67 56.68 -56.34 55.36 -56 54 C-56.99 54 -57.98 54 -59 54 C-62.3 47.4 -65.6 40.8 -69 34 C-72.62983923 34 -74.45454927 34.34265871 -77.765625 35.53125 Z M-50 37 C-49 39 -49 39 -49 39 Z M-51 39 C-50 42 -50 42 -50 42 Z M-52 42 C-51 44 -51 44 -51 44 Z M-53 44 C-52 47 -52 47 -52 47 Z M-54 47 C-55.12516085 48.83284443 -55.12516085 48.83284443 -56 51 C-55.67 51.99 -55.34 52.98 -55 54 C-53.87483915 52.16715557 -53.87483915 52.16715557 -53 50 C-53.33 49.01 -53.66 48.02 -54 47 Z " fill="#EAB3BD" transform="translate(142,139)"/>
<path d="M0 0 C3 1 3 1 4.64160156 4.18701172 C5.2366108 5.59622966 5.81877331 7.01091449 6.390625 8.4296875 C6.69949646 9.17582306 7.00836792 9.92195862 7.32659912 10.69070435 C7.97735763 12.27059613 8.62258116 13.85277734 9.26269531 15.43701172 C10.24569773 17.86437625 11.25032224 20.28193152 12.2578125 22.69921875 C12.88673446 24.2338356 13.51438185 25.76897554 14.140625 27.3046875 C14.44260803 28.02977509 14.74459106 28.75486267 15.0557251 29.50192261 C17.11513684 34.65458948 17.11513684 34.65458948 16 38 C9.87725 36.38634066 3.83759886 34.68810988 -2.125 32.55078125 C-4.15402674 31.85907918 -4.15402674 31.85907918 -7 32 C-7.53109375 33.10859375 -8.0621875 34.2171875 -8.609375 35.359375 C-9.32248498 36.82312706 -10.03605071 38.28665714 -10.75 39.75 C-11.09804687 40.47960937 -11.44609375 41.20921875 -11.8046875 41.9609375 C-13.76138746 45.94680779 -15.56609446 49.06107184 -19 52 C-23.76570551 43.17871066 -27.73260325 34.10057687 -31.5 24.8125 C-31.95745605 23.70140869 -32.41491211 22.59031738 -32.88623047 21.44555664 C-33.30533691 20.39746826 -33.72444336 19.34937988 -34.15625 18.26953125 C-34.53587891 17.32698486 -34.91550781 16.38443848 -35.30664062 15.41333008 C-36 13 -36 13 -35 10 C-32.41796875 8.46484375 -32.41796875 8.46484375 -29.1875 6.9375 C-28.12917969 6.43089844 -27.07085937 5.92429688 -25.98046875 5.40234375 C-24.99691406 4.93957031 -24.01335937 4.47679687 -23 4 C-22.39027344 3.62101563 -21.78054687 3.24203125 -21.15234375 2.8515625 C-17.67036554 1.47393773 -14.08770061 1.56520195 -10.375 1.4375 C-5.02399779 1.45717344 -5.02399779 1.45717344 0 0 Z " fill="#EFB7C1" transform="translate(138,142)"/>
<path d="M0 0 C0.33 0.99 0.66 1.98 1 3 C0.2884375 4.051875 0.2884375 4.051875 -0.4375 5.125 C-2.66671959 9.22676405 -3.01169358 12.42993589 -2 17 C-0.91699989 18.8711376 0.23655699 20.7022845 1.4375 22.5 C5.25301853 28.44119819 5.77983371 33.24784946 5.73608398 40.125 C5.73238652 44.64647407 6.14698449 47.43210589 9 51 C10.72801581 52.3813245 10.72801581 52.3813245 12.6875 53.375 C21.05289142 58.33283748 26.74001395 64.173438 31 73 C31 73.66 31 74.32 31 75 C33.99890164 75.99963388 36.36961775 76.03399774 39.49682617 76.03735352 C48.0615866 76.13566738 54.2415395 77.88348253 61.64526367 82.20532227 C65.65638541 84.52594901 68.36431262 85.72934815 73 85 C76.16628786 83.54662296 76.16628786 83.54662296 79.1875 81.5625 C85.87997416 77.39548779 90.92302403 76.75727785 98.6640625 76.65820312 C103.70249384 76.46882153 106.29052344 75.69571227 110 72 C110.763125 71.2575 111.52625 70.515 112.3125 69.75 C112.869375 69.1725 113.42625 68.595 114 68 C114.93423645 71.01031744 115.04449911 71.86650268 114 75 C111.72241341 77.84698324 109.44694044 78.90090773 106 80 C104.1095994 80.0688892 102.21805826 80.13229996 100.32641602 80.12524414 C90.87740535 80.12416561 84.24991202 82.66523122 76.09765625 87.28515625 C73 89 73 89 71 89 C70.67 89.66 70.34 90.32 70 91 C70 90.34 70 89.68 70 89 C69.13761719 88.896875 68.27523437 88.79375 67.38671875 88.6875 C63.75861535 87.95099919 61.0794013 86.72247268 57.8125 85 C53.37523394 82.67810983 49.80183174 80.93342427 44.76953125 80.68359375 C43.96708984 80.64169922 43.16464844 80.59980469 42.33789062 80.55664062 C41.50451172 80.51732422 40.67113281 80.47800781 39.8125 80.4375 C38.5450293 80.37272461 38.5450293 80.37272461 37.25195312 80.30664062 C35.16815567 80.20068482 33.08409897 80.0998498 31 80 C31 79.34 31 78.68 31 78 C30.40960938 77.79503906 29.81921875 77.59007812 29.2109375 77.37890625 C26.13807525 75.46243916 25.27995269 73.13882252 23.625 69.9375 C20.15879533 63.70712863 16.03415337 60.39461503 9.83642578 56.98022461 C5.94835735 54.81749328 3.70965946 53.15717194 2 49 C1.59375 45.51171875 1.59375 45.51171875 1.5 41.6875 C1.19380552 34.70643398 -0.04042488 29.67347217 -3.30859375 23.546875 C-7.90099156 14.85644515 -7.90099156 14.85644515 -7 9 C-5.39265334 4.82089868 -3.81927559 2.37058485 0 0 Z " fill="#520BEA" transform="translate(30,64)"/>
<path d="M0 0 C0.99 0 1.98 0 3 0 C2.51323099 6.87317848 -0.14698475 12.60752021 -2.875 18.875 C-5.88112331 25.84885956 -8.71567219 32.75368859 -11 40 C-10.35450195 39.7827124 -9.70900391 39.5654248 -9.04394531 39.34155273 C-6.11611907 38.36271546 -3.18324495 37.399971 -0.25 36.4375 C0.76578125 36.09525391 1.7815625 35.75300781 2.828125 35.40039062 C3.8078125 35.08134766 4.7875 34.76230469 5.796875 34.43359375 C7.14797363 33.98584595 7.14797363 33.98584595 8.52636719 33.52905273 C11.206517 32.9558308 12.51876032 32.84115735 15 34 C16.28027344 35.82592773 16.28027344 35.82592773 17.359375 38.18359375 C17.75253906 39.02857422 18.14570312 39.87355469 18.55078125 40.74414062 C18.94652344 41.63294922 19.34226563 42.52175781 19.75 43.4375 C20.16121094 44.32244141 20.57242188 45.20738281 20.99609375 46.11914062 C24 52.67084977 24 52.67084977 24 55 C24.99 55 25.98 55 27 55 C27.23460937 54.24460938 27.46921875 53.48921875 27.7109375 52.7109375 C29.48630729 47.60002447 31.5605365 42.62487253 33.625 37.625 C34.04523438 36.60277344 34.46546875 35.58054688 34.8984375 34.52734375 C35.93052463 32.0174955 36.96442866 29.50841219 38 27 C39.32 27.33 40.64 27.66 42 28 C39.95387856 34.45360128 37.5730931 40.70302652 34.9375 46.9375 C34.58623047 47.78634766 34.23496094 48.63519531 33.87304688 49.50976562 C33.53208984 50.31994141 33.19113281 51.13011719 32.83984375 51.96484375 C32.38146118 53.05720337 32.38146118 53.05720337 31.91381836 54.17163086 C31 56 31 56 29 58 C24.94738713 58.34490322 23.45245824 58.30163882 20 56 C18.92504883 54.24414063 18.92504883 54.24414063 17.95703125 52.15625 C17.60576172 51.40472656 17.25449219 50.65320313 16.89257812 49.87890625 C16.53615234 49.09386719 16.17972656 48.30882812 15.8125 47.5 C15.44447266 46.71496094 15.07644531 45.92992187 14.69726562 45.12109375 C12 39.2861926 12 39.2861926 12 37 C11.17757812 37.33773437 10.35515625 37.67546875 9.5078125 38.0234375 C-5.25814953 43.92300201 -5.25814953 43.92300201 -11 44 C-13.6875 42.5 -13.6875 42.5 -15 40 C-13.57470132 26.33613663 -5.41462342 12.48071583 0 0 Z " fill="#BF9299" transform="translate(58,142)"/>
<path d="M0 0 C2.6875 0.375 2.6875 0.375 4.8125 2.5 C8.33864947 7.90676252 10.66072534 11.77869488 9.6875 18.375 C7.91224215 22.18279946 5.86805722 25.78616625 3.6875 29.375 C-1.79861111 29.74074074 -1.79861111 29.74074074 -4.046875 28.140625 C-7.19481937 23.74904829 -9.27788787 19.31327938 -9.375 13.875 C-5.4302665 0.88058376 -5.4302665 0.88058376 0 0 Z " fill="#5C10FF" transform="translate(86.3125,62.625)"/>
<path d="M0 0 C2.3925 -0.0825 4.785 -0.165 7.25 -0.25 C7.99668945 -0.28641602 8.74337891 -0.32283203 9.51269531 -0.36035156 C12.80762363 -0.41529657 14.71265981 -0.19506242 17.45703125 1.66796875 C19.34167039 4.51639804 19.5067712 6.16821115 19.4375 9.5625 C19.43621094 10.51253906 19.43492187 11.46257812 19.43359375 12.44140625 C19 15 19 15 17.859375 16.828125 C15.14691687 18.53765743 12.98305714 18.28977604 9.8125 18.1875 C8.72582031 18.16042969 7.63914063 18.13335937 6.51953125 18.10546875 C5.27236328 18.05326172 5.27236328 18.05326172 4 18 C4 21.63 4 25.26 4 29 C2.68 29 1.36 29 0 29 C0 19.43 0 9.86 0 0 Z " fill="#580BFF" transform="translate(132,63)"/>
<path d="M0 0 C2.3925 -0.0825 4.785 -0.165 7.25 -0.25 C7.99668945 -0.28641602 8.74337891 -0.32283203 9.51269531 -0.36035156 C12.80762363 -0.41529657 14.71265981 -0.19506242 17.45703125 1.66796875 C19.34167039 4.51639804 19.5067712 6.16821115 19.4375 9.5625 C19.43621094 10.51253906 19.43492188 11.46257812 19.43359375 12.44140625 C19 15 19 15 17.859375 16.828125 C15.14691687 18.53765743 12.98305714 18.28977604 9.8125 18.1875 C8.72582031 18.16042969 7.63914062 18.13335937 6.51953125 18.10546875 C5.27236328 18.05326172 5.27236328 18.05326172 4 18 C4 21.63 4 25.26 4 29 C2.68 29 1.36 29 0 29 C0 19.43 0 9.86 0 0 Z " fill="#570AFF" transform="translate(50,63)"/>
<path d="M0 0 C0.66 0 1.32 0 2 0 C3.79665258 4.14420716 5.5931137 8.28849725 7.3894043 12.43286133 C7.99937885 13.84011021 8.60940397 15.24733717 9.21948242 16.65454102 C10.1008847 18.68760384 10.98209971 20.72074774 11.86328125 22.75390625 C12.13215652 23.37399063 12.4010318 23.99407501 12.67805481 24.63294983 C13.45310283 26.42150487 14.22656501 28.21074684 15 30 C15.28024017 30.61906219 15.56048035 31.23812439 15.84921265 31.87594604 C17.76466748 36.16227407 18.54463223 39.27985405 18 44 C16.9375 46 16.9375 46 15 47 C9.59271337 46.51525587 4.68910252 45.11197127 -0.4375 43.4375 C-1.16904297 43.20353516 -1.90058594 42.96957031 -2.65429688 42.72851562 C-4.43780179 42.15732778 -6.21913583 41.57936877 -8 41 C-8.24645264 41.57032959 -8.49290527 42.14065918 -8.74682617 42.72827148 C-9.87426388 45.30703858 -11.03033958 47.87194147 -12.1875 50.4375 C-12.57486328 51.33533203 -12.96222656 52.23316406 -13.36132812 53.15820312 C-13.75126953 54.01220703 -14.14121094 54.86621094 -14.54296875 55.74609375 C-14.89383545 56.53685303 -15.24470215 57.3276123 -15.60620117 58.14233398 C-17 60 -17 60 -19.65356445 60.76586914 C-20.42788818 60.84313232 -21.20221191 60.92039551 -22 61 C-20.33913088 55.43335076 -17.88928264 50.34213647 -15.375 45.125 C-14.74464844 43.80628906 -14.74464844 43.80628906 -14.1015625 42.4609375 C-13.0708308 40.30577122 -12.03690574 38.15220078 -11 36 C-5.90934528 36.56707677 -1.6303026 37.71839017 3.1875 39.5625 C7.17625875 41.08799495 9.70177111 42 14 42 C12.29502308 36.50685253 10.30231756 31.20741163 8.046875 25.91796875 C7.78096558 25.29189728 7.51505615 24.66582581 7.24108887 24.02078247 C6.13004179 21.40992118 5.01595432 18.80056381 3.88671875 16.19750977 C3.05483458 14.27520209 2.23734057 12.34728745 1.421875 10.41796875 C0.93299805 9.28125732 0.44412109 8.1445459 -0.05957031 6.97338867 C-0.99414543 4.01851058 -1.14821444 2.81846191 0 0 Z " fill="#C0939A" transform="translate(142,139)"/>
<path d="M0 0 C0.99 0.33 1.98 0.66 3 1 C4.00720389 3.3700673 4.81750575 5.61077569 5.5625 8.0625 C5.77865967 8.74554199 5.99481934 9.42858398 6.2175293 10.13232422 C10.35316452 23.34936764 10.35316452 23.34936764 10 29 C8.68 28.67 7.36 28.34 6 28 C5.67 26.68 5.34 25.36 5 24 C2.36 24 -0.28 24 -3 24 C-3.99 26.475 -3.99 26.475 -5 29 C-5.99 29 -6.98 29 -8 29 C-7.45898861 22.29145882 -6.10963248 16.37865293 -4 10 C-3.72671875 9.14277344 -3.4534375 8.28554687 -3.171875 7.40234375 C-1.15076112 1.15076112 -1.15076112 1.15076112 0 0 Z " fill="#5B10FF" transform="translate(113,63)"/>
<path d="M0 0 C0.66 0 1.32 0 2 0 C4.37567673 3.92547442 6 6.89870268 6 11.5625 C4.83522606 15.56641041 3.22461035 18.48368041 1 22 C-2.00463863 19.42459546 -3.58344201 16.68305078 -5 13 C-4.90312528 7.57501591 -3.38933942 4.21099746 0 0 Z " fill="#F6F3FE" transform="translate(86,67)"/>
<path d="M0 0 C0.93423645 3.01031744 1.04449911 3.86650268 0 7 C-2.27945685 9.84932106 -4.55131757 10.89698011 -8 12 C-10.70141374 12.14496751 -13.36119401 12.22133012 -16.0625 12.25 C-24.3132128 12.49894007 -29.95408328 14.56066519 -37 19 C-37.33 18.34 -37.66 17.68 -38 17 C-34.01737055 12.53462759 -29.92489342 9.50276608 -23.9206543 8.73364258 C-20.99232625 8.59080543 -18.07205104 8.56310931 -15.140625 8.56054688 C-10.09261211 8.42937091 -7.58236201 7.5559726 -4 4 C-3.236875 3.2575 -2.47375 2.515 -1.6875 1.75 C-1.130625 1.1725 -0.57375 0.595 0 0 Z " fill="#5C13F5" transform="translate(144,132)"/>
<path d="M0 0 C7.71484375 -0.09765625 7.71484375 -0.09765625 10 0 C11 1 11 1 11.1328125 3.03125 C11.13023437 3.8459375 11.12765625 4.660625 11.125 5.5 C11.12757813 6.3146875 11.13015625 7.129375 11.1328125 7.96875 C11 10 11 10 10 11 C6.66381769 11.14257189 3.34024394 11.04228157 0 11 C0 7.37 0 3.74 0 0 Z " fill="#F8F5FE" transform="translate(136,67)"/>
<path d="M0 0 C7.71484375 -0.09765625 7.71484375 -0.09765625 10 0 C11 1 11 1 11.1328125 3.03125 C11.13023438 3.8459375 11.12765625 4.660625 11.125 5.5 C11.12757812 6.3146875 11.13015625 7.129375 11.1328125 7.96875 C11 10 11 10 10 11 C6.66381769 11.14257189 3.34024394 11.04228157 0 11 C0 7.37 0 3.74 0 0 Z " fill="#F8F5FE" transform="translate(54,67)"/>
<path d="M0 0 C1.32 0.33 2.64 0.66 4 1 C2.25192871 6.46737191 0.34205919 11.75824848 -2 17 C-2.66 16.34 -3.32 15.68 -4 15 C-4.99 15.495 -4.99 15.495 -6 16 C-4.25192871 10.53262809 -2.34205919 5.24175152 0 0 Z " fill="#B58B92" transform="translate(96,169)"/>
<path d="M0 0 C0.33 0 0.66 0 1 0 C0.55643705 6.20988129 -0.91532502 10.60540561 -4 16 C-5.32 15.67 -6.64 15.34 -8 15 C-7.04713807 12.87254097 -6.08753373 10.74810071 -5.125 8.625 C-4.59132813 7.44164062 -4.05765625 6.25828125 -3.5078125 5.0390625 C-2 2 -2 2 0 0 Z " fill="#CA9BA3" transform="translate(92,183)"/>
<path d="M0 0 C0.66 0.33 1.32 0.66 2 1 C0.60344703 4.49873271 -0.71260484 5.70891831 -4.125 7.25 C-5.21167969 7.75273437 -5.21167969 7.75273437 -6.3203125 8.265625 C-7.15175781 8.62914062 -7.15175781 8.62914062 -8 9 C-8.33 8.34 -8.66 7.68 -9 7 C-3.51752022 1.21293801 -3.51752022 1.21293801 0 0 Z " fill="#651BFC" transform="translate(115,142)"/>
<path d="M0 0 C0.66 0 1.32 0 2 0 C2.66 2.97 3.32 5.94 4 9 C2.02 9 0.04 9 -2 9 C-1.34 6.03 -0.68 3.06 0 0 Z " fill="#ECE5FE" transform="translate(113,73)"/>
<path d="M0 0 C1.32 0.33 2.64 0.66 4 1 C3.67 1.99 3.34 2.98 3 4 C1.02 4 -0.96 4 -3 4 C-2.01 2.68 -1.02 1.36 0 0 Z " fill="#D1A1A8" transform="translate(54,180)"/>
<path d="M0 0 C0.33 0 0.66 0 1 0 C0.67 2.31 0.34 4.62 0 7 C-0.99 7 -1.98 7 -3 7 C-3.33 6.34 -3.66 5.68 -4 5 C-2.69254251 3.31295807 -1.35827971 1.64639965 0 0 Z " fill="#C899A1" transform="translate(51,163)"/>
<path d="M0 0 C0.5775 0.226875 1.155 0.45375 1.75 0.6875 C0.6671875 1.30625 0.6671875 1.30625 -0.4375 1.9375 C-3.22969862 3.67486803 -5.72012585 5.59131857 -8.25 7.6875 C-6.86345583 3.41232214 -5.12511737 -0.71182186 0 0 Z " fill="#3700B5" transform="translate(64.25,9.3125)"/>
<path d="M0 0 C0.66 0.33 1.32 0.66 2 1 C-0.31 3.31 -2.62 5.62 -5 8 C-5.33 7.34 -5.66 6.68 -6 6 C-4 4 -2 2 0 0 Z " fill="#3300AC" transform="translate(39,32)"/>
</svg>
