<svg width="198" height="84" viewBox="0 0 198 84" fill="none" xmlns="http://www.w3.org/2000/svg">
    <path d="M92.3785 69.0065V50.2241H85.521V74.4386H103.931V69.0065H92.3785Z" fill="black" />
    <path
        d="M113.723 55.3772C110.784 55.3772 107.6 56.1364 105.454 57.5569L107.659 62.0192C108.939 61.0151 110.943 60.393 112.743 60.393C115.339 60.393 116.62 61.4657 116.723 63.3687H112.995C107.181 63.3687 104.668 65.5141 104.668 68.9723C104.668 72.2247 107.159 74.7522 111.658 74.7522C114.391 74.7522 116.257 73.8167 117.193 72.019V74.4387H123.316V64.0251C123.304 58.0859 119.811 55.3772 113.723 55.3772ZM116.73 68.4188C116.211 69.9054 114.93 70.5985 113.478 70.5985C111.922 70.5985 111.029 69.8025 111.029 68.698C111.029 67.5542 111.788 66.7926 113.899 66.7926H116.735L116.73 68.4188Z"
        fill="black" />
    <path
        d="M140.217 48.7793V57.3267C138.971 56.0116 137.21 55.3895 135.03 55.3895C129.909 55.3895 125.792 59.0926 125.792 65.0415C125.792 70.9904 129.909 74.7645 135.03 74.7645C137.45 74.7645 139.284 74.069 140.531 72.5823V74.451H146.791V48.7793H140.217ZM136.406 69.5258C134.156 69.5258 132.461 67.8996 132.461 65.0292C132.461 62.1589 134.156 60.6012 136.406 60.6012C138.657 60.6012 140.325 62.1907 140.325 65.0292C140.325 67.8678 138.628 69.5258 136.406 69.5258Z"
        fill="black" />
    <path
        d="M150.146 55.6858V74.4387H156.717V55.6858H150.146ZM153.433 46.624C151.011 46.624 149.421 48.1449 149.421 50.1165C149.421 52.088 151.011 53.6114 153.433 53.6114C155.855 53.6114 157.444 52.0905 157.444 50.0038C157.444 48.0445 155.853 46.624 153.433 46.624Z"
        fill="black" />
    <path
        d="M179.266 65.0978C179.266 58.9039 174.77 55.3772 169.225 55.3772C163.308 55.3772 158.916 59.3889 158.916 65.0292C158.916 70.6695 163.239 74.7522 169.918 74.7522C173.479 74.7522 176.109 73.7113 177.907 71.7055L174.446 68.1077C173.17 69.2147 171.958 69.734 170.124 69.734C167.704 69.734 166.075 68.6245 165.522 66.724H179.153C179.205 66.2048 179.266 65.5827 179.266 65.0978ZM165.429 63.2658C165.811 61.2918 167.229 60.0477 169.269 60.0477C171.309 60.0477 172.764 61.2918 173.111 63.2658H165.429Z"
        fill="black" />
    <path
        d="M186.503 61.3629C186.503 60.6698 187.299 60.0477 189.511 60.0477C191.396 60.0387 193.251 60.5153 194.899 61.4314L196.87 56.9667C195.002 55.9307 192.097 55.3772 189.467 55.3772C183.589 55.3772 180.336 58.0712 180.336 61.6029C180.336 69.1094 191.406 66.2391 191.406 68.7666C191.406 69.5601 190.672 70.0426 188.467 70.0426C186.182 70.0426 183.66 69.3886 181.928 68.3159L179.969 72.8101C181.803 73.9538 185.09 74.7522 188.274 74.7522C194.36 74.7522 197.544 72.0582 197.544 68.5902C197.539 61.1522 186.503 63.9638 186.503 61.3629Z"
        fill="black" />
    <path
        d="M171.336 31.4053L175.867 26.5315V22.6594H160.06V27.4377H168.681L164.777 31.6551V35.5541H167.371C169.744 35.5541 170.711 36.3647 170.711 37.6775C170.711 39.1469 169.337 39.9576 167.246 39.9576C165.455 39.9488 163.692 39.514 162.103 38.6889C161.824 40.4125 161.07 42.024 159.925 43.3423C162.078 44.3979 164.824 44.9538 167.442 44.9538C174.032 44.9538 176.969 41.3928 176.969 37.675C176.959 34.5597 175.024 32.1865 171.336 31.4053Z"
        fill="black" />
    <path
        d="M115.611 22.6594L111.016 36.7468L106.608 22.6594H100.926L96.3045 36.6194L91.896 22.6594H85.5283L92.6308 44.5252H99.2434L103.613 31.2191L107.798 44.5252H114.411L121.513 22.6594H115.611Z"
        fill="black" />
    <path
        d="M138.726 36.0904C138.726 30.4991 134.665 27.3127 129.664 27.3127C124.322 27.3127 120.357 30.9375 120.357 36.0292C120.357 41.1209 124.261 44.8069 130.291 44.8069C133.509 44.8069 135.882 43.8688 137.506 42.0589L134.383 38.8089C133.86 39.3009 133.244 39.6841 132.571 39.9364C131.899 40.1886 131.183 40.3049 130.465 40.2784C128.28 40.2784 126.811 39.2792 126.301 37.5623H138.608C138.662 37.0897 138.726 36.5337 138.726 36.0904ZM126.235 34.4348C126.578 32.6543 127.859 31.5301 129.703 31.5301C131.547 31.5301 132.858 32.6543 133.169 34.4348H126.235Z"
        fill="black" />
    <path
        d="M154.562 27.9125C153.538 27.5103 152.446 27.3066 151.346 27.3125C149.387 27.3125 147.783 27.8758 146.629 29.0636V21.3489H140.692V44.5274H146.347V42.8399C147.472 44.1845 149.127 44.7992 151.346 44.7992C155.936 44.7992 159.653 41.4243 159.653 36.0216C159.653 31.9903 157.555 29.1004 154.562 27.9125ZM150.095 40.0896C148.096 40.0896 146.534 38.6201 146.534 36.0289C146.534 33.4378 148.096 32.0295 150.095 32.0295C152.093 32.0295 153.656 33.4671 153.656 36.0289C153.656 38.5907 152.096 40.0896 150.095 40.0896Z"
        fill="black" />
    <path
        d="M74.7595 79.2266C74.7648 80.1674 74.4905 81.0886 73.9712 81.8732C73.4519 82.6577 72.7112 83.2703 71.8431 83.633C70.975 83.9957 70.0187 84.0923 69.0956 83.9104C68.1725 83.7285 67.3243 83.2764 66.6587 82.6115C65.9931 81.9465 65.5401 81.0988 65.3573 80.1759C65.1744 79.253 65.27 78.2966 65.6318 77.4281C65.9937 76.5597 66.6054 75.8183 67.3894 75.2982C68.1734 74.7782 69.0943 74.5028 70.0352 74.5072C70.6588 74.4938 71.2787 74.6067 71.8576 74.8391C72.4365 75.0715 72.9624 75.4186 73.4037 75.8595C73.8451 76.3003 74.1927 76.8259 74.4257 77.4045C74.6586 77.9832 74.7722 78.603 74.7595 79.2266ZM73.9807 79.2266C73.9807 76.9661 72.3128 75.2468 70.0278 75.2468C69.232 75.2361 68.451 75.4627 67.7845 75.8976C67.1179 76.3325 66.596 76.9561 66.2853 77.6888C65.9745 78.4215 65.889 79.2302 66.0397 80.0117C66.1904 80.7932 66.5703 81.5121 67.1312 82.0768C67.6921 82.6415 68.4084 83.0263 69.1888 83.1823C69.9693 83.3382 70.7785 83.2582 71.5133 82.9525C72.2481 82.6467 72.8752 82.129 73.3147 81.4655C73.7541 80.8019 73.986 80.0225 73.9807 79.2266ZM71.3993 80.0863L72.5823 81.9011H71.4263L70.378 80.2871H69.1829V81.9011H68.0269V76.6036H70.2311C71.6271 76.6036 72.4622 77.3384 72.4622 78.4454C72.483 78.7964 72.391 79.1449 72.1998 79.4401C72.0086 79.7353 71.7282 79.9617 71.3993 80.0863ZM70.1625 79.3932C70.9168 79.3932 71.3454 79.0454 71.3454 78.4527C71.3454 77.86 70.9168 77.5245 70.1625 77.5245H69.1682V79.3932H70.1625Z"
        fill="black" />
    <path
        d="M56.827 14.6849L56.7315 14.6262C53.4197 12.6178 49.8144 11.1395 46.046 10.2447L46.2909 9.23321L47.1726 5.54481L48.4829 0H26.2595L27.582 5.54481L28.4613 9.23321L28.7062 10.2447C24.9398 11.1409 21.3363 12.6192 18.0255 14.6262L17.9276 14.6874C16.1792 15.7512 14.5213 16.957 12.9706 18.2925L25.706 31.028C27.8312 29.4347 30.2612 28.2951 32.8452 27.68L36.127 41.4514L36.6022 43.4426L37.3565 46.6019L38.1108 43.4352L38.581 41.4637L41.8702 27.6776C44.456 28.2944 46.8876 29.4355 49.0143 31.0304L52.8888 27.1535L56.8074 23.2348L61.7571 18.2876C60.2147 16.9544 58.5658 15.7495 56.827 14.6849Z"
        fill="url(#paint0_linear_2743_25)" />
    <path
        d="M56.827 14.6849L56.7315 14.6262C53.4197 12.6178 49.8144 11.1395 46.046 10.2447L46.2909 9.23321L47.1726 5.54481L48.4829 0H26.2595L27.582 5.54481L28.4613 9.23321L28.7062 10.2447C24.9398 11.1409 21.3363 12.6192 18.0255 14.6262L17.9276 14.6874C16.1792 15.7512 14.5213 16.957 12.9706 18.2925L25.706 31.028C27.8312 29.4347 30.2612 28.2951 32.8452 27.68L36.127 41.4514L36.6022 43.4426L37.3565 46.6019L38.1108 43.4352L38.581 41.4637L41.8702 27.6776C44.456 28.2944 46.8876 29.4355 49.0143 31.0304L52.8888 27.1535L56.8074 23.2348L61.7571 18.2876C60.2147 16.9544 58.5658 15.7495 56.827 14.6849Z"
        fill="url(#paint1_linear_2743_25)" />
    <path
        d="M69.3641 27.2613L69.3078 27.1633C68.2403 25.4192 67.033 23.7647 65.6977 22.2161L60.7481 27.1633L56.8295 31.0819L52.955 34.9564C53.458 35.6289 53.9169 36.3333 54.3289 37.0651L49.5311 40.1192C49.2542 39.908 48.914 39.7967 48.5658 39.8034C48.2177 39.81 47.882 39.9343 47.6134 40.1559L47.5669 40.1902C47.547 40.1837 47.5281 40.1746 47.5106 40.1633L41.2506 36.7345L40.9861 37.8488L41.3682 38.057C43.2474 39.0856 45.1251 40.1102 47.0011 41.1307L47.0379 41.1527C47.0364 41.1624 47.0364 41.1723 47.0379 41.1821C47.0164 41.3447 47.0164 41.5093 47.0379 41.6719C47.0379 41.6719 47.0379 41.6891 47.0379 41.6989L46.188 42.2426L45.9431 42.3993L37.9222 47.5057L37.3859 47.8462L36.8054 47.4763L27.6898 41.7013C27.6898 41.6768 27.6898 41.6548 27.6898 41.6303C27.6898 41.4711 27.6898 41.3192 27.6898 41.1625H27.7094L29.5462 40.1608C30.4181 39.6889 31.2884 39.2146 32.157 38.7379L33.7563 37.866L33.4893 36.7492L27.1755 40.2073C26.9498 39.9948 26.664 39.8572 26.3571 39.8133C26.0502 39.7695 25.7372 39.8216 25.4611 39.9624C25.3703 40.0064 25.2835 40.058 25.2015 40.1167L20.4085 37.0823C20.8249 36.3427 21.2887 35.631 21.7972 34.9515L9.06175 22.2161C7.72573 23.7641 6.51837 25.4187 5.45174 27.1633L5.39296 27.2613C1.86485 33.101 0 39.7939 0 46.6167C0 53.4394 1.86485 60.1324 5.39296 65.9721L5.45174 66.0652C6.51462 67.8106 7.71872 69.4661 9.05195 71.0149C9.65444 71.7153 10.283 72.3929 10.9378 73.0477C11.5925 73.7024 12.2709 74.3326 12.973 74.9384C14.5198 76.2742 16.1736 77.4807 17.9178 78.5459C17.9518 78.5632 17.9845 78.5828 18.0158 78.6047C21.3246 80.6136 24.9277 82.092 28.6939 82.9862C34.3977 84.3348 40.3373 84.3348 46.0411 82.9862C49.8097 82.092 53.4151 80.6137 56.7266 78.6047L56.8221 78.5459C58.5675 77.4802 60.2229 76.2736 61.7718 74.9384C62.4723 74.3343 63.1498 73.704 63.8046 73.0477C64.4609 72.3937 65.0879 71.7153 65.6953 71.0149C67.0287 69.4651 68.2344 67.8098 69.3004 66.0652C69.32 66.0358 69.3371 66.004 69.3567 65.9721C72.8864 60.133 74.7522 53.4398 74.7522 46.6167C74.7522 39.7936 72.8864 33.1004 69.3567 27.2613H69.3641ZM17.9325 46.6142C17.9251 43.6576 18.5953 40.7387 19.8918 38.0815L24.6063 41.0694C24.5848 41.184 24.5758 41.3006 24.5794 41.4172C24.5736 41.7258 24.6651 42.0284 24.841 42.282C25.0168 42.5357 25.268 42.7275 25.559 42.8304C25.5733 42.8343 25.5866 42.8409 25.5982 42.8499C25.5982 42.8499 25.5982 42.8769 25.5982 42.9014C25.5982 45.9024 25.5982 48.9009 25.5982 51.897V54.1967C25.3136 54.2936 25.0645 54.4734 24.8829 54.713C24.7013 54.9526 24.5956 55.2411 24.5794 55.5413C24.5682 55.6835 24.5731 55.8264 24.5941 55.9674L21.5425 57.9145C19.1821 54.6199 17.9159 50.6672 17.9227 46.6142H17.9325ZM36.8226 66.0578C31.8591 65.9213 27.1374 63.8848 23.6316 60.3685C23.1346 59.8747 22.6661 59.353 22.2282 58.806L25.2039 56.9153C25.2529 56.9471 25.3019 56.9789 25.3533 57.0083C25.6324 57.1831 25.9605 57.2632 26.2887 57.2367C26.617 57.2103 26.928 57.0786 27.1755 56.8614L35.8233 61.5809V61.6249C35.8064 61.7971 35.8113 61.9708 35.838 62.1417C35.8917 62.3969 36.0099 62.634 36.1814 62.8304C36.353 63.0268 36.572 63.1759 36.8177 63.2634L36.8226 66.0578ZM26.7126 54.1943V42.8475C26.8572 42.8127 26.9899 42.74 27.0971 42.6369L36.5556 48.6348C36.6579 48.6826 36.7433 48.7603 36.8005 48.8576C36.8305 48.9356 36.843 49.0192 36.8373 49.1026V60.322C36.6675 60.39 36.5089 60.4833 36.367 60.5988L27.702 55.8817V55.8327C27.7042 55.511 27.6114 55.1957 27.4351 54.9266L27.3371 54.7796C27.1775 54.5349 26.9595 54.3338 26.7028 54.1943H26.7126ZM47.1701 55.1739C47.0963 55.2876 47.0571 55.4204 47.0575 55.556C47.0575 55.6638 47.0575 55.7715 47.0575 55.8817C47.0575 55.8817 47.0428 55.8817 47.0354 55.8817C45.9823 56.4646 44.9284 57.0426 43.8736 57.6157L41.5004 58.9088L38.4341 60.5841C38.4341 60.5841 38.4219 60.5841 38.4145 60.5841L38.3312 60.5375C38.1892 60.4641 38.0618 60.393 37.9443 60.3171V59.9105C37.9443 59.7097 37.9443 59.5113 37.9443 59.3081V48.8258L38.4488 48.505L47.6648 42.6271C47.7543 42.7126 47.8666 42.7704 47.9881 42.7936H48.0469C48.054 42.8636 48.054 42.9342 48.0469 43.0042C48.0469 45.9677 48.0469 48.9319 48.0469 51.897V54.1527L47.7677 54.3045C47.6911 54.3465 47.6262 54.4072 47.5791 54.4808C47.4674 54.5612 47.3729 54.663 47.301 54.7803C47.2291 54.8977 47.1813 55.0281 47.1603 55.1641L47.1701 55.1739ZM51.1402 60.3783C50.4846 61.0355 49.7832 61.6452 49.0413 62.2029C45.8305 64.6105 41.9511 65.961 37.9394 66.0676V63.2585C38.1814 63.1697 38.3966 63.0204 38.5647 62.825C38.7327 62.6295 38.8479 62.3943 38.8994 62.1417C38.9273 61.9693 38.9347 61.7942 38.9215 61.62C38.9228 61.6062 38.9228 61.5922 38.9215 61.5784C41.7935 60.0077 44.6769 58.4337 47.5718 56.8565C47.8886 57.1241 48.2968 57.2584 48.7106 57.2312C49.0078 57.2117 49.2928 57.1062 49.5311 56.9275L52.5215 58.8354C52.0866 59.3719 51.6222 59.8837 51.1304 60.3685L51.1402 60.3783ZM53.1999 57.9537L50.1385 55.9944C50.1385 55.9773 50.1532 55.9601 50.1581 55.943L50.1874 55.8548V55.4654L50.1654 55.4115C50.1434 55.3576 50.1238 55.3013 50.1017 55.245C50.0539 55.1053 49.9958 54.9694 49.9278 54.8384C49.7513 54.5375 49.4735 54.3092 49.1441 54.1943V51.8505C49.1441 48.8674 49.1441 45.8844 49.1441 42.9014C49.1441 42.8769 49.1441 42.8597 49.1441 42.8499L49.1784 42.8352C49.4162 42.7491 49.6282 42.6038 49.7944 42.4132C49.9607 42.2225 50.0757 41.9927 50.1287 41.7454C50.1344 41.7214 50.1435 41.6983 50.1556 41.6768L50.1899 41.569V41.187L50.1532 41.0792V41.0596L54.8506 38.0619C56.3934 41.2173 57.0539 44.7312 56.762 48.2314C56.4701 51.7316 55.2367 55.0877 53.1925 57.9439L53.1999 57.9537ZM37.9271 37.9003L37.9026 38.0031H37.9271V37.9003ZM36.8128 37.8733V38.0031H36.8446L36.8128 37.8733Z"
        fill="url(#paint2_linear_2743_25)" />
    <defs>
        <linearGradient id="paint0_linear_2743_25" x1="12.9779" y1="23.3059" x2="61.7767"
            y2="23.3059" gradientUnits="userSpaceOnUse">
            <stop stop-color="#7D0BFE" />
            <stop offset="1" stop-color="#B072D2" />
        </linearGradient>
        <linearGradient id="paint1_linear_2743_25" x1="12.9779" y1="23.3059" x2="61.7767"
            y2="23.3059" gradientUnits="userSpaceOnUse">
            <stop stop-color="#7D0BFE" />
            <stop offset="1" stop-color="#B072D2" />
        </linearGradient>
        <linearGradient id="paint2_linear_2743_25" x1="-0.00490939" y1="53.1069" x2="74.7595"
            y2="53.1069" gradientUnits="userSpaceOnUse">
            <stop stop-color="#7D0BFE" />
            <stop offset="1" stop-color="#B072D2" />
        </linearGradient>
    </defs>
</svg>
    