<svg width="169" height="32" viewBox="0 0 169 32" fill="none" xmlns="http://www.w3.org/2000/svg">
<path fill-rule="evenodd" clip-rule="evenodd" d="M128 16L8 16C3.58172 16 4.76837e-07 12.4183 0 8.00001C0 3.58173 3.58172 1.09673e-05 8 1.04904e-05L128 0C132.418 0 136 3.58172 136 8C136 12.4183 132.418 16 128 16Z" fill="#F3F3F3"/>
<path fill-rule="evenodd" clip-rule="evenodd" d="M45 24C45 19.5817 48.5817 16 53 16L161 16C165.418 16 169 19.5817 169 24C169 28.4183 165.418 32 161 32L53 32C48.5817 32 45 28.4183 45 24Z" fill="#F3F3F3"/>
</svg>
