<svg width="167" height="32" viewBox="0 0 167 32" fill="none" xmlns="http://www.w3.org/2000/svg">
<path fill-rule="evenodd" clip-rule="evenodd" d="M159 16L39 16C34.5817 16 31 12.4183 31 8.00001C31 3.58173 34.5817 1.09673e-05 39 1.04904e-05L159 0C163.418 0 167 3.58172 167 8C167 12.4183 163.418 16 159 16Z" fill="#F3F3F3"/>
<path fill-rule="evenodd" clip-rule="evenodd" d="M6.99382e-07 24C3.13124e-07 19.5817 3.58172 16 8 16L116 16C120.418 16 124 19.5817 124 24C124 28.4183 120.418 32 116 32L8 32C3.58172 32 1.08564e-06 28.4183 6.99382e-07 24Z" fill="#F3F3F3"/>
</svg>
