<svg viewBox="0 0 145 212" fill="none" xmlns="http://www.w3.org/2000/svg">
<path d="M72.7737 22.8664C75.7799 22.7889 78.6347 21.5303 80.7196 19.3632C82.8046 17.196 83.9519 14.2948 83.9132 11.2878C83.8745 8.28077 82.6527 5.41006 80.5126 3.29735C78.3725 1.18463 75.4863 0 72.479 0C69.4718 0 66.5855 1.18463 64.4454 3.29735C62.3053 5.41006 61.0836 8.28077 61.0449 11.2878C61.0061 14.2948 62.1535 17.196 64.2384 19.3632C66.3234 21.5303 69.1781 22.7889 72.1844 22.8664H31.0413L72.4764 94.6252L93.1806 58.7458L113.885 22.8664H72.7737ZM83.9221 58.1539H61.0413V35.281H83.9168L83.9221 58.1539ZM93.2125 152.494L72.5082 116.614L51.7642 152.494L31.0599 188.376H61.0545V211.246H83.9274V188.376H113.922L93.2125 152.494ZM72.5082 173.283C70.2458 173.283 68.0341 172.613 66.1527 171.356C64.2714 170.1 62.805 168.313 61.9389 166.223C61.0729 164.133 60.8462 161.833 61.2874 159.614C61.7287 157.395 62.8181 155.357 64.4178 153.757C66.0176 152.158 68.0559 151.068 70.2748 150.627C72.4938 150.186 74.7938 150.412 76.8838 151.278C78.9739 152.144 80.7602 153.611 82.0168 155.492C83.2734 157.373 83.9439 159.585 83.9433 161.848C83.943 163.351 83.6461 164.84 83.0696 166.229C82.4932 167.618 81.6485 168.88 80.5839 169.942C79.5193 171.004 78.2557 171.846 76.8654 172.419C75.4752 172.992 73.9855 173.286 72.4817 173.283H72.5082ZM9.62305 106.695C9.62305 82.7415 23.0914 61.8754 42.8534 51.2737L38.1816 43.1858C26.8265 49.3444 17.3302 58.4346 10.6817 69.5099C4.03312 80.5853 0.475485 93.2405 0.379263 106.158C0.283041 119.075 3.65176 131.782 10.1346 142.955C16.6174 154.128 25.9772 163.359 37.2393 169.686L41.9084 161.598C22.6641 150.845 9.62305 130.263 9.62305 106.695ZM123.496 55.68C118.555 50.7296 112.922 46.5212 106.774 43.1858L102.102 51.2737C121.864 61.8754 135.332 82.7415 135.332 106.695C135.332 130.263 122.291 150.845 103.047 161.601L107.713 169.686C117.442 164.238 125.775 156.609 132.061 147.4C138.346 138.19 142.413 127.65 143.941 116.605C145.47 105.56 144.419 94.3115 140.871 83.741C137.323 73.1705 131.374 63.5658 123.491 55.68H123.496Z" fill="#06020B"/>
<path d="M98.8478 95.9126H46.1156L47.2464 93.9086L72.4817 49.2007L97.7143 93.9086L98.8478 95.9126Z" fill="#C91422"/>
<path d="M59.8787 127.261L65.9386 131.163H50.8776L48.2869 127.261L39.631 114.233L59.8787 127.261ZM79.0248 131.163H94.0858L96.6765 127.261L105.332 114.233L85.0954 127.261L79.0248 131.163ZM98.8478 95.9128L97.7143 93.9087H47.2464L46.1156 95.9128L39.6283 107.404L70.8094 127.261L72.4817 128.323L74.154 127.261L105.332 107.412L98.8478 95.9128Z" fill="#FDCA1B"/>
<path d="M72.4817 128.322L70.8094 127.261H74.154L72.4817 128.322ZM85.0954 127.261L79.0327 131.163L72.4897 135.373L65.9492 131.163L59.8787 127.261H48.2869L50.8776 131.163L72.4817 163.679L94.0858 131.163L96.6765 127.261H85.0954Z" fill="#016C34"/>
<path d="M72.4817 129.061L38.7895 107.618L72.4817 47.9238L106.171 107.618L72.4817 129.061ZM40.4671 107.194L72.4817 127.571L104.494 107.194L72.4817 50.4774L40.4671 107.194Z" fill="black"/>
<path d="M72.4817 164.804L37.4437 112.072L72.4817 134.619L107.52 112.072L72.4817 164.804ZM41.8129 116.378L72.4817 162.538L103.145 116.378L72.4817 136.11L41.8129 116.378Z" fill="black"/>
<path d="M76.6384 108.839L79.2052 116.744L72.479 111.86L65.7528 116.744L68.3222 108.839L61.596 103.953H69.9095L72.479 96.0425L75.0484 103.953H83.3646L76.6384 108.839Z" fill="black"/>
</svg>
