<svg viewBox="0 0 393 491" fill="none" xmlns="http://www.w3.org/2000/svg">
    <path d="M1036 77.0588C927.579 44.819 904.652 56.2419 860.127 43.1894C815.602 30.1369 730.282 113.554 669.844 80.925C609.406 48.2965 616.86 38.9291 524.097 35.2386C476.996 33.3641 473.736 48.0196 423.966 21.5844C374.197 -4.85074 364.949 15.8543 327.438 33.8008C289.927 51.7473 246.469 41.9593 230.852 56.6413C215.235 71.3234 189.489 15.0342 158.382 15.0342C127.275 15.0342 141.958 4.229 107.284 5.05443C72.6093 5.87986 105.509 35.2386 54.8515 43.3971C4.19434 51.5556 -55.3735 72.0316 -55.3735 72.0316C-55.3735 72.0316 -108.694 34.4239 -136.244 9.13368C-163.794 -16.1565 -164.67 18.9217 -231.339 20.5566C-298.008 22.1915 -249.016 31.6493 -354.774 53.6751C-460.532 75.7008 -478.069 48.7811 -559.833 65.0927C-641.597 81.4043 -636.26 82.2244 -641.591 81.4096C-646.923 80.5948 -598.342 491 -598.342 491H982.703L1036 77.0588Z" fill="#F3F3F3"/>
</svg>
    