<svg width="1512" height="491" viewBox="0 0 1512 491" fill="none" xmlns="http://www.w3.org/2000/svg">
<path d="M1572 77.0588C1464.81 44.819 1442.14 56.2419 1398.12 43.1894C1354.1 30.1369 1269.74 113.554 1209.99 80.925C1150.24 48.2965 1157.61 38.9291 1065.89 35.2386C1019.33 33.3641 1016.1 48.0196 966.896 21.5844C917.69 -4.85074 908.548 15.8543 871.461 33.8008C834.375 51.7473 791.409 41.9593 775.969 56.6413C760.528 71.3234 735.074 15.0342 704.319 15.0342C673.565 15.0342 688.082 4.229 653.8 5.05443C619.518 5.87986 652.045 35.2386 601.961 43.3971C551.878 51.5556 492.984 72.0316 492.984 72.0316C492.984 72.0316 440.268 34.4239 413.029 9.13368C385.791 -16.1565 384.925 18.9217 319.011 20.5566C253.097 22.1915 301.534 31.6493 196.974 53.6751C92.4132 75.7008 75.0744 48.7811 -5.76359 65.0927C-86.6016 81.4043 -81.3248 82.2244 -86.5958 81.4096C-91.8669 80.5948 -43.8367 491 -43.8367 491H1519.31L1572 77.0588Z" fill="#F3F3F3"/>
</svg>
