<svg xmlns="http://www.w3.org/2000/svg" width="188" height="56" viewBox="0 0 188 56" fill="none">
    <path
        d="M31.8528 41.1426L48.1084 48.8489C48.9412 49.2437 49.9383 48.8908 50.304 48.0446C54.1033 39.254 56.4607 26.8808 52.2441 17.3626C48.2728 8.39775 38.4516 5.96231 34.9745 6.47179L28.5959 9.92724C31.0099 10.3702 35.8776 13.3826 36.0371 21.8884C36.1691 28.927 33.3379 35.1161 31.1652 38.4978C30.5791 39.4101 30.8731 40.6781 31.8528 41.1426Z"
        fill="#2B80D7" />
    <mask id="mask0_2570_1020" style="mask-type:alpha" maskUnits="userSpaceOnUse" x="28" y="6"
        width="27" height="44">
        <path
            d="M31.8527 41.1441L48.1083 48.8504C48.9411 49.2452 49.9381 48.8922 50.3039 48.0461C54.1031 39.2554 56.4605 26.8822 52.244 17.3641C48.2727 8.39921 38.4515 5.96377 34.9744 6.47325L28.5957 9.92871C31.0097 10.3717 35.8775 13.3841 36.0369 21.8898C36.1689 28.9285 33.3377 35.1176 31.1651 38.4993C30.5789 39.4116 30.8729 40.6796 31.8527 41.1441Z"
            fill="#DEA00D" />
    </mask>
    <g mask="url(#mask0_2570_1020)">
        <g filter="url(#filter0_f_2570_1020)">
            <path
                d="M36.8272 43.7855C45.3916 37.6143 56.868 12.4629 51.1108 7.49003C48.9941 5.66162 29.6747 6.09411 27.9487 4.72827L29.3555 6.8226C29.3555 6.8226 35.0116 13.9079 34.6415 25.034C34.414 31.8671 31.9591 38.9309 30.4337 42.3843C30.1844 42.9488 18.8517 37.3563 18.6388 37.79C18.0333 39.0235 29.1468 44.5291 29.1468 44.5291L36.2663 43.9841C36.4705 43.9684 36.6609 43.9053 36.8272 43.7855Z"
                fill="url(#paint0_linear_2570_1020)" />
        </g>
        <g filter="url(#filter1_f_2570_1020)">
            <path
                d="M50.4999 50.5043C58.8759 44.202 66.6501 25.4828 60.8041 15.0233C59.4395 12.5816 49.2204 5.59434 47.4944 4.22852L46.9579 11.1884C46.9579 11.1884 53.2652 17.2657 52.8943 28.4131C52.6033 37.1548 50.1372 43.8191 49.0863 46.2884C48.8324 46.8847 48.1535 47.1464 47.5525 46.9033C44.714 45.7551 37.1851 42.6491 37.4485 42.1123C36.8432 43.3457 47.8541 49.8008 47.8541 49.8008L49.2979 50.5789C49.6829 50.7864 50.1503 50.7673 50.4999 50.5043Z"
                fill="url(#paint1_linear_2570_1020)" />
        </g>
        <g opacity="0.8" filter="url(#filter2_f_2570_1020)">
            <path
                d="M46.5386 32.1737L32.792 27.654C31.0414 27.0784 29.1558 28.031 28.5804 29.7817L25.1375 40.2567C24.5621 42.0074 25.5147 43.8932 27.2654 44.4688L41.0119 48.9885C42.7625 49.5641 44.6481 48.6115 45.2235 46.8608L48.6664 36.3858C49.2419 34.6351 48.2892 32.7493 46.5386 32.1737Z"
                fill="#13497E" />
        </g>
        <g opacity="0.7" filter="url(#filter3_f_2570_1020)">
            <path
                d="M31.2847 37.0104C38.0773 32.2669 39.1152 17.144 33.2363 11.3085C31.7208 9.80426 29.4591 8.18943 28.0005 7.1825L29.1893 8.72648C29.1893 8.72648 33.9692 13.9498 33.6564 22.1525C33.4643 27.19 31.3896 32.3976 30.1005 34.9434C29.8899 35.3596 20.3129 31.2366 20.1329 31.5565C19.6213 32.4658 29.0131 36.5246 29.0131 36.5246L30.2003 37.0829C30.5521 37.2482 30.966 37.233 31.2847 37.0104Z"
                fill="#2B80D7" />
        </g>
    </g>
    <path
        d="M43.8257 34.486L28.9071 29.0862C28.4441 28.9186 27.9388 29.1844 27.7956 29.6554C26.7588 33.0636 24.0393 39.2166 18.7577 41.522C11.8121 44.5542 9.5269 37.7707 12.5831 46.3428C15.6393 54.915 25.7381 57.3736 34.9733 52.124C41.6679 48.3186 44.2495 40.5522 44.8729 36.1612C44.9775 35.4252 44.5247 34.7391 43.8257 34.486Z"
        fill="url(#paint2_linear_2570_1020)" />
    <mask id="mask1_2570_1020" style="mask-type:alpha" maskUnits="userSpaceOnUse" x="11" y="29"
        width="34" height="26">
        <path
            d="M43.8257 34.4876L28.9071 29.0876C28.4441 28.9201 27.9388 29.186 27.7956 29.6568C26.7588 33.065 24.0393 39.218 18.7577 41.5236C11.8121 44.5556 9.5269 37.7721 12.5831 46.3444C15.6393 54.9165 25.7381 57.3752 34.9733 52.1256C41.6679 48.3201 44.2495 40.5537 44.8729 36.1628C44.9775 35.4266 44.5247 34.7406 43.8257 34.4876Z"
            fill="url(#paint3_radial_2570_1020)" />
    </mask>
    <g mask="url(#mask1_2570_1020)">
        <g filter="url(#filter4_f_2570_1020)">
            <path
                d="M20.5488 57.1744C35.0291 57.1744 41.0862 31.0403 39.4003 26.6027C39.3096 26.3639 39.0892 26.2125 38.8455 26.1361L11.943 17.6965L28.3131 24.4485C28.4939 24.5231 28.5986 24.7107 28.5594 24.9023C28.244 26.4433 26.6991 33.0971 22.787 37.3196C18.3392 42.12 9.15299 43.1971 5.36363 42.302C3.34578 42.2988 2.20673 41.6084 2.20673 41.6084C6.79545 44.5903 13.3852 57.1744 20.5488 57.1744Z"
                fill="url(#paint4_linear_2570_1020)" />
        </g>
        <g opacity="0.4" filter="url(#filter5_f_2570_1020)">
            <path
                d="M22.217 40.6786C28.1008 36.6915 32.4891 21.589 31.3159 17.3823C31.2102 17.0029 30.8432 16.795 30.4498 16.7775L14.6876 16.0731L28.407 22.8187C28.5695 22.8986 28.6622 23.0698 28.6318 23.2483C28.3795 24.7299 27.0883 31.4451 23.7843 35.6962C20.0532 40.4966 12.3472 41.5737 9.16839 40.6786C7.47567 40.6755 6.60175 41.361 6.60175 41.361C10.4511 44.3429 16.9924 44.2189 22.217 40.6786Z"
                fill="#3EBADD" />
        </g>
        <g filter="url(#filter6_f_2570_1020)">
            <path
                d="M35.4345 53.4122C42.52 49.3846 48.7461 33.2167 47.2752 29.1283C47.1636 28.818 46.8573 28.6499 46.5299 28.6104L27.7583 26.3448L27.3321 29.0988L42.1567 34.8882C42.6415 35.0775 42.9547 35.5458 42.8908 36.0623C42.656 37.962 41.6516 42.7382 37.364 47.618C31.8339 53.9119 23.8392 53.6138 20.0497 52.7186C18.0319 52.7155 17.5353 52.7186 17.5353 52.7186C21.8533 55.7875 29.2065 56.9524 35.4345 53.4122Z"
                fill="url(#paint5_linear_2570_1020)" />
        </g>
    </g>
    <path
        d="M21.2876 27.0029C16.7697 35.5044 12.3978 52.9134 26.2175 54.8405C20.8131 55.2562 8.5303 52.4802 2.94937 39.2964C-4.02682 22.8165 9.66054 3.01417 24.9417 1.22C39.8808 -0.534017 47.5811 7.61939 52.0155 16.8638C52.1293 17.0837 52.2291 17.2968 52.3149 17.5004C52.2168 17.2877 52.1169 17.0754 52.0155 16.8638C50.3092 13.5681 45.4547 8.76223 37.2331 11.8521C31.2859 14.0872 24.7633 20.4624 21.2876 27.0029Z"
        fill="#2CBBF9" />
    <mask id="mask2_2570_1020" style="mask-type:alpha" maskUnits="userSpaceOnUse" x="1" y="0"
        width="52" height="55">
        <path
            d="M21.2876 27.0022C16.7697 35.5036 12.3978 52.9126 26.2175 54.8398C20.8131 55.2555 8.5303 52.4795 2.94937 39.2956C-4.02682 22.8158 9.66054 3.01344 24.9417 1.21927C39.8808 -0.534749 47.5811 7.61864 52.0155 16.8631C52.1293 17.083 52.2291 17.296 52.3149 17.4996C52.2168 17.287 52.1169 17.0747 52.0155 16.8631C50.3092 13.5672 45.4547 8.7615 37.2331 11.8513C31.2859 14.0864 24.7633 20.4616 21.2876 27.0022Z"
            fill="#00CCC0" />
    </mask>
    <g mask="url(#mask2_2570_1020)">
        <g filter="url(#filter7_f_2570_1020)">
            <path
                d="M-10.5486 38.9296C-4.96766 52.1135 20.4167 56.0615 25.8211 55.6458C26.0923 53.0883 18.338 47.5355 18.6085 41.3567C18.6085 41.3567 8.72049 41.6734 7.21062 27.0014C5.70077 12.3293 14.1153 4.94543 14.1153 4.94543C4.08325 9.89153 -13.5677 31.7975 -10.5486 38.9296Z"
                fill="url(#paint6_linear_2570_1020)" />
            <path
                d="M52.3148 17.5015C78.3645 -3.52735 34.2953 -8.38177 19.0143 -6.58759C12.6529 -5.84071 -4.08086 10.9805 2.50615 18.2193C2.50615 18.2193 9.33703 10.6509 19.0143 9.26824C28.6913 7.88556 33.1725 14.8626 33.1725 14.8626C34.3516 14.1393 37.4519 13.9401 38.614 13.5033C47.384 10.2074 51.8861 16.5979 52.3148 17.5015Z"
                fill="url(#paint7_linear_2570_1020)" />
        </g>
        <g filter="url(#filter8_f_2570_1020)">
            <path
                d="M3.58682 40.994C-11.966 36.0818 -4.48048 2.71988 11.1236 -2.0549C25.1633 -6.35102 26.3203 0.399366 28.7899 0.810639C29.1105 0.800733 29.2843 0.807085 29.2843 0.807085C29.1116 0.837317 28.9481 0.836979 28.7899 0.810639C26.9347 0.867964 20.1633 1.46974 13.7059 6.99748C3.99385 15.311 0.0835395 28.6021 3.58682 40.994Z"
                fill="#56E5FF" />
        </g>
        <g filter="url(#filter9_f_2570_1020)">
            <path
                d="M28.7347 54.8128C24.4127 59.6786 6.72188 53.762 1.14094 40.5781C0.136147 38.2045 1.22864 30.9222 1.15604 28.0922C1.14339 27.8798 1.14094 27.7662 1.14094 27.7662C1.1481 27.8669 1.15305 27.9758 1.15604 28.0922C1.24992 29.6681 1.90565 36.6804 6.29214 43.0174C11.2696 50.2084 21.4936 53.0249 21.4936 53.0249C22.8277 53.974 26.5964 54.5146 28.7347 54.8128Z"
                fill="#FDC7C7" />
        </g>
        <mask id="mask3_2570_1020" style="mask-type:alpha" maskUnits="userSpaceOnUse" x="-7" y="25"
            width="35" height="36">
            <path
                d="M27.1145 51.4291L2.41815 25.968L-6.52037 34.641L18.176 60.1021L27.1145 51.4291Z"
                fill="url(#paint8_linear_2570_1020)" />
        </mask>
        <g mask="url(#mask3_2570_1020)">
            <path
                d="M28.7355 54.812C24.4135 59.6779 6.72267 53.7612 1.14173 40.5774C0.136942 38.2038 1.22943 30.9216 1.15683 28.0915C1.14418 27.8791 1.14173 27.7655 1.14173 27.7655C1.14889 27.8662 1.15385 27.9751 1.15683 28.0915C1.25071 29.6674 1.90644 36.6796 6.29294 43.0167C11.2704 50.2076 21.4945 53.0242 21.4945 53.0242C22.8285 53.9732 26.5972 54.5139 28.7355 54.812Z"
                fill="#FDC7C7" />
        </g>
        <g filter="url(#filter10_f_2570_1020)">
            <path
                d="M53.4192 18.1934C54.5574 9.92181 39.8013 -2.89632 24.5203 -1.10215C18.9916 -0.453019 14.0929 4.87465 9.88461 9.22807C9.88461 9.22807 19.4352 0.739697 31.062 2.37268C42.6888 4.00565 47.8839 12.6159 47.8839 12.6159C50.3117 14.0359 51.4195 18.3995 53.4192 18.1934Z"
                fill="#EFC7FD" />
        </g>
        <mask id="mask4_2570_1020" style="mask-type:alpha" maskUnits="userSpaceOnUse" x="8" y="-3"
            width="44" height="21">
            <path
                d="M51.8852 3.52656L10.1737 -2.67578L8.09123 11.3336L49.8028 17.536L51.8852 3.52656Z"
                fill="url(#paint9_linear_2570_1020)" />
        </mask>
        <g mask="url(#mask4_2570_1020)">
            <path
                d="M53.4195 18.1953C54.5578 9.92376 39.8018 -2.89437 24.5205 -1.10019C18.9919 -0.451064 14.0932 4.87662 9.88495 9.23002C9.88495 9.23002 19.4356 0.741651 31.0624 2.37463C42.6892 4.0076 47.8842 12.6178 47.8842 12.6178C50.312 14.0379 51.4198 18.4015 53.4195 18.1953Z"
                fill="#EFC7FD" />
        </g>
        <g filter="url(#filter11_f_2570_1020)">
            <path
                d="M35.7305 9.77372C20.0767 14.7109 6.21039 43.528 19.684 54.3375C33.1576 65.1471 48.9087 44.6136 56.8331 27.9825C52.9123 16.8057 51.3844 4.83651 35.7305 9.77372Z"
                fill="url(#paint10_linear_2570_1020)" />
        </g>
        <mask id="mask5_2570_1020" style="mask-type:alpha" maskUnits="userSpaceOnUse" x="-7" y="-7"
            width="69" height="71">
            <path d="M61.08 16.7124L22.0379 -6.91858L-6.1476 39.6638L32.8945 63.2948L61.08 16.7124Z"
                fill="url(#paint11_linear_2570_1020)" />
        </mask>
        <g mask="url(#mask5_2570_1020)">
            <path
                d="M35.7299 9.77311C20.076 14.7104 6.20972 43.5274 19.6833 54.3369C33.1569 65.1465 48.908 44.613 56.8324 27.982C52.9116 16.8052 51.3837 4.8359 35.7299 9.77311Z"
                fill="url(#paint12_linear_2570_1020)" />
        </g>
    </g>
    <path
        d="M88.518 16.7259C88.5979 16.4545 88.847 16.2679 89.1299 16.2679H93.5572C93.9095 16.2679 94.1951 16.5535 94.1951 16.9058V43.0925C94.1951 43.4447 93.9095 43.7302 93.5572 43.7302H88.8891C88.5999 43.7302 88.3468 43.5355 88.2726 43.2559L87.7374 41.2383C85.3984 43.3234 82.3476 44.5439 78.8391 44.5439C70.6018 44.5439 64.4492 38.2886 64.4492 29.9991C64.4492 21.7095 70.6018 15.5051 78.8391 15.5051C82.3984 15.5051 85.5001 16.7766 87.8899 18.8617L88.518 16.7259ZM79.4492 37.5258C83.7714 37.5258 86.9239 34.3219 86.9239 29.9991C86.9239 25.6763 83.7714 22.4725 79.4492 22.4725C75.1272 22.4725 71.9747 25.6763 71.9747 29.9991C71.9747 34.271 75.1272 37.5258 79.4492 37.5258Z"
        fill="#373A4A" />
    <path
        d="M118.218 16.6902C118.309 16.4369 118.549 16.2678 118.818 16.2678H125.109C125.559 16.2678 125.867 16.722 125.702 17.1408L115.326 43.3273C115.229 43.5705 114.994 43.7301 114.733 43.7301H108.731C108.471 43.7301 108.238 43.5732 108.14 43.3329L97.4731 17.1464C97.3022 16.7269 97.6108 16.2678 98.0638 16.2678H104.601C104.869 16.2678 105.108 16.4354 105.2 16.6873L111.759 34.6778L118.218 16.6902Z"
        fill="#373A4A" />
    <path
        d="M150.427 16.2679H155.331C155.683 16.2679 155.969 16.5535 155.969 16.9058V43.0925C155.969 43.4447 155.683 43.7302 155.331 43.7302H150.663C150.373 43.7302 150.12 43.5355 150.047 43.2559L149.511 41.2383C147.172 43.3234 144.121 44.5439 140.613 44.5439C132.375 44.5439 126.223 38.2886 126.223 29.9991C126.223 21.7095 132.375 15.5051 140.613 15.5051C144.172 15.5051 147.273 16.7766 149.664 18.8617L150.427 16.2679ZM141.223 37.5258C145.545 37.5258 148.697 34.3219 148.697 29.9991C148.697 25.6763 145.545 22.4725 141.223 22.4725C136.901 22.4725 133.748 25.6763 133.748 29.9991C133.748 34.271 136.901 37.5258 141.223 37.5258Z"
        fill="#373A4A" />
    <path
        d="M165.781 13.5777C163.8 13.5777 162.195 11.9714 162.195 9.98984C162.195 8.00832 163.8 6.40198 165.781 6.40198H165.979C167.96 6.40198 169.567 8.00832 169.567 9.98984C169.567 11.9714 167.96 13.5777 165.979 13.5777H165.781ZM162.781 43.7302C162.429 43.7302 162.143 43.4447 162.143 43.0925V16.9058C162.143 16.5535 162.429 16.2679 162.781 16.2679H168.929C169.281 16.2679 169.567 16.5535 169.567 16.9058V43.0925C169.567 43.4447 169.281 43.7302 168.929 43.7302H162.781Z"
        fill="#373A4A" />
    <path
        d="M183.099 34.7117C183.099 35.3589 183.232 35.8159 183.499 36.0823C183.803 36.3107 184.279 36.4249 184.927 36.4249C185.249 36.4249 185.549 36.4249 185.988 36.4249C186.427 36.4249 186.696 36.8183 186.696 37.1785V42.8785V42.9045C186.697 43.32 186.379 43.6887 185.872 43.6887C184.912 43.6887 184.115 43.7301 183.099 43.7301H181.728C179.787 43.7301 178.283 43.2161 177.217 42.1883C176.189 41.1604 175.676 39.3331 175.676 36.7061V7.03976C175.676 6.68748 175.961 6.40191 176.313 6.40191L182.461 6.40186C182.813 6.40186 183.099 6.68743 183.099 7.03971V34.7117Z"
        fill="#373A4A" />
    <defs>
        <filter id="filter0_f_2570_1020" x="12.3586" y="-1.52802" width="46.5621" height="52.3134"
            filterUnits="userSpaceOnUse" color-interpolation-filters="sRGB">
            <feFlood flood-opacity="0" result="BackgroundImageFix" />
            <feBlend mode="normal" in="SourceGraphic" in2="BackgroundImageFix" result="shape" />
            <feGaussianBlur stdDeviation="3.12815" result="effect1_foregroundBlur_2570_1020" />
        </filter>
        <filter id="filter1_f_2570_1020" x="37.2159" y="4.01997" width="25.8325" height="46.9084"
            filterUnits="userSpaceOnUse" color-interpolation-filters="sRGB">
            <feFlood flood-opacity="0" result="BackgroundImageFix" />
            <feBlend mode="normal" in="SourceGraphic" in2="BackgroundImageFix" result="shape" />
            <feGaussianBlur stdDeviation="0.104271" result="effect1_foregroundBlur_2570_1020" />
        </filter>
        <filter id="filter2_f_2570_1020" x="19.1305" y="21.647" width="35.5429" height="33.3486"
            filterUnits="userSpaceOnUse" color-interpolation-filters="sRGB">
            <feFlood flood-opacity="0" result="BackgroundImageFix" />
            <feBlend mode="normal" in="SourceGraphic" in2="BackgroundImageFix" result="shape" />
            <feGaussianBlur stdDeviation="2.9196" result="effect1_foregroundBlur_2570_1020" />
        </filter>
        <filter id="filter3_f_2570_1020" x="19.2786" y="6.34832" width="18.6338" height="31.6798"
            filterUnits="userSpaceOnUse" color-interpolation-filters="sRGB">
            <feFlood flood-opacity="0" result="BackgroundImageFix" />
            <feBlend mode="normal" in="SourceGraphic" in2="BackgroundImageFix" result="shape" />
            <feGaussianBlur stdDeviation="0.417087" result="effect1_foregroundBlur_2570_1020" />
        </filter>
        <filter id="filter4_f_2570_1020" x="-1.96413" y="13.5257" width="45.8097" height="47.8196"
            filterUnits="userSpaceOnUse" color-interpolation-filters="sRGB">
            <feFlood flood-opacity="0" result="BackgroundImageFix" />
            <feBlend mode="normal" in="SourceGraphic" in2="BackgroundImageFix" result="shape" />
            <feGaussianBlur stdDeviation="2.08543" result="effect1_foregroundBlur_2570_1020" />
        </filter>
        <filter id="filter5_f_2570_1020" x="5.76757" y="15.2389" width="26.5732" height="29.0702"
            filterUnits="userSpaceOnUse" color-interpolation-filters="sRGB">
            <feFlood flood-opacity="0" result="BackgroundImageFix" />
            <feBlend mode="normal" in="SourceGraphic" in2="BackgroundImageFix" result="shape" />
            <feGaussianBlur stdDeviation="0.417087" result="effect1_foregroundBlur_2570_1020" />
        </filter>
        <filter id="filter6_f_2570_1020" x="17.3268" y="26.1363" width="30.3741" height="29.6642"
            filterUnits="userSpaceOnUse" color-interpolation-filters="sRGB">
            <feFlood flood-opacity="0" result="BackgroundImageFix" />
            <feBlend mode="normal" in="SourceGraphic" in2="BackgroundImageFix" result="shape" />
            <feGaussianBlur stdDeviation="0.104271" result="effect1_foregroundBlur_2570_1020" />
        </filter>
        <filter id="filter7_f_2570_1020" x="-17.5647" y="-13.6036" width="84.6176" height="75.9519"
            filterUnits="userSpaceOnUse" color-interpolation-filters="sRGB">
            <feFlood flood-opacity="0" result="BackgroundImageFix" />
            <feBlend mode="normal" in="SourceGraphic" in2="BackgroundImageFix" result="shape" />
            <feGaussianBlur stdDeviation="3.33669" result="effect1_foregroundBlur_2570_1020" />
        </filter>
        <filter id="filter8_f_2570_1020" x="-5.81775" y="-4.31379" width="35.9362" height="46.142"
            filterUnits="userSpaceOnUse" color-interpolation-filters="sRGB">
            <feFlood flood-opacity="0" result="BackgroundImageFix" />
            <feBlend mode="normal" in="SourceGraphic" in2="BackgroundImageFix" result="shape" />
            <feGaussianBlur stdDeviation="0.417087" result="effect1_foregroundBlur_2570_1020" />
        </filter>
        <filter id="filter9_f_2570_1020" x="-0.120459" y="26.9321" width="29.6893" height="30.4046"
            filterUnits="userSpaceOnUse" color-interpolation-filters="sRGB">
            <feFlood flood-opacity="0" result="BackgroundImageFix" />
            <feBlend mode="normal" in="SourceGraphic" in2="BackgroundImageFix" result="shape" />
            <feGaussianBlur stdDeviation="0.417087" result="effect1_foregroundBlur_2570_1020" />
        </filter>
        <filter id="filter10_f_2570_1020" x="9.05044" y="-2.10627" width="45.2648" height="21.1409"
            filterUnits="userSpaceOnUse" color-interpolation-filters="sRGB">
            <feFlood flood-opacity="0" result="BackgroundImageFix" />
            <feBlend mode="normal" in="SourceGraphic" in2="BackgroundImageFix" result="shape" />
            <feGaussianBlur stdDeviation="0.417087" result="effect1_foregroundBlur_2570_1020" />
        </filter>
        <filter id="filter11_f_2570_1020" x="14.026" y="8.42122" width="43.0156" height="49.1345"
            filterUnits="userSpaceOnUse" color-interpolation-filters="sRGB">
            <feFlood flood-opacity="0" result="BackgroundImageFix" />
            <feBlend mode="normal" in="SourceGraphic" in2="BackgroundImageFix" result="shape" />
            <feGaussianBlur stdDeviation="0.104271" result="effect1_foregroundBlur_2570_1020" />
        </filter>
        <linearGradient id="paint0_linear_2570_1020" x1="39.9249" y1="11.4542" x2="39.6607"
            y2="44.7531" gradientUnits="userSpaceOnUse">
            <stop stop-color="#13497E" />
            <stop offset="0.640419" stop-color="#2B80D7" />
        </linearGradient>
        <linearGradient id="paint1_linear_2570_1020" x1="50.1321" y1="13.9021" x2="50.1448"
            y2="48.4984" gradientUnits="userSpaceOnUse">
            <stop stop-color="#E2C7FE" />
            <stop offset="0.450702" stop-color="#77B8FD" />
        </linearGradient>
        <linearGradient id="paint2_linear_2570_1020" x1="36.2977" y1="22.7908" x2="18.4456"
            y2="52.8271" gradientUnits="userSpaceOnUse">
            <stop stop-color="#269EBF" />
            <stop offset="1" stop-color="#3EBADD" />
        </linearGradient>
        <radialGradient id="paint3_radial_2570_1020" cx="0" cy="0" r="1"
            gradientUnits="userSpaceOnUse"
            gradientTransform="translate(38.732 32.8309) rotate(139.705) scale(37.8824 27.9148)">
            <stop offset="0.411461" stop-color="#FF7360" />
            <stop offset="1" stop-color="#630513" />
        </radialGradient>
        <linearGradient id="paint4_linear_2570_1020" x1="32.679" y1="30.5912" x2="17.9969"
            y2="51.5423" gradientUnits="userSpaceOnUse">
            <stop stop-color="#33B6D2" />
            <stop offset="0.142991" stop-color="#5BD8FF" />
            <stop offset="1" stop-color="#228AA7" />
        </linearGradient>
        <linearGradient id="paint5_linear_2570_1020" x1="37.4795" y1="32.8962" x2="24.8827"
            y2="53.8507" gradientUnits="userSpaceOnUse">
            <stop offset="0.635417" stop-color="#68DEFF" />
            <stop offset="1" stop-color="#F3C8CB" />
        </linearGradient>
        <linearGradient id="paint6_linear_2570_1020" x1="3.07162" y1="18.7392" x2="16.9541"
            y2="53.0903" gradientUnits="userSpaceOnUse">
            <stop offset="0.661495" stop-color="#88FFF8" />
            <stop offset="1" stop-color="#176781" />
        </linearGradient>
        <linearGradient id="paint7_linear_2570_1020" x1="10.4454" y1="20.8579" x2="49.0113"
            y2="4.87073" gradientUnits="userSpaceOnUse">
            <stop offset="0.731633" stop-color="#4D89FD" />
            <stop offset="1" stop-color="#033883" />
        </linearGradient>
        <linearGradient id="paint8_linear_2570_1020" x1="21.6526" y1="54.5029" x2="5.62523"
            y2="42.9123" gradientUnits="userSpaceOnUse">
            <stop stop-color="#D9D9D9" />
            <stop offset="0.658857" stop-color="#D9D9D9" stop-opacity="0" />
        </linearGradient>
        <linearGradient id="paint9_linear_2570_1020" x1="50.2896" y1="14.0688" x2="32.0712"
            y2="2.05444" gradientUnits="userSpaceOnUse">
            <stop stop-color="#D9D9D9" />
            <stop offset="1" stop-color="#D9D9D9" stop-opacity="0" />
        </linearGradient>
        <linearGradient id="paint10_linear_2570_1020" x1="45.6827" y1="9.65746" x2="19.7301"
            y2="53.6121" gradientUnits="userSpaceOnUse">
            <stop stop-color="#EFC7FE" />
            <stop offset="0.286458" stop-color="#2CBBF9" />
            <stop offset="0.65625" stop-color="#2CBBF9" />
            <stop offset="1" stop-color="#FDC8C8" />
        </linearGradient>
        <linearGradient id="paint11_linear_2570_1020" x1="47.0332" y1="38.0158" x2="14.943"
            y2="17.661" gradientUnits="userSpaceOnUse">
            <stop stop-color="#D9D9D9" />
            <stop offset="0.659264" stop-color="#D9D9D9" stop-opacity="0" />
        </linearGradient>
        <linearGradient id="paint12_linear_2570_1020" x1="45.682" y1="9.65685" x2="19.7295"
            y2="53.6116" gradientUnits="userSpaceOnUse">
            <stop stop-color="#EFC7FE" />
            <stop offset="0.317708" stop-color="#2CBBF9" />
            <stop offset="0.661458" stop-color="#2CBBF9" />
            <stop offset="1" stop-color="#FDC8C8" />
        </linearGradient>
    </defs>
</svg>