<svg width="250" height="51" viewBox="0 0 250 51" fill="none" xmlns="http://www.w3.org/2000/svg">
<g id="logo 1">
<path id="Vector" d="M71.4026 33.314C71.2073 33.2403 71.1804 33.1431 71.1804 33.0602C71.1804 32.9261 71.2131 32.8892 71.2362 32.8616C71.2587 32.8289 71.3236 32.7602 71.5189 32.663C74.0903 31.2101 75.3975 29.0517 75.3975 26.2564C75.3975 23.4612 74.4937 21.4829 72.7092 19.9973C70.9343 18.4941 68.5241 17.7283 65.5397 17.7283H53.3084V48.9031H65.53C68.6263 48.9031 71.1007 48.1373 72.8711 46.6341C74.6839 45.1209 75.6005 42.944 75.6005 40.1589C75.6005 36.7277 74.1873 34.4209 71.3975 33.3099L71.4026 33.314ZM69.2892 29.9197C68.3533 30.6344 66.9439 30.9947 65.1041 30.9947H57.9803V21.9505H65.1041C66.9439 21.9505 68.3533 22.3099 69.2937 23.0255C70.2431 23.7268 70.7255 24.8839 70.7255 26.4709C70.7255 28.0579 70.2444 29.215 69.2937 29.9164L69.2892 29.9197ZM57.9803 35.2144H65.1041C67.0602 35.2144 68.5383 35.5881 69.507 36.3305C70.457 37.0318 70.9388 38.2493 70.9388 39.9469C70.9388 41.6444 70.457 42.8803 69.507 43.6043C68.5428 44.319 67.0602 44.6793 65.1041 44.6793H57.9803V35.2102V35.2144Z" fill="#182232"/>
<path id="Vector_2" d="M95.8591 38.0234C95.8591 40.5882 95.2656 42.548 94.1016 43.8485C92.971 45.112 91.3073 45.753 89.1662 45.753C87.2802 45.753 85.8201 45.2411 84.8276 44.2264C83.8351 43.2117 83.3309 41.6993 83.3309 39.7344V26.2853H79.0899V40.3762C79.0899 43.2678 79.9192 45.5419 81.5509 47.1381C83.1825 48.7342 85.4533 49.5454 88.3041 49.5454C91.3856 49.5454 93.7765 48.498 95.3992 46.4551L95.6124 46.2432C95.6587 46.1971 95.7056 46.1694 95.7377 46.1694C95.8347 46.1694 95.8533 46.1879 95.8533 46.285V48.9094H100.094V26.2861H95.8533V38.0242H95.8591V38.0234Z" fill="#182232"/>
<path id="Vector_3" d="M109.142 26.2853H104.901V48.9035H109.142V26.2853Z" fill="#182232"/>
<path id="Vector_4" d="M107.019 17.6514C105.522 17.6514 104.303 18.8646 104.303 20.3586V20.5295C104.303 22.0193 105.522 23.2368 107.019 23.2368C108.516 23.2368 109.735 22.0235 109.735 20.5295V20.3586C109.735 18.8696 108.516 17.6514 107.019 17.6514Z" fill="#182232"/>
<path id="Vector_5" d="M131.791 28.9107C131.791 29.0674 131.745 29.0674 131.675 29.0674C131.634 29.0674 131.513 29.0674 131.345 28.8319C129.57 26.7145 127.03 25.6403 123.81 25.6403C121.895 25.6403 120.074 26.092 118.392 26.9869C116.705 27.8541 115.306 29.2006 114.236 30.9954C113.192 32.7851 112.664 35.003 112.664 37.5914C112.664 40.1788 113.192 42.3975 114.239 44.1914C115.31 45.9812 116.71 47.342 118.397 48.241C120.079 49.1082 121.9 49.5465 123.814 49.5465C127.04 49.5465 129.575 48.4715 131.36 46.3457C131.517 46.1245 131.642 46.1245 131.684 46.1245C131.749 46.1245 131.799 46.1245 131.799 46.2812V48.9054H136.04V17.7306H131.799V28.9107H131.791ZM129.909 31.6087C131.299 33.0198 132.004 35.0357 132.004 37.5955C132.004 40.1553 131.299 42.1897 129.905 43.6284C128.543 45.0394 126.707 45.755 124.45 45.755C122.193 45.755 120.339 45.0403 118.954 43.6334C117.591 42.1947 116.896 40.1603 116.896 37.6005C116.896 35.0407 117.586 33.0206 118.949 31.6096C120.339 30.1709 122.188 29.4419 124.445 29.4419C126.702 29.4419 128.537 30.1709 129.9 31.6096H129.909V31.6087Z" fill="#182232"/>
<path id="Vector_6" d="M145.036 17.7306H140.795V48.9054H145.036V17.7306Z" fill="#182232"/>
<path id="Vector_7" d="M159.728 22.8219C161.41 21.8164 163.389 21.3087 165.61 21.3087C168.613 21.3087 170.911 22.0561 172.445 23.5224C173.98 24.9937 174.874 26.9997 175.097 29.4816L175.111 29.6474H179.773L179.764 29.4539C179.676 27.3231 179.105 25.2979 178.063 23.4261C177.019 21.5492 175.43 20.0133 173.349 18.8645C171.296 17.684 168.762 17.084 165.818 17.084C162.621 17.084 159.77 17.7669 157.347 19.1184C154.918 20.4423 153.013 22.3519 151.683 24.796C150.385 27.236 149.727 30.0999 149.727 33.3099C149.727 36.5199 150.371 39.3847 151.64 41.8238C152.943 44.2679 154.834 46.196 157.262 47.5475C159.686 48.8663 162.564 49.54 165.823 49.54C169.951 49.54 173.219 48.4742 175.536 46.3669C177.886 44.2588 179.081 41.316 179.081 37.631V34.4067H163.06V38.6273H174.411C174.368 40.6198 173.682 42.2386 172.367 43.4426C171.004 44.6877 168.877 45.3195 166.046 45.3195C163.626 45.3195 161.512 44.826 159.775 43.8482C158.037 42.8427 156.688 41.4267 155.766 39.6461C154.867 37.8245 154.408 35.6937 154.408 33.3091C154.408 30.9244 154.876 28.8397 155.807 27.0181C156.734 25.2057 158.056 23.7897 159.738 22.8161L159.728 22.8219Z" fill="#182232"/>
<path id="Vector_8" d="M199.591 38.0234C199.591 40.5882 198.997 42.548 197.834 43.8485C196.704 45.112 195.04 45.753 192.898 45.753C191.007 45.753 189.552 45.2411 188.56 44.2264C187.568 43.2117 187.063 41.6993 187.063 39.7344V26.2853H182.822V40.3762C182.822 43.2678 183.651 45.5419 185.288 47.1381C186.92 48.7342 189.19 49.5454 192.041 49.5454C195.123 49.5454 197.518 48.498 199.136 46.4551L199.35 46.2432C199.396 46.1971 199.442 46.1694 199.474 46.1694C199.572 46.1694 199.591 46.1879 199.591 46.285V48.9094H203.831V26.2861H199.591V38.0234Z" fill="#182232"/>
<path id="Vector_9" d="M212.873 26.2853H208.632V48.9035H212.873V26.2853Z" fill="#182232"/>
<path id="Vector_10" d="M210.75 17.6514C209.254 17.6514 208.029 18.8646 208.029 20.3586V20.5295C208.029 22.0193 209.249 23.2368 210.75 23.2368C212.252 23.2368 213.471 22.0235 213.471 20.5295V20.3586C213.47 18.8696 212.252 17.6514 210.75 17.6514Z" fill="#182232"/>
<path id="Vector_11" d="M235.522 28.9107C235.522 29.0674 235.475 29.0674 235.405 29.0674C235.364 29.0674 235.244 29.0674 235.076 28.8319C233.301 26.7145 230.762 25.6403 227.541 25.6403C225.627 25.6403 223.806 26.092 222.124 26.9869C220.436 27.8541 219.037 29.2006 217.966 30.9954C216.924 32.7851 216.395 35.003 216.395 37.5914C216.395 40.1788 216.924 42.3975 217.971 44.1914C219.041 45.9812 220.441 47.342 222.128 48.241C223.81 49.1082 225.631 49.5465 227.546 49.5465C230.771 49.5465 233.306 48.4715 235.091 46.3457C235.248 46.1245 235.373 46.1245 235.414 46.1245C235.479 46.1245 235.531 46.1245 235.531 46.2812V48.9054H239.772V17.7306H235.531V28.9107H235.522ZM233.641 31.6087C235.031 33.0198 235.736 35.0357 235.736 37.5955C235.736 40.1553 235.031 42.1897 233.636 43.6284C232.273 45.0394 230.438 45.755 228.181 45.755C225.924 45.755 224.07 45.0403 222.685 43.6334C221.322 42.1947 220.626 40.1603 220.626 37.6005C220.626 35.0407 221.318 33.0206 222.68 31.6096C224.07 30.1709 225.92 29.4419 228.176 29.4419C230.433 29.4419 232.269 30.1709 233.631 31.6096H233.641V31.6087Z" fill="#182232"/>
<path id="Vector_12" d="M248.768 17.7306H244.527V48.9054H248.768V17.7306Z" fill="#182232"/>
<path id="Vector_13" d="M40.5479 17.8168V48.9548H27.522V39.785C27.522 35.7561 24.2577 32.4898 20.2467 32.4898C16.2359 32.4898 12.9715 35.7561 12.9715 39.785V48.9548H3.05176e-05V17.8168H7.59162V22.3159C7.59162 24.2414 9.1542 25.7983 11.071 25.7983C12.988 25.7983 14.5505 24.2414 14.5505 22.3159V17.8168H25.9379V22.2968C25.9379 24.2223 27.5005 25.7792 29.4174 25.7792C31.3343 25.7792 32.8968 24.2223 32.8968 22.2968V17.8168H40.5479Z" fill="#182232"/>
<path id="Vector_14" d="M18.4776 1.40301V20.7244H21.8626V12.0618C21.8626 12.0618 22.7276 10.2827 25.8809 11.0675C30.0537 12.1062 35.1946 11.4023 38.4949 5.42919C28.4941 8.72304 28.2263 -2.59596 18.4776 1.40301Z" fill="#182232"/>
</g>
</svg>
