<svg xmlns="http://www.w3.org/2000/svg" width="250" height="51" viewBox="0 0 250 51" fill="none">
    <path d="M71.4028 33.3143C71.2075 33.2405 71.1806 33.1433 71.1806 33.0604C71.1806 32.9263 71.2133 32.8895 71.2365 32.8618C71.2589 32.8291 71.3238 32.7604 71.5191 32.6632C74.0905 31.2103 75.3978 29.0519 75.3978 26.2567C75.3978 23.4615 74.4939 21.4831 72.7094 19.9976C70.9345 18.4944 68.5243 17.7285 65.5399 17.7285H53.3086V48.9034H65.5302C68.6265 48.9034 71.1009 48.1376 72.8713 46.6344C74.6841 45.1211 75.6008 42.9442 75.6008 40.1591C75.6008 36.7279 74.1875 34.4211 71.3977 33.3101L71.4028 33.3143ZM69.2894 29.92C68.3535 30.6347 66.9441 30.995 65.1043 30.995H57.9805V21.9507H65.1043C66.9441 21.9507 68.3535 22.3102 69.2939 23.0257C70.2433 23.7271 70.7258 24.8842 70.7258 26.4712C70.7258 28.0582 70.2446 29.2153 69.2939 29.9166L69.2894 29.92ZM57.9805 35.2147H65.1043C67.0604 35.2147 68.5385 35.5883 69.5072 36.3307C70.4573 37.0321 70.939 38.2495 70.939 39.9471C70.939 41.6447 70.4573 42.8806 69.5072 43.6045C68.543 44.3192 67.0604 44.6796 65.1043 44.6796H57.9805V35.2104V35.2147Z" fill="white"/>
    <path d="M95.8591 38.0235C95.8591 40.5883 95.2656 42.5482 94.1016 43.8486C92.971 45.1121 91.3073 45.7532 89.1662 45.7532C87.2802 45.7532 85.8201 45.2412 84.8276 44.2265C83.8351 43.2118 83.3309 41.6994 83.3309 39.7345V26.2854H79.0899V40.3763C79.0899 43.2679 79.9192 45.542 81.5509 47.1382C83.1825 48.7344 85.4533 49.5455 88.3041 49.5455C91.3856 49.5455 93.7765 48.4981 95.3992 46.4553L95.6124 46.2433C95.6587 46.1972 95.7056 46.1695 95.7377 46.1695C95.8347 46.1695 95.8533 46.188 95.8533 46.2852V48.9095H100.094V26.2862H95.8533V38.0244H95.8591V38.0235Z" fill="white"/>
    <path d="M109.141 26.2852H104.9V48.9034H109.141V26.2852Z" fill="white"/>
    <path d="M107.019 17.6504C105.522 17.6504 104.303 18.8636 104.303 20.3576V20.5286C104.303 22.0183 105.522 23.2358 107.019 23.2358C108.516 23.2358 109.735 22.0225 109.735 20.5286V20.3576C109.735 18.8687 108.516 17.6504 107.019 17.6504Z" fill="white"/>
    <path d="M131.791 28.9106C131.791 29.0672 131.745 29.0672 131.675 29.0672C131.634 29.0672 131.513 29.0672 131.345 28.8318C129.57 26.7144 127.03 25.6402 123.81 25.6402C121.895 25.6402 120.074 26.0919 118.392 26.9868C116.705 27.854 115.306 29.2005 114.236 30.9953C113.192 32.785 112.664 35.0029 112.664 37.5912C112.664 40.1787 113.192 42.3974 114.239 44.1913C115.31 45.9811 116.71 47.3418 118.397 48.2409C120.079 49.1081 121.9 49.5463 123.814 49.5463C127.04 49.5463 129.575 48.4713 131.36 46.3456C131.517 46.1244 131.642 46.1243 131.684 46.1243C131.749 46.1243 131.799 46.1244 131.799 46.2811V48.9053H136.04V17.7305H131.799V28.9106H131.791ZM129.909 31.6086C131.299 33.0196 132.004 35.0356 132.004 37.5954C132.004 40.1552 131.299 42.1896 129.905 43.6283C128.543 45.0393 126.707 45.7549 124.45 45.7549C122.193 45.7549 120.339 45.0401 118.954 43.6333C117.591 42.1946 116.896 40.1602 116.896 37.6004C116.896 35.0406 117.586 33.0205 118.949 31.6094C120.339 30.1708 122.188 29.4418 124.445 29.4418C126.702 29.4418 128.537 30.1708 129.9 31.6094H129.909V31.6086Z" fill="white"/>
    <path d="M145.036 17.7305H140.795V48.9053H145.036V17.7305Z" fill="white"/>
    <path d="M159.728 22.8219C161.41 21.8164 163.389 21.3087 165.61 21.3087C168.613 21.3087 170.911 22.0561 172.445 23.5224C173.98 24.9937 174.874 26.9997 175.097 29.4816L175.111 29.6474H179.773L179.764 29.4539C179.676 27.3231 179.105 25.2979 178.063 23.4261C177.019 21.5492 175.43 20.0133 173.349 18.8645C171.296 17.684 168.762 17.084 165.818 17.084C162.621 17.084 159.77 17.7669 157.347 19.1184C154.918 20.4423 153.013 22.3519 151.683 24.796C150.385 27.236 149.727 30.0999 149.727 33.3099C149.727 36.5199 150.371 39.3847 151.64 41.8238C152.943 44.2679 154.834 46.196 157.262 47.5475C159.686 48.8663 162.564 49.54 165.823 49.54C169.951 49.54 173.219 48.4742 175.536 46.3669C177.886 44.2588 179.081 41.316 179.081 37.631V34.4067H163.06V38.6273H174.411C174.368 40.6198 173.682 42.2386 172.367 43.4426C171.004 44.6877 168.877 45.3195 166.046 45.3195C163.626 45.3195 161.512 44.826 159.775 43.8482C158.037 42.8427 156.688 41.4267 155.766 39.6461C154.867 37.8245 154.408 35.6937 154.408 33.3091C154.408 30.9244 154.876 28.8397 155.807 27.0181C156.734 25.2057 158.056 23.7897 159.738 22.8161L159.728 22.8219Z" fill="white"/>
    <path d="M199.591 38.0233C199.591 40.5881 198.997 42.5479 197.835 43.8483C196.704 45.1119 195.04 45.7529 192.898 45.7529C191.007 45.7529 189.552 45.2409 188.561 44.2262C187.569 43.2115 187.063 41.6991 187.063 39.7342V26.2852H182.822V40.3761C182.822 43.2677 183.652 45.5418 185.288 47.1379C186.921 48.7341 189.191 49.5452 192.041 49.5452C195.124 49.5452 197.519 48.4978 199.136 46.455L199.35 46.243C199.396 46.197 199.442 46.1693 199.475 46.1693C199.572 46.1693 199.591 46.1877 199.591 46.2849V48.9093H203.832V26.286H199.591V38.0233Z" fill="white"/>
    <path d="M212.873 26.2854H208.632V48.9036H212.873V26.2854Z" fill="white"/>
    <path d="M210.75 17.6504C209.254 17.6504 208.029 18.8636 208.029 20.3576V20.5286C208.029 22.0183 209.249 23.2358 210.75 23.2358C212.252 23.2358 213.471 22.0225 213.471 20.5286V20.3576C213.47 18.8687 212.252 17.6504 210.75 17.6504Z" fill="white"/>
    <path d="M235.522 28.9106C235.522 29.0672 235.476 29.0672 235.406 29.0672C235.365 29.0672 235.244 29.0672 235.076 28.8318C233.302 26.7144 230.762 25.6402 227.541 25.6402C225.628 25.6402 223.807 26.0919 222.124 26.9868C220.437 27.854 219.038 29.2005 217.967 30.9953C216.924 32.785 216.396 35.0029 216.396 37.5912C216.396 40.1787 216.924 42.3974 217.972 44.1913C219.041 45.9811 220.442 47.3418 222.128 48.2409C223.81 49.1081 225.632 49.5463 227.547 49.5463C230.772 49.5463 233.307 48.4713 235.091 46.3456C235.249 46.1244 235.374 46.1243 235.415 46.1243C235.48 46.1243 235.531 46.1244 235.531 46.2811V48.9053H239.772V17.7305H235.531V28.9106H235.522ZM233.641 31.6086C235.031 33.0196 235.736 35.0356 235.736 37.5954C235.736 40.1552 235.031 42.1896 233.636 43.6283C232.274 45.0393 230.438 45.7549 228.182 45.7549C225.924 45.7549 224.071 45.0401 222.685 43.6333C221.323 42.1946 220.627 40.1602 220.627 37.6004C220.627 35.0406 221.319 33.0205 222.681 31.6094C224.071 30.1708 225.921 29.4418 228.177 29.4418C230.434 29.4418 232.27 30.1708 233.632 31.6094H233.641V31.6086Z" fill="white"/>
    <path d="M248.768 17.7305H244.527V48.9053H248.768V17.7305Z" fill="white"/>
    <path d="M40.5479 17.8164V48.9545H27.522V39.7846C27.522 35.7557 24.2576 32.4894 20.2467 32.4894C16.2358 32.4894 12.9715 35.7557 12.9715 39.7846V48.9545H0V17.8164H7.59159V22.3155C7.59159 24.241 9.15417 25.7979 11.071 25.7979C12.9879 25.7979 14.5505 24.241 14.5505 22.3155V17.8164H25.9379V22.2965C25.9379 24.2219 27.5005 25.7788 29.4174 25.7788C31.3342 25.7788 32.8968 24.2219 32.8968 22.2965V17.8164H40.5479Z" fill="white"/>
    <path d="M18.4775 1.40216V20.7236H21.8626V12.061C21.8626 12.061 22.7276 10.2818 25.8809 11.0667C30.0537 12.1053 35.1946 11.4015 38.4949 5.42834C28.4941 8.72219 28.2262 -2.59681 18.4775 1.40216Z" fill="white"/>
</svg>