<svg xmlns="http://www.w3.org/2000/svg" width="192" height="56" viewBox="0 0 192 56" fill="none">
    <path d="M28.5175 52.6278C28.5175 54.0035 27.4035 55.1305 26.038 55.0043C23.3381 54.7549 20.686 54.0988 18.1723 53.0543C14.8926 51.6914 11.9124 49.6938 9.4022 47.1755C6.89194 44.6572 4.90069 41.6677 3.54215 38.3773C2.18361 35.0871 1.48438 31.5605 1.48438 27.9992C1.48438 24.4378 2.18361 20.9113 3.54215 17.621C4.90069 14.3308 6.89194 11.3411 9.4022 8.82283C11.9124 6.30456 14.8926 4.30695 18.1723 2.94407C20.686 1.89955 23.3381 1.24352 26.038 0.994034C27.4035 0.867864 28.5175 1.99492 28.5175 3.37059V15.0253C21.3751 15.0253 15.5849 20.834 15.5849 27.9993C15.5849 35.1645 21.3749 40.973 28.5172 40.9732V15.0254C35.6597 15.0254 41.4498 20.834 41.4498 27.9993C41.4498 35.1646 35.6599 40.9731 28.5175 40.9732V52.6278Z" fill="#38318B"/>
    <path d="M28.4885 40.9674L28.4883 15.0332C35.6469 15.0332 41.4501 20.8388 41.4501 28.0003C41.4501 35.1617 35.647 40.9672 28.4885 40.9674Z" fill="#DF6552"/>
    <path d="M176.608 26.9661C176.608 27.6317 176.972 28.139 177.701 28.4876C178.461 28.8046 179.649 29.1374 181.266 29.4861C183.103 29.8664 184.639 30.2944 185.875 30.7698C187.111 31.2453 188.173 32.006 189.06 33.052C189.978 34.0663 190.438 35.4452 190.438 37.1886C190.438 38.7417 189.962 40.0889 189.012 41.23C188.093 42.371 186.857 43.2428 185.305 43.845C183.752 44.4155 182.058 44.7008 180.22 44.7008C177.717 44.7008 175.562 44.2253 173.756 43.2744C171.982 42.3235 170.666 40.9605 169.811 39.1855L174.659 36.6656C175.514 38.8526 177.368 39.9462 180.22 39.9462C181.456 39.9462 182.517 39.7085 183.404 39.233C184.291 38.7576 184.734 38.0761 184.734 37.1886C184.734 36.4278 184.323 35.8731 183.499 35.5244C182.707 35.1441 181.408 34.7319 179.602 34.2882C177.732 33.8444 176.212 33.4007 175.039 32.9569C173.867 32.5132 172.853 31.8317 171.998 30.9124C171.142 29.9615 170.715 28.7095 170.715 27.1563C170.715 25.6348 171.142 24.3194 171.998 23.2099C172.853 22.0689 174.01 21.1972 175.467 20.5949C176.925 19.9927 178.524 19.6915 180.267 19.6915C182.327 19.6915 184.164 20.1195 185.78 20.9753C187.428 21.8312 188.695 23.0515 189.582 24.6363L184.782 27.0612C183.958 25.2862 182.454 24.3987 180.267 24.3987C179.158 24.3987 178.271 24.6363 177.606 25.1118C176.94 25.5556 176.608 26.1737 176.608 26.9661Z" fill="#38318B"/>
    <path d="M157.718 19.6914C159.998 19.6914 162.042 20.262 163.848 21.4031C165.686 22.5125 167.112 24.0182 168.126 25.92C169.139 27.8218 169.647 29.9297 169.647 32.2436C169.647 33.0043 169.583 33.7017 169.457 34.3357H151.111C151.586 36.0156 152.426 37.3311 153.63 38.282C154.834 39.2012 156.371 39.6608 158.24 39.6608C159.381 39.6608 160.474 39.4072 161.52 38.9001C162.597 38.3929 163.404 37.7431 163.943 36.9507L168.458 39.6132C167.349 41.2615 165.908 42.5294 164.134 43.4169C162.391 44.2728 160.379 44.7007 158.098 44.7007C155.562 44.7007 153.313 44.1618 151.349 43.0841C149.385 42.0064 147.863 40.5166 146.786 38.6148C145.741 36.7129 145.218 34.5734 145.218 32.196C145.218 29.8505 145.741 27.7267 146.786 25.8248C147.863 23.9231 149.352 22.4333 151.254 21.3555C153.155 20.2461 155.31 19.6914 157.718 19.6914ZM164.134 29.7236C163.88 28.2022 163.167 27.0136 161.995 26.1577C160.854 25.2702 159.412 24.8264 157.67 24.8264C156.466 24.8264 155.357 25.0483 154.343 25.4921C153.361 25.9358 152.569 26.5381 151.966 27.2988C151.364 28.0596 151.048 28.8679 151.016 29.7236H164.134Z" fill="#38318B"/>
    <path d="M142.091 37.3789C142.091 37.886 142.217 38.2506 142.471 38.4725C142.725 38.6943 143.121 38.8052 143.659 38.8052C144.071 38.8052 144.563 38.7577 145.132 38.6626V44.0829C143.96 44.273 142.867 44.3682 141.854 44.3682C140.016 44.3682 138.605 43.8927 137.623 42.9418C136.673 41.9591 136.197 40.2316 136.197 37.7592V10.8007H142.091V37.3789Z" fill="#38318B"/>
    <path d="M134.793 39.4718C133.621 41.0885 132.148 42.3722 130.373 43.3231C128.599 44.274 126.682 44.7495 124.622 44.7495C122.373 44.7495 120.281 44.1948 118.349 43.0854C116.448 41.9442 114.927 40.4228 113.786 38.5209C112.678 36.5874 112.123 34.4954 112.123 32.2449C112.123 29.9943 112.678 27.9182 113.786 26.0163C114.927 24.0828 116.448 22.5613 118.349 21.4519C120.281 20.3108 122.373 19.7402 124.622 19.7402C126.65 19.7402 128.551 20.2157 130.326 21.1666C132.1 22.0859 133.573 23.3379 134.745 24.9228L129.897 28.2034C128.409 26.4601 126.65 25.5884 124.622 25.5884C123.419 25.5884 122.309 25.8895 121.296 26.4918C120.281 27.0941 119.474 27.9023 118.872 28.9166C118.269 29.931 117.968 31.0404 117.968 32.2449C117.968 33.4494 118.269 34.5588 118.872 35.573C119.474 36.5874 120.281 37.3957 121.296 37.9979C122.309 38.5685 123.419 38.8538 124.622 38.8538C126.65 38.8538 128.409 37.9821 129.897 36.2388L134.793 39.4718Z" fill="#38318B"/>
    <path d="M112.344 19.834L111.916 25.3968C111.726 25.3334 111.393 25.3018 110.917 25.3018C108.953 25.3018 107.321 25.8723 106.023 27.0134C104.755 28.1546 104.121 29.7077 104.121 31.6729V44.0825H98.2285V20.3094H104.121V24.3033C104.66 23.0354 105.579 21.9735 106.878 21.1177C108.177 20.2619 109.745 19.834 111.583 19.834H112.344Z" fill="#38318B"/>
    <path d="M54.0576 27.5371C54.0576 24.4308 54.8181 21.5622 56.3389 18.9314C57.8914 16.3005 59.9826 14.2242 62.6124 12.7028C65.2422 11.1497 68.1096 10.373 71.2147 10.373C74.3831 10.373 77.3139 11.1972 80.0071 12.8454C82.7002 14.462 84.7755 16.6174 86.233 19.3117L80.7675 22.212C79.817 20.532 78.4862 19.1849 76.7753 18.1706C75.0643 17.1246 73.2108 16.6016 71.2147 16.6016C69.2503 16.6016 67.4126 17.0929 65.7016 18.0755C64.0224 19.0581 62.6916 20.3894 61.7094 22.0694C60.7272 23.7493 60.236 25.572 60.236 27.5371C60.236 29.5024 60.7272 31.325 61.7094 33.0049C62.6916 34.6849 64.0224 36.0162 65.7016 36.9988C67.4126 37.9815 69.2503 38.4727 71.2147 38.4727C73.2742 38.4727 75.1435 37.9497 76.8228 36.9037C78.5338 35.8577 79.8645 34.4631 80.815 32.7197L86.2805 35.7151C84.8231 38.4411 82.7477 40.6282 80.0546 42.2764C77.3614 43.893 74.4148 44.7013 71.2147 44.7013C68.1096 44.7013 65.2422 43.9405 62.6124 42.4191C59.9826 40.8659 57.8914 38.7739 56.3389 36.143C54.8181 33.5122 54.0576 30.6435 54.0576 27.5371Z" fill="#38318B"/>
    <path fill-rule="evenodd" clip-rule="evenodd" d="M91.2353 16.4084C93.6211 16.4084 95.5557 14.4732 95.5557 12.0861C95.5557 9.69886 93.6211 7.76367 91.2353 7.76367C88.8487 7.76367 86.9141 9.69886 86.9141 12.0861C86.9141 14.4732 88.8487 16.4084 91.2353 16.4084ZM88.3423 20.3086V44.0816H94.2352V20.3086H88.3423Z" fill="#38318B"/>
</svg>