<svg xmlns="http://www.w3.org/2000/svg" width="181" height="79" viewBox="0 0 181 79" fill="none">
    <path d="M22.5782 57.9479V76.2877L0.0769653 43.6152L22.5782 57.9479Z" fill="url(#paint0_linear_1999_1404)"/>
    <path d="M44.9251 43.6152L22.5782 76.2877V57.9479L44.9251 43.6152Z" fill="url(#paint1_linear_1999_1404)"/>
    <path d="M44.925 38.9906L22.5781 26.1992V53.3233L44.925 38.9906Z" fill="url(#paint2_linear_1999_1404)"/>
    <path d="M44.9251 38.9914L22.5782 0V26.2L44.9251 38.9914Z" fill="url(#paint3_linear_1999_1404)"/>
    <path d="M22.5782 0V26.2L0.0769653 38.9914L22.5782 0Z" fill="url(#paint4_linear_1999_1404)"/>
    <path d="M22.5784 26.1992V53.3233L0.0771484 38.9906L22.5784 26.1992Z" fill="url(#paint5_linear_1999_1404)"/>
    <path d="M56.0312 13.9058C56.0312 12.6281 56.2929 11.4962 56.8163 10.5106C57.3397 9.52539 58.0709 8.76342 59.0103 8.22417C59.9493 7.6854 61.0351 7.41602 62.267 7.41602C63.4523 7.41602 64.5111 7.6931 65.4429 8.24774C66.3742 8.8019 67.102 9.57975 67.6253 10.5803C68.1487 11.5814 68.4104 12.7205 68.4104 13.9986V14.9684H59.3336C59.3798 15.7385 59.6723 16.362 60.2115 16.8392C60.7503 17.3168 61.4584 17.555 62.3363 17.555C62.952 17.555 63.5216 17.4203 64.0454 17.1509C64.5688 16.8815 65.1384 16.4158 65.7546 15.7539L67.8101 17.8556C67.1015 18.6411 66.2856 19.253 65.362 19.6917C64.4384 20.1305 63.4292 20.3498 62.3363 20.3498C61.0889 20.3498 59.9883 20.0799 59.0334 19.5412C58.0786 19.0024 57.3397 18.2443 56.8163 17.2663C56.2929 16.2888 56.0312 15.1685 56.0312 13.9058ZM65.085 12.5661C65.0234 11.8888 64.7271 11.3269 64.1955 10.88C63.6644 10.4336 63.0213 10.2104 62.267 10.2104C61.4819 10.2104 60.8349 10.4259 60.327 10.8569C59.819 11.2879 59.5034 11.858 59.3803 12.5661H65.085Z" fill="white"/>
    <path d="M70.5117 13.8832C70.5117 12.6209 70.7734 11.5005 71.2968 10.5226C71.8202 9.54511 72.5557 8.78266 73.5024 8.23619C74.4491 7.68973 75.5309 7.41602 76.7475 7.41602C78.1795 7.41602 79.411 7.80855 80.4428 8.59409C81.4742 9.37915 82.1751 10.4341 82.5445 11.7584L79.3576 12.6358C79.2037 11.9585 78.9107 11.4231 78.4797 11.0306C78.0487 10.638 77.471 10.4418 76.7475 10.4418C75.8239 10.4418 75.1038 10.7458 74.5881 11.3538C74.0719 11.9623 73.8146 12.8051 73.8146 13.8827C73.8146 14.9602 74.0724 15.8035 74.5881 16.4115C75.1038 17.02 75.8239 17.3236 76.7475 17.3236C77.471 17.3236 78.0482 17.1273 78.4797 16.7348C78.9107 16.3422 79.2032 15.8073 79.3576 15.1295L82.5445 16.007C82.1751 17.3313 81.4742 18.3857 80.4428 19.1713C79.411 19.9563 78.1795 20.3493 76.7475 20.3493C75.5309 20.3493 74.4495 20.0756 73.5024 19.5292C72.5552 18.9827 71.8197 18.2207 71.2968 17.2428C70.7734 16.2653 70.5117 15.1449 70.5117 13.8822V13.8832Z" fill="white"/>
    <path d="M84.5311 13.8829C84.5311 12.6207 84.7928 11.5003 85.3162 10.5223C85.8395 9.54487 86.575 8.78241 87.5217 8.23595C88.4684 7.68948 89.5503 7.41577 90.7669 7.41577C91.9983 7.41577 93.0879 7.68948 94.0346 8.23595C94.9817 8.78241 95.7168 9.54487 96.2402 10.5223C96.7635 11.5003 97.0257 12.6207 97.0257 13.8829C97.0257 15.1452 96.7635 16.266 96.2402 17.2435C95.7168 18.2214 94.9817 18.9834 94.0346 19.5299C93.0874 20.0763 91.9983 20.35 90.7669 20.35C89.5503 20.35 88.4689 20.0763 87.5217 19.5299C86.5746 18.9834 85.839 18.2214 85.3162 17.2435C84.7928 16.266 84.5311 15.1456 84.5311 13.8829ZM93.7229 13.8829C93.7229 12.8054 93.465 11.9621 92.9493 11.3541C92.4337 10.746 91.7058 10.442 90.7669 10.442C89.8433 10.442 89.1231 10.746 88.6075 11.3541C88.0913 11.9626 87.8339 12.8054 87.8339 13.8829C87.8339 14.9604 88.0918 15.8037 88.6075 16.4118C89.1231 17.0203 89.8433 17.3238 90.7669 17.3238C91.6905 17.3238 92.4139 17.0159 92.9378 16.4002C93.4612 15.7845 93.7229 14.9451 93.7229 13.8829Z" fill="white"/>
    <path d="M98.873 15.9613L101.876 15.2686C102.091 16.0387 102.48 16.6275 103.042 17.0354C103.604 17.4434 104.316 17.6473 105.178 17.6473C105.948 17.6473 106.537 17.555 106.945 17.3702C107.353 17.1855 107.557 16.9238 107.557 16.5847C107.557 16.2003 107.349 15.9035 106.933 15.6957C106.518 15.4879 105.755 15.2763 104.647 15.0607C102.83 14.7221 101.532 14.2521 100.755 13.6518C99.9775 13.0509 99.5884 12.2279 99.5884 11.1807C99.5884 10.4413 99.8039 9.78756 100.235 9.21752C100.666 8.64797 101.271 8.20541 102.048 7.88936C102.826 7.5738 103.715 7.41602 104.716 7.41602C106.087 7.41602 107.303 7.75515 108.365 8.43198C109.428 9.10977 110.143 10.0108 110.513 11.1345L107.673 12.0581C107.442 11.4423 107.068 10.9651 106.552 10.626C106.037 10.2874 105.417 10.1176 104.694 10.1176C104.093 10.1176 103.616 10.2142 103.262 10.4067C102.907 10.5991 102.731 10.8651 102.731 11.2033C102.731 11.5116 102.927 11.7618 103.319 11.9542C103.712 12.1466 104.424 12.3352 105.456 12.5199C107.334 12.8739 108.678 13.3627 109.486 13.9861C110.294 14.6095 110.699 15.4759 110.699 16.5842C110.699 17.339 110.471 18.0009 110.017 18.5704C109.563 19.1405 108.916 19.5792 108.077 19.8866C107.238 20.1944 106.272 20.3484 105.179 20.3484C103.516 20.3484 102.134 19.9635 101.033 19.1939C99.9323 18.4237 99.2127 17.3462 98.874 15.9603L98.873 15.9613Z" fill="white"/>
    <path d="M117.164 19.5174L112.291 7.76172H115.755L118.804 15.5912H118.851L121.876 7.76172H125.34L118.227 25.199H114.786L117.164 19.5174Z" fill="white"/>
    <path d="M125.986 15.9613L128.989 15.2686C129.204 16.0387 129.593 16.6275 130.155 17.0354C130.717 17.4434 131.429 17.6473 132.291 17.6473C133.062 17.6473 133.65 17.555 134.058 17.3702C134.466 17.1855 134.67 16.9238 134.67 16.5847C134.67 16.2003 134.462 15.9035 134.047 15.6957C133.631 15.4879 132.869 15.2763 131.76 15.0607C129.943 14.7221 128.646 14.2521 127.868 13.6518C127.091 13.0509 126.702 12.2279 126.702 11.1807C126.702 10.4413 126.917 9.78756 127.349 9.21752C127.78 8.64797 128.384 8.20541 129.162 7.88936C129.939 7.5738 130.828 7.41602 131.83 7.41602C133.2 7.41602 134.416 7.75515 135.479 8.43198C136.541 9.10977 137.257 10.0108 137.627 11.1345L134.786 12.0581C134.555 11.4423 134.181 10.9651 133.666 10.626C133.15 10.2874 132.53 10.1176 131.807 10.1176C131.206 10.1176 130.729 10.2142 130.375 10.4067C130.02 10.5991 129.844 10.8651 129.844 11.2033C129.844 11.5116 130.04 11.7618 130.433 11.9542C130.825 12.1466 131.538 12.3352 132.569 12.5199C134.447 12.8739 135.791 13.3627 136.599 13.9861C137.408 14.6095 137.812 15.4759 137.812 16.5842C137.812 17.339 137.584 18.0009 137.131 18.5704C136.677 19.1405 136.03 19.5792 135.191 19.8866C134.351 20.1944 133.385 20.3484 132.292 20.3484C130.629 20.3484 129.247 19.9635 128.147 19.1939C127.046 18.4237 126.326 17.3462 125.987 15.9603L125.986 15.9613Z" fill="white"/>
    <path d="M145.757 10.7187V15.6383C145.757 16.0539 145.853 16.3541 146.046 16.5393C146.238 16.724 146.558 16.8164 147.005 16.8164H149.799V20.0033H146.704C145.349 20.0033 144.302 19.6838 143.563 19.0445C142.824 18.4057 142.454 17.4937 142.454 16.3079V10.7187H139.452V7.76217H142.454V4.64453H145.757V7.76217H150.561V10.7187H145.757Z" fill="white"/>
    <path d="M152.777 13.9058C152.777 12.6281 153.039 11.4962 153.563 10.5106C154.086 9.52539 154.817 8.76342 155.757 8.22417C156.696 7.6854 157.782 7.41602 159.014 7.41602C160.199 7.41602 161.258 7.6931 162.189 8.24774C163.121 8.80238 163.849 9.57975 164.372 10.5803C164.895 11.5814 165.157 12.7205 165.157 13.9986V14.9684H156.081C156.127 15.7385 156.419 16.362 156.959 16.8392C157.497 17.3168 158.206 17.555 159.083 17.555C159.699 17.555 160.269 17.4203 160.792 17.1509C161.316 16.8815 161.885 16.4158 162.502 15.7539L164.557 17.8556C163.849 18.6411 163.033 19.253 162.109 19.6917C161.185 20.1305 160.176 20.3498 159.083 20.3498C157.836 20.3498 156.735 20.0799 155.78 19.5412C154.826 19.0024 154.087 18.2443 153.564 17.2663C153.04 16.2888 152.778 15.1685 152.778 13.9058H152.777ZM161.831 12.5661C161.769 11.8888 161.473 11.3269 160.942 10.88C160.411 10.4336 159.767 10.2104 159.013 10.2104C158.228 10.2104 157.581 10.4259 157.073 10.8569C156.565 11.2879 156.249 11.858 156.126 12.5661H161.83H161.831Z" fill="white"/>
    <path d="M167.373 7.76263H170.283V8.82477H170.33C170.591 8.40915 170.926 8.08974 171.334 7.86606C171.742 7.64333 172.192 7.53125 172.685 7.53125C173.655 7.53125 174.433 7.98535 175.018 8.89404H175.064C175.68 7.98583 176.527 7.53125 177.605 7.53125C178.498 7.53125 179.222 7.84681 179.776 8.47794C180.33 9.10955 180.608 9.9331 180.608 10.9491V20.0028H177.559V11.5273C177.559 11.1732 177.467 10.9038 177.282 10.7191C177.097 10.5344 176.835 10.442 176.497 10.442C176.173 10.442 175.915 10.5459 175.723 10.7538C175.531 10.9616 175.434 11.243 175.434 11.5965V20.0037H172.547V11.5273C172.547 11.1886 172.458 10.9236 172.282 10.7307C172.105 10.5382 171.854 10.442 171.531 10.442C171.192 10.442 170.922 10.5459 170.722 10.7538C170.522 10.9616 170.422 11.243 170.422 11.5965V20.0037H167.374V7.76263H167.373Z" fill="white"/>
    <path d="M56.355 40.9749L59.3572 40.2822C59.5727 41.0529 59.9613 41.6412 60.5237 42.0491C61.0855 42.4575 61.7975 42.661 62.66 42.661C63.4297 42.661 64.0189 42.5691 64.4269 42.3839C64.8348 42.1992 65.0388 41.9375 65.0388 41.5988C65.0388 41.214 64.8309 40.9172 64.4153 40.7094C63.9997 40.5011 63.2377 40.2899 62.1289 40.0744C60.312 39.7358 59.0147 39.2658 58.2373 38.6654C57.4599 38.0651 57.0712 37.2416 57.0712 36.1943C57.0712 35.455 57.2868 34.8012 57.7178 34.2312C58.1488 33.6616 58.753 33.2191 59.5308 32.903C60.3082 32.5875 61.1971 32.4297 62.1982 32.4297C63.5682 32.4297 64.7848 32.7688 65.8474 33.4456C66.9095 34.1234 67.6258 35.0244 67.9952 36.1481L65.1547 37.0722C64.9238 36.4565 64.55 35.9788 64.0343 35.6402C63.5182 35.3015 62.8986 35.1317 62.1751 35.1317C61.5748 35.1317 61.0971 35.2284 60.743 35.4208C60.3885 35.6132 60.212 35.8792 60.212 36.2174C60.212 36.5258 60.4082 36.7759 60.8008 36.9678C61.1933 37.1603 61.9052 37.3488 62.9371 37.534C64.8156 37.8881 66.1591 38.3768 66.9673 39.0007C67.7754 39.6242 68.18 40.4905 68.18 41.5988C68.18 42.3531 67.9524 43.0155 67.4983 43.5851C67.0442 44.1551 66.3972 44.5938 65.5583 44.9012C64.7189 45.2091 63.7529 45.363 62.6595 45.363C60.9966 45.363 59.6145 44.9786 58.5139 44.2085C57.4128 43.4388 56.6936 42.3608 56.355 40.9749Z" fill="white"/>
    <path d="M70.2812 40.8608V32.7773H73.5841V40.0988C73.5841 41.5925 74.323 42.339 75.8012 42.339C76.4631 42.339 76.9908 42.1351 77.3834 41.7271C77.7759 41.3192 77.9722 40.7766 77.9722 40.0988V32.7773H81.275V45.018H78.1107V43.9322H78.0645C77.7254 44.3633 77.2597 44.7101 76.6671 44.9718C76.074 45.2335 75.4544 45.3638 74.8079 45.3638C73.3604 45.3638 72.2444 44.9679 71.4593 44.1747C70.6743 43.3814 70.2812 42.277 70.2812 40.8598V40.8608Z" fill="white"/>
    <path d="M84.9931 32.7765H88.1574V33.8387H88.2036C89.1118 32.8997 90.2591 32.4297 91.645 32.4297C92.7221 32.4297 93.689 32.6996 94.5433 33.2378C95.3976 33.7771 96.0634 34.5352 96.5406 35.5127C97.0178 36.4907 97.2569 37.6182 97.2569 38.8959C97.2569 40.1283 97.0178 41.2366 96.5406 42.2218C96.0634 43.2075 95.3933 43.9771 94.5313 44.5318C93.6688 45.0854 92.6913 45.363 91.5979 45.363C90.9052 45.363 90.2817 45.2553 89.7271 45.0397C89.1729 44.8247 88.7111 44.5318 88.3412 44.1623H88.295V50.2134H84.9922V32.776L84.9931 32.7765ZM93.954 38.8968C93.954 37.8501 93.6918 37.015 93.1685 36.3911C92.6451 35.7676 91.9216 35.4559 90.9975 35.4559C90.2586 35.4559 89.6237 35.7142 89.0921 36.2294C88.561 36.7456 88.2955 37.3729 88.2955 38.1118V39.705C88.2955 40.1673 88.4187 40.5978 88.6649 40.998C88.9112 41.3987 89.2537 41.722 89.6925 41.9683C90.1316 42.2151 90.6199 42.3382 91.1592 42.3382C92.0212 42.3382 92.7028 42.0265 93.2031 41.4031C93.7034 40.7791 93.954 39.9445 93.954 38.8968Z" fill="white"/>
    <path d="M99.4736 32.7765H102.638V33.8387H102.684C103.593 32.8997 104.74 32.4297 106.125 32.4297C107.203 32.4297 108.169 32.6996 109.024 33.2378C109.878 33.7771 110.544 34.5352 111.021 35.5127C111.498 36.4907 111.737 37.6182 111.737 38.8959C111.737 40.1283 111.498 41.2366 111.021 42.2218C110.544 43.2075 109.874 43.9771 109.012 44.5318C108.149 45.0854 107.172 45.363 106.078 45.363C105.386 45.363 104.762 45.2553 104.208 45.0397C103.653 44.8247 103.192 44.5318 102.822 44.1623H102.775V50.2134H99.4727V32.776L99.4736 32.7765ZM108.435 38.8968C108.435 37.8501 108.173 37.015 107.649 36.3911C107.126 35.7676 106.403 35.4559 105.478 35.4559C104.74 35.4559 104.105 35.7142 103.573 36.2294C103.042 36.7456 102.776 37.3729 102.776 38.1118V39.705C102.776 40.1673 102.9 40.5978 103.146 40.998C103.392 41.3987 103.735 41.722 104.174 41.9683C104.613 42.2151 105.101 42.3382 105.641 42.3382C106.503 42.3382 107.184 42.0265 107.685 41.4031C108.185 40.7791 108.435 39.9445 108.435 38.8968H108.435Z" fill="white"/>
    <path d="M113.954 38.8963C113.954 37.6341 114.216 36.5142 114.74 35.5363C115.263 34.5588 115.998 33.7963 116.945 33.2499C117.892 32.7034 118.974 32.4297 120.19 32.4297C121.422 32.4297 122.511 32.7034 123.458 33.2499C124.405 33.7963 125.14 34.5588 125.664 35.5363C126.187 36.5142 126.449 37.6341 126.449 38.8963C126.449 40.1586 126.187 41.2794 125.664 42.2569C125.14 43.2349 124.405 43.9968 123.458 44.5433C122.511 45.0898 121.422 45.363 120.19 45.363C118.974 45.363 117.892 45.0898 116.945 44.5433C115.998 43.9968 115.263 43.2349 114.74 42.2569C114.216 41.2794 113.954 40.1591 113.954 38.8963ZM123.146 38.8963C123.146 37.8193 122.888 36.976 122.372 36.3675C121.857 35.7595 121.129 35.4554 120.19 35.4554C119.266 35.4554 118.546 35.7595 118.031 36.3675C117.515 36.976 117.257 37.8193 117.257 38.8963C117.257 39.9734 117.515 40.8176 118.031 41.4257C118.546 42.0342 119.266 42.3377 120.19 42.3377C121.113 42.3377 121.837 42.0299 122.361 41.4136C122.885 40.7984 123.146 39.959 123.146 38.8963H123.146Z" fill="white"/>
    <path d="M128.99 32.776H132.154V33.9079H132.2C132.723 33.3846 133.266 33.0069 133.828 32.776C134.39 32.5451 135.033 32.4297 135.757 32.4297C136.819 32.4297 137.735 32.7414 138.505 33.3648C139.275 33.9883 139.814 34.8392 140.122 35.9172L137.027 36.9337C136.672 35.9326 135.941 35.4324 134.832 35.4324C134.001 35.4324 133.37 35.6748 132.939 36.1597C132.508 36.6446 132.292 37.3108 132.292 38.1575V45.0171H128.989V32.7765L128.99 32.776Z" fill="white"/>
    <path d="M148.067 35.7338V40.6534C148.067 41.069 148.162 41.3692 148.355 41.5539C148.548 41.7391 148.867 41.831 149.314 41.831H152.109V45.0184H149.014C147.659 45.0184 146.612 44.699 145.873 44.0602C145.134 43.4213 144.764 42.5088 144.764 41.3235V35.7343H141.762V32.7778H144.764V29.6602H148.067V32.7778H152.87V35.7343H148.067V35.7338Z" fill="white"/>
    <path d="M56.4932 57.7902H59.6575V58.8528H59.7036C60.6118 57.9138 61.7591 57.4434 63.145 57.4434C64.2226 57.4434 65.189 57.7132 66.0433 58.252C66.8981 58.7912 67.5639 59.5494 68.0411 60.5268C68.5183 61.5048 68.7569 62.6324 68.7569 63.91C68.7569 65.1424 68.5178 66.2508 68.0411 67.2359C67.5634 68.2216 66.8938 68.9913 66.0318 69.5459C65.1693 70.0996 64.1918 70.3772 63.0988 70.3772C62.4061 70.3772 61.7822 70.2694 61.2281 70.0539C60.6739 69.8389 60.2121 69.5459 59.8422 69.1765H59.796V75.2275H56.4932V57.7902ZM65.454 63.9105C65.454 62.8637 65.1923 62.0287 64.669 61.4047C64.1456 60.7813 63.4216 60.4696 62.498 60.4696C61.7591 60.4696 61.1242 60.7274 60.5926 61.2431C60.0615 61.7593 59.796 62.3866 59.796 63.1254V64.7187C59.796 65.1809 59.9191 65.6115 60.1654 66.0117C60.4117 66.4124 60.7542 66.7357 61.1929 66.982C61.6321 67.2287 62.1204 67.3519 62.6596 67.3519C63.5217 67.3519 64.2028 67.0402 64.7036 66.4167C65.2039 65.7928 65.454 64.9582 65.454 63.9105Z" fill="white"/>
    <path d="M71.0664 57.7902H74.2307V58.9221H74.2769C74.8003 58.3987 75.3429 58.0216 75.9052 57.7902C76.4671 57.5593 77.1097 57.4434 77.8337 57.4434C78.8959 57.4434 79.8122 57.7551 80.5819 58.379C81.3521 59.0024 81.8904 59.8529 82.1987 60.9309L79.1037 61.9474C78.7496 60.9463 78.0184 60.446 76.9096 60.446C76.0779 60.446 75.4468 60.6885 75.0158 61.1738C74.5848 61.6587 74.3693 62.325 74.3693 63.1711V70.0308H71.0664V57.7902Z" fill="white"/>
    <path d="M83.6074 63.912C83.6074 62.6497 83.8691 61.5298 84.3925 60.5519C84.9159 59.5744 85.6514 58.8124 86.5981 58.2655C87.5448 57.719 88.6266 57.4453 89.8432 57.4453C91.0746 57.4453 92.1642 57.719 93.1114 58.2655C94.0586 58.8124 94.7931 59.5744 95.3165 60.5519C95.8399 61.5298 96.102 62.6497 96.102 63.912C96.102 65.1742 95.8399 66.2951 95.3165 67.2725C94.7931 68.2505 94.0586 69.0125 93.1114 69.5589C92.1642 70.1054 91.0746 70.3786 89.8432 70.3786C88.6266 70.3786 87.5452 70.1054 86.5981 69.5589C85.6509 69.0125 84.9154 68.2505 84.3925 67.2725C83.8691 66.2951 83.6074 65.1747 83.6074 63.912ZM92.7997 63.912C92.7997 62.8349 92.5413 61.9916 92.0257 61.3831C91.51 60.7751 90.7827 60.4711 89.8437 60.4711C88.9201 60.4711 88.1999 60.7756 87.6843 61.3831C87.1681 61.9916 86.9107 62.8349 86.9107 63.912C86.9107 64.989 87.1686 65.8333 87.6843 66.4413C88.1999 67.0498 88.9201 67.3534 89.8437 67.3534C90.7673 67.3534 91.4912 67.0455 92.0146 66.4293C92.538 65.814 92.8001 64.9746 92.8001 63.912H92.7997Z" fill="white"/>
    <path d="M98.9885 72.7559L101.506 70.8394C101.968 71.5014 102.433 71.967 102.903 72.2364C103.373 72.5058 103.954 72.6409 104.647 72.6409C105.509 72.6409 106.194 72.4019 106.702 71.9247C107.21 71.4475 107.464 70.7856 107.464 69.9384V69.061H107.418C106.971 69.5228 106.498 69.8576 105.998 70.0659C105.497 70.2737 104.892 70.3771 104.184 70.3771C103.075 70.3771 102.094 70.1039 101.24 69.5575C100.385 69.011 99.7231 68.249 99.2536 67.2711C98.7831 66.2936 98.5488 65.1732 98.5488 63.9105C98.5488 62.6636 98.7913 61.5515 99.2766 60.573C99.7615 59.5955 100.431 58.8292 101.286 58.2751C102.141 57.7209 103.114 57.4434 104.207 57.4434C104.9 57.4434 105.493 57.5439 105.986 57.744C106.478 57.9441 106.933 58.252 107.349 58.6676H107.395V57.7902H110.582V70.077C110.582 71.1545 110.331 72.1099 109.831 72.9411C109.33 73.7728 108.634 74.4189 107.741 74.8807C106.848 75.343 105.816 75.5734 104.646 75.5734C102.244 75.5734 100.358 74.6344 98.9871 72.7559H98.9885ZM107.28 64.6956V63.1023C107.28 62.3019 107.033 61.6626 106.541 61.1854C106.048 60.7087 105.417 60.4696 104.647 60.4696C103.784 60.4696 103.103 60.7779 102.603 61.3937C102.102 62.0094 101.852 62.8484 101.852 63.9105C101.852 64.9428 102.106 65.7741 102.614 66.4052C103.123 67.0368 103.792 67.3524 104.623 67.3524C105.086 67.3524 105.52 67.2331 105.928 66.9945C106.336 66.7559 106.664 66.4326 106.91 66.0242C107.156 65.6163 107.28 65.1728 107.28 64.6956Z" fill="white"/>
    <path d="M114.047 57.7902H117.211V58.9221H117.257C117.781 58.3987 118.324 58.0216 118.886 57.7902C119.448 57.5593 120.091 57.4434 120.815 57.4434C121.877 57.4434 122.793 57.7551 123.563 58.379C124.333 59.0024 124.872 59.8529 125.18 60.9309L122.085 61.9474C121.73 60.9463 120.999 60.446 119.89 60.446C119.058 60.446 118.427 60.6885 117.996 61.1738C117.565 61.6587 117.349 62.325 117.349 63.1711V70.0308H114.047L114.047 57.7902Z" fill="white"/>
    <path d="M126.888 66.753C126.888 65.6134 127.277 64.7283 128.054 64.0972C128.832 63.466 130.129 63.0042 131.946 62.7113C132.9 62.5578 133.551 62.3842 133.898 62.1918C134.244 61.9993 134.418 61.741 134.418 61.4182C134.418 61.0483 134.248 60.7563 133.909 60.5403C133.57 60.3253 133.109 60.2171 132.524 60.2171C131.861 60.2171 131.288 60.4177 130.803 60.8174C130.318 61.2181 130.006 61.7497 129.868 62.4111L126.796 61.7184C126.949 60.8867 127.296 60.1478 127.835 59.5013C128.374 58.8548 129.051 58.3502 129.868 57.9884C130.684 57.6267 131.569 57.4453 132.524 57.4453C134.094 57.4453 135.349 57.8845 136.288 58.7619C137.227 59.6393 137.697 60.8097 137.697 62.2726V70.0328H134.74V68.67H134.694C134.34 69.2092 133.843 69.6287 133.204 69.9288C132.565 70.229 131.845 70.3791 131.045 70.3791C130.244 70.3791 129.528 70.2252 128.897 69.9173C128.265 69.6094 127.773 69.1784 127.419 68.6243C127.065 68.0701 126.888 67.4462 126.888 66.753ZM134.556 65.4826V64.0967H134.509C134.371 64.3271 134.139 64.5123 133.817 64.6508C133.493 64.7894 132.985 64.9279 132.292 65.0665C131.43 65.2512 130.838 65.4475 130.514 65.6553C130.191 65.8636 130.029 66.1517 130.029 66.5216C130.029 66.8757 130.171 67.1451 130.456 67.3303C130.741 67.515 131.153 67.6073 131.692 67.6073C132.184 67.6073 132.654 67.5111 133.101 67.3182C133.547 67.1263 133.901 66.8646 134.163 66.5332C134.425 66.2022 134.556 65.852 134.556 65.4826Z" fill="white"/>
    <path d="M140.722 57.7914H143.632V58.8541H143.678C143.94 58.4385 144.274 58.119 144.683 57.8954C145.091 57.6722 145.541 57.5605 146.034 57.5605C147.004 57.5605 147.781 58.0147 148.367 58.9233H148.413C149.029 58.0147 149.876 57.5605 150.953 57.5605C151.846 57.5605 152.57 57.8761 153.125 58.5077C153.68 59.1393 153.957 59.9624 153.957 60.9793V70.0325H150.908V61.5566C150.908 61.2025 150.815 60.9327 150.631 60.7479C150.446 60.5632 150.184 60.4709 149.845 60.4709C149.522 60.4709 149.264 60.5748 149.072 60.7826C148.879 60.9904 148.783 61.2718 148.783 61.6254V70.0325H145.896V61.5566C145.896 61.2179 145.807 60.9524 145.63 60.76C145.453 60.5675 145.203 60.4709 144.879 60.4709C144.541 60.4709 144.271 60.5748 144.071 60.7826C143.871 60.9904 143.771 61.2718 143.771 61.6254V70.0325H140.722V57.7919L140.722 57.7914Z" fill="white"/>
    <defs>
      <linearGradient id="paint0_linear_1999_1404" x1="-0.423801" y1="44.116" x2="27.163" y2="71.7028" gradientUnits="userSpaceOnUse">
        <stop stop-color="#F47D51"/>
        <stop offset="0.96" stop-color="#DF72AC"/>
      </linearGradient>
      <linearGradient id="paint1_linear_1999_1404" x1="27.0971" y1="53.2972" x2="36.3418" y2="62.5419" gradientUnits="userSpaceOnUse">
        <stop stop-color="#F15D4C"/>
        <stop offset="1" stop-color="#C36CA1"/>
      </linearGradient>
      <linearGradient id="paint2_linear_1999_1404" x1="18.1612" y1="30.5671" x2="33.8927" y2="46.2986" gradientUnits="userSpaceOnUse">
        <stop stop-color="#B46947"/>
        <stop offset="0.896" stop-color="#AE5262"/>
      </linearGradient>
      <linearGradient id="paint3_linear_1999_1404" x1="33.7514" y1="0" x2="33.7514" y2="38.9914" gradientUnits="userSpaceOnUse">
        <stop stop-color="#FFD663"/>
        <stop offset="1" stop-color="#F26C7D"/>
      </linearGradient>
      <linearGradient id="paint4_linear_1999_1404" x1="7.20506" y1="15.3732" x2="20.3048" y2="28.4729" gradientUnits="userSpaceOnUse">
        <stop stop-color="#FFF171"/>
        <stop offset="1" stop-color="#FAB382"/>
      </linearGradient>
      <linearGradient id="paint5_linear_1999_1404" x1="8.90043" y1="30.1678" x2="27.2686" y2="48.536" gradientUnits="userSpaceOnUse">
        <stop stop-color="#D48A3D"/>
        <stop offset="0.795" stop-color="#DB474E"/>
      </linearGradient>
    </defs>
  </svg>