<svg width="182" height="79" viewBox="0 0 182 79" fill="none" xmlns="http://www.w3.org/2000/svg">
    <g clip-path="url(#clip0_1788_36)">
        <path d="M23.2113 58.0353V76.3751L0.710022 43.7026L23.2113 58.0353Z"
            fill="url(#paint0_linear_1788_36)" />
        <path d="M45.5581 43.7026L23.2113 76.3751V58.0353L45.5581 43.7026Z"
            fill="url(#paint1_linear_1788_36)" />
        <path d="M45.5581 39.0788L23.2113 26.2874V53.4114L45.5581 39.0788Z"
            fill="url(#paint2_linear_1788_36)" />
        <path d="M45.5581 39.0788L23.2113 0.0874023V26.2874L45.5581 39.0788Z"
            fill="url(#paint3_linear_1788_36)" />
        <path d="M23.2113 0.0874023V26.2874L0.710022 39.0788L23.2113 0.0874023Z"
            fill="url(#paint4_linear_1788_36)" />
        <path d="M23.2113 26.2874V53.4114L0.710022 39.0788L23.2113 26.2874Z"
            fill="url(#paint5_linear_1788_36)" />
        <path
            d="M56.6644 13.9944C56.6644 12.7167 56.9261 11.5848 57.4495 10.5992C57.9729 9.61401 58.7041 8.85204 59.6435 8.31279C60.5825 7.77402 61.6682 7.50464 62.9002 7.50464C64.0855 7.50464 65.1443 7.78172 66.076 8.33636C67.0073 8.89052 67.7351 9.66837 68.2585 10.6689C68.7819 11.67 69.0436 12.8091 69.0436 14.0872V15.057H59.9668C60.013 15.8272 60.3054 16.4506 60.8447 16.9278C61.3835 17.4055 62.0916 17.6436 62.9695 17.6436C63.5852 17.6436 64.1547 17.5089 64.6786 17.2395C65.202 16.9701 65.7715 16.5045 66.3877 15.8426L68.4432 17.9442C67.7347 18.7298 66.9188 19.3417 65.9952 19.7804C65.0716 20.2191 64.0624 20.4384 62.9695 20.4384C61.7221 20.4384 60.6215 20.1686 59.6666 19.6298C58.7117 19.091 57.9729 18.3329 57.4495 17.3549C56.9261 16.3775 56.6644 15.2571 56.6644 13.9944ZM65.7181 12.6547C65.6566 11.9774 65.3602 11.4155 64.8287 10.9686C64.2976 10.5222 63.6545 10.299 62.9002 10.299C62.1151 10.299 61.4681 10.5145 60.9601 10.9455C60.4522 11.3766 60.1366 11.9466 60.0135 12.6547H65.7181Z"
            fill="#30354B" />
        <path
            d="M71.1453 13.9713C71.1453 12.709 71.407 11.5887 71.9303 10.6107C72.4537 9.63324 73.1892 8.87079 74.1359 8.32433C75.0826 7.77786 76.1645 7.50415 77.381 7.50415C78.8131 7.50415 80.0446 7.89668 81.0764 8.68222C82.1077 9.46729 82.8086 10.5222 83.1781 11.8465L79.9912 12.7239C79.8372 12.0466 79.5443 11.5112 79.1133 11.1187C78.6822 10.7262 78.1045 10.5299 77.381 10.5299C76.4574 10.5299 75.7373 10.8339 75.2216 11.442C74.7055 12.0505 74.4481 12.8933 74.4481 13.9708C74.4481 15.0483 74.7059 15.8916 75.2216 16.4996C75.7373 17.1082 76.4574 17.4117 77.381 17.4117C78.1045 17.4117 78.6818 17.2154 79.1133 16.8229C79.5443 16.4304 79.8367 15.8955 79.9912 15.2177L83.1781 16.0951C82.8086 17.4194 82.1077 18.4738 81.0764 19.2594C80.0446 20.0445 78.8131 20.4375 77.381 20.4375C76.1645 20.4375 75.0831 20.1638 74.1359 19.6173C73.1887 19.0708 72.4532 18.3089 71.9303 17.3309C71.407 16.3534 71.1453 15.2331 71.1453 13.9703V13.9713Z"
            fill="#30354B" />
        <path
            d="M85.1643 13.9713C85.1643 12.709 85.426 11.5887 85.9493 10.6107C86.4727 9.63324 87.2082 8.87079 88.1549 8.32433C89.1016 7.77786 90.1835 7.50415 91.4 7.50415C92.6315 7.50415 93.7211 7.77786 94.6678 8.32433C95.6149 8.87079 96.35 9.63324 96.8733 10.6107C97.3967 11.5887 97.6589 12.709 97.6589 13.9713C97.6589 15.2335 97.3967 16.3544 96.8733 17.3319C96.35 18.3098 95.6149 19.0718 94.6678 19.6182C93.7206 20.1647 92.6315 20.4384 91.4 20.4384C90.1835 20.4384 89.1021 20.1647 88.1549 19.6182C87.2078 19.0718 86.4722 18.3098 85.9493 17.3319C85.426 16.3544 85.1643 15.234 85.1643 13.9713ZM94.356 13.9713C94.356 12.8938 94.0982 12.0505 93.5825 11.4424C93.0669 10.8344 92.339 10.5304 91.4 10.5304C90.4764 10.5304 89.7563 10.8344 89.2406 11.4424C88.7245 12.051 88.4671 12.8938 88.4671 13.9713C88.4671 15.0488 88.725 15.8921 89.2406 16.5001C89.7563 17.1086 90.4764 17.4122 91.4 17.4122C92.3236 17.4122 93.0471 17.1043 93.571 16.4886C94.0944 15.8729 94.356 15.0334 94.356 13.9713Z"
            fill="#30354B" />
        <path
            d="M99.5061 16.0499L102.509 15.3572C102.724 16.1273 103.113 16.7161 103.675 17.1241C104.237 17.532 104.949 17.7359 105.811 17.7359C106.581 17.7359 107.17 17.6436 107.578 17.4589C107.986 17.2741 108.19 17.0124 108.19 16.6733C108.19 16.289 107.982 15.9922 107.566 15.7843C107.151 15.5765 106.388 15.3649 105.28 15.1494C103.463 14.8107 102.165 14.3407 101.388 13.7404C100.611 13.1396 100.221 12.3165 100.221 11.2693C100.221 10.5299 100.437 9.87618 100.868 9.30614C101.299 8.73659 101.904 8.29403 102.681 7.97798C103.459 7.66242 104.348 7.50464 105.349 7.50464C106.72 7.50464 107.936 7.84377 108.999 8.5206C110.061 9.19839 110.776 10.0994 111.146 11.2231L108.306 12.1467C108.075 11.531 107.701 11.0538 107.185 10.7146C106.67 10.376 106.05 10.2062 105.327 10.2062C104.726 10.2062 104.249 10.3029 103.895 10.4953C103.54 10.6877 103.364 10.9537 103.364 11.2919C103.364 11.6002 103.56 11.8504 103.952 12.0428C104.345 12.2352 105.057 12.4238 106.089 12.6085C107.967 12.9625 109.311 13.4513 110.119 14.0747C110.927 14.6982 111.332 15.5645 111.332 16.6728C111.332 17.4276 111.104 18.0895 110.65 18.6591C110.196 19.2291 109.549 19.6678 108.71 19.9752C107.871 20.2831 106.905 20.437 105.812 20.437C104.149 20.437 102.767 20.0522 101.666 19.2825C100.565 18.5123 99.8457 17.4348 99.507 16.0489L99.5061 16.0499Z"
            fill="#30354B" />
        <path
            d="M117.798 19.6068L112.924 7.85107H116.389L119.437 15.6805H119.484L122.509 7.85107H125.974L118.86 25.2884H115.419L117.798 19.6068Z"
            fill="#30354B" />
        <path
            d="M126.62 16.0499L129.622 15.3572C129.837 16.1273 130.226 16.7161 130.788 17.1241C131.351 17.532 132.062 17.7359 132.925 17.7359C133.695 17.7359 134.283 17.6436 134.691 17.4589C135.099 17.2741 135.303 17.0124 135.303 16.6733C135.303 16.289 135.096 15.9922 134.68 15.7843C134.264 15.5765 133.502 15.3649 132.393 15.1494C130.577 14.8107 129.279 14.3407 128.501 13.7404C127.724 13.1396 127.335 12.3165 127.335 11.2693C127.335 10.5299 127.55 9.87618 127.982 9.30614C128.413 8.73659 129.017 8.29403 129.795 7.97798C130.572 7.66242 131.462 7.50464 132.463 7.50464C133.833 7.50464 135.049 7.84377 136.112 8.5206C137.174 9.19839 137.89 10.0994 138.26 11.2231L135.419 12.1467C135.188 11.531 134.815 11.0538 134.299 10.7146C133.783 10.376 133.164 10.2062 132.44 10.2062C131.839 10.2062 131.362 10.3029 131.008 10.4953C130.654 10.6877 130.477 10.9537 130.477 11.2919C130.477 11.6002 130.673 11.8504 131.066 12.0428C131.458 12.2352 132.171 12.4238 133.202 12.6085C135.081 12.9625 136.424 13.4513 137.232 14.0747C138.041 14.6982 138.445 15.5645 138.445 16.6728C138.445 17.4276 138.218 18.0895 137.764 18.6591C137.31 19.2291 136.663 19.6678 135.824 19.9752C134.984 20.2831 134.018 20.437 132.926 20.437C131.263 20.437 129.881 20.0522 128.78 19.2825C127.679 18.5123 126.959 17.4348 126.621 16.0489L126.62 16.0499Z"
            fill="#30354B" />
        <path
            d="M146.39 10.807V15.7267C146.39 16.1423 146.486 16.4425 146.679 16.6277C146.871 16.8124 147.19 16.9047 147.637 16.9047H150.432V20.0916H147.337C145.982 20.0916 144.935 19.7722 144.196 19.1329C143.457 18.4941 143.087 17.582 143.087 16.3963V10.807H140.085V7.85055H143.087V4.73291H146.39V7.85055H151.194V10.807H146.39Z"
            fill="#30354B" />
        <path
            d="M153.411 13.9944C153.411 12.7167 153.672 11.5848 154.196 10.5992C154.719 9.61401 155.451 8.85204 156.39 8.31279C157.329 7.77402 158.415 7.50464 159.647 7.50464C160.833 7.50464 161.891 7.78172 162.823 8.33636C163.755 8.891 164.482 9.66837 165.005 10.6689C165.529 11.67 165.791 12.8091 165.791 14.0872V15.057H156.715C156.761 15.8272 157.053 16.4506 157.592 16.9278C158.131 17.4055 158.839 17.6436 159.717 17.6436C160.332 17.6436 160.902 17.5089 161.426 17.2395C161.949 16.9701 162.519 16.5045 163.135 15.8426L165.191 17.9442C164.482 18.7298 163.666 19.3417 162.742 19.7804C161.818 20.2191 160.81 20.4384 159.717 20.4384C158.469 20.4384 157.368 20.1686 156.414 19.6298C155.46 19.091 154.72 18.3329 154.197 17.3549C153.673 16.3775 153.412 15.2571 153.412 13.9944H153.411ZM162.464 12.6547C162.402 11.9774 162.106 11.4155 161.575 10.9686C161.044 10.5222 160.401 10.299 159.646 10.299C158.861 10.299 158.214 10.5145 157.706 10.9455C157.198 11.3766 156.882 11.9466 156.759 12.6547H162.464H162.464Z"
            fill="#30354B" />
        <path
            d="M168.007 7.85101H170.916V8.91315H170.963C171.225 8.49753 171.559 8.17812 171.967 7.95443C172.375 7.73171 172.826 7.61963 173.319 7.61963C174.289 7.61963 175.066 8.07373 175.652 8.98242H175.698C176.314 8.07421 177.161 7.61963 178.238 7.61963C179.131 7.61963 179.855 7.93519 180.41 8.56632C180.964 9.19793 181.241 10.0215 181.241 11.0374V20.0911H178.193V11.6157C178.193 11.2616 178.1 10.9922 177.916 10.8075C177.731 10.6228 177.469 10.5304 177.13 10.5304C176.807 10.5304 176.549 10.6343 176.357 10.8421C176.164 11.0499 176.068 11.3314 176.068 11.6849V20.0921H173.181V11.6157C173.181 11.277 173.092 11.0119 172.915 10.819C172.738 10.6266 172.487 10.5304 172.164 10.5304C171.826 10.5304 171.556 10.6343 171.356 10.8421C171.155 11.0499 171.055 11.3314 171.055 11.6849V20.0921H168.007V7.85101H168.007Z"
            fill="#30354B" />
        <path
            d="M56.9877 41.064L59.9899 40.3713C60.2054 41.142 60.5941 41.7303 61.1564 42.1382C61.7183 42.5466 62.4302 42.7501 63.2927 42.7501C64.0624 42.7501 64.6517 42.6582 65.0596 42.473C65.4675 42.2883 65.6715 42.0266 65.6715 41.688C65.6715 41.3031 65.4637 41.0063 65.048 40.7985C64.6324 40.5902 63.8705 40.379 62.7617 40.1635C60.9448 39.8249 59.6474 39.3549 58.87 38.7546C58.0926 38.1542 57.704 37.3307 57.704 36.2834C57.704 35.5441 57.9195 34.8903 58.3505 34.3203C58.7815 33.7508 59.3857 33.3082 60.1635 32.9921C60.9409 32.6766 61.8299 32.5188 62.8309 32.5188C64.2009 32.5188 65.4175 32.8579 66.4801 33.5348C67.5423 34.2125 68.2585 35.1135 68.628 36.2373L65.7874 37.1613C65.5565 36.5456 65.1827 36.0679 64.6671 35.7293C64.1509 35.3906 63.5313 35.2208 62.8078 35.2208C62.2075 35.2208 61.7298 35.3175 61.3758 35.5099C61.0212 35.7023 60.8447 35.9684 60.8447 36.3065C60.8447 36.6149 61.041 36.865 61.4335 37.057C61.826 37.2494 62.538 37.4379 63.5698 37.6231C65.4483 37.9772 66.7918 38.4659 67.6 39.0898C68.4081 39.7133 68.8127 40.5796 68.8127 41.688C68.8127 42.4422 68.5851 43.1046 68.131 43.6742C67.6769 44.2442 67.0299 44.6829 66.191 44.9903C65.3516 45.2982 64.3857 45.4521 63.2922 45.4521C61.6293 45.4521 60.2472 45.0678 59.1466 44.2976C58.0455 43.5279 57.3263 42.4499 56.9877 41.064Z"
            fill="#30354B" />
        <path
            d="M70.9144 40.9487V32.8652H74.2172V40.1867C74.2172 41.6803 74.9561 42.4269 76.4343 42.4269C77.0962 42.4269 77.6239 42.223 78.0165 41.815C78.409 41.4071 78.6053 40.8645 78.6053 40.1867V32.8652H81.9081V45.1058H78.7438V44.0201H78.6976C78.3585 44.4511 77.8929 44.798 77.3002 45.0597C76.7071 45.3214 76.0875 45.4517 75.441 45.4517C73.9935 45.4517 72.8775 45.0558 72.0924 44.2626C71.3074 43.4693 70.9144 42.3649 70.9144 40.9477V40.9487Z"
            fill="#30354B" />
        <path
            d="M85.6261 32.8651H88.7904V33.9273H88.8366C89.7448 32.9883 90.8921 32.5183 92.2779 32.5183C93.355 32.5183 94.3219 32.7882 95.1762 33.3265C96.0306 33.8657 96.6963 34.6238 97.1735 35.6013C97.6507 36.5793 97.8898 37.7068 97.8898 38.9845C97.8898 40.2169 97.6507 41.3252 97.1735 42.3104C96.6963 43.2961 96.0262 44.0657 95.1642 44.6204C94.3017 45.1741 93.3242 45.4516 92.2308 45.4516C91.5381 45.4516 90.9147 45.3439 90.36 45.1284C89.8059 44.9133 89.3441 44.6204 88.9741 44.2509H88.928V50.302H85.6251V32.8647L85.6261 32.8651ZM94.5869 38.9854C94.5869 37.9387 94.3248 37.1036 93.8014 36.4797C93.278 35.8563 92.5545 35.5446 91.6305 35.5446C90.8916 35.5446 90.2566 35.8029 89.725 36.3181C89.194 36.8342 88.9284 37.4615 88.9284 38.2004V39.7936C88.9284 40.2559 89.0516 40.6864 89.2979 41.0866C89.5442 41.4874 89.8867 41.8106 90.3254 42.0569C90.7646 42.3037 91.2528 42.4268 91.7921 42.4268C92.6541 42.4268 93.3358 42.1151 93.836 41.4917C94.3363 40.8678 94.5869 40.0332 94.5869 38.9854Z"
            fill="#30354B" />
        <path
            d="M100.106 32.8651H103.271V33.9273H103.317C104.226 32.9883 105.372 32.5183 106.758 32.5183C107.835 32.5183 108.802 32.7882 109.657 33.3265C110.511 33.8657 111.177 34.6238 111.654 35.6013C112.131 36.5793 112.37 37.7068 112.37 38.9845C112.37 40.2169 112.131 41.3252 111.654 42.3104C111.177 43.2961 110.507 44.0657 109.645 44.6204C108.782 45.1741 107.805 45.4516 106.711 45.4516C106.018 45.4516 105.395 45.3439 104.84 45.1284C104.286 44.9133 103.824 44.6204 103.454 44.2509H103.408V50.302H100.105V32.8647L100.106 32.8651ZM109.068 38.9854C109.068 37.9387 108.806 37.1036 108.282 36.4797C107.759 35.8563 107.035 35.5446 106.111 35.5446C105.372 35.5446 104.737 35.8029 104.206 36.3181C103.675 36.8342 103.409 37.4615 103.409 38.2004V39.7936C103.409 40.2559 103.532 40.6864 103.779 41.0866C104.025 41.4874 104.368 41.8106 104.807 42.0569C105.245 42.3037 105.734 42.4268 106.273 42.4268C107.135 42.4268 107.817 42.1151 108.317 41.4917C108.818 40.8678 109.068 40.0332 109.068 38.9854H109.068Z"
            fill="#30354B" />
        <path
            d="M114.588 38.9855C114.588 37.7232 114.849 36.6033 115.373 35.6254C115.896 34.6479 116.632 33.8854 117.579 33.339C118.526 32.7925 119.607 32.5188 120.824 32.5188C122.055 32.5188 123.145 32.7925 124.092 33.339C125.039 33.8854 125.774 34.6479 126.297 35.6254C126.821 36.6033 127.083 37.7232 127.083 38.9855C127.083 40.2477 126.821 41.3685 126.297 42.346C125.774 43.324 125.039 44.086 124.092 44.6324C123.145 45.1789 122.055 45.4521 120.824 45.4521C119.607 45.4521 118.526 45.1789 117.579 44.6324C116.632 44.086 115.896 43.324 115.373 42.346C114.849 41.3685 114.588 40.2482 114.588 38.9855ZM123.78 38.9855C123.78 37.9084 123.522 37.0651 123.006 36.4566C122.49 35.8486 121.762 35.5446 120.824 35.5446C119.9 35.5446 119.18 35.8486 118.665 36.4566C118.148 37.0651 117.891 37.9084 117.891 38.9855C117.891 40.0625 118.148 40.9067 118.665 41.5148C119.18 42.1233 119.9 42.4268 120.824 42.4268C121.747 42.4268 122.471 42.119 122.995 41.5028C123.518 40.8875 123.78 40.0481 123.78 38.9855H123.78Z"
            fill="#30354B" />
        <path
            d="M129.623 32.8652H132.787V33.997H132.833C133.356 33.4737 133.899 33.0961 134.461 32.8652C135.023 32.6342 135.666 32.5188 136.39 32.5188C137.452 32.5188 138.368 32.8305 139.138 33.4539C139.908 34.0774 140.447 34.9283 140.755 36.0064L137.66 37.0228C137.305 36.0218 136.574 35.5215 135.465 35.5215C134.634 35.5215 134.003 35.7639 133.572 36.2488C133.141 36.7337 132.925 37.3999 132.925 38.2466V45.1062H129.622V32.8656L129.623 32.8652Z"
            fill="#30354B" />
        <path
            d="M148.699 35.8212V40.7408C148.699 41.1564 148.795 41.4566 148.988 41.6413C149.18 41.8265 149.5 41.9184 149.947 41.9184H152.742V45.1058H149.647C148.292 45.1058 147.244 44.7864 146.505 44.1476C145.767 43.5087 145.397 42.5962 145.397 41.4109V35.8217H142.394V32.8652H145.397V29.7476H148.699V32.8652H153.503V35.8217H148.699V35.8212Z"
            fill="#30354B" />
        <path
            d="M57.1262 57.8795H60.2905V58.9422H60.3367C61.2449 58.0032 62.3922 57.5327 63.7781 57.5327C64.8556 57.5327 65.822 57.8026 66.6764 58.3413C67.5312 58.8806 68.197 59.6387 68.6741 60.6162C69.1513 61.5942 69.3899 62.7217 69.3899 63.9994C69.3899 65.2318 69.1509 66.3401 68.6741 67.3253C68.1965 68.311 67.5269 69.0806 66.6648 69.6353C65.8023 70.1889 64.8248 70.4665 63.7319 70.4665C63.0392 70.4665 62.4153 70.3588 61.8611 70.1432C61.307 69.9282 60.8452 69.6353 60.4753 69.2658H60.4291V75.3169H57.1262V57.8795ZM66.0871 63.9999C66.0871 62.9531 65.8254 62.118 65.302 61.4941C64.7787 60.8707 64.0547 60.559 63.1311 60.559C62.3922 60.559 61.7572 60.8168 61.2257 61.3325C60.6946 61.8486 60.4291 62.4759 60.4291 63.2148V64.808C60.4291 65.2703 60.5522 65.7008 60.7985 66.101C61.0448 66.5018 61.3873 66.825 61.826 67.0713C62.2652 67.3181 62.7535 67.4412 63.2927 67.4412C64.1547 67.4412 64.8359 67.1295 65.3367 66.5061C65.837 65.8822 66.0871 65.0476 66.0871 63.9999Z"
            fill="#30354B" />
        <path
            d="M71.6994 57.8795H74.8637V59.0114H74.9099C75.4333 58.4881 75.9759 58.1109 76.5382 57.8795C77.1001 57.6486 77.7428 57.5327 78.4667 57.5327C79.5289 57.5327 80.4453 57.8444 81.2149 58.4683C81.9851 59.0918 82.5234 59.9423 82.8317 61.0203L79.7367 62.0367C79.3826 61.0357 78.6514 60.5354 77.5426 60.5354C76.7109 60.5354 76.0798 60.7778 75.6488 61.2632C75.2178 61.7481 75.0023 62.4143 75.0023 63.2605V70.1202H71.6994V57.8795Z"
            fill="#30354B" />
        <path
            d="M84.2402 63.9999C84.2402 62.7376 84.5019 61.6177 85.0253 60.6398C85.5486 59.6623 86.2842 58.9003 87.2308 58.3534C88.1775 57.8069 89.2594 57.5332 90.476 57.5332C91.7074 57.5332 92.797 57.8069 93.7442 58.3534C94.6913 58.9003 95.4259 59.6623 95.9493 60.6398C96.4726 61.6177 96.7348 62.7376 96.7348 63.9999C96.7348 65.2621 96.4726 66.3829 95.9493 67.3604C95.4259 68.3384 94.6913 69.1004 93.7442 69.6468C92.797 70.1933 91.7074 70.4665 90.476 70.4665C89.2594 70.4665 88.178 70.1933 87.2308 69.6468C86.2837 69.1004 85.5482 68.3384 85.0253 67.3604C84.5019 66.3829 84.2402 65.2626 84.2402 63.9999ZM93.4324 63.9999C93.4324 62.9228 93.1741 62.0795 92.6585 61.471C92.1428 60.863 91.4154 60.559 90.4764 60.559C89.5528 60.559 88.8327 60.8635 88.317 61.471C87.8009 62.0795 87.5435 62.9228 87.5435 63.9999C87.5435 65.0769 87.8014 65.9211 88.317 66.5292C88.8327 67.1377 89.5528 67.4412 90.4764 67.4412C91.4 67.4412 92.124 67.1334 92.6474 66.5172C93.1708 65.9019 93.4329 65.0625 93.4329 63.9999H93.4324Z"
            fill="#30354B" />
        <path
            d="M99.6215 72.8453L102.139 70.9288C102.601 71.5907 103.066 72.0564 103.536 72.3257C104.006 72.5951 104.587 72.7303 105.28 72.7303C106.142 72.7303 106.827 72.4912 107.335 72.014C107.843 71.5368 108.097 70.8749 108.097 70.0278V69.1504H108.051C107.604 69.6122 107.131 69.947 106.631 70.1553C106.13 70.3631 105.525 70.4665 104.817 70.4665C103.708 70.4665 102.727 70.1933 101.873 69.6468C101.018 69.1003 100.356 68.3384 99.8866 67.3604C99.4161 66.3829 99.1819 65.2626 99.1819 63.9999C99.1819 62.753 99.4243 61.6408 99.9097 60.6624C100.395 59.6849 101.064 58.9186 101.919 58.3644C102.774 57.8103 103.747 57.5327 104.84 57.5327C105.533 57.5327 106.126 57.6333 106.619 57.8334C107.111 58.0335 107.566 58.3413 107.982 58.757H108.028V57.8795H111.215V70.1663C111.215 71.2439 110.965 72.1992 110.464 73.0305C109.963 73.8622 109.267 74.5082 108.374 74.97C107.481 75.4323 106.449 75.6627 105.279 75.6627C102.877 75.6627 100.991 74.7237 99.6201 72.8453H99.6215ZM107.913 64.7849V63.1917C107.913 62.3912 107.666 61.7519 107.174 61.2747C106.681 60.798 106.05 60.559 105.28 60.559C104.417 60.559 103.736 60.8673 103.236 61.483C102.735 62.0988 102.485 62.9377 102.485 63.9999C102.485 65.0322 102.739 65.8634 103.247 66.4945C103.756 67.1262 104.425 67.4417 105.256 67.4417C105.719 67.4417 106.153 67.3224 106.562 67.0838C106.969 66.8452 107.297 66.522 107.543 66.1136C107.789 65.7056 107.913 65.2621 107.913 64.7849Z"
            fill="#30354B" />
        <path
            d="M114.68 57.8795H117.844V59.0114H117.89C118.413 58.4881 118.957 58.1109 119.518 57.8795C120.081 57.6486 120.723 57.5327 121.447 57.5327C122.51 57.5327 123.425 57.8444 124.196 58.4683C124.966 59.0918 125.505 59.9423 125.812 61.0203L122.717 62.0367C122.363 61.0357 121.632 60.5354 120.523 60.5354C119.691 60.5354 119.06 60.7778 118.629 61.2632C118.198 61.7481 117.982 62.4143 117.982 63.2605V70.1202H114.68L114.68 57.8795Z"
            fill="#30354B" />
        <path
            d="M127.521 66.8409C127.521 65.7013 127.91 64.8162 128.687 64.1851C129.464 63.5539 130.762 63.0921 132.579 62.7992C133.533 62.6457 134.184 62.4721 134.531 62.2796C134.877 62.0872 135.05 61.8289 135.05 61.5061C135.05 61.1362 134.881 60.8442 134.542 60.6282C134.203 60.4132 133.741 60.305 133.156 60.305C132.494 60.305 131.921 60.5056 131.436 60.9053C130.95 61.306 130.639 61.8376 130.501 62.499L127.429 61.8063C127.582 60.9746 127.929 60.2357 128.468 59.5892C129.007 58.9427 129.684 58.438 130.501 58.0763C131.316 57.7146 132.202 57.5332 133.156 57.5332C134.727 57.5332 135.982 57.9724 136.921 58.8498C137.86 59.7272 138.33 60.8976 138.33 62.3605V70.1206H135.373V68.7579H135.327C134.973 69.2971 134.476 69.7166 133.837 70.0167C133.198 70.3169 132.478 70.467 131.678 70.467C130.877 70.467 130.161 70.3131 129.53 70.0052C128.898 69.6973 128.406 69.2663 128.052 68.7122C127.698 68.158 127.521 67.5341 127.521 66.8409ZM135.188 65.5705V64.1846H135.142C135.004 64.415 134.772 64.6002 134.45 64.7387C134.126 64.8773 133.618 65.0158 132.925 65.1544C132.063 65.3391 131.47 65.5353 131.147 65.7432C130.823 65.9514 130.662 66.2396 130.662 66.6095C130.662 66.9636 130.804 67.2329 131.089 67.4182C131.374 67.6029 131.785 67.6952 132.325 67.6952C132.817 67.6952 133.287 67.599 133.734 67.4061C134.18 67.2142 134.534 66.9525 134.796 66.6211C135.058 66.2901 135.188 65.9399 135.188 65.5705Z"
            fill="#30354B" />
        <path
            d="M141.355 57.8796H144.265V58.9422H144.311C144.573 58.5266 144.907 58.2072 145.316 57.9835C145.724 57.7603 146.174 57.6487 146.667 57.6487C147.637 57.6487 148.415 58.1028 149 59.0115H149.046C149.662 58.1028 150.509 57.6487 151.587 57.6487C152.479 57.6487 153.203 57.9642 153.758 58.5959C154.313 59.2275 154.59 60.0505 154.59 61.0675V70.1207H151.541V61.6447C151.541 61.2907 151.449 61.0208 151.264 60.8361C151.079 60.6514 150.817 60.559 150.478 60.559C150.155 60.559 149.897 60.6629 149.705 60.8707C149.512 61.0785 149.416 61.3599 149.416 61.7135V70.1207H146.529V61.6447C146.529 61.3061 146.44 61.0405 146.263 60.8481C146.086 60.6557 145.836 60.559 145.513 60.559C145.174 60.559 144.904 60.6629 144.704 60.8707C144.504 61.0785 144.404 61.3599 144.404 61.7135V70.1207H141.355V57.8801L141.355 57.8796Z"
            fill="#30354B" />
    </g>
    <defs>
        <linearGradient id="paint0_linear_1788_36" x1="0.209256" y1="44.2034" x2="27.7961"
            y2="71.7902" gradientUnits="userSpaceOnUse">
            <stop stop-color="#F47D51" />
            <stop offset="0.96" stop-color="#DF72AC" />
        </linearGradient>
        <linearGradient id="paint1_linear_1788_36" x1="27.7302" y1="53.3846" x2="36.9749"
            y2="62.6293" gradientUnits="userSpaceOnUse">
            <stop stop-color="#F15D4C" />
            <stop offset="1" stop-color="#C36CA1" />
        </linearGradient>
        <linearGradient id="paint2_linear_1788_36" x1="18.7943" y1="30.6552" x2="34.5259"
            y2="46.3868" gradientUnits="userSpaceOnUse">
            <stop stop-color="#B46947" />
            <stop offset="0.896" stop-color="#AE5262" />
        </linearGradient>
        <linearGradient id="paint3_linear_1788_36" x1="34.3845" y1="0.0874023" x2="34.3845"
            y2="39.0788" gradientUnits="userSpaceOnUse">
            <stop stop-color="#FFD663" />
            <stop offset="1" stop-color="#F26C7D" />
        </linearGradient>
        <linearGradient id="paint4_linear_1788_36" x1="7.83811" y1="15.4606" x2="20.9379"
            y2="28.5603" gradientUnits="userSpaceOnUse">
            <stop stop-color="#FFF171" />
            <stop offset="1" stop-color="#FAB382" />
        </linearGradient>
        <linearGradient id="paint5_linear_1788_36" x1="9.53331" y1="30.256" x2="27.9014"
            y2="48.6241" gradientUnits="userSpaceOnUse">
            <stop stop-color="#D48A3D" />
            <stop offset="0.795" stop-color="#DB474E" />
        </linearGradient>
        <clipPath id="clip0_1788_36">
            <rect width="181" height="78.0251" fill="white"
                transform="translate(0.633057 0.0874023)" />
        </clipPath>
    </defs>
</svg>
    