<svg xmlns="http://www.w3.org/2000/svg" width="282" height="58" viewBox="0 0 282 58" fill="none">
    <path fill-rule="evenodd" clip-rule="evenodd"
        d="M0.264709 19.8556C0.264709 30.3774 8.82629 38.9284 19.3376 38.9284C29.8489 38.9284 38.4104 30.3774 38.4104 19.8556C38.4104 9.33376 29.8489 0.782731 19.3376 0.782731C8.82629 0.782731 0.264709 9.33376 0.264709 19.8556ZM6.62233 19.8556C6.62233 12.8411 12.323 7.14036 19.3376 7.14036C26.3522 7.14036 32.0529 12.8411 32.0529 19.8556C32.0529 26.8701 26.3522 32.5708 19.3376 32.5708C12.323 32.5708 6.62233 26.8701 6.62233 19.8556ZM37.4779 44.3536L24.7628 57.0689C24.1482 57.6941 23.3323 58.0012 22.5164 58.0012C21.7005 58.0012 20.8952 57.6941 20.27 57.0689C19.0303 55.8292 19.0303 53.8159 20.27 52.5762L32.9852 39.8609C34.225 38.6212 36.2382 38.6212 37.4779 39.8609C38.7177 41.1006 38.7177 43.1139 37.4779 44.3536ZM37.7746 3.96154C37.7746 1.86353 39.4912 0.146973 41.5892 0.146973C43.6872 0.146973 45.4038 1.86353 45.4038 3.96154C45.4038 6.05956 43.6872 7.77612 41.5892 7.77612C39.4912 7.77612 37.7746 6.05956 37.7746 3.96154ZM79.041 17.1266V42.4068H72.5884V17.1266H64.2353V11.0276H87.4825V17.1266H79.041ZM96.9847 31.6229V42.4068H90.9298V9.25967H96.9847V22.8279C98.1337 21.0601 100.432 19.8226 103.305 19.8226C108.652 19.8226 111.835 23.7119 111.835 29.4573V42.4068H105.78V30.4739C105.78 27.2917 104.41 25.3471 101.89 25.3471C99.1061 25.3471 96.9847 27.3802 96.9847 31.6229ZM138.882 35.2029C137.557 39.6667 133.181 42.893 127.569 42.893C120.806 42.893 115.989 38.0315 115.989 31.3136C115.989 24.7284 120.895 19.8226 127.612 19.8226C134.109 19.8226 139.457 24.4632 139.148 32.7721H121.911C122.177 35.3797 124.122 37.6336 127.878 37.6336C129.999 37.6336 131.855 36.7055 132.562 35.2029H138.882ZM122.132 28.7945H132.518C131.768 25.8333 129.513 24.7284 127.436 24.7284C124.652 24.7284 122.707 26.3636 122.132 28.7945ZM184.405 23.6234C185.818 36.5287 178.261 42.9372 168.936 42.9372C159.346 42.9372 152.406 35.8216 152.406 26.7172C152.406 17.6128 159.346 10.4972 168.847 10.4972C175.433 10.4972 181.532 14.3865 183.653 20.3088H176.317C174.77 18.0106 171.853 16.6846 168.847 16.6846C162.837 16.6846 158.859 21.1042 158.859 26.7172C158.859 32.3302 162.837 36.7497 168.936 36.7497C174.019 36.7497 177.068 33.9654 177.775 29.6341H168.184V23.6234H184.405ZM194.968 31.844V42.4068H188.912V20.3088H194.968V23.8445C195.719 21.6789 197.973 20.0435 200.448 20.0435C201.067 20.0435 201.729 20.0878 202.481 20.3088V26.452C201.553 26.1427 200.713 25.9659 199.741 25.9659C196.868 25.9659 194.968 28.2198 194.968 31.844ZM220.911 39.9318C219.938 41.3461 217.597 42.893 214.547 42.893C208.669 42.893 204.16 37.6336 204.16 31.3578C204.16 25.082 208.669 19.8226 214.547 19.8226C217.597 19.8226 219.938 21.3695 220.911 22.7838V20.3088H226.965V42.4068H220.911V39.9318ZM210.259 31.3578C210.259 34.8051 212.513 37.3685 215.829 37.3685C219.143 37.3685 221.397 34.8051 221.397 31.3578C221.397 27.9105 219.143 25.3471 215.829 25.3471C212.513 25.3471 210.259 27.9105 210.259 31.3578ZM238.898 39.9318V51.6438H232.843V20.3088H238.898V22.7838C239.916 21.3695 242.258 19.8226 245.307 19.8226C251.185 19.8226 255.693 25.082 255.693 31.3578C255.693 37.6336 251.185 42.893 245.307 42.893C242.258 42.893 239.916 41.3461 238.898 39.9318ZM238.412 31.3578C238.412 34.8051 240.666 37.3685 243.982 37.3685C247.296 37.3685 249.55 34.8051 249.55 31.3578C249.55 27.9105 247.296 25.3471 243.982 25.3471C240.666 25.3471 238.412 27.9105 238.412 31.3578ZM266.168 31.6229V42.4068H260.113V9.25967H266.168V22.8279C267.317 21.0601 269.615 19.8226 272.488 19.8226C277.835 19.8226 281.018 23.7119 281.018 29.4573V42.4068H274.963V30.4739C274.963 27.2917 273.592 25.3471 271.074 25.3471C268.289 25.3471 266.168 27.3802 266.168 31.6229Z"
        fill="white" />
</svg>