<svg xmlns="http://www.w3.org/2000/svg" width="183" height="67" viewBox="0 0 183 67" fill="none">
  <path d="M23.238 55.1919H13.7716V66.9966H23.238V55.1919Z" fill="url(#paint0_linear_2784_23)"/>
  <path d="M47.2848 8.40139C39.5308 1.57083 30.5401 0.999634 20.4076 0.999634H0V66.9966H6.58847V38.4844H13.7716V49.6227H23.238V38.4844H30.4211V66.592C31.4201 66.473 32.3715 66.3302 33.2991 66.1636C33.1802 66.0446 33.0613 65.9256 32.9424 65.8066C32.3239 64.9974 32.0385 63.9741 32.0385 62.9745C31.8245 60.9515 33.3467 59.1665 35.3684 58.9761C35.4636 58.9761 35.6301 58.9761 35.7252 58.9761C36.748 58.9285 37.7469 59.3331 38.4129 60.1423C39.293 61.4751 39.4595 63.1173 38.96 64.5928C42.837 63.1173 46.1193 60.9277 49.0449 57.9051C55.0625 51.5743 58.2497 43.2682 58.2497 33.8434C58.2497 23.4905 54.4679 14.7322 47.2848 8.40139Z" fill="url(#paint1_linear_2784_23)"/>
  <path d="M123.207 66.9966L90.5974 0L57.9643 66.9966H75.9696V38.6748H97.733V44.1487H83.0576V49.8845H94.5933V55.1919H83.0576V61.475H97.733V66.9966H123.207ZM103.251 58.9522C103.346 58.9522 103.513 58.9522 103.608 58.9522C104.631 58.9046 105.63 59.3092 106.296 60.1184C107.414 61.7844 107.414 63.974 106.296 65.6876C105.63 66.5444 104.631 67.0442 103.513 66.9966C102.442 67.0442 101.491 66.592 100.825 65.7828C100.207 64.9736 99.9212 63.9502 99.9212 62.9506C99.7309 60.9276 101.229 59.1426 103.251 58.9522Z" fill="url(#paint2_linear_2784_23)"/>
  <path d="M150.94 55.8107H145.779L145.636 66.3302C147.848 66.7824 150.227 66.9966 152.772 66.9966C153.723 66.9966 154.651 66.949 155.555 66.8776L150.94 55.8107Z" fill="url(#paint3_linear_2784_23)"/>
  <path d="M153.89 50.3843C155.008 49.6703 155.721 48.4565 155.65 47.1475C155.602 45.9337 154.936 44.8627 153.937 44.2677C152.463 43.7203 150.893 43.5537 149.323 43.7203H145.589V50.9555H145.636H149.537C151.012 51.0983 152.51 50.9555 153.89 50.3843Z" fill="url(#paint4_linear_2784_23)"/>
  <path d="M174.63 10.7814C169.374 4.09362 162.428 0.999634 152.772 0.999634C143.305 0.999634 135.551 4.45062 130.39 11.0908C125.776 16.8741 123.254 24.9661 123.254 33.9386C123.254 42.6494 125.847 50.8127 130.485 56.9769C132.745 59.9281 135.409 62.2129 138.524 63.8551V38.6986H151.321C154.009 38.4368 156.696 38.9604 159.122 40.1266C161.548 41.6498 163.023 44.3392 163.023 47.219C162.976 50.5509 160.835 53.5021 157.719 54.5017L162.714 65.521C163.546 65.2592 164.355 64.926 165.14 64.5928C164.95 64.0693 164.855 63.5219 164.855 62.9745C164.64 60.9515 166.163 59.1665 168.184 58.9761C168.28 58.9761 168.446 58.9761 168.541 58.9761C169.564 58.9285 170.563 59.3331 171.229 60.1423C171.324 60.2851 171.419 60.4517 171.491 60.6183C172.965 59.3331 174.321 57.8813 175.534 56.2391C180.339 49.5989 182.075 40.3884 182.075 33.9624C182.075 25.4659 179.245 16.6123 174.63 10.7814Z" fill="url(#paint5_linear_2784_23)"/>
  <defs>
    <linearGradient id="paint0_linear_2784_23" x1="-1.62437" y1="61.1041" x2="57.4461" y2="61.1041" gradientUnits="userSpaceOnUse">
      <stop stop-color="#F1F173"/>
      <stop offset="0.3697" stop-color="#81FF83"/>
    </linearGradient>
    <linearGradient id="paint1_linear_2784_23" x1="-1.62438" y1="34.0039" x2="57.4461" y2="34.0039" gradientUnits="userSpaceOnUse">
      <stop stop-color="#F1F173"/>
      <stop offset="0.3697" stop-color="#81FF83"/>
    </linearGradient>
    <linearGradient id="paint2_linear_2784_23" x1="57.9552" y1="33.4992" x2="123.208" y2="33.4992" gradientUnits="userSpaceOnUse">
      <stop stop-color="#EE7495"/>
      <stop offset="1" stop-color="#F5BD98"/>
    </linearGradient>
    <linearGradient id="paint3_linear_2784_23" x1="121.04" y1="61.408" x2="181.68" y2="61.408" gradientUnits="userSpaceOnUse">
      <stop stop-color="#5CD0FA"/>
      <stop offset="1" stop-color="#83F2D4"/>
    </linearGradient>
    <linearGradient id="paint4_linear_2784_23" x1="121.04" y1="47.326" x2="181.68" y2="47.326" gradientUnits="userSpaceOnUse">
      <stop stop-color="#5CD0FA"/>
      <stop offset="1" stop-color="#83F2D4"/>
    </linearGradient>
    <linearGradient id="paint5_linear_2784_23" x1="121.04" y1="33.2565" x2="181.68" y2="33.2565" gradientUnits="userSpaceOnUse">
      <stop stop-color="#5CD0FA"/>
      <stop offset="1" stop-color="#83F2D4"/>
    </linearGradient>
  </defs>
</svg>