<svg width="158" height="68" viewBox="0 0 158 68" fill="none" xmlns="http://www.w3.org/2000/svg">
    <g clip-path="url(#clip0_2605_62)">
    <path d="M64.9633 63.0273C64.9633 63.0929 64.9874 63.156 65.0302 63.2024C65.0732 63.2489 65.1311 63.2751 65.1916 63.2751H87.2602C87.3208 63.2751 87.3788 63.2489 87.4216 63.2024C87.4644 63.156 87.4884 63.0929 87.4884 63.0273V53.5044C87.4884 53.4387 87.4644 53.3756 87.4216 53.3291C87.3788 53.2826 87.3208 53.2566 87.2602 53.2566H74.3887C74.3283 53.2566 74.2701 53.2305 74.2273 53.184C74.1844 53.1375 74.1605 53.0744 74.1605 53.0087V21.9267C74.1589 21.8781 74.1445 21.8311 74.1186 21.7916C74.0928 21.752 74.0566 21.7214 74.0149 21.7039C73.9733 21.6862 73.9278 21.6824 73.884 21.6926C73.8403 21.7029 73.8003 21.7269 73.769 21.7615L65.0721 32.3818C65.0311 32.4255 65.0078 32.4848 65.0069 32.547V63.0155" fill="#0C152E"/>
    <path d="M100.165 63.0273V33.9276C100.166 33.8766 100.152 33.8264 100.126 33.7842C100.1 33.7417 100.062 33.7092 100.018 33.6912C99.9735 33.6732 99.9254 33.6702 99.8798 33.6831C99.8342 33.6958 99.7934 33.7235 99.7629 33.7626L91.0658 44.3827C91.0508 44.4366 91.0508 44.4942 91.0658 44.5479V63.0273C91.0658 63.0598 91.0718 63.0919 91.0833 63.1222C91.0947 63.1522 91.1116 63.1794 91.1327 63.2024C91.154 63.2255 91.1792 63.2437 91.2068 63.2563C91.2346 63.2687 91.2642 63.275 91.2941 63.275H99.9911C100.052 63.275 100.11 63.2489 100.153 63.2024C100.195 63.1561 100.219 63.093 100.219 63.0273" fill="#0C152E"/>
    <path d="M147.433 48.4186C147.409 48.376 147.397 48.3271 147.397 48.2771C147.397 48.2271 147.409 48.1779 147.433 48.1353L156.402 33.6564C156.423 33.6196 156.435 33.5776 156.435 33.5343C156.437 33.4912 156.428 33.4482 156.409 33.4101C156.391 33.3719 156.363 33.3397 156.329 33.3168C156.296 33.2936 156.257 33.2805 156.217 33.2788H146.151C146.111 33.2796 146.073 33.2908 146.039 33.3115C146.005 33.332 145.976 33.3613 145.955 33.3968L139.334 45.0438C139.309 45.0903 139.269 45.1265 139.223 45.1465C139.176 45.1664 139.125 45.1694 139.077 45.1546C139.028 45.1398 138.986 45.1083 138.956 45.0648C138.926 45.0214 138.91 44.9683 138.91 44.9139V21.9269C138.911 21.8758 138.897 21.8256 138.871 21.7832C138.845 21.741 138.807 21.7085 138.763 21.6904C138.719 21.6722 138.671 21.6694 138.625 21.6821C138.579 21.695 138.539 21.7228 138.508 21.7617L129.811 32.382C129.792 32.4351 129.792 32.4942 129.811 32.5472V63.0156C129.811 63.0814 129.835 63.1444 129.878 63.1909C129.921 63.2374 129.979 63.2634 130.039 63.2634H138.736C138.797 63.2634 138.855 63.2374 138.898 63.1909C138.941 63.1444 138.965 63.0814 138.965 63.0156V53.2449V51.3214C138.965 51.2695 138.981 51.2189 139.01 51.1772C139.039 51.1355 139.078 51.1046 139.124 51.0891C139.17 51.0733 139.219 51.0737 139.265 51.0899C139.31 51.1064 139.35 51.1378 139.378 51.1799L146.716 63.1453C146.739 63.1775 146.769 63.2035 146.803 63.2218C146.837 63.2402 146.874 63.2503 146.912 63.2515H156.63C156.672 63.251 156.713 63.2383 156.748 63.2146C156.784 63.1911 156.811 63.1573 156.831 63.1172C156.849 63.0773 156.859 63.0324 156.856 62.9873C156.853 62.9425 156.839 62.8992 156.816 62.8622L147.433 48.4186Z" fill="#0C152E"/>
    <path d="M117.047 44.395C114.797 43.8286 113.014 43.392 113.014 42.035C113.014 40.9965 113.883 40.3476 115.286 40.3476C116.003 40.3517 116.705 40.5752 117.311 40.9928C117.916 41.4102 118.401 42.0046 118.71 42.7076C118.737 42.7593 118.781 42.7984 118.833 42.818C118.885 42.8375 118.942 42.836 118.993 42.8138L125.907 39.439C125.935 39.425 125.961 39.405 125.982 39.3799C126.003 39.355 126.019 39.3255 126.03 39.2933C126.04 39.2614 126.044 39.2273 126.041 39.1935C126.039 39.1596 126.03 39.1267 126.016 39.0967C123.841 34.8722 120.21 32.7245 115.057 32.7245C107.545 32.7245 104.186 37.6688 104.186 42.566C104.186 49.2568 109.622 50.8262 113.677 51.9236C115.992 52.5726 117.677 53.0329 117.677 54.2837C117.677 55.1333 117.199 56.1482 114.96 56.1482C114.04 56.2201 113.124 55.9731 112.342 55.4429C111.56 54.9126 110.954 54.1266 110.611 53.198C110.599 53.1676 110.582 53.1399 110.56 53.1169C110.538 53.0937 110.512 53.0755 110.484 53.0635C110.456 53.0513 110.425 53.0455 110.395 53.0464C110.364 53.0473 110.334 53.0547 110.307 53.0683L103.132 56.986C103.104 56.9996 103.08 57.0194 103.06 57.0437C103.04 57.0681 103.025 57.0969 103.016 57.1279C103.007 57.159 103.004 57.1916 103.007 57.2242C103.01 57.2567 103.019 57.288 103.034 57.3164C105.132 61.7414 109.046 63.8773 114.992 63.8773C120.656 63.8773 126.711 61.3049 126.711 54.0476C126.711 46.7905 121.113 45.4335 117.036 44.4068" fill="#0C152E"/>
    <path d="M20.2396 66.5201L28.2518 56.7494C28.278 56.7132 28.2944 56.6699 28.2992 56.6241C28.3041 56.5784 28.2972 56.5321 28.2791 56.4904C28.261 56.4487 28.2326 56.4133 28.197 56.3882C28.1614 56.3631 28.1202 56.3492 28.0777 56.3481H19.2722C19.2067 56.3453 19.1445 56.3158 19.0981 56.2656L11.6187 47.144C11.5925 47.1 11.5787 47.0487 11.5787 46.9964C11.5787 46.9441 11.5925 46.8929 11.6187 46.8489L24.1206 23.5669C24.1418 23.5296 24.153 23.4869 24.153 23.443C24.153 23.3992 24.1418 23.3563 24.1206 23.3192L18.9134 13.6075C18.8931 13.5708 18.8643 13.5405 18.8301 13.5194C18.7957 13.4984 18.7571 13.4873 18.7176 13.4873C18.6782 13.4873 18.6396 13.4984 18.6052 13.5194C18.571 13.5405 18.5423 13.5708 18.522 13.6075L0.0410059 48.1233C0.0143507 48.1648 0 48.2143 0 48.265C0 48.3156 0.0143507 48.365 0.0410059 48.4066L14.9019 66.5201C14.9232 66.5471 14.95 66.5687 14.9801 66.583C15.0103 66.5973 15.043 66.604 15.0758 66.6026H20.1093C20.1421 66.604 20.1748 66.5973 20.2048 66.583C20.235 66.5687 20.2619 66.5471 20.2832 66.5201" fill="#0C152E"/>
    <path d="M25.7403 0.120135L20.522 9.8318C20.5062 9.87084 20.4981 9.91305 20.4981 9.95571C20.4981 9.99839 20.5062 10.0406 20.522 10.0796L25.9577 20.1452L40.2858 46.8493C40.3125 46.8908 40.3268 46.9403 40.3268 46.9909C40.3268 47.0416 40.3125 47.0911 40.2858 47.1326L32.7413 56.3367L24.5879 66.1901C24.5582 66.226 24.5389 66.2705 24.5323 66.318C24.5256 66.3658 24.5319 66.4145 24.5503 66.4584C24.5688 66.5022 24.5986 66.5391 24.6362 66.5649C24.6738 66.5905 24.7175 66.604 24.7618 66.6031H36.8071C36.8399 66.6045 36.8727 66.5978 36.9028 66.5835C36.9329 66.5692 36.9597 66.5476 36.981 66.5204L51.8419 48.407C51.8686 48.3655 51.8829 48.316 51.8829 48.2655C51.8829 48.2148 51.8686 48.1653 51.8419 48.1238L26.0881 0.120135C26.0678 0.08348 26.0392 0.0531794 26.0048 0.0321224C25.9704 0.0110653 25.9318 0 25.8924 0C25.8529 0 25.8143 0.0110653 25.7801 0.0321224C25.7457 0.0531794 25.717 0.08348 25.6968 0.120135" fill="#0C152E"/>
    </g>
    <defs>
    <clipPath id="clip0_2605_62">
    <rect width="158" height="67.15" fill="white"/>
    </clipPath>
    </defs>
    </svg>
    