<svg xmlns="http://www.w3.org/2000/svg" width="290" height="40" viewBox="0 0 290 40" fill="none">
    <path
        d="M15.5062 39.2315C13.2225 39.2315 11.1018 38.9231 9.14435 38.3062C7.18685 37.6894 5.53747 36.7641 4.19622 35.5304C2.85497 34.2967 1.89435 32.7545 1.31435 30.904C0.770599 29.0534 0.698099 26.8944 1.09685 24.427C1.38685 22.8668 1.69497 21.3065 2.02122 19.7462C2.38372 18.1859 2.74622 16.6075 3.10872 15.011C4.30497 10.1124 6.46185 6.39317 9.57935 3.85319C12.6968 1.31321 16.9018 0.0432129 22.1943 0.0432129C24.4781 0.0432129 26.5806 0.369784 28.5018 1.02292C30.4593 1.63977 32.1087 2.5832 33.45 3.85319C34.8275 5.12318 35.7881 6.68345 36.3318 8.53401C36.9118 10.3846 36.9843 12.5435 36.5493 15.011C36.2956 16.6075 35.9875 18.1859 35.625 19.7462C35.2987 21.3065 34.9543 22.8668 34.5918 24.427C33.3593 29.3981 31.1843 33.1174 28.0668 35.5848C24.9493 38.0159 20.7625 39.2315 15.5062 39.2315ZM16.2131 31.3938C18.1706 31.3938 19.8925 30.8133 21.3787 29.6521C22.865 28.491 23.9162 26.6404 24.5325 24.1005C24.9312 22.5039 25.2756 20.9981 25.5656 19.5829C25.8918 18.1678 26.1818 16.6982 26.4356 15.1742C26.9068 12.6343 26.6893 10.7837 25.7831 9.62257C24.8768 8.46144 23.445 7.88087 21.4875 7.88087C19.53 7.88087 17.8081 8.46144 16.3218 9.62257C14.8718 10.7837 13.8387 12.6343 13.2225 15.1742C12.8237 16.6982 12.4612 18.1678 12.135 19.5829C11.845 20.9981 11.555 22.5039 11.265 24.1005C10.83 26.6404 11.0475 28.491 11.9175 29.6521C12.7875 30.8133 14.2193 31.3938 16.2131 31.3938ZM42.3085 38.6872C41.946 38.6872 41.656 38.5602 41.4385 38.3062C41.221 38.0522 41.1485 37.7256 41.221 37.3265L48.7247 1.9482C48.7972 1.54906 48.9966 1.22249 49.3228 0.968494C49.6491 0.714496 49.9935 0.587497 50.356 0.587497H64.8197C67.031 0.587497 69.0247 0.841495 70.801 1.34949C72.6135 1.85749 74.1178 2.63762 75.3141 3.6899C76.5103 4.74218 77.3441 6.0666 77.8153 7.66316C78.2866 9.22343 78.3047 11.0558 77.8697 13.1604C76.9635 17.3332 75.1147 20.4175 72.3235 22.4132C69.5685 24.4089 65.8528 25.4067 61.1766 25.4067H53.836L51.3347 37.3265C51.2622 37.7256 51.0628 38.0522 50.7366 38.3062C50.4466 38.5602 50.1022 38.6872 49.7035 38.6872H42.3085ZM55.2497 17.8956H61.5028C62.9891 17.8956 64.3122 17.4965 65.4722 16.6982C66.6685 15.9 67.4478 14.6844 67.8103 13.0515C67.9916 12.1081 68.0278 11.2736 67.9191 10.5478C67.8103 9.82214 67.4297 9.24157 66.7772 8.80615C66.161 8.37072 65.2003 8.15301 63.8953 8.15301H57.3703L55.2497 17.8956ZM87.9172 38.6872C87.5184 38.6872 87.2103 38.5602 86.9928 38.3062C86.7753 38.0522 86.7028 37.7256 86.7753 37.3265L92.8109 9.13272H83.1322C82.7697 9.13272 82.4797 9.00572 82.2622 8.75172C82.0447 8.46144 81.9722 8.13487 82.0447 7.77201L83.2953 1.9482C83.3678 1.54906 83.5491 1.22249 83.8391 0.968494C84.1653 0.714496 84.5278 0.587497 84.9266 0.587497H114.18C114.579 0.587497 114.869 0.714496 115.05 0.968494C115.267 1.22249 115.34 1.54906 115.267 1.9482L114.017 7.77201C113.944 8.13487 113.745 8.46144 113.419 8.75172C113.129 9.00572 112.785 9.13272 112.386 9.13272H102.707L96.7259 37.3265C96.6534 37.7256 96.4541 38.0522 96.1278 38.3062C95.8378 38.5602 95.4934 38.6872 95.0947 38.6872H87.9172ZM116.407 38.6872C116.008 38.6872 115.7 38.5602 115.483 38.3062C115.265 38.0522 115.193 37.7256 115.265 37.3265L122.823 1.9482C122.896 1.54906 123.095 1.22249 123.421 0.968494C123.748 0.714496 124.092 0.587497 124.454 0.587497H131.795C132.158 0.587497 132.448 0.714496 132.665 0.968494C132.883 1.22249 132.955 1.54906 132.883 1.9482L125.324 37.3265C125.252 37.7256 125.053 38.0522 124.726 38.3062C124.436 38.5602 124.11 38.6872 123.748 38.6872H116.407ZM138.713 38.6872C138.314 38.6872 138.006 38.5602 137.789 38.3062C137.571 38.0522 137.499 37.7256 137.571 37.3265L145.075 1.9482C145.148 1.54906 145.347 1.22249 145.673 0.968494C145.999 0.714496 146.362 0.587497 146.761 0.587497H152.633C153.213 0.587497 153.612 0.750781 153.829 1.07735C154.083 1.36763 154.246 1.60349 154.319 1.78492L160.191 18.9842L173.459 1.78492C173.568 1.60349 173.785 1.36763 174.111 1.07735C174.474 0.750781 174.945 0.587497 175.525 0.587497H181.398C181.796 0.587497 182.104 0.714496 182.322 0.968494C182.539 1.22249 182.612 1.54906 182.539 1.9482L175.036 37.3265C174.963 37.7256 174.764 38.0522 174.438 38.3062C174.111 38.5602 173.749 38.6872 173.35 38.6872H166.825C166.463 38.6872 166.173 38.5602 165.955 38.3062C165.738 38.0522 165.665 37.7256 165.738 37.3265L169.979 17.2425L161.659 28.2914C161.406 28.5817 161.098 28.872 160.735 29.1623C160.409 29.4163 159.992 29.5433 159.484 29.5433H156.657C156.149 29.5433 155.787 29.4163 155.569 29.1623C155.352 28.9083 155.189 28.618 155.08 28.2914L151.219 16.7527L146.815 37.3265C146.743 37.7256 146.543 38.0522 146.217 38.3062C145.927 38.5602 145.601 38.6872 145.238 38.6872H138.713ZM186.679 38.6872C186.28 38.6872 185.972 38.5602 185.754 38.3062C185.537 38.0522 185.464 37.7256 185.537 37.3265L193.095 1.9482C193.167 1.54906 193.367 1.22249 193.693 0.968494C194.019 0.714496 194.364 0.587497 194.726 0.587497H202.067C202.429 0.587497 202.719 0.714496 202.937 0.968494C203.154 1.22249 203.227 1.54906 203.154 1.9482L195.596 37.3265C195.524 37.7256 195.324 38.0522 194.998 38.3062C194.708 38.5602 194.382 38.6872 194.019 38.6872H186.679ZM221.055 39.2315C217.43 39.2315 214.458 38.7235 212.138 37.7075C209.854 36.6915 208.204 35.3489 207.189 33.6798C206.211 31.9744 205.866 30.1783 206.156 28.2914C206.229 28.0011 206.374 27.7471 206.591 27.5294C206.845 27.2754 207.135 27.1484 207.461 27.1484H214.421C214.929 27.1484 215.291 27.2391 215.509 27.4206C215.726 27.602 215.944 27.8379 216.161 28.1281C216.306 28.6724 216.596 29.1986 217.031 29.7066C217.466 30.2146 218.064 30.6318 218.826 30.9584C219.623 31.2487 220.602 31.3938 221.762 31.3938C223.864 31.3938 225.55 31.0673 226.819 30.4141C228.088 29.761 228.831 28.872 229.048 27.7471C229.266 26.9489 229.121 26.2957 228.613 25.7877C228.142 25.2435 227.29 24.7717 226.058 24.3726C224.861 23.9372 223.248 23.5017 221.218 23.0663C218.572 22.4858 216.397 21.6875 214.693 20.6715C212.989 19.6192 211.793 18.2948 211.104 16.6982C210.452 15.0654 210.361 13.1241 210.833 10.8744C211.558 7.53616 213.352 4.90546 216.216 2.98234C219.079 1.02292 222.795 0.0432129 227.363 0.0432129C229.719 0.0432129 231.803 0.369784 233.616 1.02292C235.464 1.67606 237.005 2.54691 238.238 3.63547C239.47 4.72404 240.358 5.88517 240.902 7.11887C241.446 8.31629 241.627 9.49557 241.446 10.6567C241.409 10.947 241.264 11.2191 241.011 11.4731C240.757 11.6908 240.467 11.7997 240.141 11.7997H232.854C232.492 11.7997 232.166 11.7271 231.876 11.582C231.622 11.4368 231.404 11.201 231.223 10.8744C231.223 10.0761 230.806 9.38671 229.973 8.80615C229.139 8.18929 228.033 7.88087 226.656 7.88087C225.097 7.88087 223.792 8.17115 222.741 8.75172C221.689 9.296 221.037 10.1487 220.783 11.3098C220.602 12.0356 220.693 12.6705 221.055 13.2148C221.454 13.7591 222.179 14.2308 223.23 14.63C224.318 15.0291 225.804 15.4464 227.689 15.8818C230.879 16.4987 233.38 17.3332 235.193 18.3855C237.005 19.4015 238.219 20.6896 238.836 22.2499C239.488 23.8102 239.579 25.7152 239.108 27.9649C238.31 31.666 236.371 34.4781 233.289 36.4012C230.244 38.2881 226.166 39.2315 221.055 39.2315ZM245.801 38.6872C245.403 38.6872 245.094 38.5602 244.877 38.3062C244.659 38.0522 244.587 37.7256 244.659 37.3265L252.163 1.9482C252.236 1.54906 252.435 1.22249 252.761 0.968494C253.088 0.714496 253.45 0.587497 253.849 0.587497H259.721C260.301 0.587497 260.7 0.750781 260.918 1.07735C261.171 1.36763 261.334 1.60349 261.407 1.78492L267.279 18.9842L280.547 1.78492C280.656 1.60349 280.873 1.36763 281.199 1.07735C281.562 0.750781 282.033 0.587497 282.613 0.587497H288.486C288.884 0.587497 289.193 0.714496 289.41 0.968494C289.628 1.22249 289.7 1.54906 289.628 1.9482L282.124 37.3265C282.051 37.7256 281.852 38.0522 281.526 38.3062C281.199 38.5602 280.837 38.6872 280.438 38.6872H273.913C273.551 38.6872 273.261 38.5602 273.043 38.3062C272.826 38.0522 272.753 37.7256 272.826 37.3265L277.067 17.2425L268.748 28.2914C268.494 28.5817 268.186 28.872 267.823 29.1623C267.497 29.4163 267.08 29.5433 266.573 29.5433H263.745C263.238 29.5433 262.875 29.4163 262.658 29.1623C262.44 28.9083 262.277 28.618 262.168 28.2914L258.308 16.7527L253.903 37.3265C253.831 37.7256 253.631 38.0522 253.305 38.3062C253.015 38.5602 252.689 38.6872 252.326 38.6872H245.801Z"
        fill="white" />
</svg>