<svg width="196" height="61" viewBox="0 0 196 61" fill="none" xmlns="http://www.w3.org/2000/svg">
<path d="M61.3365 21.35C57.8595 7.92999 44.2565 -0.183006 30.8975 3.23299C21.9915 5.48999 15.0985 12.444 12.8415 21.289L12.7805 21.35C11.1335 21.35 5.9485 21.533 5.9485 25.925C5.9485 31.171 6.5585 35.685 9.6085 38.308C10.9505 39.406 13.1465 39.711 15.2815 39.65C16.6235 39.589 17.9045 39.467 19.2465 39.223C19.2465 39.223 19.3075 39.223 19.3075 39.162C19.3075 39.162 19.3075 39.162 19.3075 39.101C16.9285 35.685 15.7085 31.598 15.7085 27.45C15.7085 27.389 15.7085 27.328 15.7085 27.267C15.7085 15.494 25.2855 5.91699 37.0585 5.91699C48.8315 5.91699 58.4085 15.494 58.4085 27.267C58.4085 27.328 58.4085 27.389 58.4085 27.45C58.4085 31.598 57.1885 35.685 54.8705 39.162V39.223C54.8705 39.223 54.8705 39.223 54.9315 39.223C56.2125 39.467 57.5545 39.589 58.8355 39.65C60.9705 39.711 63.1665 39.406 64.5085 38.308C67.5585 35.685 68.1685 31.11 68.1685 25.925C68.1685 21.533 63.0445 21.35 61.3365 21.35Z" fill="#007AA6"/>
<path d="M37.0585 45.14L20.8325 39.711C20.7715 39.711 20.7715 39.711 20.7715 39.772V39.833L36.9975 56.059H37.0585L53.2845 39.833V39.772H53.2235L37.0585 45.14Z" fill="#007AA6"/>
<path d="M51.5155 28.609L55.3585 27.45C55.3585 27.45 55.4195 27.45 55.4195 27.389C55.4195 25.986 55.2365 24.522 54.8705 23.18C54.8705 23.18 54.8705 23.119 54.8095 23.119L50.9055 22.753C50.8445 22.753 50.8445 22.753 50.8445 22.692V22.631L53.7725 20.069V20.008C53.1625 18.666 52.4305 17.446 51.5155 16.287H51.4545L47.8555 17.507C47.7945 17.507 47.7945 17.507 47.7945 17.446V17.385L49.3805 13.969V13.908C48.2825 12.932 47.1235 12.078 45.8425 11.407H45.7815L43.0365 13.908H42.9755C42.9755 13.908 42.9755 13.908 42.9755 13.847L43.0365 10.187C43.0365 10.187 43.0365 10.126 42.9755 10.126C41.5725 9.638 40.1695 9.333 38.7055 9.211C38.7055 9.211 38.6445 9.211 38.6445 9.272L37.1805 12.627C37.1805 12.627 37.1195 12.688 37.1195 12.627L35.6555 9.272L35.5945 9.211C34.1305 9.333 32.7275 9.638 31.3245 10.126L31.2635 10.187L31.3245 13.908C31.3245 13.908 31.3245 13.969 31.2635 13.969H31.2025L28.4575 11.407H28.3965C27.1155 12.078 25.8955 12.932 24.8585 13.908V13.969L26.4445 17.385C26.4445 17.446 26.4445 17.446 26.3835 17.446C26.3835 17.446 26.3835 17.446 26.3225 17.446L22.7235 16.226H22.6625C21.8085 17.385 21.0155 18.605 20.4665 19.947V20.008L23.3945 22.57V22.631C23.3945 22.631 23.3945 22.631 23.3335 22.631L19.3685 23.119C19.3685 23.119 19.3075 23.119 19.3075 23.18C18.9415 24.583 18.7585 25.986 18.7585 27.389C18.7585 27.389 18.7585 27.45 18.8195 27.45L22.6625 28.67C22.6625 28.67 22.7235 28.731 22.6625 28.731L19.1245 30.744V30.805C19.3685 32.208 19.7955 33.611 20.4055 34.953C20.5885 35.38 20.8325 35.807 21.0155 36.234C21.0155 36.234 21.0155 36.234 21.0765 36.234L37.0585 41.602L53.1015 36.234C53.1015 36.234 53.1015 36.234 53.1625 36.234C54.0775 34.526 54.6875 32.696 55.0535 30.805C55.0535 30.805 55.0535 30.744 54.9925 30.744L51.4545 28.731C51.4545 28.67 51.4545 28.67 51.5155 28.609Z" fill="#007AA6"/>
<path d="M100.499 43.859V43.981H97.5705L90.2505 33.123H84.3335V43.981H81.7715V17.873H91.6535C96.2895 17.873 100.011 21.228 100.011 25.559C100.011 29.463 97.3265 32.391 93.0565 33.062L100.499 43.859ZM91.5925 30.866C95.2525 30.866 97.5095 28.731 97.5095 25.62C97.5095 22.509 95.1305 20.191 91.7145 20.191H84.3945V30.866H91.5925Z" fill="#007AA6"/>
<path d="M121.726 41.663V43.981H105.805V17.873H121.421V20.191H108.367V29.463H119.835V31.72H108.367V41.663H121.726Z" fill="#007AA6"/>
<path d="M154.24 43.981H151.8L149.299 25.986C149.177 25.132 149.055 24.278 149.055 23.424C148.567 24.278 148.079 25.01 147.652 25.742L140.332 37.515H139.783L132.463 25.62C132.036 24.949 131.609 24.217 131.121 23.424C131.06 24.339 130.877 25.132 130.755 25.925L128.254 43.92H125.753L129.474 17.629H130.206L138.38 30.927C138.929 31.781 139.478 32.635 139.966 33.672C140.515 32.635 141.064 31.781 141.552 30.866L149.787 17.69H150.519L154.24 43.981Z" fill="#007AA6"/>
<path d="M160.339 17.873H162.84V43.981H160.339V17.873Z" fill="#007AA6"/>
<path d="M167.477 43.92L177.115 30.439L168.27 17.9339V17.8729H171.198L176.017 24.644C176.871 25.864 177.725 27.145 178.579 28.487C179.494 27.084 180.287 25.742 181.141 24.522L185.899 17.812H188.766V17.8729L179.921 30.317L189.681 43.92V43.9809H186.753L181.141 36.0509C180.287 34.8309 179.433 33.611 178.579 32.269C177.725 33.672 176.871 34.8309 176.017 36.0509L170.405 43.9809H167.477V43.92Z" fill="#007AA6"/>
</svg>
