<svg xmlns="http://www.w3.org/2000/svg" width="158" height="45" viewBox="0 0 158 45" fill="none">
    <g clip-path="url(#clip0_2111_56)">
      <path d="M68.8929 44.6799H62.9908V0.679932H68.8929V44.6799Z" fill="black"/>
      <path d="M158 44.6799H152.097V0.679932H158V44.6799Z" fill="black"/>
      <path d="M79.728 44.6799H73.8309V0.679932H79.728V44.6799Z" fill="black"/>
      <path d="M106.967 44.68H101.367L101.301 44.6134L85.3585 28.2165L90.1789 23.6049L106.967 41.3391V44.68Z" fill="black"/>
      <path d="M82.7537 26.5306V18.3015L101.316 0.679932H106.388V3.9593L106.316 4.02592L82.7537 26.5306Z" fill="black"/>
      <path d="M27.9264 44.6799H22.9473V41.5594L52.4376 0.695312H58.2321V26.628H52.3299V10.4361L27.9264 44.6799Z" fill="black"/>
      <path d="M58.232 44.68H52.3299V35.1851H38.2948L42.4639 29.6359H58.2474L58.232 44.68Z" fill="black"/>
      <path d="M10.9992 6.22926H0V0.679932H10.9992V6.22926Z" fill="black"/>
      <path d="M19.9269 44.6799H14.0196V0.679932H32.0954V6.22926H19.9269V44.6799Z" fill="black"/>
      <path d="M113.88 44.6799H108.982V41.1648V41.1187L124.043 7.18738L127.35 14.2791L127.304 14.3764L113.88 44.6799Z" fill="black"/>
      <path d="M142.421 26.382H135.893L125.71 3.51351L126.971 0.679932H130.976L142.421 26.382Z" fill="black"/>
      <path d="M149.057 44.68H144.047L139.704 34.9443H121.515L123.93 29.4053H143.77L149.057 41.2929V44.68Z" fill="black"/>
    </g>
    <defs>
      <clipPath id="clip0_2111_56">
        <rect width="158" height="44" fill="white" transform="translate(0 0.679932)"/>
      </clipPath>
    </defs>
</svg>