<?xml version="1.0" standalone="no"?>
<!DOCTYPE svg PUBLIC "-//W3C//DTD SVG 20010904//EN"
 "http://www.w3.org/TR/2001/REC-SVG-20010904/DTD/svg10.dtd">
<svg version="1.0" xmlns="http://www.w3.org/2000/svg"
 width="300.000000pt" height="279.000000pt" viewBox="0 0 300.000000 279.000000"
 preserveAspectRatio="xMidYMid meet">
<metadata>
Created by potrace 1.10, written by Peter Selinger 2001-2011
</metadata>
<g transform="translate(0.000000,279.000000) scale(0.100000,-0.100000)"
fill="#000000" stroke="none">
<path d="M1004 1835 l-44 -45 0 -233 c0 -214 2 -235 20 -265 40 -65 136 -93
199 -58 21 12 28 12 48 -1 17 -11 39 -13 90 -9 37 3 80 6 96 5 25 0 158 0 225
0 15 0 85 -2 156 -5 142 -6 167 0 212 47 l29 30 3 245 3 246 -45 45 -45 45
-68 -6 c-83 -7 -90 -7 -181 0 -50 4 -78 2 -88 -7 -12 -9 -22 -9 -52 0 -24 8
-63 11 -108 7 -78 -7 -69 -7 -263 0 l-143 5 -44 -46z m289 -61 l-46 -66 -53 5
-52 5 -4 -131 c-2 -73 -4 -133 -3 -134 0 -1 58 86 130 193 l130 194 83 0 c46
0 82 -4 80 -8 -1 -4 -91 -135 -198 -290 l-195 -281 -54 -1 c-46 0 -59 4 -83
27 l-28 27 0 235 0 235 27 28 27 28 143 0 142 0 -46 -66z m477 62 c0 -3 -24
-38 -52 -78 -29 -41 -118 -169 -198 -285 l-145 -212 -77 -1 -77 0 107 153 c59
84 149 215 201 290 l95 137 73 0 c40 0 73 -2 73 -4z m203 -24 l27 -28 0 -235
0 -235 -28 -27 c-28 -27 -30 -27 -170 -27 l-141 0 42 66 42 66 56 -4 57 -4 4
135 c3 75 4 137 3 138 0 1 -59 -87 -130 -197 l-130 -199 -88 -1 -88 0 51 73
c29 39 119 170 202 290 l151 217 57 0 c49 0 60 -4 83 -28z m-753 -155 c0 -8
-9 -22 -20 -32 -19 -18 -20 -17 -20 7 0 13 3 28 7 31 11 12 33 8 33 -6z m596
-213 c-6 -15 -46 -20 -46 -5 0 4 10 21 23 37 22 28 22 29 25 6 2 -13 1 -30 -2
-38z"/>
<path d="M790 1093 c-18 -23 -21 -37 -18 -82 4 -47 10 -59 41 -88 20 -18 46
-33 58 -33 12 0 39 17 60 39 31 31 39 46 39 75 0 22 4 35 10 31 6 -3 10 -17
10 -30 0 -13 -4 -27 -10 -30 -17 -11 -11 -41 13 -63 29 -28 86 -29 118 -3 23
19 24 19 53 -2 23 -16 32 -18 47 -9 14 9 25 9 45 0 24 -11 29 -10 50 15 58 67
7 207 -75 207 -37 0 -91 -60 -100 -110 -6 -34 -10 -41 -16 -27 -4 11 -2 36 5
58 12 35 11 41 -5 59 -25 28 -93 27 -124 -1 l-22 -21 -23 21 c-25 23 -46 27
-63 10 -8 -8 -17 -8 -31 0 -30 16 -38 14 -62 -16z m51 -59 c-2 -37 2 -54 14
-64 27 -22 43 9 37 70 -4 46 -3 50 17 50 19 0 21 -6 21 -58 0 -52 -3 -62 -30
-87 l-30 -29 -30 29 c-27 26 -30 35 -30 88 0 50 3 58 17 55 14 -2 17 -13 14
-54z m259 36 c0 -11 -7 -20 -15 -20 -11 0 -15 -12 -15 -45 0 -34 4 -45 16 -45
9 0 14 -7 12 -17 -5 -26 -88 -27 -88 -1 0 10 6 18 13 18 8 0 12 16 12 45 0 29
-4 45 -12 45 -7 0 -13 9 -13 20 0 17 7 20 45 20 38 0 45 -3 45 -20z m167 -2
c19 -18 23 -32 23 -85 0 -49 -3 -63 -15 -63 -9 0 -15 9 -15 25 0 20 -5 25 -25
25 -20 0 -25 -5 -25 -25 0 -18 -5 -25 -20 -25 -18 0 -20 7 -20 57 0 48 4 61
27 85 32 34 40 34 70 6z"/>
<path d="M1222 1038 c-20 -20 -14 -38 13 -38 27 0 33 21 12 39 -10 8 -17 7
-25 -1z"/>
<path d="M1487 1102 c-25 -28 -24 -172 1 -195 25 -23 99 -22 124 0 18 16 21
16 48 -1 23 -13 34 -14 49 -6 14 7 27 7 46 -2 22 -10 28 -8 50 12 l24 22 27
-21 c40 -31 110 -29 145 5 l28 27 31 -27 c44 -36 107 -36 141 0 21 23 24 34
21 92 -3 85 -25 112 -91 112 -35 0 -51 -6 -73 -27 l-28 -26 -24 26 c-21 23
-33 27 -81 27 -53 0 -57 -2 -77 -35 l-20 -36 -36 36 c-20 20 -45 35 -58 35
-38 0 -91 -55 -99 -100 -4 -22 -10 -40 -14 -40 -21 0 -42 30 -48 65 -10 69
-51 95 -86 57z m53 -77 l0 -65 30 0 c22 0 30 -5 30 -18 0 -16 -8 -18 -50 -18
l-50 1 0 83 c0 75 2 82 20 82 18 0 20 -7 20 -65z m225 40 c21 -22 25 -35 25
-85 0 -47 -3 -60 -15 -60 -9 0 -15 9 -15 25 0 20 -5 25 -25 25 -20 0 -25 -5
-25 -25 0 -18 -5 -25 -20 -25 -18 0 -20 7 -20 57 0 48 4 61 27 85 33 34 36 34
68 3z m213 12 c14 -16 14 -135 0 -143 -6 -4 -31 -7 -56 -7 l-45 0 1 77 c0 42
1 78 1 81 2 11 89 4 99 -8z m200 1 c17 -17 15 -48 -3 -48 -8 0 -15 5 -15 10 0
6 -14 10 -31 10 -39 0 -34 -24 7 -28 40 -5 54 -19 54 -54 0 -31 -16 -42 -59
-41 -39 1 -61 13 -61 34 0 20 24 26 35 9 10 -16 55 -12 55 5 0 10 -10 15 -33
15 -18 0 -38 5 -45 12 -18 18 -15 65 6 77 24 14 75 14 90 -1z"/>
<path d="M1710 1031 c-15 -28 -13 -31 20 -31 31 0 39 17 18 38 -17 17 -26 15
-38 -7z"/>
<path d="M1910 1035 c0 -9 9 -15 25 -15 16 0 25 6 25 15 0 9 -9 15 -25 15 -16
0 -25 -6 -25 -15z"/>
<path d="M1910 975 c0 -9 9 -15 25 -15 16 0 25 6 25 15 0 9 -9 15 -25 15 -16
0 -25 -6 -25 -15z"/>
</g>
</svg>
