<svg width="407" height="407" viewBox="0 0 407 407" fill="none" xmlns="http://www.w3.org/2000/svg">
<path d="M203.94 79.2155C208.455 79.0991 212.743 77.2089 215.874 73.9542C219.005 70.6994 220.729 66.3422 220.67 61.8262C220.612 57.3101 218.777 52.9987 215.563 49.8258C212.349 46.6528 208.014 44.8737 203.498 44.8737C198.982 44.8737 194.647 46.6528 191.433 49.8258C188.219 52.9987 186.384 57.3101 186.326 61.8262C186.267 66.3422 187.991 70.6994 191.122 73.9542C194.253 77.2089 198.541 79.0991 203.055 79.2155H141.265L203.494 186.986L234.589 133.101L265.683 79.2155H203.94ZM220.684 132.212H186.32V97.8603H220.676L220.684 132.212ZM234.636 273.895L203.542 220.01L172.387 273.895L141.293 327.785H186.34V362.132H220.692V327.785H265.739L234.636 273.895ZM203.542 305.118C200.144 305.118 196.822 304.111 193.997 302.224C191.171 300.337 188.969 297.654 187.668 294.515C186.368 291.376 186.027 287.922 186.69 284.59C187.353 281.257 188.989 278.196 191.391 275.793C193.794 273.391 196.855 271.755 200.188 271.092C203.52 270.429 206.974 270.77 210.113 272.07C213.252 273.371 215.935 275.573 217.822 278.399C219.71 281.224 220.716 284.546 220.716 287.944C220.715 290.202 220.269 292.438 219.403 294.524C218.538 296.61 217.269 298.505 215.67 300.1C214.071 301.696 212.174 302.96 210.086 303.821C207.998 304.682 205.76 305.122 203.502 305.118H203.542ZM109.098 205.113C109.098 169.139 129.325 137.801 159.005 121.879L151.989 109.732C134.935 118.981 120.673 132.633 110.688 149.267C100.703 165.9 95.3598 184.907 95.2153 204.306C95.0708 223.706 100.13 242.79 109.866 259.57C119.602 276.35 133.659 290.214 150.573 299.716L157.586 287.569C128.684 271.42 109.098 240.509 109.098 205.113ZM280.118 128.496C272.697 121.062 264.237 114.741 255.003 109.732L247.987 121.879C277.666 137.801 297.894 169.139 297.894 205.113C297.894 240.509 278.308 271.42 249.406 287.573L256.415 299.716C271.025 291.533 283.541 280.077 292.98 266.245C302.42 252.414 308.528 236.584 310.823 219.996C313.119 203.409 311.54 186.515 306.212 170.64C300.883 154.764 291.949 140.34 280.11 128.496H280.118Z" fill="#06020B"/>
<path d="M243.1 188.919H163.904L165.602 185.91L203.502 118.765L241.397 185.91L243.1 188.919Z" fill="#C91422"/>
<path d="M184.574 236L193.675 241.86H171.056L167.165 236L154.165 216.434L184.574 236ZM213.329 241.86H235.948L239.839 236L252.839 216.434L222.446 236L213.329 241.86ZM243.1 188.919L241.397 185.91H165.602L163.904 188.919L154.161 206.177L200.991 236L203.502 237.594L206.013 236L252.839 206.189L243.1 188.919Z" fill="#FDCA1B"/>
<path d="M203.502 237.594L200.991 236H206.013L203.502 237.594ZM222.446 236L213.341 241.86L203.514 248.182L193.691 241.86L184.574 236H167.165L171.056 241.86L203.502 290.694L235.948 241.86L239.839 236H222.446Z" fill="#016C34"/>
<path d="M203.502 238.703L152.902 206.5L203.502 116.848L254.098 206.5L203.502 238.703ZM155.421 205.862L203.502 236.466L251.579 205.862L203.502 120.683L155.421 205.862Z" fill="black"/>
<path d="M203.502 292.385L150.88 213.189L203.502 247.05L256.124 213.189L203.502 292.385ZM157.442 219.655L203.502 288.98L249.554 219.655L203.502 249.291L157.442 219.655Z" fill="black"/>
<path d="M209.745 208.334L213.6 220.205L203.498 212.87L193.396 220.205L197.255 208.334L187.153 200.995H199.639L203.498 189.115L207.357 200.995H219.846L209.745 208.334Z" fill="black"/>
</svg>
