<svg width="41" height="40" viewBox="0 0 41 40" fill="none" xmlns="http://www.w3.org/2000/svg">
    <path fill-rule="evenodd" clip-rule="evenodd" d="M24.9705 4.64484C21.7109 4.56304 19.2892 4.56306 16.0295 4.64484L15.9048 4.64797C13.3892 4.71102 11.3194 4.76291 9.65111 5.05307C7.88051 5.36106 6.39797 5.96084 5.14231 7.21972C3.89321 8.47201 3.29512 9.93116 2.99214 11.6738C2.70779 13.3091 2.66476 15.3272 2.61267 17.7697L2.60999 17.8953C2.57449 19.5587 2.57451 20.4418 2.61002 22.105L2.61271 22.2307C2.66477 24.6732 2.70781 26.6912 2.99216 28.3267C3.29516 30.0692 3.89324 31.5283 5.14232 32.7807C6.39801 34.0395 7.88052 34.6393 9.65114 34.9473C11.3194 35.2375 13.3892 35.2893 15.9048 35.3523L16.0296 35.3555C19.2892 35.4373 21.7109 35.4373 24.9705 35.3555L25.0952 35.3523C27.6109 35.2893 29.6807 35.2373 31.349 34.9472C33.1195 34.6393 34.602 34.0395 35.8577 32.7807C37.1069 31.5283 37.705 30.0692 38.0079 28.3265C38.2924 26.6912 38.3354 24.6732 38.3874 22.2307L38.39 22.105C38.4255 20.4417 38.4255 19.5587 38.39 17.8953L38.3874 17.7698C38.3354 15.3273 38.2922 13.3091 38.0079 11.6738C37.7049 9.93116 37.1069 8.47201 35.8577 7.21972C35.1522 6.51229 34.3749 6.01299 33.515 5.65664C33.3842 5.58522 33.244 5.53137 33.0979 5.49701C32.5482 5.30322 31.966 5.16042 31.3489 5.05309C29.6807 4.76291 27.6109 4.71102 25.0952 4.64796L24.9705 4.64484ZM34.9664 14.7507C34.934 14.0748 34.9179 13.7369 34.6732 13.602C34.4285 13.4671 34.1275 13.6375 33.5259 13.9784L26.4664 17.9785C24.3002 19.2058 22.4684 20.0002 20.4997 20.0002C18.531 20.0002 16.6991 19.2058 14.5331 17.9785L7.47412 13.9788C6.87242 13.6379 6.57157 13.4674 6.32684 13.6023C6.08211 13.7372 6.06599 14.0752 6.03376 14.751C5.99031 15.6619 5.96676 16.7178 5.94009 17.9663C5.90559 19.5822 5.90561 20.4182 5.94012 22.034C5.99564 24.634 6.03772 26.399 6.27391 27.7573C6.49631 29.0365 6.86734 29.7963 7.50207 30.4327C8.13021 31.0625 8.90049 31.4398 10.2226 31.6698C11.6196 31.9128 13.4417 31.9628 16.1132 32.0298C19.317 32.1102 21.683 32.1102 24.8869 32.0298C27.5584 31.9628 29.3805 31.9128 30.7775 31.6698C32.0995 31.4398 32.8699 31.0625 33.498 30.4327C34.1327 29.7963 34.5039 29.0365 34.7262 27.7573C34.9624 26.399 35.0045 24.634 35.06 22.034C35.0945 20.4182 35.0945 19.5822 35.06 17.9663C35.0334 16.7177 35.0097 15.6616 34.9664 14.7507Z" fill="black"/>
</svg>
    