<svg width="40" height="40" viewBox="0 0 40 40" fill="none" xmlns="http://www.w3.org/2000/svg">
<path fill-rule="evenodd" clip-rule="evenodd" d="M24.4705 4.64484C21.2108 4.56304 18.7892 4.56306 15.5295 4.64484L15.4047 4.64797C12.8891 4.71102 10.8193 4.76291 9.15106 5.05307C7.38046 5.36106 5.89793 5.96084 4.64226 7.21972C3.39316 8.47201 2.79508 9.93116 2.4921 11.6738C2.20775 13.3091 2.16471 15.3272 2.11263 17.7697L2.10995 17.8953C2.07445 19.5587 2.07446 20.4418 2.10998 22.105L2.11266 22.2307C2.16473 24.6732 2.20776 26.6912 2.49211 28.3267C2.79511 30.0692 3.3932 31.5283 4.64228 32.7807C5.89796 34.0395 7.38048 34.6393 9.1511 34.9473C10.8194 35.2375 12.8892 35.2893 15.4048 35.3523L15.5295 35.3555C18.7892 35.4373 21.2108 35.4373 24.4705 35.3555L24.5952 35.3523C27.1108 35.2893 29.1807 35.2373 30.849 34.9472C32.6195 34.6393 34.102 34.0395 35.3577 32.7807C36.6068 31.5283 37.205 30.0692 37.5078 28.3265C37.7923 26.6912 37.8353 24.6732 37.8873 22.2307L37.89 22.105C37.9255 20.4417 37.9255 19.5587 37.89 17.8953L37.8873 17.7698C37.8353 15.3273 37.7922 13.3091 37.5078 11.6738C37.2048 9.93116 36.6068 8.47201 35.3577 7.21972C34.6522 6.51229 33.8748 6.01299 33.015 5.65664C32.8842 5.58522 32.744 5.53137 32.5978 5.49701C32.0482 5.30322 31.466 5.16042 30.8488 5.05309C29.1807 4.76291 27.1108 4.71102 24.5952 4.64796L24.4705 4.64484ZM34.4663 14.7507C34.434 14.0748 34.4178 13.7369 34.1732 13.602C33.9285 13.4671 33.6275 13.6375 33.0258 13.9784L25.9663 17.9785C23.8002 19.2058 21.9683 20.0002 19.9997 20.0002C18.031 20.0002 16.1991 19.2058 14.0331 17.9785L6.97408 13.9788C6.37238 13.6379 6.07153 13.4674 5.8268 13.6023C5.58206 13.7372 5.56595 14.0752 5.53371 14.751C5.49026 15.6619 5.46671 16.7178 5.44005 17.9663C5.40555 19.5822 5.40556 20.4182 5.44008 22.034C5.4956 24.634 5.53768 26.399 5.77386 27.7573C5.99626 29.0365 6.3673 29.7963 7.00203 30.4327C7.63016 31.0625 8.40045 31.4398 9.72258 31.6698C11.1196 31.9128 12.9416 31.9628 15.6132 32.0298C18.817 32.1102 21.183 32.1102 24.3868 32.0298C27.0583 31.9628 28.8805 31.9128 30.2775 31.6698C31.5995 31.4398 32.3698 31.0625 32.998 30.4327C33.6327 29.7963 34.0038 29.0365 34.2262 27.7573C34.4623 26.399 34.5045 24.634 34.56 22.034C34.5945 20.4182 34.5945 19.5822 34.56 17.9663C34.5333 16.7177 34.5097 15.6616 34.4663 14.7507Z" fill="#9A9A9A"/>
</svg>
