<svg width="64" height="64" viewBox="0 0 64 64" fill="none" xmlns="http://www.w3.org/2000/svg">
    <path d="M32.0692 12.4563C32.7792 12.438 33.4534 12.1408 33.9458 11.629C34.4382 11.1172 34.7091 10.432 34.7 9.7219C34.6908 9.01176 34.4023 8.3338 33.8969 7.83486C33.3915 7.33592 32.7098 7.05615 31.9996 7.05615C31.2894 7.05615 30.6078 7.33592 30.1024 7.83486C29.597 8.3338 29.3085 9.01176 29.2993 9.7219C29.2902 10.432 29.5611 11.1172 30.0535 11.629C30.5459 12.1408 31.2201 12.438 31.9301 12.4563H22.2136L31.999 29.4031L36.8886 20.9297L41.7781 12.4563H32.0692ZM34.7021 20.7899H29.2985V15.3882H34.7008L34.7021 20.7899ZM36.8961 43.0694L32.0065 34.596L27.1076 43.0694L22.218 51.5434H29.3016V56.9445H34.7033V51.5434H41.7869L36.8961 43.0694ZM32.0065 47.979C31.4722 47.9791 30.9499 47.8208 30.5056 47.5241C30.0613 47.2273 29.715 46.8054 29.5105 46.3118C29.306 45.8182 29.2524 45.2751 29.3566 44.751C29.4608 44.227 29.7181 43.7456 30.0959 43.3678C30.4737 42.99 30.9551 42.7328 31.4791 42.6286C32.0031 42.5243 32.5463 42.5779 33.0399 42.7824C33.5335 42.9869 33.9554 43.3332 34.2521 43.7775C34.5489 44.2219 34.7072 44.7442 34.7071 45.2785C34.707 45.6336 34.6369 45.9853 34.5008 46.3133C34.3646 46.6413 34.1651 46.9393 33.9137 47.1901C33.6623 47.4409 33.3639 47.6397 33.0356 47.7751C32.7072 47.9105 32.3554 47.9798 32.0003 47.979H32.0065ZM17.1554 32.2534C17.1554 26.5966 20.3362 21.6688 25.0032 19.1651L23.8999 17.255C21.2182 18.7094 18.9756 20.8562 17.4054 23.4718C15.8353 26.0874 14.9951 29.0761 14.9724 32.1266C14.9497 35.1772 15.7452 38.1781 17.2762 40.8168C18.8072 43.4555 21.0177 45.6354 23.6774 47.1296L24.78 45.2196C20.2352 42.6801 17.1554 37.8194 17.1554 32.2534ZM44.048 20.2057C42.881 19.0366 41.5508 18.0427 40.0988 17.255L38.9955 19.1651C43.6625 21.6688 46.8432 26.5966 46.8432 32.2534C46.8432 37.8194 43.7634 42.6801 39.2186 45.2202L40.3207 47.1296C42.6181 45.8429 44.5862 44.0414 46.0706 41.8664C47.555 39.6915 48.5154 37.2022 48.8763 34.5939C49.2373 31.9855 48.9891 29.329 48.1512 26.8326C47.3133 24.3363 45.9084 22.068 44.0468 20.2057H44.048Z" fill="#06020B"/>
    <path d="M38.227 29.7074H25.7737L26.0407 29.2341L32.0004 18.6758L37.9593 29.2341L38.227 29.7074Z" fill="#C91422"/>
    <path d="M29.0239 37.1105L30.4551 38.032H26.8982L26.2864 37.1105L24.2422 34.0338L29.0239 37.1105ZM33.5455 38.032H37.1024L37.7142 37.1105L39.7584 34.0338L34.9792 37.1105L33.5455 38.032ZM38.227 29.7072L37.9593 29.2339H26.0407L25.7736 29.7072L24.2416 32.4209L31.6054 37.1105L32.0003 37.3612L32.3952 37.1105L39.7584 32.4228L38.227 29.7072Z" fill="#FDCA1B"/>
    <path d="M32.0003 37.3616L31.6053 37.1108H32.3952L32.0003 37.3616ZM34.9791 37.1108L33.5474 38.0323L32.0022 39.0265L30.4576 38.0323L29.0239 37.1108H26.2864L26.8982 38.0323L32.0003 45.7115L37.1023 38.0323L37.7142 37.1108H34.9791Z" fill="#016C34"/>
    <path d="M32.0003 37.5355L24.0435 32.4716L32.0003 18.374L39.9565 32.4716L32.0003 37.5355ZM24.4396 32.3713L32.0003 37.1838L39.5603 32.3713L32.0003 18.9771L24.4396 32.3713Z" fill="black"/>
    <path d="M32.0002 45.9768L23.7256 33.5234L32.0002 38.848L40.2749 33.5234L32.0002 45.9768ZM24.7574 34.5402L32.0002 45.4414L39.2418 34.5402L32.0002 39.2003L24.7574 34.5402Z" fill="black"/>
    <path d="M32.982 32.7599L33.5882 34.6267L31.9997 33.4733L30.4112 34.6267L31.018 32.7599L29.4296 31.6059H31.3929L31.9997 29.7378L32.6065 31.6059H34.5705L32.982 32.7599Z" fill="black"/>
</svg>
    