<svg width="1512" height="108" viewBox="0 0 1512 108" fill="none" xmlns="http://www.w3.org/2000/svg">
<path opacity="0.1" d="M1518 107.567C1217.34 108.877 -3 106.797 -3 106.797C-3 106.797 7.86301 39.7805 53.6863 38.9313C99.5096 38.0822 137.799 21.8372 168.016 13.7023C198.234 5.56752 260.182 11.3333 301.245 16.0714C342.308 20.8096 375.416 18.102 401.866 16.4099C428.317 14.7177 430.214 7.11819 452.414 11.7086C474.614 16.2991 460.924 15.4007 476.511 15.4007C492.099 15.4007 481.71 12.8655 485.961 6.42899C490.211 -0.00748098 511.472 4.06608 509.109 6.42899C506.747 8.7919 515.248 13.8808 522.809 16.9267C530.37 19.9727 544.07 14.5577 577.142 15.4007C610.214 16.2437 599.342 13.3701 611.145 8.2935C622.947 3.21693 622.956 6.44746 646.105 1.86317C669.254 -2.72113 675.866 2.20162 680.108 5.41986C684.349 8.6381 695.704 14.2192 722.164 11.6717C748.623 9.1242 753.348 14.2192 774.135 21.6464C794.921 29.0736 790.671 39.7744 806.258 47.5584C821.846 55.3425 840.261 54.6656 875.23 54.1549C910.2 53.6442 917.286 45.1894 925.34 42.1865C933.393 39.1837 942.341 40.7897 957.463 43.3495C972.586 45.9093 979.189 37.9099 993.838 38.0822C1008.49 38.2545 996.674 29.6151 1000.45 27.246C1004.23 24.8769 1010.37 31.1411 1017.93 31.3134C1025.5 31.4857 1017.46 27.9229 1017.93 25.3877C1018.41 22.8525 1029.75 25.2154 1036.38 27.5844C1043.01 29.9535 1036.67 37.0669 1041.75 38.7591C1046.82 40.4513 1070.38 37.6268 1092.45 38.3037C1114.53 38.9806 1105.99 41.6881 1117.33 38.4206C1128.67 35.1531 1140.33 36.7284 1155.44 38.0822C1170.55 39.4359 1164.89 40.6728 1167.73 37.0669C1170.56 33.461 1183.16 32.2118 1189.14 30.975C1195.12 29.7381 1193.24 31.8734 1198.91 35.0362C1204.58 38.1991 1213.08 37.233 1219.78 38.2483C1226.47 39.2636 1248.04 43.3249 1258.91 43.6818C1269.78 44.0387 1293.15 46.8816 1337.1 52.4627C1381.04 58.0438 1376.07 53.9888 1404.41 50.9428C1432.76 47.8969 1439.14 45.3555 1470.32 50.9428C1478.85 52.4689 1484.15 53.3119 1487.76 53.7672C1480.61 56.2286 1473.21 58.4685 1465.57 60.4868L1518 107.567Z" fill="black"/>
</svg>
