<svg viewBox="0 0 7211 7211" fill="none" xmlns="http://www.w3.org/2000/svg">
    <path d="M3613.3 1403.49C3693.3 1401.43 3769.26 1367.94 3824.74 1310.28C3880.22 1252.61 3910.75 1175.41 3909.71 1095.4C3908.68 1015.39 3876.18 939 3819.23 882.784C3762.28 826.567 3685.48 795.045 3605.46 795.045C3525.44 795.045 3448.65 826.567 3391.7 882.784C3334.75 939 3302.25 1015.39 3301.21 1095.4C3300.18 1175.41 3330.71 1252.61 3386.19 1310.28C3441.67 1367.94 3517.63 1401.43 3597.62 1403.49H2502.85L3605.39 3312.91L4156.31 2358.2L4707.23 1403.49H3613.3ZM3909.95 2342.45H3301.12V1733.83H3909.81L3909.95 2342.45Z" fill="#06020B"/>
    <path d="M4156.73 4852.73L3605.82 3898.02L3054.27 4852.73L2503.35 5807.51H3301.47V6416.06H3910.09V5807.51H4708.22L4156.73 4852.73ZM3605.82 5405.9C3545.62 5405.92 3486.77 5388.08 3436.71 5354.64C3386.65 5321.2 3347.63 5273.67 3324.58 5218.06C3301.54 5162.44 3295.5 5101.24 3307.25 5042.2C3318.99 4983.15 3347.97 4928.92 3390.54 4886.35C3433.11 4843.78 3487.35 4814.8 3546.39 4803.05C3605.43 4791.31 3666.63 4797.35 3722.25 4820.39C3777.86 4843.43 3825.39 4882.45 3858.83 4932.51C3892.27 4982.57 3910.11 5041.43 3910.09 5101.63C3910.08 5141.61 3902.2 5181.19 3886.89 5218.12C3871.57 5255.05 3849.14 5288.6 3820.85 5316.86C3792.57 5345.12 3759 5367.52 3722.05 5382.8C3685.11 5398.08 3645.51 5405.93 3605.54 5405.9H3605.82Z" fill="#06020B"/>
    <path d="M1932.94 3634.07C1932.94 2996.7 2291.32 2441.48 2817.16 2159.38L2692.85 1944.17C2390.7 2108.04 2138.02 2349.92 1961.11 2644.63C1784.2 2939.33 1689.53 3276.07 1686.97 3619.78C1684.41 3963.5 1774.05 4301.61 1946.55 4598.92C2119.05 4896.22 2368.11 5141.84 2667.78 5310.2L2792.02 5094.99C2279.95 4808.86 1932.94 4261.2 1932.94 3634.07ZM4962.98 2276.63C4831.49 2144.9 4681.61 2032.92 4518.01 1944.17L4393.7 2159.38C4919.54 2441.48 5277.92 2996.7 5277.92 3634.07C5277.92 4261.2 4930.91 4808.86 4418.84 5095.06L4543.01 5310.2C4801.87 5165.22 5023.62 4962.24 5190.87 4717.19C5358.12 4472.13 5466.32 4191.66 5506.99 3897.77C5547.67 3603.88 5519.7 3304.57 5425.29 3023.3C5330.88 2742.03 5172.59 2486.46 4962.84 2276.63H4962.98Z" fill="#06020B"/>
    <path d="M3605.46 4396.95L4479.59 3834.45L3605.46 5150.15L2731.41 3834.45L3605.46 4396.95ZM4479.66 3652.86L3605.46 2104.22L2731.34 3652.86L3605.46 4209.57L4479.66 3652.86Z" fill="url(#paint0_linear_1039_302)" stroke="#06020B" stroke-width="3" stroke-miterlimit="10"/>
    <path d="M3605.46 2070.24L2716.79 3644.52L2709.02 3658.65L3605.46 4229.41L4501.98 3658.65L3605.46 2070.24ZM3622.2 2167.86L4441.52 3619.17L3622.2 3282.68V2167.86ZM3588.8 4179.05L2767.44 3656.39L3588.8 3319.06V4179.05ZM3588.8 3282.68L2769.48 3619.17L3588.8 2167.71V3282.68ZM3622.2 3318.78L4443.56 3656.11L3622.2 4178.77V3318.78Z" fill="black"/>
    <path d="M3605.54 4377.1L2673.22 3777.24L3605.54 5180.38L4537.86 3777.24L3605.54 4377.1ZM3588.87 4406.06V5094.92L2789.47 3891.73L3588.87 4406.06ZM3622.27 4406.06L4421.46 3891.73L3622.27 5094.77V4406.06Z" fill="black"/>
    <defs>
    <linearGradient id="paint0_linear_1039_302" x1="3605.46" y1="5150.15" x2="3605.46" y2="2104.22" gradientUnits="userSpaceOnUse">
    <stop stop-color="#F7B044"/>
    <stop offset="0.29" stop-color="#F5C04E"/>
    <stop offset="0.64" stop-color="#F3CB56"/>
    <stop offset="1" stop-color="#F3CF58"/>
    </linearGradient>
    </defs>
</svg>
