<svg width="1512" height="85" viewBox="0 0 1512 85" fill="none" xmlns="http://www.w3.org/2000/svg">
    <path d="M1478.41 170.51L1615.14 1.38794" stroke="white" stroke-width="1.5" stroke-miterlimit="10"/>
    <path d="M1550.87 1.25537L1255.14 185.827" stroke="white" stroke-width="1.5" stroke-miterlimit="10"/>
    <path d="M1492.18 1.25537L1173.84 131.032" stroke="white" stroke-width="1.5" stroke-miterlimit="10"/>
    <path d="M1429.45 1.38794L990.633 137.511" stroke="white" stroke-width="1.5" stroke-miterlimit="10"/>
    <path d="M1369.13 1.25537L937.911 103.888" stroke="white" stroke-width="1.5" stroke-miterlimit="10"/>
    <path d="M1305.51 1.25537L815.255 89.8809" stroke="white" stroke-width="1.5" stroke-miterlimit="10"/>
    <path d="M1246.01 1.25537L756.183 46.7104" stroke="white" stroke-width="1.5" stroke-miterlimit="10"/>
    <path d="M33.3531 170.51L-103.383 1.38794" stroke="white" stroke-width="1.5" stroke-miterlimit="10"/>
    <path d="M-39.1076 1.25537L256.619 185.827" stroke="white" stroke-width="1.5" stroke-miterlimit="10"/>
    <path d="M19.5842 1.25537L337.916 131.032" stroke="white" stroke-width="1.5" stroke-miterlimit="10"/>
    <path d="M82.3138 1.38794L521.121 137.511" stroke="white" stroke-width="1.5" stroke-miterlimit="10"/>
    <path d="M142.627 1.25537L573.849 103.888" stroke="white" stroke-width="1.5" stroke-miterlimit="10"/>
    <path d="M206.25 1.25537L696.499 89.8809" stroke="white" stroke-width="1.5" stroke-miterlimit="10"/>
    <path d="M265.75 1.25537L756.367 46.7162" stroke="white" stroke-width="1.5" stroke-miterlimit="10"/>
    <path d="M954.108 170.51L817.378 1.38794" stroke="white" stroke-width="1.5" stroke-miterlimit="10"/>
    <path d="M881.654 1.25537L1177.38 185.827" stroke="white" stroke-width="1.5" stroke-miterlimit="10"/>
    <path d="M940.345 1.25537L1258.67 131.032" stroke="white" stroke-width="1.5" stroke-miterlimit="10"/>
    <path d="M1003.07 1.38794L1441.88 137.511" stroke="white" stroke-width="1.5" stroke-miterlimit="10"/>
    <path d="M1063.39 1.25537L1494.61 103.888" stroke="white" stroke-width="1.5" stroke-miterlimit="10"/>
    <path d="M1127.01 1.25537L1617.26 89.8809" stroke="white" stroke-width="1.5" stroke-miterlimit="10"/>
    <path d="M1186.51 1.25537L1646 43.8316" stroke="white" stroke-width="1.5" stroke-miterlimit="10"/>
    <path d="M756.321 170.343V1.09375" stroke="white" stroke-width="1.5" stroke-miterlimit="10"/>
    <path d="M557.732 170.51L694.468 1.38794" stroke="white" stroke-width="1.5" stroke-miterlimit="10"/>
    <path d="M630.193 1.25537L334.467 185.827" stroke="white" stroke-width="1.5" stroke-miterlimit="10"/>
    <path d="M571.501 1.25537L253.169 131.032" stroke="white" stroke-width="1.5" stroke-miterlimit="10"/>
    <path d="M508.771 1.38794L69.9641 137.511" stroke="white" stroke-width="1.5" stroke-miterlimit="10"/>
    <path d="M448.459 1.25537L17.2366 103.888" stroke="white" stroke-width="1.5" stroke-miterlimit="10"/>
    <path d="M384.835 1.25537L-105.414 89.8809" stroke="white" stroke-width="1.5" stroke-miterlimit="10"/>
    <path d="M325.336 1.25537L-134.162 43.8316" stroke="white" stroke-width="1.5" stroke-miterlimit="10"/>
    <path d="M-23.6025 1.09375H1536.6" stroke="white" stroke-width="2" stroke-miterlimit="10"/>
</svg>
    