<svg width="393" height="66" viewBox="0 0 393 66" fill="none" xmlns="http://www.w3.org/2000/svg">
    <path d="M715.868 1.48193L377.265 106.519" stroke="white" stroke-width="1.15745" stroke-miterlimit="10"/>
    <path d="M669.324 1.37964L336.583 80.5747" stroke="white" stroke-width="1.15745" stroke-miterlimit="10"/>
    <path d="M620.235 1.37964L241.938 69.7661" stroke="white" stroke-width="1.15745" stroke-miterlimit="10"/>
    <path d="M574.323 1.37964L196.355 36.4543" stroke="white" stroke-width="1.15745" stroke-miterlimit="10"/>
    <path d="M-323.625 1.48193L14.9734 106.519" stroke="white" stroke-width="1.15745" stroke-miterlimit="10"/>
    <path d="M-277.086 1.37964L55.6597 80.5747" stroke="white" stroke-width="1.15745" stroke-miterlimit="10"/>
    <path d="M-227.992 1.37964L150.301 69.7661" stroke="white" stroke-width="1.15745" stroke-miterlimit="10"/>
    <path d="M-182.08 1.37964L196.498 36.4588" stroke="white" stroke-width="1.15745" stroke-miterlimit="10"/>
    <path d="M349.081 131.983L243.575 1.48193" stroke="white" stroke-width="1.15745" stroke-miterlimit="10"/>
    <path d="M293.173 1.37964L521.365 143.802" stroke="white" stroke-width="1.15745" stroke-miterlimit="10"/>
    <path d="M338.461 1.37964L584.093 101.52" stroke="white" stroke-width="1.15745" stroke-miterlimit="10"/>
    <path d="M386.861 1.48193L725.465 106.519" stroke="white" stroke-width="1.15745" stroke-miterlimit="10"/>
    <path d="M196.462 131.853V1.25488" stroke="white" stroke-width="1.15745" stroke-miterlimit="10"/>
    <path d="M43.2236 131.983L148.734 1.48193" stroke="white" stroke-width="1.15745" stroke-miterlimit="10"/>
    <path d="M99.1368 1.37964L-129.056 143.802" stroke="white" stroke-width="1.15745" stroke-miterlimit="10"/>
    <path d="M53.8482 1.37964L-191.788 101.52" stroke="white" stroke-width="1.15745" stroke-miterlimit="10"/>
    <path d="M5.44387 1.48193L-333.155 106.519" stroke="white" stroke-width="1.15745" stroke-miterlimit="10"/>
    <path d="M-405.354 1.25488H798.554" stroke="white" stroke-width="1.54327" stroke-miterlimit="10"/>
</svg>
    