<svg width="1512" height="144" viewBox="0 0 1512 144" fill="none" xmlns="http://www.w3.org/2000/svg">
  <path d="M2317.36 1.62549L1411.45 140.662" stroke="#2D2D2D" stroke-width="1.12702" stroke-miterlimit="10"/>
  <path d="M2115.24 1.79858L1209.34 140.835" stroke="#2D2D2D" stroke-width="1.12702" stroke-miterlimit="10"/>
  <path d="M1913.12 1.97095L1007.22 141" stroke="#2D2D2D" stroke-width="1.12702" stroke-miterlimit="10"/>
  <path d="M1711.01 2.13599L805.097 141.172" stroke="#2D2D2D" stroke-width="1.12702" stroke-miterlimit="10"/>
  <path d="M1508.89 2.30933L602.985 141.346" stroke="#2D2D2D" stroke-width="1.12702" stroke-miterlimit="10"/>
  <path d="M1306.77 2.48169L400.866 141.518" stroke="#2D2D2D" stroke-width="1.12702" stroke-miterlimit="10"/>
  <path d="M1104.66 2.65479L198.754 141.684" stroke="#2D2D2D" stroke-width="1.12702" stroke-miterlimit="10"/>
  <path d="M902.539 2.81982L-3.3653 141.856" stroke="#2D2D2D" stroke-width="1.12702" stroke-miterlimit="10"/>
  <path d="M700.42 2.99316L-205.485 142.03" stroke="#2D2D2D" stroke-width="1.12702" stroke-miterlimit="10"/>
  <path d="M498.308 3.16553L-407.597 142.202" stroke="#2D2D2D" stroke-width="1.12702" stroke-miterlimit="10"/>
  <path d="M296.188 3.33862L-609.716 142.368" stroke="#2D2D2D" stroke-width="1.12702" stroke-miterlimit="10"/>
  <path d="M94.0766 3.50366L-811.835 142.54" stroke="#2D2D2D" stroke-width="1.12702" stroke-miterlimit="10"/>
  <path d="M-811.835 1.62549L94.0766 140.662" stroke="#2D2D2D" stroke-width="1.12702" stroke-miterlimit="10"/>
  <path d="M-609.716 1.79858L296.188 140.835" stroke="#2D2D2D" stroke-width="1.12702" stroke-miterlimit="10"/>
  <path d="M-407.597 1.97095L498.308 141" stroke="#2D2D2D" stroke-width="1.12702" stroke-miterlimit="10"/>
  <path d="M-205.485 2.13599L700.42 141.172" stroke="#2D2D2D" stroke-width="1.12702" stroke-miterlimit="10"/>
  <path d="M-3.3653 2.30933L902.539 141.346" stroke="#2D2D2D" stroke-width="1.12702" stroke-miterlimit="10"/>
  <path d="M198.754 2.48169L1104.66 141.518" stroke="#2D2D2D" stroke-width="1.12702" stroke-miterlimit="10"/>
  <path d="M400.866 2.65479L1306.77 141.684" stroke="#2D2D2D" stroke-width="1.12702" stroke-miterlimit="10"/>
  <path d="M602.985 2.81982L1508.89 141.856" stroke="#2D2D2D" stroke-width="1.12702" stroke-miterlimit="10"/>
  <path d="M805.097 2.99316L1711.01 142.03" stroke="#2D2D2D" stroke-width="1.12702" stroke-miterlimit="10"/>
  <path d="M1007.22 3.16553L1913.12 142.202" stroke="#2D2D2D" stroke-width="1.12702" stroke-miterlimit="10"/>
  <path d="M1209.34 3.33862L2115.24 142.368" stroke="#2D2D2D" stroke-width="1.12702" stroke-miterlimit="10"/>
  <path d="M1411.45 3.50366L2317.36 142.54" stroke="#2D2D2D" stroke-width="1.12702" stroke-miterlimit="10"/>
  <path d="M1657.15 0.874023H-158.496" stroke="#2D2D2D" stroke-width="1.50269" stroke-miterlimit="10"/>
</svg>