<svg width="40" height="40" viewBox="0 0 40 40" fill="none" xmlns="http://www.w3.org/2000/svg">
<path d="M24.5068 32.7242L20.0737 27.6838C17.879 25.1885 17.619 24.092 17.7635 23.8557L19.4273 22.5157L26.1712 17.2407C26.715 16.8153 26.811 16.0298 26.3857 15.486C25.9603 14.9422 25.1747 14.8462 24.6308 15.2715L17.88 20.5518L15.8498 22.2088C15.3759 22.7175 15.0736 23.5873 15.4033 24.8243C15.7109 25.9787 16.5738 27.5043 18.411 29.5988L17.7325 30.937C17.2942 31.5462 16.8873 32.1118 16.5129 32.4995C16.1408 32.8847 15.4646 33.4508 14.5229 33.2635C13.5936 33.0787 13.1765 32.3103 12.9701 31.8173C12.7604 31.3165 12.5827 30.6373 12.39 29.9007L11.5542 26.7065C11.0899 24.9323 10.9296 24.4223 10.6275 24.047C10.5894 23.9997 10.5497 23.9538 10.5085 23.9098C10.1895 23.5683 9.73909 23.3582 8.08917 22.6968L7.99879 22.6605C6.3728 22.0088 5.03344 21.472 4.09664 20.9445C3.18907 20.4335 2.209 19.6907 2.09625 18.4372C2.07874 18.2423 2.07904 18.0463 2.09715 17.8515C2.21375 16.5984 3.19625 15.8586 4.10542 15.3506C5.04387 14.8263 6.3849 14.2939 8.01289 13.6476L27.9863 5.71753C30.0295 4.90632 31.7 4.24298 33.0127 3.94057C34.351 3.63225 35.7335 3.5996 36.8168 4.60168C37.8788 5.58398 38.006 6.9678 37.8737 8.36245C37.7423 9.74617 37.3107 11.5457 36.7782 13.7655L32.7453 30.5772C32.406 31.9922 32.1195 33.1868 31.7758 34.0535C31.4288 34.9292 30.8722 35.8693 29.7473 36.1668C28.609 36.4678 27.6682 35.9067 26.9532 35.3015C26.2508 34.7072 25.4498 33.7965 24.5068 32.7242Z" fill="#9A9A9A"/>
</svg>
