<svg width="32" height="32" viewBox="0 0 32 32" fill="none" xmlns="http://www.w3.org/2000/svg">
<path d="M19.6055 26.1793L16.0589 22.1471C14.3032 20.1508 14.0952 19.2736 14.2108 19.0845L15.5419 18.0125L20.9369 13.7925C21.372 13.4523 21.4488 12.8238 21.1085 12.3888C20.7683 11.9538 20.1397 11.877 19.7047 12.2172L14.304 16.4415L12.6799 17.7671C12.3007 18.174 12.0589 18.8699 12.3226 19.8595C12.5687 20.7829 13.259 22.0035 14.7288 23.6791L14.186 24.7496C13.8353 25.2369 13.5099 25.6895 13.2103 25.9996C12.9126 26.3077 12.3717 26.7607 11.6183 26.6108C10.8749 26.4629 10.5412 25.8483 10.376 25.4539C10.2083 25.0532 10.0662 24.5099 9.91203 23.9205L9.24336 21.3652C8.87195 19.9459 8.7437 19.5379 8.50202 19.2376C8.47151 19.1997 8.43974 19.1631 8.40679 19.1279C8.15163 18.8547 7.79127 18.6865 6.47134 18.1575L6.39903 18.1284C5.09825 17.6071 4.02675 17.1776 3.27731 16.7556C2.55126 16.3468 1.7672 15.7525 1.677 14.7497C1.66299 14.5939 1.66323 14.4371 1.67772 14.2812C1.771 13.2787 2.557 12.6869 3.28434 12.2805C4.0351 11.861 5.10793 11.4351 6.41031 10.9181L22.3891 4.57403C24.0236 3.92505 25.36 3.39439 26.4101 3.15245C27.4808 2.9058 28.5868 2.87968 29.4535 3.68135C30.3031 4.46719 30.4048 5.57424 30.2989 6.68996C30.1939 7.79693 29.8485 9.23656 29.4225 11.0124L26.1963 24.4617C25.9248 25.5937 25.6956 26.5495 25.4207 27.2428C25.1431 27.9433 24.6977 28.6955 23.7979 28.9335C22.8872 29.1743 22.1345 28.7253 21.5625 28.2412C21.0007 27.7657 20.3599 27.0372 19.6055 26.1793Z" fill="black"/>
</svg>
