<svg version="1.1" id="Layer_1" xmlns="http://www.w3.org/2000/svg" xmlns:xlink="http://www.w3.org/1999/xlink" x="0px" y="0px"
	 width="100%" viewBox="0 0 1280 1190" enable-background="new 0 0 1280 1190" xml:space="preserve">
<path fill="#010207" opacity="1.000000" stroke="none" 
	d="
M620.000000,1191.000000 
	C413.333344,1191.000000 207.166672,1191.000000 1.000000,1191.000000 
	C1.000000,794.333313 1.000000,397.666656 1.000000,1.000000 
	C427.666656,1.000000 854.333313,1.000000 1281.000000,1.000000 
	C1281.000000,397.666656 1281.000000,794.333313 1281.000000,1191.000000 
	C1060.833374,1191.000000 840.666687,1191.000000 620.000000,1191.000000 
M665.499329,653.239258 
	C669.665710,653.239258 673.880676,652.841064 677.986145,653.341125 
	C682.998047,653.951477 685.643921,651.782043 688.281677,647.770203 
	C717.629333,603.135620 747.161865,558.622498 776.647339,514.078491 
	C782.915100,504.609619 789.194031,495.148132 795.821777,485.149261 
	C795.821777,523.853821 795.821777,561.706482 795.821777,600.015808 
	C793.547546,600.015808 791.921387,600.015991 790.295227,600.015808 
	C776.463074,600.014160 762.629028,600.137756 748.800293,599.918762 
	C745.536926,599.867065 743.745789,600.932861 742.037231,603.600403 
	C734.498962,615.370361 726.740967,626.999512 719.071655,638.685608 
	C716.016479,643.341187 712.984863,648.012146 709.775757,652.931702 
	C710.866760,653.077942 711.341736,653.196960 711.816833,653.197266 
	C750.146667,653.221802 788.476562,653.266113 826.806091,653.158020 
	C828.542053,653.153137 830.666626,652.172607 831.942261,650.949646 
	C838.673950,644.496033 845.311951,637.932129 851.693542,631.135193 
	C853.192261,629.538879 854.350586,626.894653 854.355286,624.729614 
	C854.492737,561.068848 854.484741,497.407654 854.361694,433.746765 
	C854.358093,431.876709 853.301392,429.592499 851.988586,428.211853 
	C845.676392,421.573669 839.238953,415.038544 832.538452,408.796936 
	C830.828552,407.204071 828.013977,406.055725 825.677002,406.001892 
	C813.517883,405.721802 801.340271,406.124725 789.188354,405.717010 
	C784.735657,405.567566 782.400879,407.221313 780.029358,410.649780 
	C724.835815,490.442291 669.542847,570.166016 614.282654,649.912476 
	C613.677246,650.786255 613.264282,651.793396 612.494873,653.239258 
	C630.232422,653.239258 647.366028,653.239258 665.499329,653.239258 
M521.500061,405.854919 
	C499.669189,405.861053 477.837830,405.802399 456.008362,405.980713 
	C453.982086,405.997253 451.505249,407.028168 450.027802,408.424286 
	C443.251068,414.828094 436.664215,421.442535 430.234955,428.196259 
	C428.925385,429.571899 427.905853,431.872101 427.902100,433.748413 
	C427.774750,497.574615 427.766541,561.401123 427.875031,625.227295 
	C427.878235,627.114746 428.861023,629.434387 430.167694,630.812134 
	C436.585663,637.579407 443.149109,644.222412 449.945007,650.607178 
	C451.530365,652.096619 454.208435,653.103333 456.406982,653.146362 
	C468.400848,653.381836 480.405518,653.081116 492.398529,653.336914 
	C496.166199,653.417236 498.309265,652.237122 500.458099,649.124451 
	C549.814270,577.629883 599.297668,506.223145 648.747925,434.793488 
	C655.242920,425.411743 661.686035,415.994171 668.659546,405.857086 
	C666.517761,405.857086 665.260986,405.856812 664.004272,405.857147 
	C643.006592,405.863098 622.008362,405.947083 601.011841,405.792450 
	C597.799744,405.768799 595.962097,406.767548 594.194824,409.408569 
	C563.283691,455.601807 532.274658,501.729523 501.283173,547.868958 
	C496.420624,555.108154 491.539795,562.335144 486.560608,569.726318 
	C486.560608,532.748718 486.560608,496.244598 486.560608,459.551270 
	C501.681610,459.551270 516.002686,459.425476 530.318909,459.634155 
	C534.197998,459.690704 536.651123,458.638977 538.834412,455.251678 
	C548.749084,439.869385 558.958740,424.677277 569.047180,409.406830 
	C569.721802,408.385681 570.271729,407.282135 571.086243,405.854919 
	C554.488098,405.854919 538.494080,405.854919 521.500061,405.854919 
M686.066101,509.600708 
	C709.858887,475.245178 733.651611,440.889648 757.915405,405.853973 
	C737.413513,405.853973 718.090393,405.951324 698.770142,405.763336 
	C695.333435,405.729889 693.434631,406.971619 691.576599,409.661499 
	C644.009033,478.524048 596.367493,547.335449 548.742249,616.158142 
	C540.359131,628.272461 531.990845,640.396973 523.262329,653.028137 
	C525.182678,653.130981 526.476868,653.260498 527.771057,653.260498 
	C545.931641,653.260864 564.092957,653.162781 582.252258,653.307312 
	C585.416260,653.332458 587.298401,652.457703 589.141663,649.784302 
	C621.252930,603.210815 653.485718,556.721130 686.066101,509.600708 
M801.572754,773.499512 
	C801.572754,780.919189 801.572754,788.338806 801.572754,795.913269 
	C814.425537,795.913269 826.578735,795.938171 838.731750,795.894165 
	C841.468872,795.884277 851.117981,787.951233 850.829285,785.265259 
	C849.984741,777.406006 854.523682,768.541382 846.540222,762.196289 
	C850.984924,756.965393 850.985474,756.965393 850.988464,749.919556 
	C850.989502,747.421143 850.989136,744.922668 850.985474,742.424255 
	C850.976440,736.279785 843.173340,728.322388 837.101685,728.309326 
	C828.440247,728.290649 819.778687,728.309265 811.117188,728.311401 
	C808.029419,728.312195 804.941650,728.311523 801.572754,728.311523 
	C801.572754,743.559570 801.572754,758.029541 801.572754,773.499512 
M903.618591,728.303284 
	C900.300110,728.864685 896.371399,728.489746 893.785522,730.175171 
	C887.695557,734.144409 883.977051,739.785278 885.501404,747.778687 
	C886.022339,750.510315 885.505371,753.428894 885.581299,756.258911 
	C885.701294,760.732056 893.941284,768.819702 898.418884,768.851624 
	C904.582764,768.895569 910.748413,768.924438 916.910950,768.822937 
	C920.064636,768.771057 921.575867,770.085999 921.466980,773.263428 
	C921.409973,774.927734 921.935120,776.815247 921.310974,778.203369 
	C920.588074,779.810974 918.990479,782.020569 917.599731,782.153137 
	C912.648804,782.624817 907.607788,782.543762 902.639465,782.165039 
	C901.378296,782.068848 899.911804,780.282898 899.183289,778.927429 
	C898.566345,777.779602 898.879333,776.132019 898.775757,774.631958 
	C894.317017,774.631958 890.212219,774.631958 885.600159,774.631958 
	C885.600159,777.138611 885.598267,779.425964 885.600403,781.713318 
	C885.606628,788.254028 893.206055,795.905151 899.724548,795.915894 
	C906.555298,795.927124 913.398071,795.676453 920.211975,796.015442 
	C923.910095,796.199402 926.282776,794.724426 928.969482,792.469910 
	C933.834656,788.387634 936.081421,783.666138 935.127136,777.334656 
	C934.807983,775.216919 934.858826,772.983337 935.124268,770.850525 
	C935.620605,766.862061 933.855713,764.230713 931.340820,761.214722 
	C927.277771,756.342102 922.647583,754.734802 916.588379,755.369324 
	C912.799561,755.765991 908.917053,755.195801 905.105591,755.466492 
	C900.541748,755.790466 898.837769,754.072449 898.988159,749.433044 
	C899.232361,741.900513 899.007324,741.892395 906.430420,741.878540 
	C908.429688,741.874756 910.428894,741.873657 912.428162,741.877258 
	C920.609375,741.891846 920.609375,741.892700 922.042236,749.604858 
	C926.285522,749.604858 930.528809,749.604858 934.625122,749.604858 
	C936.238342,742.288574 934.984070,736.442627 928.910645,731.692383 
	C926.110535,729.502380 923.703979,728.040649 920.078308,728.234192 
	C914.928223,728.509033 909.752625,728.303589 903.618591,728.303284 
M543.616211,795.900330 
	C546.228638,795.900330 548.841003,795.900330 551.886169,795.900330 
	C551.886169,785.480042 551.126465,775.469666 552.076721,765.624268 
	C553.288391,753.071045 550.477600,742.875427 539.637146,735.625610 
	C538.690796,734.992737 538.002014,733.979553 537.178162,733.158508 
	C530.025330,726.030640 524.202148,726.047058 516.987488,733.221985 
	C513.803833,736.388000 510.819580,739.785828 507.410583,742.685547 
	C503.458344,746.047241 501.868378,749.798523 502.044281,755.160339 
	C502.484344,768.574524 502.189484,782.012756 502.189484,795.538391 
	C507.048767,795.538391 511.401520,795.538391 516.176025,795.538391 
	C516.176025,789.590881 516.176025,784.020142 516.176025,778.528198 
	C523.683167,778.528198 530.758179,778.528198 538.311523,778.528198 
	C538.311523,784.377869 538.311523,789.958984 538.311523,795.895935 
	C540.087402,795.895935 541.382385,795.895935 543.616211,795.900330 
M758.436768,795.913513 
	C760.382141,795.913513 762.327515,795.913513 764.734009,795.913513 
	C764.734009,787.433655 764.775085,779.474731 764.722412,771.516418 
	C764.670715,763.704895 766.612610,755.026794 763.831116,748.326660 
	C761.046692,741.619446 753.536377,736.853882 748.031921,731.302429 
	C743.499084,726.730896 735.937866,726.894836 731.298401,731.556519 
	C726.834106,736.042358 722.172424,740.353577 717.995605,745.092468 
	C716.430054,746.868713 715.205872,749.618774 715.160706,751.950745 
	C714.902771,765.275574 715.038025,778.608215 715.070190,791.938110 
	C715.073181,793.197510 715.287476,794.456299 715.388550,795.550659 
	C720.027039,795.550659 724.254272,795.550659 728.943604,795.550659 
	C728.943604,789.603943 728.943604,784.018799 728.943604,778.556396 
	C736.505371,778.556396 743.588318,778.556396 751.123047,778.556396 
	C751.123047,784.433655 751.123047,790.023865 751.123047,795.913696 
	C753.544983,795.913696 755.517395,795.913696 758.436768,795.913513 
M380.233368,773.475952 
	C377.666595,776.478516 375.099823,779.481018 372.320526,782.732178 
	C369.235168,779.495972 367.350067,777.106445 365.056763,775.210815 
	C361.695068,772.432129 360.496552,769.177673 360.707611,764.812378 
	C361.052979,757.670349 360.801025,750.499329 360.801025,743.340576 
	C360.801025,738.428406 360.801025,733.516235 360.801025,728.616699 
	C355.828979,728.616699 351.588135,728.616699 347.066803,728.616699 
	C347.066803,737.116699 347.048401,745.257996 347.072144,753.399170 
	C347.094513,761.054932 345.076660,769.576599 347.795715,776.122498 
	C350.508514,782.653442 358.078217,787.118652 363.333252,792.665039 
	C365.534790,794.988586 367.814331,795.944580 371.082306,796.062500 
	C375.427429,796.219177 378.668854,795.021118 381.494507,791.734253 
	C384.091217,788.713745 386.851837,785.730286 389.978241,783.292175 
	C395.425842,779.043762 397.283447,773.893555 396.907990,766.973633 
	C396.322601,756.183899 396.750397,745.339111 396.748962,734.517700 
	C396.748688,732.583435 396.748932,730.649231 396.748932,728.608887 
	C391.880005,728.608887 387.650970,728.608887 383.065430,728.608887 
	C383.065430,741.572327 383.165649,754.200012 382.965118,766.822876 
	C382.932343,768.887451 381.573700,770.931091 380.233368,773.475952 
M467.862823,794.157715 
	C467.862823,790.385071 467.862823,786.612488 467.862823,782.376648 
	C463.777069,782.376648 460.189606,782.376648 456.426331,782.376648 
	C456.426331,768.658997 456.426331,755.424866 456.426331,741.754517 
	C460.283875,741.754517 463.873322,741.754517 467.518066,741.754517 
	C467.518066,737.107178 467.518066,732.906616 467.518066,728.623169 
	C455.258759,728.623169 443.375824,728.623169 431.474060,728.623169 
	C431.474060,733.185425 431.474060,737.409790 431.474060,742.057983 
	C435.400024,742.057983 438.981750,742.057983 442.370972,742.057983 
	C442.370972,755.694275 442.370972,768.896057 442.370972,782.662720 
	C438.414276,782.662720 434.866638,782.662720 431.416382,782.662720 
	C431.416382,787.339966 431.416382,791.438904 431.416382,795.918457 
	C441.137665,795.918457 450.581940,795.976746 460.024597,795.880188 
	C462.594757,795.853882 465.160156,795.361084 467.862823,794.157715 
M680.135376,782.399170 
	C672.225891,782.399170 664.316406,782.399170 656.135559,782.399170 
	C656.135559,772.864136 656.135498,764.064514 656.135498,755.264893 
	C656.135498,746.365967 656.135559,737.466980 656.135559,728.564087 
	C651.247437,728.564087 647.163269,728.564087 642.874939,728.564087 
	C642.874939,751.085510 642.874939,773.328003 642.874939,795.915344 
	C654.248596,795.915344 665.379700,795.915344 676.510803,795.915344 
	C678.983948,795.915344 681.457031,795.915344 684.388550,795.915344 
	C684.388550,791.973083 684.604187,788.322571 684.235474,784.732056 
	C684.144348,783.844788 682.154846,783.152466 680.135376,782.399170 
z"/>
<path fill="#FEFEFC" opacity="1.000000" stroke="none" 
	d="
M664.999512,653.239258 
	C647.366028,653.239258 630.232422,653.239258 612.494873,653.239258 
	C613.264282,651.793396 613.677246,650.786255 614.282654,649.912476 
	C669.542847,570.166016 724.835815,490.442291 780.029358,410.649780 
	C782.400879,407.221313 784.735657,405.567566 789.188354,405.717010 
	C801.340271,406.124725 813.517883,405.721802 825.677002,406.001892 
	C828.013977,406.055725 830.828552,407.204071 832.538452,408.796936 
	C839.238953,415.038544 845.676392,421.573669 851.988586,428.211853 
	C853.301392,429.592499 854.358093,431.876709 854.361694,433.746765 
	C854.484741,497.407654 854.492737,561.068848 854.355286,624.729614 
	C854.350586,626.894653 853.192261,629.538879 851.693542,631.135193 
	C845.311951,637.932129 838.673950,644.496033 831.942261,650.949646 
	C830.666626,652.172607 828.542053,653.153137 826.806091,653.158020 
	C788.476562,653.266113 750.146667,653.221802 711.816833,653.197266 
	C711.341736,653.196960 710.866760,653.077942 709.775757,652.931702 
	C712.984863,648.012146 716.016479,643.341187 719.071655,638.685608 
	C726.740967,626.999512 734.498962,615.370361 742.037231,603.600403 
	C743.745789,600.932861 745.536926,599.867065 748.800293,599.918762 
	C762.629028,600.137756 776.463074,600.014160 790.295227,600.015808 
	C791.921387,600.015991 793.547546,600.015808 795.821777,600.015808 
	C795.821777,561.706482 795.821777,523.853821 795.821777,485.149261 
	C789.194031,495.148132 782.915100,504.609619 776.647339,514.078491 
	C747.161865,558.622498 717.629333,603.135620 688.281677,647.770203 
	C685.643921,651.782043 682.998047,653.951477 677.986145,653.341125 
	C673.880676,652.841064 669.665710,653.239258 664.999512,653.239258 
z"/>
<path fill="#FEFEFC" opacity="1.000000" stroke="none" 
	d="
M522.000122,405.854919 
	C538.494080,405.854919 554.488098,405.854919 571.086243,405.854919 
	C570.271729,407.282135 569.721802,408.385681 569.047180,409.406830 
	C558.958740,424.677277 548.749084,439.869385 538.834412,455.251678 
	C536.651123,458.638977 534.197998,459.690704 530.318909,459.634155 
	C516.002686,459.425476 501.681610,459.551270 486.560608,459.551270 
	C486.560608,496.244598 486.560608,532.748718 486.560608,569.726318 
	C491.539795,562.335144 496.420624,555.108154 501.283173,547.868958 
	C532.274658,501.729523 563.283691,455.601807 594.194824,409.408569 
	C595.962097,406.767548 597.799744,405.768799 601.011841,405.792450 
	C622.008362,405.947083 643.006592,405.863098 664.004272,405.857147 
	C665.260986,405.856812 666.517761,405.857086 668.659546,405.857086 
	C661.686035,415.994171 655.242920,425.411743 648.747925,434.793488 
	C599.297668,506.223145 549.814270,577.629883 500.458099,649.124451 
	C498.309265,652.237122 496.166199,653.417236 492.398529,653.336914 
	C480.405518,653.081116 468.400848,653.381836 456.406982,653.146362 
	C454.208435,653.103333 451.530365,652.096619 449.945007,650.607178 
	C443.149109,644.222412 436.585663,637.579407 430.167694,630.812134 
	C428.861023,629.434387 427.878235,627.114746 427.875031,625.227295 
	C427.766541,561.401123 427.774750,497.574615 427.902100,433.748413 
	C427.905853,431.872101 428.925385,429.571899 430.234955,428.196259 
	C436.664215,421.442535 443.251068,414.828094 450.027802,408.424286 
	C451.505249,407.028168 453.982086,405.997253 456.008362,405.980713 
	C477.837830,405.802399 499.669189,405.861053 522.000122,405.854919 
z"/>
<path fill="#FDFDFB" opacity="1.000000" stroke="none" 
	d="
M685.879089,509.906921 
	C653.485718,556.721130 621.252930,603.210815 589.141663,649.784302 
	C587.298401,652.457703 585.416260,653.332458 582.252258,653.307312 
	C564.092957,653.162781 545.931641,653.260864 527.771057,653.260498 
	C526.476868,653.260498 525.182678,653.130981 523.262329,653.028137 
	C531.990845,640.396973 540.359131,628.272461 548.742249,616.158142 
	C596.367493,547.335449 644.009033,478.524048 691.576599,409.661499 
	C693.434631,406.971619 695.333435,405.729889 698.770142,405.763336 
	C718.090393,405.951324 737.413513,405.853973 757.915405,405.853973 
	C733.651611,440.889648 709.858887,475.245178 685.879089,509.906921 
z"/>
<path fill="#F7F7F7" opacity="1.000000" stroke="none" 
	d="
M801.572754,772.999512 
	C801.572754,758.029541 801.572754,743.559570 801.572754,728.311523 
	C804.941650,728.311523 808.029419,728.312195 811.117188,728.311401 
	C819.778687,728.309265 828.440247,728.290649 837.101685,728.309326 
	C843.173340,728.322388 850.976440,736.279785 850.985474,742.424255 
	C850.989136,744.922668 850.989502,747.421143 850.988464,749.919556 
	C850.985474,756.965393 850.984924,756.965393 846.540222,762.196289 
	C854.523682,768.541382 849.984741,777.406006 850.829285,785.265259 
	C851.117981,787.951233 841.468872,795.884277 838.731750,795.894165 
	C826.578735,795.938171 814.425537,795.913269 801.572754,795.913269 
	C801.572754,788.338806 801.572754,780.919189 801.572754,772.999512 
M816.709045,741.895935 
	C816.162292,742.519897 815.166382,743.127014 815.142273,743.770630 
	C814.995056,747.692749 815.068787,751.623108 815.068787,755.976868 
	C820.902466,755.976868 826.334167,755.752808 831.737610,756.047241 
	C836.113464,756.285706 837.904480,754.625305 837.426636,750.316284 
	C837.299744,749.171814 837.326111,747.994263 837.423462,746.843933 
	C837.725220,743.280151 836.292603,741.673401 832.568604,741.818054 
	C827.610657,742.010559 822.639648,741.867188 816.709045,741.895935 
M815.637146,782.189331 
	C821.452148,782.262268 827.267090,782.335449 833.082092,782.408081 
	C835.831238,782.442383 837.548950,781.500488 837.359070,778.334717 
	C837.230164,776.184509 837.826843,773.902710 837.291992,771.894775 
	C836.917664,770.489441 835.234924,768.472778 834.042603,768.405945 
	C827.806396,768.056458 821.540222,768.242737 815.089172,768.242737 
	C815.089172,773.085999 815.089172,777.231812 815.637146,782.189331 
z"/>
<path fill="#F5F5F4" opacity="1.000000" stroke="none" 
	d="
M904.103271,728.303284 
	C909.752625,728.303589 914.928223,728.509033 920.078308,728.234192 
	C923.703979,728.040649 926.110535,729.502380 928.910645,731.692383 
	C934.984070,736.442627 936.238342,742.288574 934.625122,749.604858 
	C930.528809,749.604858 926.285522,749.604858 922.039856,749.604675 
	C920.609375,741.892700 920.609375,741.891846 912.428162,741.877258 
	C910.428894,741.873657 908.429688,741.874756 906.430420,741.878540 
	C899.007324,741.892395 899.232361,741.900513 898.988159,749.433044 
	C898.837769,754.072449 900.541748,755.790466 905.105591,755.466492 
	C908.917053,755.195801 912.799561,755.765991 916.588379,755.369324 
	C922.647583,754.734802 927.277771,756.342102 931.340820,761.214722 
	C933.855713,764.230713 935.620605,766.862061 935.124268,770.850525 
	C934.858826,772.983337 934.807983,775.216919 935.127136,777.334656 
	C936.081421,783.666138 933.834656,788.387634 928.969482,792.469910 
	C926.282776,794.724426 923.910095,796.199402 920.211975,796.015442 
	C913.398071,795.676453 906.555298,795.927124 899.724548,795.915894 
	C893.206055,795.905151 885.606628,788.254028 885.600403,781.713318 
	C885.598267,779.425964 885.600159,777.138611 885.600159,774.631958 
	C890.212219,774.631958 894.317017,774.631958 898.775757,774.631958 
	C898.879333,776.132019 898.566345,777.779602 899.183289,778.927429 
	C899.911804,780.282898 901.378296,782.068848 902.639465,782.165039 
	C907.607788,782.543762 912.648804,782.624817 917.599731,782.153137 
	C918.990479,782.020569 920.588074,779.810974 921.310974,778.203369 
	C921.935120,776.815247 921.409973,774.927734 921.466980,773.263428 
	C921.575867,770.085999 920.064636,768.771057 916.910950,768.822937 
	C910.748413,768.924438 904.582764,768.895569 898.418884,768.851624 
	C893.941284,768.819702 885.701294,760.732056 885.581299,756.258911 
	C885.505371,753.428894 886.022339,750.510315 885.501404,747.778687 
	C883.977051,739.785278 887.695557,734.144409 893.785522,730.175171 
	C896.371399,728.489746 900.300110,728.864685 904.103271,728.303284 
z"/>
<path fill="#F6F6F6" opacity="1.000000" stroke="none" 
	d="
M543.146851,795.898132 
	C541.382385,795.895935 540.087402,795.895935 538.311523,795.895935 
	C538.311523,789.958984 538.311523,784.377869 538.311523,778.528198 
	C530.758179,778.528198 523.683167,778.528198 516.176025,778.528198 
	C516.176025,784.020142 516.176025,789.590881 516.176025,795.538391 
	C511.401520,795.538391 507.048767,795.538391 502.189484,795.538391 
	C502.189484,782.012756 502.484344,768.574524 502.044281,755.160339 
	C501.868378,749.798523 503.458344,746.047241 507.410583,742.685547 
	C510.819580,739.785828 513.803833,736.388000 516.987488,733.221985 
	C524.202148,726.047058 530.025330,726.030640 537.178162,733.158508 
	C538.002014,733.979553 538.690796,734.992737 539.637146,735.625610 
	C550.477600,742.875427 553.288391,753.071045 552.076721,765.624268 
	C551.126465,775.469666 551.886169,785.480042 551.886169,795.900330 
	C548.841003,795.900330 546.228638,795.900330 543.146851,795.898132 
M538.235168,762.468628 
	C540.393250,752.360474 532.769775,748.061829 526.989136,742.686279 
	C520.195496,748.735840 512.599915,754.028259 516.750000,764.980774 
	C523.094055,764.980774 529.699585,765.023193 536.302551,764.913269 
	C536.942139,764.902527 537.565979,763.948120 538.235168,762.468628 
z"/>
<path fill="#F6F6F6" opacity="1.000000" stroke="none" 
	d="
M757.963257,795.913574 
	C755.517395,795.913696 753.544983,795.913696 751.123047,795.913696 
	C751.123047,790.023865 751.123047,784.433655 751.123047,778.556396 
	C743.588318,778.556396 736.505371,778.556396 728.943604,778.556396 
	C728.943604,784.018799 728.943604,789.603943 728.943604,795.550659 
	C724.254272,795.550659 720.027039,795.550659 715.388550,795.550659 
	C715.287476,794.456299 715.073181,793.197510 715.070190,791.938110 
	C715.038025,778.608215 714.902771,765.275574 715.160706,751.950745 
	C715.205872,749.618774 716.430054,746.868713 717.995605,745.092468 
	C722.172424,740.353577 726.834106,736.042358 731.298401,731.556519 
	C735.937866,726.894836 743.499084,726.730896 748.031921,731.302429 
	C753.536377,736.853882 761.046692,741.619446 763.831116,748.326660 
	C766.612610,755.026794 764.670715,763.704895 764.722412,771.516418 
	C764.775085,779.474731 764.734009,787.433655 764.734009,795.913513 
	C762.327515,795.913513 760.382141,795.913513 757.963257,795.913574 
M731.740845,750.508179 
	C726.412109,754.402283 729.492310,759.804443 728.635132,764.663696 
	C736.422852,764.663696 743.629272,764.663696 750.277893,764.663696 
	C754.364441,753.442871 746.219543,748.554749 739.987305,742.732056 
	C739.617615,742.842285 739.427246,742.841492 739.331055,742.936218 
	C736.964783,745.268860 734.608398,747.611694 731.740845,750.508179 
z"/>
<path fill="#F3F4F3" opacity="1.000000" stroke="none" 
	d="
M380.530609,773.230164 
	C381.573700,770.931091 382.932343,768.887451 382.965118,766.822876 
	C383.165649,754.200012 383.065430,741.572327 383.065430,728.608887 
	C387.650970,728.608887 391.880005,728.608887 396.748932,728.608887 
	C396.748932,730.649231 396.748688,732.583435 396.748962,734.517700 
	C396.750397,745.339111 396.322601,756.183899 396.907990,766.973633 
	C397.283447,773.893555 395.425842,779.043762 389.978241,783.292175 
	C386.851837,785.730286 384.091217,788.713745 381.494507,791.734253 
	C378.668854,795.021118 375.427429,796.219177 371.082306,796.062500 
	C367.814331,795.944580 365.534790,794.988586 363.333252,792.665039 
	C358.078217,787.118652 350.508514,782.653442 347.795715,776.122498 
	C345.076660,769.576599 347.094513,761.054932 347.072144,753.399170 
	C347.048401,745.257996 347.066803,737.116699 347.066803,728.616699 
	C351.588135,728.616699 355.828979,728.616699 360.801025,728.616699 
	C360.801025,733.516235 360.801025,738.428406 360.801025,743.340576 
	C360.801025,750.499329 361.052979,757.670349 360.707611,764.812378 
	C360.496552,769.177673 361.695068,772.432129 365.056763,775.210815 
	C367.350067,777.106445 369.235168,779.495972 372.320526,782.732178 
	C375.099823,779.481018 377.666595,776.478516 380.530609,773.230164 
z"/>
<path fill="#F5F5F4" opacity="1.000000" stroke="none" 
	d="
M467.795288,794.620056 
	C465.160156,795.361084 462.594757,795.853882 460.024597,795.880188 
	C450.581940,795.976746 441.137665,795.918457 431.416382,795.918457 
	C431.416382,791.438904 431.416382,787.339966 431.416382,782.662720 
	C434.866638,782.662720 438.414276,782.662720 442.370972,782.662720 
	C442.370972,768.896057 442.370972,755.694275 442.370972,742.057983 
	C438.981750,742.057983 435.400024,742.057983 431.474060,742.057983 
	C431.474060,737.409790 431.474060,733.185425 431.474060,728.623169 
	C443.375824,728.623169 455.258759,728.623169 467.518066,728.623169 
	C467.518066,732.906616 467.518066,737.107178 467.518066,741.754517 
	C463.873322,741.754517 460.283875,741.754517 456.426331,741.754517 
	C456.426331,755.424866 456.426331,768.658997 456.426331,782.376648 
	C460.189606,782.376648 463.777069,782.376648 467.862823,782.376648 
	C467.862823,786.612488 467.862823,790.385071 467.795288,794.620056 
z"/>
<path fill="#F7F7F7" opacity="1.000000" stroke="none" 
	d="
M680.586670,782.384888 
	C682.154846,783.152466 684.144348,783.844788 684.235474,784.732056 
	C684.604187,788.322571 684.388550,791.973083 684.388550,795.915344 
	C681.457031,795.915344 678.983948,795.915344 676.510803,795.915344 
	C665.379700,795.915344 654.248596,795.915344 642.874939,795.915344 
	C642.874939,773.328003 642.874939,751.085510 642.874939,728.564087 
	C647.163269,728.564087 651.247437,728.564087 656.135559,728.564087 
	C656.135559,737.466980 656.135498,746.365967 656.135498,755.264893 
	C656.135498,764.064514 656.135559,772.864136 656.135559,782.399170 
	C664.316406,782.399170 672.225891,782.399170 680.586670,782.384888 
z"/>
<path fill="#050507" opacity="1.000000" stroke="none" 
	d="
M817.191650,741.882019 
	C822.639648,741.867188 827.610657,742.010559 832.568604,741.818054 
	C836.292603,741.673401 837.725220,743.280151 837.423462,746.843933 
	C837.326111,747.994263 837.299744,749.171814 837.426636,750.316284 
	C837.904480,754.625305 836.113464,756.285706 831.737610,756.047241 
	C826.334167,755.752808 820.902466,755.976868 815.068787,755.976868 
	C815.068787,751.623108 814.995056,747.692749 815.142273,743.770630 
	C815.166382,743.127014 816.162292,742.519897 817.191650,741.882019 
z"/>
<path fill="#050507" opacity="1.000000" stroke="none" 
	d="
M815.363159,781.783447 
	C815.089172,777.231812 815.089172,773.085999 815.089172,768.242737 
	C821.540222,768.242737 827.806396,768.056458 834.042603,768.405945 
	C835.234924,768.472778 836.917664,770.489441 837.291992,771.894775 
	C837.826843,773.902710 837.230164,776.184509 837.359070,778.334717 
	C837.548950,781.500488 835.831238,782.442383 833.082092,782.408081 
	C827.267090,782.335449 821.452148,782.262268 815.363159,781.783447 
z"/>
<path fill="#050507" opacity="1.000000" stroke="none" 
	d="
M538.216187,762.950195 
	C537.565979,763.948120 536.942139,764.902527 536.302551,764.913269 
	C529.699585,765.023193 523.094055,764.980774 516.750000,764.980774 
	C512.599915,754.028259 520.195496,748.735840 526.989136,742.686279 
	C532.769775,748.061829 540.393250,752.360474 538.216187,762.950195 
z"/>
<path fill="#050507" opacity="1.000000" stroke="none" 
	d="
M731.995605,750.230469 
	C734.608398,747.611694 736.964783,745.268860 739.331055,742.936218 
	C739.427246,742.841492 739.617615,742.842285 739.987305,742.732056 
	C746.219543,748.554749 754.364441,753.442871 750.277893,764.663696 
	C743.629272,764.663696 736.422852,764.663696 728.635132,764.663696 
	C729.492310,759.804443 726.412109,754.402283 731.995605,750.230469 
z"/>
</svg>