<svg width="32" height="32" viewBox="0 0 32 32" fill="none" xmlns="http://www.w3.org/2000/svg">
<path fill-rule="evenodd" clip-rule="evenodd" d="M23.0826 2.57428C21.2915 2.33347 18.9972 2.33348 16.0763 2.3335H15.9237C13.0028 2.33348 10.7086 2.33347 8.91738 2.57428C7.08184 2.82107 5.62549 3.33711 4.48124 4.48138C3.33697 5.62564 2.82092 7.08199 2.57414 8.91752C2.33332 10.7087 2.33333 13.003 2.33334 15.9239V16.0764C2.33333 18.9974 2.33332 21.2916 2.57414 23.0828C2.82092 24.9183 3.33697 26.3747 4.48124 27.519C5.62549 28.6632 7.08184 29.1792 8.91738 29.426C10.7086 29.6668 13.0028 29.6668 15.9237 29.6668H16.0763C18.9972 29.6668 21.2915 29.6668 23.0826 29.426C24.9182 29.1792 26.3745 28.6632 27.5188 27.519C28.6631 26.3747 29.1791 24.9183 29.4258 23.0828C29.6667 21.2916 29.6666 18.9974 29.6666 16.0764V15.9239C29.6666 13.003 29.6667 10.7087 29.4258 8.91752C29.1791 7.08199 28.6631 5.62564 27.5188 4.48138C26.3745 3.33711 24.9182 2.82107 23.0826 2.57428ZM9.33334 8.3335C8.95782 8.3335 8.61394 8.54388 8.44298 8.87824C8.27202 9.2126 8.3028 9.61455 8.52268 9.91899L13.6155 16.9706L8.62625 21.9598C8.23572 22.3503 8.23572 22.9834 8.62625 23.3739C9.01677 23.7644 9.64993 23.7644 10.0405 23.3739L14.8016 18.6128L18.1523 23.2523C18.3403 23.5127 18.6418 23.6668 18.9629 23.6668H22.6666C23.0422 23.6668 23.3861 23.4564 23.5571 23.122C23.728 22.7878 23.6972 22.3858 23.4773 22.0814L18.3847 15.0298L23.3739 10.0406C23.7643 9.65008 23.7643 9.01691 23.3739 8.62639C22.9833 8.23587 22.3501 8.23587 21.9596 8.62639L17.1985 13.3875L13.8477 8.748C13.6597 8.4877 13.3581 8.3335 13.0371 8.3335H9.33334Z" fill="black"/>
</svg>
