<svg width="40" height="40" viewBox="0 0 40 40" fill="none" xmlns="http://www.w3.org/2000/svg">
<path fill-rule="evenodd" clip-rule="evenodd" d="M28.8533 3.21749C26.6143 2.91647 23.7465 2.91649 20.0953 2.9165H19.9046C16.2535 2.91649 13.3857 2.91647 11.1467 3.21749C8.85228 3.52597 7.03185 4.17102 5.60153 5.60135C4.1712 7.03169 3.52613 8.85212 3.21767 11.1465C2.91663 13.3856 2.91665 16.2534 2.91667 19.9045V20.0952C2.91665 23.7463 2.91663 26.6142 3.21767 28.8532C3.52613 31.1475 4.1712 32.968 5.60153 34.3983C7.03185 35.8287 8.85228 36.4737 11.1467 36.7822C13.3857 37.0832 16.2535 37.0832 19.9046 37.0832H20.0953C23.7465 37.0832 26.6143 37.0832 28.8533 36.7822C31.1478 36.4737 32.9681 35.8287 34.3985 34.3983C35.8288 32.968 36.4738 31.1475 36.7823 28.8532C37.0833 26.6142 37.0833 23.7463 37.0833 20.0952V19.9045C37.0833 16.2533 37.0833 13.3856 36.7823 11.1465C36.4738 8.85212 35.8288 7.03169 34.3985 5.60135C32.9681 4.17102 31.1478 3.52597 28.8533 3.21749ZM11.6667 10.4165C11.1973 10.4165 10.7674 10.6795 10.5537 11.0974C10.34 11.5154 10.3785 12.0178 10.6533 12.3984L17.0193 21.2128L10.7828 27.4493C10.2946 27.9375 10.2946 28.7288 10.7828 29.217C11.271 29.7052 12.0624 29.7052 12.5506 29.217L18.502 23.2657L22.6903 29.065C22.9253 29.3905 23.3023 29.5832 23.7036 29.5832H28.3333C28.8028 29.5832 29.2326 29.3202 29.4463 28.9022C29.66 28.4843 29.6215 27.9818 29.3466 27.6013L22.9808 18.7868L29.2173 12.5504C29.7053 12.0622 29.7053 11.2708 29.2173 10.7826C28.7291 10.2945 27.9376 10.2945 27.4495 10.7826L21.4981 16.734L17.3096 10.9346C17.0746 10.6093 16.6976 10.4165 16.2963 10.4165H11.6667Z" fill="#9A9A9A"/>
</svg>
